# Blender 5.1.2
# www.blender.org
mtllib frostbite arrow (1).mtl
o frostbite_arrow.001
v -0.003839 -1.312220 0.068410
v 0.105780 -1.203388 0.000011
v -0.003839 -1.312220 -0.068388
v -0.113410 -1.203388 0.000011
v -0.003839 -1.312220 0.068410
v -0.003839 -1.312220 -0.068388
v -0.059015 -1.283860 0.000011
v -0.003839 -1.162140 -0.099668
v -0.003839 -1.508468 0.000012
v -0.003839 -1.162140 0.099612
v -0.059015 -1.283860 0.000011
v -0.003839 -1.508468 0.000012
v -0.084601 1.557780 0.000011
v -0.000616 1.545452 -0.135268
v -0.000616 1.313540 0.000011
v -0.000616 1.681516 -0.070228
v -0.028643 1.778708 0.000011
v -0.000616 2.004660 0.000011
v -0.000616 1.545452 0.135292
v -0.084601 1.557780 0.000011
v -0.000616 1.313540 0.000011
v -0.000616 1.681516 0.070250
v -0.028643 1.778708 0.000011
v -0.000616 2.004660 0.000011
v 0.204999 -0.594348 0.000011
v 0.002558 -0.800932 -0.119908
v 0.002558 -0.951372 0.000011
v 0.002558 -0.800932 0.119933
v 0.204999 -0.594348 0.000011
v 0.002558 -0.951372 0.000011
v -0.223810 1.596508 0.035612
v -0.123028 1.495868 0.071212
v -0.139826 1.598948 0.000011
v -0.335040 1.707892 0.000011
v -0.043829 1.562644 0.000011
v -0.001447 1.374484 0.000011
v 0.121796 1.495868 0.071212
v 0.042597 1.562644 0.000011
v 0.000165 1.374484 0.000011
v 0.138593 1.598948 0.000011
v 0.222577 1.596508 0.035612
v 0.333758 1.707892 0.000011
v -0.003839 -1.427044 0.028252
v -0.074200 -1.361004 0.000011
v -0.003839 -1.580580 0.000012
v -0.003839 -1.312220 0.068410
v -0.113410 -1.203388 0.000011
v 0.105780 -1.203388 0.000011
v -0.003839 -1.312220 0.068410
v 0.066571 -1.361004 0.000011
v -0.003839 -1.427044 0.028252
v -0.003839 -1.580580 0.000012
v -0.003839 -1.162140 0.099612
v -0.003839 -0.871652 0.155691
v -0.136602 -1.072228 0.000011
v -0.059015 -1.283860 0.000011
v 0.050555 -1.283860 0.000011
v -0.003839 -1.162140 0.099612
v 0.128974 -1.072228 0.000011
v -0.003839 -0.871652 0.155691
v 0.002558 -0.800932 0.119933
v 0.002558 -1.437260 0.000012
v 0.204999 -0.594348 0.000011
v -0.199005 -0.594348 0.000011
v 0.002558 -1.437260 0.000012
v 0.002558 -0.800932 0.119933
v 0.188983 1.416628 0.000011
v 0.224969 1.512524 0.000011
v 0.121796 1.495868 0.071212
v 0.000165 1.374484 0.000011
v 0.222577 1.596508 0.035612
v 0.333758 1.707892 0.000011
v -0.123028 1.495868 0.071212
v -0.190216 1.416628 0.000011
v -0.001447 1.374484 0.000011
v -0.226203 1.512524 0.000011
v -0.223810 1.596508 0.035612
v -0.335040 1.707892 0.000011
v 0.128974 -1.072228 0.000011
v -0.003839 -0.871652 -0.155668
v -0.136602 -1.072228 0.000011
v 0.050555 -1.283860 0.000011
v -0.003839 -1.162140 0.099612
v -0.003839 -1.508468 0.000012
v -0.003839 -1.162140 -0.099668
v 0.050555 -1.283860 0.000011
v -0.003839 -1.508468 0.000012
v 0.083368 1.557780 0.000011
v -0.000616 1.545452 0.135292
v -0.000616 1.313540 0.000011
v -0.000616 1.681516 0.070250
v 0.027362 1.778708 0.000011
v -0.000616 2.004660 0.000011
v -0.000616 1.681516 -0.070228
v 0.083368 1.557780 0.000011
v -0.000616 1.545452 -0.135268
v -0.000616 1.313540 0.000011
v 0.027362 1.778708 0.000011
v -0.000616 2.004660 0.000011
v -0.199005 -0.594348 0.000011
v 0.002558 -0.800932 0.119933
v 0.002558 -0.951372 0.000011
v 0.002558 -0.800932 -0.119908
v -0.199005 -0.594348 0.000011
v 0.002558 -0.951372 0.000011
v -0.123028 1.495868 -0.071189
v -0.043829 1.562644 0.000011
v -0.001447 1.374484 0.000011
v -0.139826 1.598948 0.000011
v -0.223810 1.596508 -0.035667
v -0.335040 1.707892 0.000011
v 0.042597 1.562644 0.000011
v 0.121796 1.495868 -0.071189
v 0.000165 1.374484 0.000011
v 0.138593 1.598948 0.000011
v 0.222577 1.596508 -0.035667
v 0.333758 1.707892 0.000011
v -0.074200 -1.361004 0.000011
v -0.113410 -1.203388 0.000011
v -0.003839 -1.312220 -0.068388
v -0.003839 -1.427044 -0.028230
v -0.003839 -1.580580 0.000012
v -0.003839 -1.427044 -0.028230
v -0.003839 -1.312220 -0.068388
v 0.066571 -1.361004 0.000011
v 0.105780 -1.203388 0.000011
v -0.003839 -1.580580 0.000012
v -0.059015 -1.283860 0.000011
v -0.136602 -1.072228 0.000011
v -0.003839 -1.162140 -0.099668
v -0.003839 -0.871652 -0.155668
v -0.003839 -0.871652 -0.155668
v 0.128974 -1.072228 0.000011
v -0.003839 -1.162140 -0.099668
v 0.050555 -1.283860 0.000011
v 0.002558 -0.800932 -0.119908
v 0.204999 -0.594348 0.000011
v 0.002558 -1.437260 0.000012
v 0.002558 -0.800932 -0.119908
v 0.002558 -1.437260 0.000012
v -0.199005 -0.594348 0.000011
v 0.121796 1.495868 -0.071189
v 0.188983 1.416628 0.000011
v 0.000165 1.374484 0.000011
v 0.224969 1.512524 0.000011
v 0.222577 1.596508 -0.035667
v 0.333758 1.707892 0.000011
v -0.190216 1.416628 0.000011
v -0.123028 1.495868 -0.071189
v -0.001447 1.374484 0.000011
v -0.226203 1.512524 0.000011
v -0.223810 1.596508 -0.035667
v -0.335040 1.707892 0.000011
v -0.003839 -0.871652 0.155691
v 0.128974 -1.072228 0.000011
v -0.136602 -1.072228 0.000011
v -0.034210 1.513924 0.033932
v -0.034210 -0.998444 0.033932
v -0.048615 1.513924 0.000011
v -0.048614 -0.998444 0.000011
v -0.034210 1.513924 -0.033988
v -0.034210 -0.998444 -0.033988
v 0.036151 -0.998444 0.033932
v 0.036151 1.513924 0.033932
v 0.000995 1.513924 0.048012
v 0.000995 -0.998444 0.048012
v -0.034210 1.513924 0.033932
v -0.034210 -0.998444 0.033932
v 0.036151 -0.998444 0.033932
v 0.036151 1.513924 0.033932
v 0.050555 -0.998444 0.000011
v 0.050556 1.513924 0.000011
v 0.036151 -0.998444 -0.033988
v 0.036151 1.513924 -0.033988
v 0.036151 -0.998444 -0.033988
v 0.036151 1.513924 -0.033988
v 0.000995 -0.998444 -0.047987
v 0.000995 1.513924 -0.047987
v -0.034210 1.513924 -0.033988
v -0.034210 -0.998444 -0.033988
vn -0.7032 0.7110 -0.0000
vn 0.7032 0.7110 -0.0000
vn -0.7262 -0.1816 -0.6631
vn -0.6836 -0.1807 -0.7071
vn -0.7484 -0.1812 -0.6381
vn -0.6836 -0.1807 0.7071
vn -0.7262 -0.1816 0.6631
vn -0.7484 -0.1812 0.6381
vn -0.8404 -0.0078 -0.5420
vn -0.8398 -0.0392 -0.5415
vn -0.8259 -0.2832 -0.4876
vn -0.8083 0.2119 -0.5493
vn -0.8491 0.1337 -0.5110
vn -0.8605 0.1105 -0.4973
vn -0.8398 -0.0392 0.5415
vn -0.8404 -0.0079 0.5419
vn -0.8259 -0.2832 0.4876
vn -0.8083 0.2119 0.5493
vn -0.8491 0.1337 0.5110
vn -0.8605 0.1105 0.4973
vn -0.7400 0.4173 0.5274
vn -0.7400 0.4174 -0.5274
vn 0.2911 0.5664 0.7710
vn 0.4343 0.3870 0.8134
vn 0.2680 0.5755 0.7726
vn 0.3067 0.5584 0.7708
vn 0.4497 0.3708 0.8126
vn 0.5996 0.1341 0.7890
vn -0.4344 0.3869 0.8134
vn -0.4497 0.3708 0.8126
vn -0.5995 0.1341 0.7890
vn -0.2680 0.5755 0.7726
vn -0.2911 0.5664 0.7710
vn -0.3067 0.5584 0.7708
vn -0.5297 -0.1740 0.8302
vn -0.5883 -0.1961 0.7845
vn -0.4942 -0.1569 0.8551
vn -0.6048 -0.2042 0.7697
vn 0.6048 -0.2042 0.7697
vn 0.5884 -0.1961 0.7845
vn 0.5297 -0.1739 0.8301
vn 0.4942 -0.1569 0.8551
vn -0.6836 -0.1807 0.7072
vn -0.6674 -0.1806 0.7225
vn -0.6675 -0.1806 0.7224
vn 0.7262 -0.1816 0.6631
vn 0.6675 -0.1806 0.7224
vn 0.6836 -0.1807 0.7072
vn 0.6674 -0.1806 0.7224
vn 0.6120 -0.1491 0.7767
vn -0.6120 -0.1491 0.7767
vn 0.3708 -0.4497 0.8126
vn 0.5743 -0.2753 0.7710
vn 0.3870 -0.4343 0.8134
vn 0.1341 -0.5996 0.7890
vn 0.5664 -0.2911 0.7710
vn 0.5584 -0.3068 0.7708
vn -0.3870 -0.4344 0.8134
vn -0.3708 -0.4497 0.8126
vn -0.1341 -0.5996 0.7890
vn -0.5743 -0.2753 0.7709
vn -0.5664 -0.2911 0.7710
vn -0.5584 -0.3068 0.7708
vn -0.0000 0.6150 0.7885
vn 0.6836 -0.1807 0.7071
vn 0.7484 -0.1812 0.6380
vn 0.6836 -0.1807 -0.7071
vn 0.7262 -0.1816 -0.6631
vn 0.7484 -0.1812 -0.6380
vn 0.8404 -0.0079 0.5419
vn 0.8398 -0.0392 0.5415
vn 0.8259 -0.2832 0.4876
vn 0.8083 0.2119 0.5493
vn 0.8491 0.1337 0.5110
vn 0.8605 0.1105 0.4973
vn 0.8083 0.2119 -0.5493
vn 0.8404 -0.0079 -0.5419
vn 0.8398 -0.0392 -0.5415
vn 0.8259 -0.2833 -0.4875
vn 0.8491 0.1336 -0.5110
vn 0.8605 0.1105 -0.4973
vn 0.7400 0.4173 -0.5275
vn 0.7400 0.4173 0.5275
vn 0.4343 0.3870 -0.8134
vn 0.4497 0.3708 -0.8126
vn 0.5996 0.1341 -0.7890
vn 0.2680 0.5755 -0.7726
vn 0.2911 0.5664 -0.7710
vn 0.3068 0.5584 -0.7708
vn -0.4497 0.3708 -0.8126
vn -0.4343 0.3870 -0.8134
vn -0.5996 0.1341 -0.7890
vn -0.2680 0.5755 -0.7726
vn -0.2911 0.5664 -0.7710
vn -0.3068 0.5584 -0.7708
vn -0.5883 -0.1961 -0.7845
vn -0.6085 -0.2054 -0.7665
vn -0.6084 -0.2055 -0.7666
vn -0.5297 -0.1740 -0.8302
vn -0.4942 -0.1569 -0.8551
vn 0.5297 -0.1739 -0.8302
vn 0.6085 -0.2055 -0.7665
vn 0.5883 -0.1961 -0.7845
vn 0.6085 -0.2054 -0.7665
vn 0.4942 -0.1569 -0.8551
vn -0.6675 -0.1806 -0.7224
vn -0.6836 -0.1807 -0.7072
vn 0.6675 -0.1806 -0.7224
vn 0.6836 -0.1807 -0.7072
vn 0.6120 -0.1491 -0.7767
vn -0.6120 -0.1491 -0.7767
vn 0.3870 -0.4343 -0.8134
vn 0.3708 -0.4497 -0.8126
vn 0.1341 -0.5996 -0.7890
vn 0.5743 -0.2753 -0.7709
vn 0.5664 -0.2911 -0.7710
vn 0.5584 -0.3068 -0.7708
vn -0.3708 -0.4497 -0.8126
vn -0.3870 -0.4343 -0.8134
vn -0.1341 -0.5996 -0.7890
vn -0.5743 -0.2753 -0.7710
vn -0.5664 -0.2911 -0.7710
vn -0.5584 -0.3068 -0.7708
vn -0.0000 0.6150 -0.7885
vn -1.0000 -0.0000 -0.0001
vn -0.6992 -0.0000 0.7149
vn -0.6992 -0.0001 0.7149
vn -0.6992 -0.0000 -0.7149
vn 0.6991 -0.0000 0.7150
vn 0.6992 -0.0001 0.7149
vn 0.0002 -0.0000 1.0000
vn -0.6991 -0.0000 0.7150
vn 1.0000 -0.0000 0.0004
vn 0.6992 -0.0000 0.7149
vn 1.0000 -0.0000 -0.0003
vn 0.6992 -0.0000 -0.7149
vn -0.0001 -0.0000 -1.0000
vn 0.6991 -0.0000 -0.7150
vn 0.0002 -0.0000 -1.0000
vn -0.6991 -0.0000 -0.7150
vt 1.853560 3.550360
vt 1.864250 3.533220
vt 1.874950 3.550360
vt 1.864250 3.567510
vt 2.097990 3.549850
vt 2.078970 3.534280
vt 2.133080 3.549850
vt 2.078970 3.565420
vt 1.653980 3.549850
vt 1.655910 3.528710
vt 1.692140 3.549850
vt 1.634650 3.538870
vt 1.619460 3.549850
vt 1.584160 3.549850
vt 1.655910 3.570990
vt 1.634650 3.560820
vt 1.990250 3.549850
vt 2.022530 3.531110
vt 2.046040 3.549850
vt 2.022530 3.568590
vt 2.080580 3.584710
vt 2.064850 3.568980
vt 2.080960 3.571580
vt 2.097980 3.602110
vt 2.075290 3.556600
vt 2.045890 3.550010
vt 2.064850 3.530710
vt 2.075290 3.543090
vt 2.045890 3.549680
vt 2.080960 3.528110
vt 2.080580 3.514990
vt 2.097980 3.497580
vt 1.608150 3.550360
vt 1.618470 3.561340
vt 1.584160 3.550360
vt 1.626090 3.550360
vt 1.643090 3.567510
vt 1.643090 3.533220
vt 1.618470 3.539390
vt 1.649540 3.550360
vt 1.694930 3.550360
vt 1.663590 3.571100
vt 1.630520 3.558930
vt 1.630520 3.541800
vt 1.663590 3.529620
vt 1.705980 3.549330
vt 1.606550 3.549330
vt 1.738260 3.517760
vt 1.738260 3.580900
vt 2.052470 3.520280
vt 2.067460 3.514610
vt 2.052470 3.579420
vt 2.067460 3.585090
vt 1.630520 3.549850
vt 1.649540 3.565420
vt 1.595430 3.549850
vt 1.649540 3.534280
vt 2.074530 3.549850
vt 2.072600 3.570990
vt 2.036360 3.549850
vt 2.093860 3.560820
vt 2.109050 3.549850
vt 2.144350 3.549850
vt 2.093860 3.538870
vt 2.072600 3.528710
vt 1.738260 3.549850
vt 1.705980 3.568590
vt 1.682470 3.549850
vt 1.705980 3.531110
vt 1.663660 3.568980
vt 1.653220 3.556600
vt 1.682620 3.550010
vt 1.647550 3.571580
vt 1.647930 3.584710
vt 1.630530 3.602110
vt 1.653220 3.543090
vt 1.663660 3.530710
vt 1.682620 3.549680
vt 1.647550 3.528110
vt 1.647930 3.514990
vt 1.630530 3.497580
vt 2.110040 3.561340
vt 2.085410 3.567510
vt 2.102420 3.550360
vt 2.120360 3.550360
vt 2.144350 3.550360
vt 2.110040 3.539390
vt 2.085410 3.533220
vt 2.097990 3.558930
vt 2.064920 3.571100
vt 2.078970 3.550360
vt 2.033580 3.550360
vt 2.064920 3.529620
vt 2.097990 3.541800
vt 2.022530 3.549330
vt 1.990250 3.517760
vt 2.121960 3.549330
vt 1.990250 3.580900
vt 1.676040 3.520280
vt 1.661050 3.514610
vt 1.676040 3.579420
vt 1.661050 3.585090
vt 0.810684 1.448290
vt 1.203240 1.453600
vt 0.810684 1.453600
vt 1.203240 1.448290
vt 0.810684 1.442990
vt 1.203240 1.442990
vt 0.810684 1.442840
vt 1.203240 1.442840
vt 1.203240 1.453750
vt 0.810684 1.453750
s 1
usemtl Tip1Mtl.002
f 1/1/1 2/2/1 3/3/1
f 4/4/2 5/1/2 6/3/2
f 7/5/3 8/6/4 9/7/5
f 10/8/6 11/5/7 12/7/8
f 13/9/9 14/10/10 15/11/11
f 14/10/10 13/9/9 16/12/12
f 16/12/12 13/9/9 17/13/13
f 16/12/12 17/13/13 18/14/14
f 19/15/15 20/9/16 21/11/17
f 22/16/18 20/9/16 19/15/15
f 23/13/19 20/9/16 22/16/18
f 23/13/19 22/16/18 24/14/20
f 25/17/21 26/18/21 27/19/21
f 28/20/22 29/17/22 30/19/22
f 31/21/23 32/22/24 33/23/25
f 31/21/23 33/23/25 34/24/26
f 32/22/24 35/25/27 33/23/25
f 35/25/27 32/22/24 36/26/28
f 37/27/29 38/28/30 39/29/31
f 40/30/32 38/28/30 37/27/29
f 37/27/29 41/31/33 40/30/32
f 40/30/32 41/31/33 42/32/34
f 43/33/35 44/34/36 45/35/37
f 43/33/35 46/36/38 44/34/36
f 44/34/36 46/36/38 47/37/38
f 48/38/39 49/36/39 50/39/40
f 50/39/40 49/36/39 51/33/41
f 50/39/40 51/33/41 52/35/42
f 53/40/43 54/41/44 55/42/45
f 55/42/45 56/43/7 53/40/43
f 57/44/46 59/45/47 58/40/48
f 60/41/49 58/40/48 59/45/47
f 61/46/50 62/47/50 63/48/50
f 64/49/51 65/47/51 66/46/51
f 67/50/52 68/51/53 69/27/54
f 67/50/52 69/27/54 70/29/55
f 71/31/56 69/27/54 68/51/53
f 71/31/56 68/51/53 72/32/57
f 73/22/58 74/52/59 75/26/60
f 73/22/58 76/53/61 74/52/59
f 73/22/58 77/21/62 76/53/61
f 76/53/61 77/21/62 78/24/63
f 79/45/64 80/41/64 81/42/64
f 82/54/46 83/55/65 84/56/66
f 85/57/67 86/54/68 87/56/69
f 88/58/70 89/59/71 90/60/72
f 88/58/70 91/61/73 89/59/71
f 88/58/70 92/62/74 91/61/73
f 91/61/73 92/62/74 93/63/75
f 94/64/76 95/58/77 96/65/78
f 96/65/78 95/58/77 97/60/79
f 95/58/77 94/64/76 98/62/80
f 98/62/80 94/64/76 99/63/81
f 100/66/82 101/67/82 102/68/82
f 103/69/83 104/66/83 105/68/83
f 106/70/84 107/71/85 108/72/86
f 107/71/85 106/70/84 109/73/87
f 106/70/84 110/74/88 109/73/87
f 109/73/87 110/74/88 111/75/89
f 112/76/90 113/77/91 114/78/92
f 115/79/93 113/77/91 112/76/90
f 116/80/94 113/77/91 115/79/93
f 116/80/94 115/79/93 117/81/95
f 118/82/96 119/83/97 120/84/98
f 120/84/98 121/85/99 118/82/96
f 118/82/96 121/85/99 122/86/100
f 123/85/101 124/84/102 125/87/103
f 124/84/102 126/88/104 125/87/103
f 123/85/101 125/87/103 127/86/105
f 128/89/3 129/90/106 130/91/107
f 129/90/106 131/92/106 130/91/107
f 132/92/108 133/93/108 134/91/109
f 133/93/108 135/94/68 134/91/109
f 136/95/110 137/96/110 138/97/110
f 139/95/111 140/97/111 141/98/111
f 142/77/112 143/99/113 144/78/114
f 145/100/115 143/99/113 142/77/112
f 145/100/115 142/77/112 146/80/116
f 145/100/115 146/80/116 147/81/117
f 148/101/118 149/70/119 150/72/120
f 149/70/119 148/101/118 151/102/121
f 152/74/122 149/70/119 151/102/121
f 152/74/122 151/102/121 153/75/123
f 154/92/124 155/93/124 156/90/124
usemtl Stick1Mtl.003
f 159/103/125 158/104/126 157/105/127
f 159/103/125 160/106/125 158/104/126
f 161/107/128 160/106/125 159/103/125
f 160/106/125 161/107/128 162/108/128
f 163/109/129 164/110/130 165/106/131
f 163/109/129 165/106/131 166/103/131
f 166/103/131 165/106/131 167/111/132
f 166/103/131 167/111/132 168/112/126
f 171/103/133 170/104/134 169/105/134
f 171/103/133 172/106/135 170/104/134
f 173/107/136 172/106/135 171/103/133
f 173/107/136 174/108/136 172/106/135
f 177/106/137 176/109/136 175/110/138
f 177/106/137 178/103/139 176/109/136
f 180/111/128 178/103/139 177/106/137
f 180/111/128 179/112/140 178/103/139
