# Blender 5.1.2
# www.blender.org
mtllib frostbite body.mtl
o frostbite_body
v -0.473639 0.878482 0.032719
v -0.473639 0.878482 -0.032708
v -0.535532 0.940530 0.000052
v -0.411737 0.816434 0.000052
v -0.473639 -0.877600 0.032719
v -0.473639 -0.877600 -0.032708
v -0.411737 -0.814722 0.000052
v -0.535532 -0.939648 0.000052
v -0.227291 -1.757379 -0.035589
v -0.227291 -1.757379 0.035692
v -0.247055 -1.840646 0.000052
v -0.207527 -1.674060 0.000052
v -0.227291 1.758261 0.035692
v -0.227291 1.758261 -0.035589
v -0.247055 1.841528 0.000052
v -0.207527 1.674942 0.000052
v -0.670712 -1.276245 -0.027401
v -0.670712 -1.276245 0.027500
v -0.701780 -1.341718 0.000052
v -0.639644 -1.210825 0.000052
v -0.670712 1.277127 0.027500
v -0.670712 1.277127 -0.027401
v -0.701780 1.342600 0.000052
v -0.639644 1.211707 0.000052
v 0.238594 -2.388083 0.044419
v 0.238594 -2.388083 -0.044320
v 0.189463 -2.310730 0.000051
v 0.287734 -2.464554 0.000051
v 0.238594 2.388913 0.044419
v 0.238594 2.388913 -0.044320
v 0.287734 2.465436 0.000051
v 0.189463 2.311560 0.000051
v 0.405616 -2.601413 0.044419
v 0.405616 -2.601413 -0.044320
v 0.345964 -2.511298 0.000051
v 0.465268 -2.691528 0.000051
v 0.405616 2.602295 0.044419
v 0.405616 2.602295 -0.044320
v 0.465268 2.692410 0.000051
v 0.345964 2.512180 0.000051
v -0.153446 -2.356592 -0.035589
v -0.153446 -2.356592 0.035692
v -0.114800 -2.433945 0.000052
v -0.192083 -2.279239 0.000052
v -0.153446 2.357474 -0.035589
v -0.153446 2.357474 0.035692
v -0.192083 2.280121 0.000052
v -0.114800 2.434827 0.000052
v -0.180113 0.393976 0.000052
v -0.194342 0.326843 0.072499
v -0.706748 0.423755 0.000052
v -0.194342 0.326843 -0.072400
v -0.706748 0.423755 0.000052
v -0.180113 0.393976 0.000052
v -0.194342 -0.336182 0.072499
v -0.208562 -0.268997 0.000052
v 0.318064 -0.239270 0.000051
v -0.208562 -0.268997 0.000052
v 0.318064 -0.239270 0.000051
v -0.194342 -0.336182 -0.072400
v 0.287734 2.465436 0.000051
v -0.012164 2.531738 0.000051
v 0.238594 2.388913 0.044419
v 0.238594 -2.388083 0.044419
v -0.012164 -2.530856 0.000051
v 0.287734 -2.464554 0.000051
v 0.465268 2.692410 0.000051
v 0.111316 2.775678 0.000051
v 0.405616 2.602295 0.044419
v 0.405616 -2.601413 0.044419
v 0.111316 -2.774796 0.000051
v 0.465268 -2.691528 0.000051
v -0.153446 -2.356592 0.035692
v -0.405176 -2.468808 0.000052
v -0.114800 -2.433945 0.000052
v -0.114800 2.434827 0.000052
v -0.405176 2.469690 0.000052
v -0.153446 2.357474 0.035692
v 0.147694 -1.891644 0.000051
v 0.481594 -1.818546 0.000051
v 0.154237 -1.799039 0.045590
v 0.154237 1.799869 0.045590
v 0.481594 1.819427 0.000051
v 0.147694 1.892526 0.000051
v 0.264703 -2.199344 0.000051
v 0.638734 -2.042978 0.000051
v 0.251770 -2.080383 0.049820
v 0.251770 2.081213 0.049820
v 0.638734 2.043860 0.000051
v 0.264703 2.200226 0.000051
v 0.231241 1.426749 0.045501
v 0.515065 1.518524 0.000051
v 0.199678 1.513440 0.000051
v 0.199678 -1.512558 0.000051
v 0.515065 -1.517642 0.000051
v 0.231241 -1.425867 0.045501
v -0.247055 1.841528 0.000052
v -0.499001 1.700415 0.000052
v -0.227291 1.758261 0.035692
v -0.227291 -1.757379 0.035692
v -0.499001 -1.699585 0.000052
v -0.247055 -1.840646 0.000052
v -0.670712 -1.276245 0.027500
v -0.884093 -1.186182 0.000052
v -0.701780 -1.341718 0.000052
v -0.701780 1.342600 0.000052
v -0.884093 1.187012 0.000052
v -0.670712 1.277127 0.027500
v -0.473639 -0.877600 0.032719
v -0.676616 -0.697421 0.000052
v -0.535532 -0.939648 0.000052
v -0.535532 0.940530 0.000052
v -0.676616 0.698303 0.000052
v -0.473639 0.878482 0.032719
v -0.194342 -0.336182 0.072499
v -0.180113 -0.403314 0.000052
v 0.318064 -0.239270 0.000051
v -0.180113 0.393976 0.000052
v -0.194342 0.326843 0.072499
v 0.318064 0.229932 0.000051
v -0.208562 0.259711 0.000052
v -0.194342 0.326843 0.072499
v -0.706748 0.423755 0.000052
v -0.194342 -0.336182 0.072499
v -0.208562 -0.268997 0.000052
v -0.706748 -0.433041 0.000052
v -0.411737 -0.814722 0.000052
v -0.676616 -0.697421 0.000052
v -0.473639 -0.877600 0.032719
v -0.473639 0.878482 0.032719
v -0.676616 0.698303 0.000052
v -0.411737 0.816434 0.000052
v 0.231241 -1.425867 0.045501
v 0.515065 -1.517642 0.000051
v 0.262795 -1.338294 0.000051
v 0.262795 1.340057 0.000051
v 0.515065 1.518524 0.000051
v 0.231241 1.426749 0.045501
v -0.639644 -1.210825 0.000052
v -0.884093 -1.186182 0.000052
v -0.670712 -1.276245 0.027500
v -0.670712 1.277127 0.027500
v -0.884093 1.187012 0.000052
v -0.639644 1.211707 0.000052
v -0.192083 -2.279239 0.000052
v -0.405176 -2.468808 0.000052
v -0.153446 -2.356592 0.035692
v -0.153446 2.357474 0.035692
v -0.405176 2.469690 0.000052
v -0.192083 2.280121 0.000052
v -0.207527 -1.674060 0.000052
v -0.499001 -1.699585 0.000052
v -0.227291 -1.757379 0.035692
v -0.227291 1.758261 0.035692
v -0.499001 1.700415 0.000052
v -0.207527 1.674942 0.000052
v 0.154237 -1.799039 0.045590
v 0.481594 -1.818546 0.000051
v 0.160789 -1.707211 0.000051
v 0.160789 1.708093 0.000051
v 0.481594 1.819427 0.000051
v 0.154237 1.799869 0.045590
v 0.251770 -2.080383 0.049820
v 0.638734 -2.042978 0.000051
v 0.238846 -1.962201 0.000051
v 0.238846 1.963083 0.000051
v 0.638734 2.043860 0.000051
v 0.251770 2.081213 0.049820
v 0.345964 -2.511298 0.000051
v 0.111316 -2.774796 0.000051
v 0.405616 -2.601413 0.044419
v 0.405616 2.602295 0.044419
v 0.111316 2.775678 0.000051
v 0.345964 2.512180 0.000051
v 0.189463 -2.310730 0.000051
v -0.012164 -2.530856 0.000051
v 0.238594 -2.388083 0.044419
v 0.238594 2.388913 0.044419
v -0.012164 2.531738 0.000051
v 0.189463 2.311560 0.000051
v 0.251770 -2.080383 -0.049720
v 0.251770 -2.080383 0.049820
v 0.238846 -1.962201 0.000051
v 0.264703 -2.199344 0.000051
v 0.251770 2.081213 0.049820
v 0.251770 2.081213 -0.049720
v 0.238846 1.963083 0.000051
v 0.264703 2.200226 0.000051
v 0.154237 -1.799039 0.045590
v 0.154237 -1.799039 -0.045490
v 0.147694 -1.891644 0.000051
v 0.160789 -1.707211 0.000051
v 0.154237 1.799869 0.045590
v 0.154237 1.799869 -0.045490
v 0.160789 1.708093 0.000051
v 0.147694 1.892526 0.000051
v 0.231241 -1.425867 0.045501
v 0.231241 -1.425867 -0.045401
v 0.199678 -1.512558 0.000051
v 0.262795 -1.338294 0.000051
v 0.231241 1.426749 0.045501
v 0.231241 1.426749 -0.045401
v 0.262795 1.340057 0.000051
v 0.199678 1.513440 0.000051
v -0.180113 -0.403314 0.000052
v -0.194342 -0.336182 -0.072400
v -0.706748 -0.433041 0.000052
v -0.194342 -0.336182 0.072499
v -0.706748 -0.433041 0.000052
v -0.180113 -0.403314 0.000052
v -0.194342 0.326843 -0.072400
v -0.208562 0.259711 0.000052
v 0.318064 0.229932 0.000051
v -0.208562 0.259711 0.000052
v 0.318064 0.229932 0.000051
v -0.194342 0.326843 0.072499
v 0.238594 2.388913 -0.044320
v -0.012164 2.531738 0.000051
v 0.287734 2.465436 0.000051
v 0.287734 -2.464554 0.000051
v -0.012164 -2.530856 0.000051
v 0.238594 -2.388083 -0.044320
v 0.405616 2.602295 -0.044320
v 0.111316 2.775678 0.000051
v 0.465268 2.692410 0.000051
v 0.465268 -2.691528 0.000051
v 0.111316 -2.774796 0.000051
v 0.405616 -2.601413 -0.044320
v -0.114800 -2.433945 0.000052
v -0.405176 -2.468808 0.000052
v -0.153446 -2.356592 -0.035589
v -0.153446 2.357474 -0.035589
v -0.405176 2.469690 0.000052
v -0.114800 2.434827 0.000052
v 0.154237 -1.799039 -0.045490
v 0.481594 -1.818546 0.000051
v 0.147694 -1.891644 0.000051
v 0.147694 1.892526 0.000051
v 0.481594 1.819427 0.000051
v 0.154237 1.799869 -0.045490
v 0.251770 -2.080383 -0.049720
v 0.638734 -2.042978 0.000051
v 0.264703 -2.199344 0.000051
v 0.264703 2.200226 0.000051
v 0.638734 2.043860 0.000051
v 0.251770 2.081213 -0.049720
v 0.199678 1.513440 0.000051
v 0.515065 1.518524 0.000051
v 0.231241 1.426749 -0.045401
v 0.231241 -1.425867 -0.045401
v 0.515065 -1.517642 0.000051
v 0.199678 -1.512558 0.000051
v -0.227291 1.758261 -0.035589
v -0.499001 1.700415 0.000052
v -0.247055 1.841528 0.000052
v -0.247055 -1.840646 0.000052
v -0.499001 -1.699585 0.000052
v -0.227291 -1.757379 -0.035589
v -0.701780 -1.341718 0.000052
v -0.884093 -1.186182 0.000052
v -0.670712 -1.276245 -0.027401
v -0.670712 1.277127 -0.027401
v -0.884093 1.187012 0.000052
v -0.701780 1.342600 0.000052
v -0.535532 -0.939648 0.000052
v -0.676616 -0.697421 0.000052
v -0.473639 -0.877600 -0.032708
v -0.473639 0.878482 -0.032708
v -0.676616 0.698303 0.000052
v -0.535532 0.940530 0.000052
v -0.180113 -0.403314 0.000052
v -0.194342 -0.336182 -0.072400
v 0.318064 -0.239270 0.000051
v -0.194342 0.326843 -0.072400
v -0.180113 0.393976 0.000052
v 0.318064 0.229932 0.000051
v -0.194342 0.326843 -0.072400
v -0.208562 0.259711 0.000052
v -0.706748 0.423755 0.000052
v -0.208562 -0.268997 0.000052
v -0.194342 -0.336182 -0.072400
v -0.706748 -0.433041 0.000052
v -0.473639 -0.877600 -0.032708
v -0.676616 -0.697421 0.000052
v -0.411737 -0.814722 0.000052
v -0.411737 0.816434 0.000052
v -0.676616 0.698303 0.000052
v -0.473639 0.878482 -0.032708
v 0.262795 -1.338294 0.000051
v 0.515065 -1.517642 0.000051
v 0.231241 -1.425867 -0.045401
v 0.231241 1.426749 -0.045401
v 0.515065 1.518524 0.000051
v 0.262795 1.340057 0.000051
v -0.670712 -1.276245 -0.027401
v -0.884093 -1.186182 0.000052
v -0.639644 -1.210825 0.000052
v -0.639644 1.211707 0.000052
v -0.884093 1.187012 0.000052
v -0.670712 1.277127 -0.027401
v -0.153446 -2.356592 -0.035589
v -0.405176 -2.468808 0.000052
v -0.192083 -2.279239 0.000052
v -0.192083 2.280121 0.000052
v -0.405176 2.469690 0.000052
v -0.153446 2.357474 -0.035589
v -0.227291 -1.757379 -0.035589
v -0.499001 -1.699585 0.000052
v -0.207527 -1.674060 0.000052
v -0.207527 1.674942 0.000052
v -0.499001 1.700415 0.000052
v -0.227291 1.758261 -0.035589
v 0.160789 -1.707211 0.000051
v 0.481594 -1.818546 0.000051
v 0.154237 -1.799039 -0.045490
v 0.154237 1.799869 -0.045490
v 0.481594 1.819427 0.000051
v 0.160789 1.708093 0.000051
v 0.238846 -1.962201 0.000051
v 0.638734 -2.042978 0.000051
v 0.251770 -2.080383 -0.049720
v 0.251770 2.081213 -0.049720
v 0.638734 2.043860 0.000051
v 0.238846 1.963083 0.000051
v 0.405616 -2.601413 -0.044320
v 0.111316 -2.774796 0.000051
v 0.345964 -2.511298 0.000051
v 0.345964 2.512180 0.000051
v 0.111316 2.775678 0.000051
v 0.405616 2.602295 -0.044320
v 0.238594 -2.388083 -0.044320
v -0.012164 -2.530856 0.000051
v 0.189463 -2.310730 0.000051
v 0.189463 2.311560 0.000051
v -0.012164 2.531738 0.000051
v 0.238594 2.388913 -0.044320
v -0.122747 -0.735657 0.079249
v -0.122747 -0.735657 -0.079150
v -0.011210 -0.589459 0.000051
v -0.221315 -0.879312 0.000052
v -0.122747 0.736539 0.079249
v -0.122747 0.736539 -0.079150
v -0.221315 0.881024 0.000052
v -0.011210 0.590341 0.000051
v -0.211721 -0.229932 0.093291
v -0.151961 0.000415 0.000052
v -0.235751 0.000415 0.083839
v -0.211721 0.230762 0.093291
v -0.118607 -0.224796 0.000052
v -0.118607 0.225677 0.000052
v -0.194909 -0.317453 0.076101
v -0.194909 0.318335 0.076101
v -0.151961 0.000415 0.000052
v -0.211721 -0.229932 -0.093188
v -0.235751 0.000415 -0.083740
v -0.211721 0.230762 -0.093188
v -0.118607 -0.224796 0.000052
v -0.118607 0.225677 0.000052
v -0.194909 -0.317453 -0.076001
v -0.194909 0.318335 -0.076001
v 0.292405 -0.647253 0.076911
v 0.467302 -0.607306 0.000051
v 0.434704 -0.534207 0.046040
v 0.620365 -0.386298 0.000051
v 0.290866 -0.777316 0.000051
v 0.082408 -0.829144 0.084560
v 0.242662 -0.887820 0.000051
v -0.005279 -1.155573 0.000051
v -0.108203 -1.101151 0.059089
v -0.260483 -1.399512 0.000052
v -0.322718 -1.366361 0.035781
v -0.390290 -1.509186 0.000052
v -0.430538 -1.487915 0.023181
v -0.525884 -1.669806 0.000052
v 0.467302 0.608188 0.000051
v 0.290866 0.778198 0.000051
v 0.292405 0.648965 0.076911
v 0.434704 0.535089 0.046040
v 0.620365 0.387180 0.000051
v 0.082408 0.830026 0.084560
v 0.242662 0.889533 0.000051
v -0.005279 1.156454 0.000051
v -0.108203 1.102033 0.059089
v -0.260483 1.400394 0.000052
v -0.322718 1.367242 0.035781
v -0.390290 1.510898 0.000052
v -0.430538 1.488797 0.023181
v -0.525884 1.670688 0.000052
v -0.488723 -1.130048 0.117049
v -0.588128 -1.367191 0.000052
v -0.349853 -1.241434 0.000052
v -0.659633 -1.310278 0.060260
v -0.846905 -1.498135 0.000052
v -0.340160 -0.936276 0.143059
v -0.140567 -1.041644 0.000052
v -0.178772 -0.805383 0.095090
v -0.046157 -0.875058 0.000052
v -0.042314 -0.636203 0.057201
v 0.037498 -0.677863 0.000051
v 0.135391 -0.415195 0.000051
v -0.588128 1.368073 0.000052
v -0.488723 1.130930 0.117049
v -0.349853 1.242264 0.000052
v -0.659633 1.311160 0.060260
v -0.846905 1.498966 0.000052
v -0.340160 0.937158 0.143059
v -0.140567 1.042526 0.000052
v -0.178772 0.806213 0.095090
v -0.046157 0.875940 0.000052
v -0.042314 0.637085 0.057201
v 0.037498 0.678745 0.000051
v 0.135391 0.416077 0.000051
v -0.178790 -1.756497 0.054321
v -0.220532 -1.987726 0.034250
v -0.121226 -2.005573 0.000052
v -0.305960 -2.294544 0.000052
v -0.021353 -1.785394 0.000052
v -0.068441 -1.360394 0.085281
v 0.178798 -1.405478 0.000051
v 0.210406 -1.248230 0.000051
v 0.045157 -1.163199 0.065839
v 0.270328 -1.077390 0.000051
v 0.211045 -1.027222 0.028849
v 0.393007 -0.885278 0.016970
v 0.422338 -0.918430 0.000051
v 0.492745 -0.850415 0.000051
v 0.463135 -0.824890 0.014629
v 0.591358 -0.761182 0.000051
v -0.121226 2.006454 0.000052
v -0.178790 1.757379 0.054321
v -0.021353 1.786276 0.000052
v -0.220532 1.988608 0.034250
v -0.305960 2.295425 0.000052
v -0.068441 1.361276 0.085281
v 0.178798 1.406360 0.000051
v 0.210406 1.249060 0.000051
v 0.045157 1.164081 0.065839
v 0.270328 1.078220 0.000051
v 0.211045 1.028104 0.028849
v 0.393007 0.886990 0.016970
v 0.422338 0.919312 0.000051
v 0.492745 0.851297 0.000051
v 0.463135 0.825772 0.014629
v 0.591358 0.762012 0.000051
v -0.304826 -0.235016 0.000052
v -0.235751 0.000415 0.083839
v -0.304826 0.235898 0.000052
v -0.211721 -0.229932 0.093291
v -0.211721 0.230762 0.093291
v -0.194909 -0.317453 0.076101
v -0.194909 0.318335 0.076101
v -0.345407 -0.352316 0.000052
v -0.345407 0.353198 0.000052
v -0.261005 -0.421161 0.000052
v -0.261005 0.422043 0.000052
v -0.178322 -0.401602 0.085189
v -0.178322 0.402484 0.085189
v -0.198554 -0.509564 0.000052
v -0.198554 0.510446 0.000052
v -0.136256 -0.486633 0.066920
v -0.122747 -0.735657 0.079249
v -0.221315 -0.879312 0.000052
v -0.136256 0.487463 0.066920
v -0.122747 0.736539 0.079249
v -0.221315 0.881024 0.000052
v -0.121658 -2.307306 0.081680
v -0.133079 -2.465436 0.042081
v -0.063158 -2.462012 0.000052
v -0.140171 -2.633734 0.000052
v 0.014125 -2.300510 0.000051
v -0.090644 -2.150058 0.099859
v 0.074128 -2.168787 0.000051
v 0.007690 -2.033640 0.000051
v -0.101795 -2.021707 0.066381
v -0.012290 -1.889102 0.000051
v -0.078170 -1.881476 0.039922
v -0.047408 -1.699585 0.000052
v -0.121658 2.308188 0.081680
v -0.063158 2.462894 0.000052
v -0.133079 2.466266 0.042081
v -0.140171 2.634564 0.000052
v 0.014125 2.301392 0.000051
v -0.090644 2.150940 0.099859
v 0.074128 2.169617 0.000051
v 0.007690 2.034470 0.000051
v -0.101795 2.022589 0.066381
v -0.012290 1.889984 0.000051
v -0.078170 1.882358 0.039922
v -0.047408 1.700415 0.000052
v 0.435262 -2.303934 0.000051
v 0.385195 -2.069333 0.000051
v 0.197770 -2.090552 0.073131
v 0.277870 -1.802411 0.000051
v 0.287770 -2.379575 0.067549
v 0.088780 -1.798157 0.073131
v 0.532948 -2.550415 0.000051
v 0.136102 -1.422443 0.083572
v 0.422284 -2.607379 0.050719
v 0.349762 -1.447968 0.000051
v 0.709348 -2.808829 0.031369
v 0.291892 -1.293262 0.061970
v 0.772654 -2.767999 0.000051
v 0.425011 -1.365530 0.000051
v 0.831892 -2.901486 0.000051
v 0.453532 -1.187012 0.028582
v 0.514822 -1.220163 0.000051
v 0.633667 -1.096896 0.000051
v 0.781285 -2.922705 0.022010
v 0.831109 -3.034039 0.033440
v 0.917077 -3.026413 0.000051
v 0.888943 -3.188745 0.000051
v 0.831109 -3.176865 0.023092
v 0.778792 -3.350247 0.000051
v 0.197770 2.091434 0.073131
v 0.435262 2.304764 0.000051
v 0.287770 2.380457 0.067549
v 0.385195 2.071045 0.000051
v 0.532948 2.551297 0.000051
v 0.277870 1.803293 0.000051
v 0.422284 2.608261 0.050719
v 0.088780 1.799039 0.073131
v 0.709348 2.809711 0.031369
v 0.136102 1.423325 0.083572
v 0.772654 2.768881 0.000051
v 0.349762 1.448850 0.000051
v 0.831892 2.903198 0.000051
v 0.291892 1.294144 0.061970
v 0.781285 2.923587 0.022010
v 0.425011 1.366361 0.000051
v 0.831100 3.034921 0.033440
v 0.453532 1.188724 0.028582
v 0.514822 1.221875 0.000051
v 0.633667 1.097778 0.000051
v 0.917077 3.027295 0.000051
v 0.888943 3.189627 0.000051
v 0.831100 3.177747 0.023092
v 0.778792 3.352011 0.000051
v 0.197770 -2.090552 0.073131
v 0.140278 -2.455215 0.000051
v 0.287770 -2.379575 0.067549
v 0.311620 -2.664291 0.000051
v 0.010336 -2.110941 0.000051
v 0.422284 -2.607379 0.050719
v 0.088780 -1.798157 0.073131
v 0.646042 -2.849607 0.000051
v -0.100310 -1.793903 0.000052
v 0.709348 -2.808829 0.031369
v -0.077558 -1.396970 0.000052
v 0.730678 -2.943976 0.000051
v 0.136102 -1.422443 0.083572
v 0.781285 -2.922705 0.022010
v 0.158782 -1.220993 0.000051
v 0.745132 -3.040888 0.000051
v 0.291892 -1.293262 0.061970
v 0.831109 -3.034039 0.033440
v 0.392242 -1.153860 0.000051
v 0.453532 -1.187012 0.028582
v 0.633667 -1.096896 0.000051
v 0.773266 -3.164984 0.000051
v 0.831109 -3.176865 0.023092
v 0.778792 -3.350247 0.000051
v 0.197770 2.091434 0.073131
v 0.140278 2.456097 0.000051
v 0.010336 2.111823 0.000051
v 0.287770 2.380457 0.067549
v 0.088780 1.799039 0.073131
v 0.311620 2.665174 0.000051
v -0.100310 1.794785 0.000052
v 0.422284 2.608261 0.050719
v -0.077558 1.397852 0.000052
v 0.646042 2.850488 0.000051
v 0.136102 1.423325 0.083572
v 0.709348 2.809711 0.031369
v 0.158782 1.221875 0.000051
v 0.730678 2.944858 0.000051
v 0.291892 1.294144 0.061970
v 0.781285 2.923587 0.022010
v 0.392242 1.154742 0.000051
v 0.453532 1.188724 0.028582
v 0.633667 1.097778 0.000051
v 0.745132 3.042600 0.000051
v 0.831100 3.034921 0.033440
v 0.773266 3.165814 0.000051
v 0.831100 3.177747 0.023092
v 0.778792 3.352011 0.000051
v -0.121658 -2.307306 0.081680
v -0.202991 -2.468808 0.000052
v -0.133079 -2.465436 0.042081
v -0.140171 -2.633734 0.000052
v -0.257441 -2.314102 0.000052
v -0.255416 -2.132211 0.000052
v -0.090644 -2.150058 0.099859
v -0.211280 -2.008945 0.000052
v -0.101795 -2.021707 0.066381
v -0.144059 -1.873798 0.000052
v -0.078170 -1.881476 0.039922
v -0.047408 -1.699585 0.000052
v -0.121658 2.308188 0.081680
v -0.202991 2.469690 0.000052
v -0.257441 2.314984 0.000052
v -0.255416 2.133093 0.000052
v -0.133079 2.466266 0.042081
v -0.140171 2.634564 0.000052
v -0.090644 2.150940 0.099859
v -0.211280 2.009827 0.000052
v -0.101795 2.022589 0.066381
v -0.144059 1.874680 0.000052
v -0.078170 1.882358 0.039922
v -0.047408 1.700415 0.000052
v -0.211721 -0.229932 0.093291
v -0.151961 0.000415 0.000052
v -0.211721 0.230762 0.093291
v -0.118607 -0.224796 0.000052
v -0.118607 0.225677 0.000052
v -0.194909 -0.317453 0.076101
v -0.194909 0.318335 0.076101
v -0.044402 -0.282590 0.000052
v -0.044402 0.283472 0.000052
v -0.095639 -0.382043 0.000052
v -0.095639 0.382925 0.000052
v -0.178322 -0.401602 0.085189
v -0.178322 0.402484 0.085189
v -0.136256 -0.486633 0.066920
v -0.136256 0.487463 0.066920
v -0.073967 -0.463651 0.000052
v -0.011210 -0.589459 0.000051
v -0.122747 -0.735657 0.079249
v -0.073967 0.464532 0.000052
v -0.011210 0.590341 0.000051
v -0.122747 0.736539 0.079249
v -0.731138 -1.253314 0.000052
v -0.488723 -1.130048 0.117049
v -0.627593 -1.019544 0.000052
v -0.659633 -1.310278 0.060260
v -0.846905 -1.498135 0.000052
v -0.340160 -0.936276 0.143059
v -0.539744 -0.830856 0.000052
v -0.311396 -0.735657 0.000052
v -0.178772 -0.805383 0.095090
v -0.122117 -0.593713 0.000052
v -0.042314 -0.636203 0.057201
v 0.135391 -0.415195 0.000051
v -0.488723 1.130930 0.117049
v -0.659633 1.311160 0.060260
v -0.731138 1.254196 0.000052
v -0.846905 1.498966 0.000052
v -0.627593 1.020425 0.000052
v -0.340160 0.937158 0.143059
v -0.539744 0.831738 0.000052
v -0.311396 0.736539 0.000052
v -0.178772 0.806213 0.095090
v -0.122117 0.594595 0.000052
v -0.042314 0.637085 0.057201
v 0.135391 0.416077 0.000051
v -0.319838 -1.968997 0.000052
v -0.178790 -1.756497 0.054321
v -0.336227 -1.727600 0.000052
v -0.220532 -1.987726 0.034250
v -0.305960 -2.294544 0.000052
v -0.068441 -1.360394 0.085281
v -0.315689 -1.315363 0.000052
v -0.120092 -1.078220 0.000052
v 0.045157 -1.163199 0.065839
v 0.151753 -0.977054 0.000051
v 0.211045 -1.027222 0.028849
v 0.363667 -0.852957 0.000051
v 0.393007 -0.885278 0.016970
v 0.433516 -0.799417 0.000051
v 0.463135 -0.824890 0.014629
v 0.591358 -0.761182 0.000051
v -0.178790 1.757379 0.054321
v -0.319838 1.969879 0.000052
v -0.336227 1.728482 0.000052
v -0.220532 1.988608 0.034250
v -0.305960 2.295425 0.000052
v -0.068441 1.361276 0.085281
v -0.315689 1.316245 0.000052
v -0.120092 1.079102 0.000052
v 0.045157 1.164081 0.065839
v 0.151753 0.977936 0.000051
v 0.211045 1.028104 0.028849
v 0.363667 0.853839 0.000051
v 0.393007 0.886990 0.016970
v 0.433516 0.800299 0.000051
v 0.463135 0.825772 0.014629
v 0.591358 0.762012 0.000051
v 0.293944 -0.518073 0.000051
v 0.434704 -0.534207 0.046040
v 0.402106 -0.461108 0.000051
v 0.620365 -0.386298 0.000051
v 0.292405 -0.647253 0.076911
v -0.077846 -0.770520 0.000052
v 0.082408 -0.829144 0.084560
v -0.108203 -1.101151 0.059089
v -0.211127 -1.046780 0.000052
v -0.322718 -1.366361 0.035781
v -0.384953 -1.333209 0.000052
v -0.430538 -1.487915 0.023181
v -0.470786 -1.466644 0.000052
v -0.525884 -1.669806 0.000052
v 0.292405 0.648965 0.076911
v 0.293944 0.518954 0.000051
v 0.434704 0.535089 0.046040
v 0.402106 0.461990 0.000051
v 0.620365 0.387180 0.000051
v -0.077846 0.771402 0.000052
v 0.082408 0.830026 0.084560
v -0.108203 1.102033 0.059089
v -0.211127 1.047611 0.000052
v -0.322718 1.367242 0.035781
v -0.384953 1.334091 0.000052
v -0.430538 1.488797 0.023181
v -0.470786 1.467526 0.000052
v -0.525884 1.670688 0.000052
v -0.194909 -0.317453 -0.076001
v -0.304826 -0.235016 0.000052
v -0.235751 0.000415 -0.083740
v -0.319550 0.000415 0.000052
v -0.261005 -0.421161 0.000052
v -0.304826 0.235898 0.000052
v -0.178322 -0.401602 -0.085089
v -0.198554 -0.509564 0.000052
v -0.194909 0.318335 -0.076001
v -0.136256 -0.486633 -0.066821
v -0.122747 -0.735657 -0.079150
v -0.261005 0.422043 0.000052
v -0.178322 0.402484 -0.085089
v -0.198554 0.510446 0.000052
v -0.136256 0.487463 -0.066821
v -0.122747 0.736539 -0.079150
v -0.304826 -0.235016 0.000052
v -0.235751 0.000415 0.083839
v -0.319550 0.000415 0.000052
v -0.304826 0.235898 0.000052
v -0.194909 -0.317453 0.076101
v -0.194909 0.318335 0.076101
v -0.261005 -0.421161 0.000052
v -0.261005 0.422043 0.000052
v -0.178322 -0.401602 0.085189
v -0.178322 0.402484 0.085189
v -0.198554 -0.509564 0.000052
v -0.198554 0.510446 0.000052
v -0.136256 -0.486633 0.066920
v -0.122747 -0.735657 0.079249
v -0.136256 0.487463 0.066920
v -0.122747 0.736539 0.079249
v 0.467302 -0.607306 0.000051
v 0.290866 -0.777316 0.000051
v 0.292405 -0.647253 -0.076808
v 0.434704 -0.534207 -0.046029
v 0.620365 -0.386298 0.000051
v 0.082408 -0.829144 -0.084461
v 0.242662 -0.887820 0.000051
v -0.005279 -1.155573 0.000051
v -0.108203 -1.101151 -0.059079
v -0.260483 -1.399512 0.000052
v -0.322718 -1.366361 -0.035678
v -0.390290 -1.509186 0.000052
v -0.430538 -1.487915 -0.023078
v -0.525884 -1.669806 0.000052
v 0.292405 0.648965 -0.076808
v 0.467302 0.608188 0.000051
v 0.434704 0.535089 -0.046029
v 0.620365 0.387180 0.000051
v 0.290866 0.778198 0.000051
v 0.082408 0.830026 -0.084461
v 0.242662 0.889533 0.000051
v -0.005279 1.156454 0.000051
v -0.108203 1.102033 -0.059079
v -0.260483 1.400394 0.000052
v -0.322718 1.367242 -0.035678
v -0.390290 1.510898 0.000052
v -0.430538 1.488797 -0.023078
v -0.525884 1.670688 0.000052
v -0.588128 -1.367191 0.000052
v -0.488723 -1.130048 -0.116949
v -0.349853 -1.241434 0.000052
v -0.659633 -1.310278 -0.060250
v -0.846905 -1.498135 0.000052
v -0.340160 -0.936276 -0.143049
v -0.140567 -1.041644 0.000052
v -0.178772 -0.805383 -0.094991
v -0.046157 -0.875058 0.000052
v -0.042314 -0.636203 -0.057191
v 0.037498 -0.677863 0.000051
v 0.135391 -0.415195 0.000051
v -0.488723 1.130930 -0.116949
v -0.588128 1.368073 0.000052
v -0.349853 1.242264 0.000052
v -0.659633 1.311160 -0.060250
v -0.846905 1.498966 0.000052
v -0.340160 0.937158 -0.143049
v -0.140567 1.042526 0.000052
v -0.178772 0.806213 -0.094991
v -0.046157 0.875940 0.000052
v -0.042314 0.637085 -0.057191
v 0.037498 0.678745 0.000051
v 0.135391 0.416077 0.000051
v -0.121226 -2.005573 0.000052
v -0.178790 -1.756497 -0.054221
v -0.021353 -1.785394 0.000052
v -0.220532 -1.987726 -0.034150
v -0.305960 -2.294544 0.000052
v -0.068441 -1.360394 -0.085178
v 0.178798 -1.405478 0.000051
v 0.210406 -1.248230 0.000051
v 0.045157 -1.163199 -0.065739
v 0.270328 -1.077390 0.000051
v 0.211045 -1.027222 -0.028750
v 0.393007 -0.885278 -0.016871
v 0.422338 -0.918430 0.000051
v 0.492745 -0.850415 0.000051
v 0.463135 -0.824890 -0.014529
v 0.591358 -0.761182 0.000051
v -0.178790 1.757379 -0.054221
v -0.220532 1.988608 -0.034150
v -0.121226 2.006454 0.000052
v -0.305960 2.295425 0.000052
v -0.021353 1.786276 0.000052
v -0.068441 1.361276 -0.085178
v 0.178798 1.406360 0.000051
v 0.210406 1.249060 0.000051
v 0.045157 1.164081 -0.065739
v 0.270328 1.078220 0.000051
v 0.211045 1.028104 -0.028750
v 0.393007 0.886990 -0.016871
v 0.422338 0.919312 0.000051
v 0.492745 0.851297 0.000051
v 0.463135 0.825772 -0.014529
v 0.591358 0.762012 0.000051
v -0.211721 -0.229932 -0.093188
v -0.194909 -0.317453 -0.076001
v -0.304826 -0.235016 0.000052
v -0.235751 0.000415 -0.083740
v -0.345407 -0.352316 0.000052
v -0.261005 -0.421161 0.000052
v -0.304826 0.235898 0.000052
v -0.178322 -0.401602 -0.085089
v -0.211721 0.230762 -0.093188
v -0.198554 -0.509564 0.000052
v -0.194909 0.318335 -0.076001
v -0.136256 -0.486633 -0.066821
v -0.122747 -0.735657 -0.079150
v -0.221315 -0.879312 0.000052
v -0.345407 0.353198 0.000052
v -0.261005 0.422043 0.000052
v -0.178322 0.402484 -0.085089
v -0.198554 0.510446 0.000052
v -0.136256 0.487463 -0.066821
v -0.122747 0.736539 -0.079150
v -0.221315 0.881024 0.000052
v -0.121658 -2.307306 -0.081670
v -0.063158 -2.462012 0.000052
v -0.133079 -2.465436 -0.041978
v -0.140171 -2.633734 0.000052
v 0.014125 -2.300510 0.000051
v -0.090644 -2.150058 -0.099759
v 0.074128 -2.168787 0.000051
v 0.007690 -2.033640 0.000051
v -0.101795 -2.021707 -0.066278
v -0.012290 -1.889102 0.000051
v -0.078170 -1.881476 -0.039911
v -0.047408 -1.699585 0.000052
v -0.121658 2.308188 -0.081670
v -0.133079 2.466266 -0.041978
v -0.063158 2.462894 0.000052
v -0.140171 2.634564 0.000052
v 0.014125 2.301392 0.000051
v -0.090644 2.150940 -0.099759
v 0.074128 2.169617 0.000051
v 0.007690 2.034470 0.000051
v -0.101795 2.022589 -0.066278
v -0.012290 1.889984 0.000051
v -0.078170 1.882358 -0.039911
v -0.047408 1.700415 0.000052
v 0.197770 -2.090552 -0.073121
v 0.435262 -2.303934 0.000051
v 0.287770 -2.379575 -0.067449
v 0.385195 -2.069333 0.000051
v 0.532948 -2.550415 0.000051
v 0.277870 -1.802411 0.000051
v 0.422284 -2.607379 -0.050620
v 0.088780 -1.798157 -0.073121
v 0.709348 -2.808829 -0.031270
v 0.136102 -1.422443 -0.083469
v 0.772654 -2.767999 0.000051
v 0.349762 -1.447968 0.000051
v 0.831892 -2.901486 0.000051
v 0.291892 -1.293262 -0.061870
v 0.781285 -2.922705 -0.022000
v 0.425011 -1.365530 0.000051
v 0.831109 -3.034039 -0.033340
v 0.453532 -1.187012 -0.028479
v 0.514822 -1.220163 0.000051
v 0.633667 -1.096896 0.000051
v 0.917077 -3.026413 0.000051
v 0.888943 -3.188745 0.000051
v 0.831109 -3.176865 -0.022989
v 0.778792 -3.350247 0.000051
v 0.435262 2.304764 0.000051
v 0.385195 2.071045 0.000051
v 0.197770 2.091434 -0.073121
v 0.277870 1.803293 0.000051
v 0.287770 2.380457 -0.067449
v 0.088780 1.799039 -0.073121
v 0.532948 2.551297 0.000051
v 0.136102 1.423325 -0.083469
v 0.422284 2.608261 -0.050620
v 0.349762 1.448850 0.000051
v 0.709348 2.809711 -0.031270
v 0.291892 1.294144 -0.061870
v 0.772654 2.768881 0.000051
v 0.425011 1.366361 0.000051
v 0.831892 2.903198 0.000051
v 0.453532 1.188724 -0.028479
v 0.514822 1.221875 0.000051
v 0.633667 1.097778 0.000051
v 0.781285 2.923587 -0.022000
v 0.831100 3.034921 -0.033340
v 0.917077 3.027295 0.000051
v 0.888943 3.189627 0.000051
v 0.831100 3.177747 -0.022989
v 0.778792 3.352011 0.000051
v 0.197770 -2.090552 -0.073121
v 0.140278 -2.455215 0.000051
v 0.010336 -2.110941 0.000051
v 0.287770 -2.379575 -0.067449
v 0.088780 -1.798157 -0.073121
v 0.311620 -2.664291 0.000051
v -0.100310 -1.793903 0.000052
v 0.422284 -2.607379 -0.050620
v -0.077558 -1.396970 0.000052
v 0.646042 -2.849607 0.000051
v 0.136102 -1.422443 -0.083469
v 0.709348 -2.808829 -0.031270
v 0.158782 -1.220993 0.000051
v 0.730678 -2.943976 0.000051
v 0.291892 -1.293262 -0.061870
v 0.781285 -2.922705 -0.022000
v 0.392242 -1.153860 0.000051
v 0.453532 -1.187012 -0.028479
v 0.633667 -1.096896 0.000051
v 0.745132 -3.040888 0.000051
v 0.831109 -3.034039 -0.033340
v 0.773266 -3.164984 0.000051
v 0.831109 -3.176865 -0.022989
v 0.778792 -3.350247 0.000051
v 0.197770 2.091434 -0.073121
v 0.140278 2.456097 0.000051
v 0.287770 2.380457 -0.067449
v 0.311620 2.665174 0.000051
v 0.010336 2.111823 0.000051
v 0.422284 2.608261 -0.050620
v 0.088780 1.799039 -0.073121
v 0.646042 2.850488 0.000051
v -0.100310 1.794785 0.000052
v 0.709348 2.809711 -0.031270
v -0.077558 1.397852 0.000052
v 0.730678 2.944858 0.000051
v 0.136102 1.423325 -0.083469
v 0.781285 2.923587 -0.022000
v 0.158782 1.221875 0.000051
v 0.745132 3.042600 0.000051
v 0.291892 1.294144 -0.061870
v 0.831100 3.034921 -0.033340
v 0.392242 1.154742 0.000051
v 0.453532 1.188724 -0.028479
v 0.633667 1.097778 0.000051
v 0.773266 3.165814 0.000051
v 0.831100 3.177747 -0.022989
v 0.778792 3.352011 0.000051
v -0.121658 -2.307306 -0.081670
v -0.202991 -2.468808 0.000052
v -0.257441 -2.314102 0.000052
v -0.255416 -2.132211 0.000052
v -0.133079 -2.465436 -0.041978
v -0.140171 -2.633734 0.000052
v -0.090644 -2.150058 -0.099759
v -0.211280 -2.008945 0.000052
v -0.101795 -2.021707 -0.066278
v -0.144059 -1.873798 0.000052
v -0.078170 -1.881476 -0.039911
v -0.047408 -1.699585 0.000052
v -0.121658 2.308188 -0.081670
v -0.202991 2.469690 0.000052
v -0.133079 2.466266 -0.041978
v -0.140171 2.634564 0.000052
v -0.257441 2.314984 0.000052
v -0.255416 2.133093 0.000052
v -0.090644 2.150940 -0.099759
v -0.211280 2.009827 0.000052
v -0.101795 2.022589 -0.066278
v -0.144059 1.874680 0.000052
v -0.078170 1.882358 -0.039911
v -0.047408 1.700415 0.000052
v -0.151961 0.000415 0.000052
v -0.211721 -0.229932 -0.093188
v -0.211721 0.230762 -0.093188
v -0.118607 -0.224796 0.000052
v -0.118607 0.225677 0.000052
v -0.194909 -0.317453 -0.076001
v -0.194909 0.318335 -0.076001
v -0.044402 -0.282590 0.000052
v -0.044402 0.283472 0.000052
v -0.095639 -0.382043 0.000052
v -0.095639 0.382925 0.000052
v -0.178322 -0.401602 -0.085089
v -0.178322 0.402484 -0.085089
v -0.136256 -0.486633 -0.066821
v -0.136256 0.487463 -0.066821
v -0.073967 -0.463651 0.000052
v -0.011210 -0.589459 0.000051
v -0.122747 -0.735657 -0.079150
v -0.073967 0.464532 0.000052
v -0.011210 0.590341 0.000051
v -0.122747 0.736539 -0.079150
v -0.488723 -1.130048 -0.116949
v -0.659633 -1.310278 -0.060250
v -0.731138 -1.253314 0.000052
v -0.846905 -1.498135 0.000052
v -0.627593 -1.019544 0.000052
v -0.340160 -0.936276 -0.143049
v -0.539744 -0.830856 0.000052
v -0.311396 -0.735657 0.000052
v -0.178772 -0.805383 -0.094991
v -0.122117 -0.593713 0.000052
v -0.042314 -0.636203 -0.057191
v 0.135391 -0.415195 0.000051
v -0.731138 1.254196 0.000052
v -0.488723 1.130930 -0.116949
v -0.627593 1.020425 0.000052
v -0.659633 1.311160 -0.060250
v -0.846905 1.498966 0.000052
v -0.340160 0.937158 -0.143049
v -0.539744 0.831738 0.000052
v -0.311396 0.736539 0.000052
v -0.178772 0.806213 -0.094991
v -0.122117 0.594595 0.000052
v -0.042314 0.637085 -0.057191
v 0.135391 0.416077 0.000051
v -0.178790 -1.756497 -0.054221
v -0.319838 -1.968997 0.000052
v -0.336227 -1.727600 0.000052
v -0.220532 -1.987726 -0.034150
v -0.305960 -2.294544 0.000052
v -0.068441 -1.360394 -0.085178
v -0.315689 -1.315363 0.000052
v -0.120092 -1.078220 0.000052
v 0.045157 -1.163199 -0.065739
v 0.151753 -0.977054 0.000051
v 0.211045 -1.027222 -0.028750
v 0.363667 -0.852957 0.000051
v 0.393007 -0.885278 -0.016871
v 0.433516 -0.799417 0.000051
v 0.463135 -0.824890 -0.014529
v 0.591358 -0.761182 0.000051
v -0.319838 1.969879 0.000052
v -0.178790 1.757379 -0.054221
v -0.336227 1.728482 0.000052
v -0.220532 1.988608 -0.034150
v -0.305960 2.295425 0.000052
v -0.068441 1.361276 -0.085178
v -0.315689 1.316245 0.000052
v -0.120092 1.079102 0.000052
v 0.045157 1.164081 -0.065739
v 0.151753 0.977936 0.000051
v 0.211045 1.028104 -0.028750
v 0.363667 0.853839 0.000051
v 0.393007 0.886990 -0.016871
v 0.433516 0.800299 0.000051
v 0.463135 0.825772 -0.014529
v 0.591358 0.762012 0.000051
v 0.292405 -0.647253 -0.076808
v 0.293944 -0.518073 0.000051
v 0.434704 -0.534207 -0.046029
v 0.402106 -0.461108 0.000051
v 0.620365 -0.386298 0.000051
v -0.077846 -0.770520 0.000052
v 0.082408 -0.829144 -0.084461
v -0.108203 -1.101151 -0.059079
v -0.211127 -1.046780 0.000052
v -0.322718 -1.366361 -0.035678
v -0.384953 -1.333209 0.000052
v -0.430538 -1.487915 -0.023078
v -0.470786 -1.466644 0.000052
v -0.525884 -1.669806 0.000052
v 0.293944 0.518954 0.000051
v 0.434704 0.535089 -0.046029
v 0.402106 0.461990 0.000051
v 0.620365 0.387180 0.000051
v 0.292405 0.648965 -0.076808
v -0.077846 0.771402 0.000052
v 0.082408 0.830026 -0.084461
v -0.108203 1.102033 -0.059079
v -0.211127 1.047611 0.000052
v -0.322718 1.367242 -0.035678
v -0.384953 1.334091 0.000052
v -0.430538 1.488797 -0.023078
v -0.470786 1.467526 0.000052
v -0.525884 1.670688 0.000052
vn 0.7105 0.7037 -0.0000
vn 0.7104 0.7038 -0.0000
vn 0.7105 -0.7037 -0.0000
vn 0.7104 -0.7038 -0.0000
vn 0.9726 -0.2325 -0.0000
vn 0.9726 -0.2326 -0.0000
vn 0.9726 0.2325 -0.0000
vn 0.9726 0.2326 -0.0000
vn 0.9034 -0.4289 -0.0000
vn 0.9034 -0.4288 -0.0000
vn 0.9033 -0.4289 -0.0000
vn 0.9034 0.4289 -0.0000
vn 0.9035 0.4286 -0.0000
vn 0.9034 0.4288 -0.0000
vn 0.9036 0.4283 -0.0000
vn 0.8419 0.5397 -0.0000
vn 0.8418 0.5397 -0.0000
vn 0.8418 0.5398 -0.0000
vn 0.8419 -0.5397 -0.0000
vn 0.8418 -0.5397 -0.0000
vn 0.8358 0.5490 -0.0000
vn 0.8358 0.5491 -0.0000
vn 0.8358 -0.5490 -0.0000
vn 0.8954 0.4453 -0.0000
vn 0.8954 0.4452 -0.0000
vn 0.8954 -0.4452 -0.0000
vn 0.0383 0.7303 0.6821
vn 0.1376 0.7124 0.6881
vn 0.1376 0.7124 -0.6881
vn 0.0383 0.7303 -0.6821
vn -0.0383 0.7303 0.6821
vn -0.1376 0.7124 0.6881
vn -0.1376 0.7124 -0.6881
vn -0.0383 0.7303 -0.6821
vn 0.1014 0.4460 0.8893
vn 0.1014 -0.4460 0.8893
vn 0.0940 0.3897 0.9161
vn 0.0939 -0.3897 0.9161
vn 0.0471 -0.3980 0.9162
vn 0.0470 0.3980 0.9162
vn 0.1568 -0.3654 0.9176
vn 0.1568 0.3654 0.9176
vn -0.0078 0.4613 0.8872
vn -0.0078 -0.4614 0.8871
vn -0.1959 0.3484 0.9166
vn -0.1958 -0.3484 0.9167
vn -0.2346 -0.2815 0.9305
vn -0.2351 0.2738 0.9326
vn -0.3133 -0.1824 0.9320
vn -0.3133 0.1824 0.9320
vn 0.2306 -0.6919 0.6842
vn 0.1377 -0.7124 0.6881
vn 0.1377 0.7124 0.6881
vn 0.2306 0.6919 0.6842
vn -0.2306 -0.6919 0.6842
vn -0.1377 -0.7124 0.6881
vn -0.1377 0.7124 0.6881
vn -0.2306 0.6919 0.6842
vn 0.1483 0.3389 0.9290
vn 0.1483 -0.3389 0.9291
vn 0.2653 0.3718 0.8896
vn 0.2653 -0.3718 0.8896
vn 0.0390 0.3714 0.9276
vn 0.0390 -0.3714 0.9276
vn -0.2597 0.2916 0.9206
vn -0.2597 -0.2916 0.9206
vn -0.0391 0.3981 0.9165
vn -0.0391 -0.3981 0.9165
vn 0.1485 0.4301 0.8905
vn 0.1484 -0.4301 0.8905
vn 0.0782 0.3972 0.9144
vn 0.0782 -0.3972 0.9144
vn -0.2913 0.2585 0.9211
vn -0.2913 -0.2584 0.9211
vn -0.3290 0.3069 0.8931
vn -0.3290 -0.3069 0.8931
vn -0.9941 -0.1084 -0.0000
vn -0.9941 -0.1087 -0.0000
vn -0.9941 -0.1081 -0.0000
vn -0.9941 0.1084 -0.0000
vn -0.9941 0.1088 -0.0000
vn -0.9941 0.1080 -0.0000
vn -0.9978 0.0666 -0.0000
vn -0.9978 0.0665 -0.0000
vn -0.9972 -0.0748 -0.0000
vn -0.9403 0.3404 -0.0000
vn -0.9404 0.3402 -0.0000
vn -0.9404 0.3401 -0.0000
vn -0.9403 -0.3402 -0.0000
vn -0.9404 -0.3402 -0.0000
vn 0.0383 -0.7303 -0.6821
vn 0.1376 -0.7124 -0.6881
vn 0.1376 -0.7124 0.6881
vn 0.0383 -0.7303 0.6821
vn -0.0383 -0.7303 -0.6821
vn -0.1376 -0.7124 -0.6881
vn -0.1376 -0.7124 0.6881
vn -0.0383 -0.7303 0.6821
vn 0.1014 0.4460 -0.8893
vn 0.1014 -0.4460 -0.8893
vn 0.0940 0.3897 -0.9161
vn 0.0939 -0.3897 -0.9161
vn 0.0470 -0.3980 -0.9162
vn 0.0471 0.3980 -0.9162
vn 0.1568 -0.3654 -0.9176
vn 0.1569 0.3654 -0.9176
vn -0.0078 0.4614 -0.8872
vn -0.0078 -0.4614 -0.8871
vn -0.1959 0.3484 -0.9166
vn -0.1958 -0.3484 -0.9167
vn -0.2346 -0.2815 -0.9305
vn -0.2351 0.2738 -0.9326
vn -0.3133 -0.1824 -0.9320
vn -0.3133 0.1824 -0.9320
vn 0.1377 -0.7124 -0.6881
vn 0.2306 -0.6919 -0.6842
vn 0.2306 0.6919 -0.6842
vn -0.2306 -0.6919 -0.6842
vn -0.2306 0.6919 -0.6842
vn 0.1483 0.3390 -0.9290
vn 0.1484 -0.3389 -0.9290
vn 0.2653 0.3718 -0.8896
vn 0.2653 -0.3718 -0.8896
vn 0.0390 0.3714 -0.9276
vn 0.0389 -0.3714 -0.9276
vn -0.2597 0.2916 -0.9206
vn -0.2597 -0.2916 -0.9206
vn -0.0391 0.3981 -0.9165
vn -0.0392 -0.3981 -0.9165
vn 0.1485 0.4301 -0.8905
vn 0.1484 -0.4301 -0.8905
vn 0.0782 0.3972 -0.9144
vn 0.0782 -0.3972 -0.9144
vn -0.2913 0.2585 -0.9210
vn -0.2913 -0.2584 -0.9211
vn -0.3290 0.3069 -0.8931
vn -0.3290 -0.3069 -0.8931
vn 0.8092 -0.5875 -0.0000
vn 0.8092 0.5875 -0.0000
vn 0.6274 0.1661 0.7607
vn 0.7071 -0.0000 0.7072
vn 0.6275 -0.1661 0.7607
vn 0.5582 0.0832 0.8255
vn 0.6036 0.1826 0.7761
vn 0.6274 0.1660 0.7607
vn 0.6036 -0.1826 0.7761
vn 0.5582 -0.0832 0.8255
vn 0.6275 -0.1660 0.7607
vn 0.7071 -0.0000 -0.7071
vn 0.6274 0.1661 -0.7608
vn 0.6275 -0.1661 -0.7607
vn 0.6036 0.1826 -0.7761
vn 0.5582 0.0832 -0.8255
vn 0.6275 0.1660 -0.7607
vn 0.5582 -0.0832 -0.8255
vn 0.6036 -0.1826 -0.7761
vn 0.6274 -0.1661 -0.7607
vn 0.4382 -0.3977 0.8061
vn 0.4537 -0.3810 0.8056
vn 0.4536 -0.3643 0.8133
vn 0.4616 -0.3148 0.8293
vn 0.4305 -0.3730 0.8219
vn 0.3772 -0.3328 0.8643
vn 0.3920 -0.3404 0.8547
vn 0.3357 -0.3306 0.8821
vn 0.3356 -0.3306 0.8821
vn 0.3199 -0.3470 0.8816
vn 0.3212 -0.3566 0.8773
vn 0.3278 -0.3388 0.8819
vn 0.3287 -0.3315 0.8844
vn 0.3530 -0.2990 0.8866
vn 0.4537 0.3809 0.8057
vn 0.4305 0.3730 0.8219
vn 0.4383 0.3978 0.8060
vn 0.4536 0.3644 0.8133
vn 0.4616 0.3148 0.8293
vn 0.3771 0.3328 0.8643
vn 0.3920 0.3404 0.8547
vn 0.3356 0.3306 0.8821
vn 0.3199 0.3470 0.8816
vn 0.3212 0.3566 0.8773
vn 0.3278 0.3388 0.8819
vn 0.3287 0.3315 0.8844
vn 0.3531 0.2991 0.8865
vn 0.3350 -0.4537 0.8258
vn 0.2708 -0.5162 0.8125
vn 0.3349 -0.4536 0.8259
vn 0.2709 -0.5162 0.8125
vn 0.2642 -0.5265 0.8081
vn 0.4159 -0.3490 0.8397
vn 0.4312 -0.3320 0.8390
vn 0.4774 -0.2404 0.8452
vn 0.4774 -0.2403 0.8452
vn 0.4971 -0.2005 0.8442
vn 0.5038 -0.1917 0.8423
vn 0.2708 0.5162 0.8125
vn 0.3350 0.4537 0.8258
vn 0.3349 0.4536 0.8259
vn 0.2642 0.5265 0.8081
vn 0.4160 0.3490 0.8398
vn 0.4312 0.3320 0.8389
vn 0.4774 0.2404 0.8452
vn 0.4774 0.2403 0.8452
vn 0.4971 0.2005 0.8442
vn 0.4970 0.2005 0.8442
vn 0.5038 0.1917 0.8423
vn 0.2985 -0.1497 0.9426
vn 0.2981 -0.1578 0.9414
vn 0.2918 -0.1838 0.9387
vn 0.3067 -0.1248 0.9436
vn 0.3070 -0.1167 0.9445
vn 0.3217 -0.0997 0.9416
vn 0.2901 -0.1743 0.9410
vn 0.2901 -0.1744 0.9410
vn 0.2514 -0.2496 0.9351
vn 0.2515 -0.2496 0.9351
vn 0.2436 -0.2579 0.9350
vn 0.2362 -0.2584 0.9367
vn 0.2981 0.1578 0.9414
vn 0.2985 0.1497 0.9426
vn 0.2919 0.1837 0.9386
vn 0.3067 0.1248 0.9436
vn 0.3070 0.1167 0.9445
vn 0.3217 0.0997 0.9416
vn 0.2901 0.1744 0.9410
vn 0.2515 0.2496 0.9351
vn 0.2435 0.2579 0.9350
vn 0.2436 0.2579 0.9350
vn 0.2361 0.2583 0.9367
vn -0.7071 -0.0000 0.7071
vn -0.6369 -0.0250 0.7706
vn -0.6408 -0.0252 0.7673
vn -0.6369 0.0250 0.7706
vn -0.6408 0.0251 0.7673
vn -0.5436 -0.1418 0.8273
vn -0.5436 0.1418 0.8273
vn -0.5412 -0.3406 0.7688
vn -0.5413 0.3406 0.7688
vn -0.5502 -0.3578 0.7545
vn -0.5413 -0.3406 0.7688
vn -0.6607 -0.1999 0.7236
vn -0.5502 0.3579 0.7545
vn -0.6607 0.1999 0.7236
vn -0.6515 -0.2328 0.7221
vn -0.6869 0.0251 0.7264
vn -0.6607 -0.1998 0.7236
vn -0.6515 0.2328 0.7221
vn -0.6869 -0.0251 0.7263
vn -0.6607 0.1998 0.7236
vn 0.5036 -0.2250 0.8341
vn 0.5118 -0.2334 0.8268
vn 0.5108 -0.2413 0.8251
vn 0.5085 -0.2319 0.8292
vn 0.5270 0.0250 0.8495
vn 0.5271 -0.0000 0.8498
vn 0.5253 0.1826 0.8311
vn 0.5268 0.1665 0.8335
vn 0.5197 0.0834 0.8503
vn 0.5245 0.0994 0.8456
vn 0.5036 0.2250 0.8341
vn 0.5108 0.2413 0.8251
vn 0.5118 0.2334 0.8268
vn 0.5085 0.2319 0.8292
vn 0.5270 -0.0250 0.8495
vn 0.5272 -0.0000 0.8498
vn 0.5253 -0.1826 0.8311
vn 0.5268 -0.1665 0.8335
vn 0.5196 -0.0834 0.8503
vn 0.5245 -0.0995 0.8456
vn 0.3611 0.1081 0.9263
vn 0.3611 0.1080 0.9263
vn 0.3607 0.1162 0.9254
vn 0.3534 0.0416 0.9346
vn 0.3539 0.1166 0.9280
vn 0.3536 0.0250 0.9351
vn 0.3058 0.2242 0.9253
vn 0.3463 -0.1333 0.9286
vn 0.3211 0.2073 0.9241
vn 0.3301 -0.1748 0.9276
vn 0.3052 0.2321 0.9236
vn 0.3146 -0.2332 0.9202
vn 0.3223 -0.2247 0.9196
vn 0.3385 0.1917 0.9212
vn 0.3059 -0.2242 0.9253
vn 0.2975 -0.2404 0.9239
vn 0.2828 -0.2745 0.9191
vn 0.3454 0.0914 0.9340
vn 0.3460 0.0666 0.9359
vn 0.3462 -0.1334 0.9286
vn 0.3459 -0.1415 0.9276
vn 0.3228 -0.2168 0.9213
vn 0.3608 -0.1163 0.9254
vn 0.3611 -0.1080 0.9263
vn 0.3539 -0.1166 0.9280
vn 0.3058 -0.2242 0.9253
vn 0.3534 -0.0416 0.9345
vn 0.3211 -0.2073 0.9241
vn 0.3536 -0.0250 0.9351
vn 0.3053 -0.2320 0.9236
vn 0.3463 0.1333 0.9286
vn 0.3302 0.1748 0.9276
vn 0.3385 -0.1917 0.9212
vn 0.3146 0.2332 0.9202
vn 0.3222 0.2247 0.9196
vn 0.3454 -0.0914 0.9340
vn 0.2975 0.2404 0.9239
vn 0.2828 0.2745 0.9191
vn 0.3460 -0.0666 0.9359
vn 0.3459 0.1415 0.9276
vn 0.3228 0.2168 0.9213
vn -0.3532 -0.1330 0.9261
vn -0.3226 -0.1833 0.9286
vn -0.3298 -0.1832 0.9261
vn -0.2662 -0.2987 0.9165
vn -0.3531 -0.1329 0.9261
vn -0.2498 -0.3223 0.9131
vn -0.3626 -0.0584 0.9301
vn -0.2435 -0.3326 0.9111
vn -0.3628 -0.0501 0.9305
vn -0.2504 -0.3149 0.9155
vn -0.3311 0.1586 0.9302
vn -0.3311 -0.1586 0.9302
vn -0.3069 0.2416 0.9206
vn -0.2182 0.4208 0.8805
vn -0.3624 -0.0668 0.9296
vn -0.1868 0.4532 0.8716
vn -0.1317 0.4924 0.8603
vn -0.1245 0.5024 0.8556
vn -0.1163 0.5090 0.8529
vn -0.3696 -0.0500 0.9279
vn -0.3697 -0.0416 0.9282
vn -0.3700 -0.0083 0.9290
vn -0.3532 0.1330 0.9261
vn -0.3222 0.1913 0.9271
vn -0.3532 0.1329 0.9261
vn -0.3298 0.1832 0.9261
vn -0.3626 0.0584 0.9301
vn -0.2659 0.2991 0.9164
vn -0.3628 0.0501 0.9305
vn -0.2498 0.3223 0.9131
vn -0.2435 0.3326 0.9111
vn -0.3069 -0.2416 0.9206
vn -0.2503 0.3149 0.9155
vn -0.2182 -0.4208 0.8805
vn -0.1874 -0.4466 0.8749
vn -0.3311 0.1585 0.9302
vn -0.1318 -0.4924 0.8603
vn -0.1245 -0.5024 0.8556
vn -0.1163 -0.5090 0.8529
vn -0.3624 0.0667 0.9296
vn -0.3696 0.0499 0.9279
vn -0.3697 0.0416 0.9282
vn -0.3700 0.0083 0.9290
vn -0.5107 -0.0749 0.8565
vn -0.5012 -0.1824 0.8459
vn -0.4946 -0.1912 0.8479
vn -0.5104 -0.0831 0.8559
vn -0.5100 0.0914 0.8553
vn -0.5104 0.0831 0.8559
vn -0.4870 0.2079 0.8483
vn -0.4799 0.2500 0.8410
vn -0.4796 0.2498 0.8412
vn -0.4775 0.2652 0.8377
vn -0.5108 0.0749 0.8565
vn -0.5012 0.1824 0.8459
vn -0.5100 -0.0914 0.8553
vn -0.4946 0.1912 0.8478
vn -0.4870 -0.2079 0.8483
vn -0.4798 -0.2500 0.8410
vn -0.4796 -0.2498 0.8412
vn -0.4775 -0.2652 0.8377
vn 0.7071 -0.0000 0.7071
vn 0.6275 0.1661 0.7607
vn 0.6037 0.1826 0.7761
vn 0.6274 -0.1661 0.7608
vn 0.5585 0.0833 0.8253
vn 0.5582 0.0833 0.8255
vn 0.5582 -0.0833 0.8255
vn 0.6318 0.0418 0.7740
vn 0.6318 -0.0418 0.7740
vn 0.6363 0.0499 0.7698
vn 0.6363 -0.0499 0.7698
vn 0.6189 0.1659 0.7677
vn 0.6189 -0.1659 0.7677
vn 0.6227 0.1669 0.7645
vn 0.5527 0.1421 0.8212
vn 0.6227 -0.1669 0.7645
vn 0.5527 -0.1421 0.8212
vn -0.5118 0.2335 0.8268
vn -0.5027 0.2329 0.8325
vn -0.5017 0.2407 0.8309
vn -0.5118 0.2334 0.8268
vn -0.3591 0.4463 0.8197
vn -0.3980 0.3966 0.8272
vn -0.2867 0.5415 0.7903
vn -0.2958 0.5193 0.8018
vn -0.3415 0.4684 0.8149
vn -0.3346 0.4696 0.8170
vn -0.3333 0.4760 0.8138
vn -0.5027 -0.2329 0.8325
vn -0.5118 -0.2334 0.8268
vn -0.5017 -0.2407 0.8309
vn -0.3591 -0.4463 0.8197
vn -0.3980 -0.3966 0.8272
vn -0.2867 -0.5415 0.7903
vn -0.2958 -0.5193 0.8018
vn -0.3415 -0.4684 0.8149
vn -0.3346 -0.4696 0.8170
vn -0.3333 -0.4760 0.8138
vn -0.3303 -0.0167 0.9437
vn -0.3233 -0.0000 0.9463
vn -0.3303 -0.0166 0.9437
vn -0.2920 0.1337 0.9470
vn -0.2998 0.1169 0.9468
vn -0.2266 0.2896 0.9299
vn -0.2036 0.3234 0.9241
vn -0.1569 0.3654 0.9176
vn -0.1638 0.3551 0.9204
vn -0.1962 0.2991 0.9338
vn -0.2037 0.2987 0.9324
vn -0.1716 0.3303 0.9281
vn -0.1485 0.3560 0.9226
vn -0.0940 0.4065 0.9088
vn -0.3303 0.0167 0.9437
vn -0.3303 0.0166 0.9437
vn -0.2920 -0.1337 0.9470
vn -0.2998 -0.1170 0.9468
vn -0.2266 -0.2896 0.9299
vn -0.2036 -0.3234 0.9241
vn -0.1569 -0.3654 0.9176
vn -0.1638 -0.3551 0.9204
vn -0.1962 -0.2991 0.9338
vn -0.2037 -0.2987 0.9324
vn -0.1716 -0.3303 0.9281
vn -0.1486 -0.3560 0.9226
vn -0.0940 -0.4065 0.9088
vn -0.2560 0.4683 0.8457
vn -0.2021 0.4774 0.8551
vn -0.1946 0.4782 0.8564
vn -0.1640 0.4712 0.8666
vn -0.2958 0.4534 0.8408
vn -0.3760 0.2986 0.8772
vn -0.3590 0.3471 0.8664
vn -0.3922 0.2159 0.8942
vn -0.3834 0.2402 0.8918
vn -0.4174 0.1835 0.8900
vn -0.4103 0.1921 0.8915
vn -0.4473 0.1163 0.8868
vn -0.2958 -0.4534 0.8408
vn -0.2560 -0.4683 0.8457
vn -0.2021 -0.4774 0.8551
vn -0.1946 -0.4781 0.8564
vn -0.1640 -0.4712 0.8666
vn -0.3760 -0.2985 0.8772
vn -0.3590 -0.3471 0.8664
vn -0.3922 -0.2159 0.8942
vn -0.3834 -0.2402 0.8918
vn -0.4174 -0.1835 0.8900
vn -0.4103 -0.1921 0.8915
vn -0.4473 -0.1163 0.8868
vn -0.7071 -0.0000 -0.7071
vn -0.6369 -0.0250 -0.7705
vn -0.6369 0.0250 -0.7706
vn -0.5413 -0.3405 -0.7688
vn -0.5437 -0.1418 -0.8272
vn -0.5502 -0.3578 -0.7545
vn -0.6515 -0.2327 -0.7221
vn -0.6869 0.0251 -0.7263
vn -0.6607 -0.1998 -0.7236
vn -0.5502 0.3578 -0.7545
vn -0.5436 0.1418 -0.8272
vn -0.5413 0.3405 -0.7688
vn -0.6607 0.1998 -0.7236
vn -0.6869 -0.0251 -0.7263
vn -0.6515 0.2326 -0.7221
vn -0.6369 -0.0250 0.7705
vn -0.5437 -0.1418 0.8272
vn -0.5413 -0.3405 0.7688
vn -0.5413 0.3405 0.7688
vn -0.5437 0.1418 0.8272
vn -0.5502 0.3578 0.7545
vn -0.6869 0.0251 0.7263
vn -0.6515 -0.2327 0.7221
vn -0.6515 0.2327 0.7221
vn 0.4537 -0.3810 -0.8056
vn 0.4305 -0.3730 -0.8219
vn 0.4383 -0.3977 -0.8061
vn 0.4536 -0.3643 -0.8133
vn 0.4616 -0.3148 -0.8293
vn 0.3772 -0.3328 -0.8643
vn 0.3920 -0.3404 -0.8547
vn 0.3357 -0.3306 -0.8821
vn 0.3356 -0.3306 -0.8821
vn 0.3199 -0.3470 -0.8816
vn 0.3211 -0.3566 -0.8773
vn 0.3278 -0.3388 -0.8819
vn 0.3287 -0.3315 -0.8844
vn 0.3530 -0.2990 -0.8865
vn 0.4382 0.3977 -0.8061
vn 0.4537 0.3809 -0.8057
vn 0.4536 0.3644 -0.8133
vn 0.4616 0.3148 -0.8293
vn 0.4305 0.3730 -0.8219
vn 0.3771 0.3328 -0.8643
vn 0.3920 0.3404 -0.8547
vn 0.3356 0.3306 -0.8821
vn 0.3199 0.3470 -0.8816
vn 0.3212 0.3566 -0.8773
vn 0.3278 0.3388 -0.8819
vn 0.3287 0.3314 -0.8844
vn 0.3530 0.2990 -0.8865
vn 0.2708 -0.5162 -0.8125
vn 0.3350 -0.4537 -0.8258
vn 0.2642 -0.5265 -0.8081
vn 0.4159 -0.3490 -0.8397
vn 0.4312 -0.3321 -0.8389
vn 0.4774 -0.2404 -0.8452
vn 0.4774 -0.2403 -0.8452
vn 0.4971 -0.2005 -0.8442
vn 0.5038 -0.1917 -0.8423
vn 0.3350 0.4537 -0.8258
vn 0.2708 0.5162 -0.8125
vn 0.3349 0.4536 -0.8259
vn 0.2642 0.5265 -0.8081
vn 0.4160 0.3490 -0.8397
vn 0.4312 0.3320 -0.8389
vn 0.4774 0.2404 -0.8452
vn 0.4774 0.2403 -0.8452
vn 0.4971 0.2005 -0.8442
vn 0.5038 0.1917 -0.8423
vn 0.2981 -0.1578 -0.9414
vn 0.2985 -0.1497 -0.9426
vn 0.2918 -0.1838 -0.9387
vn 0.3067 -0.1249 -0.9436
vn 0.3070 -0.1167 -0.9445
vn 0.3217 -0.0997 -0.9416
vn 0.2901 -0.1744 -0.9410
vn 0.2515 -0.2496 -0.9351
vn 0.2514 -0.2496 -0.9351
vn 0.2436 -0.2579 -0.9350
vn 0.2362 -0.2584 -0.9367
vn 0.2985 0.1497 -0.9426
vn 0.2981 0.1578 -0.9414
vn 0.2918 0.1838 -0.9387
vn 0.3067 0.1249 -0.9436
vn 0.3070 0.1167 -0.9445
vn 0.3217 0.0997 -0.9416
vn 0.2901 0.1744 -0.9410
vn 0.2901 0.1743 -0.9410
vn 0.2515 0.2496 -0.9351
vn 0.2436 0.2579 -0.9350
vn 0.2361 0.2583 -0.9367
vn -0.6408 -0.0252 -0.7673
vn -0.5436 -0.1418 -0.8273
vn -0.6369 -0.0250 -0.7706
vn -0.5412 -0.3406 -0.7688
vn -0.6408 0.0251 -0.7673
vn -0.6607 -0.1999 -0.7236
vn -0.5413 -0.3406 -0.7687
vn -0.5436 0.1418 -0.8273
vn -0.6868 0.0251 -0.7264
vn -0.6869 0.0251 -0.7264
vn -0.5413 0.3406 -0.7688
vn -0.5502 0.3579 -0.7545
vn -0.6607 0.1999 -0.7236
vn -0.6515 0.2328 -0.7221
vn -0.6869 -0.0251 -0.7264
vn 0.5036 -0.2250 -0.8341
vn 0.5108 -0.2413 -0.8251
vn 0.5118 -0.2334 -0.8268
vn 0.5085 -0.2319 -0.8292
vn 0.5036 -0.2249 -0.8341
vn 0.5270 0.0250 -0.8495
vn 0.5272 -0.0000 -0.8498
vn 0.5253 0.1827 -0.8311
vn 0.5268 0.1665 -0.8335
vn 0.5197 0.0834 -0.8503
vn 0.5196 0.0834 -0.8503
vn 0.5246 0.0995 -0.8455
vn 0.5036 0.2250 -0.8341
vn 0.5118 0.2335 -0.8268
vn 0.5108 0.2413 -0.8251
vn 0.5085 0.2319 -0.8292
vn 0.5036 0.2249 -0.8341
vn 0.5270 -0.0250 -0.8495
vn 0.5271 -0.0000 -0.8498
vn 0.5253 -0.1827 -0.8311
vn 0.5268 -0.1665 -0.8335
vn 0.5197 -0.0834 -0.8503
vn 0.5246 -0.0995 -0.8455
vn 0.3607 0.1162 -0.9254
vn 0.3611 0.1081 -0.9263
vn 0.3539 0.1166 -0.9280
vn 0.3611 0.1080 -0.9263
vn 0.3058 0.2242 -0.9253
vn 0.3534 0.0416 -0.9345
vn 0.3211 0.2073 -0.9241
vn 0.3536 0.0250 -0.9351
vn 0.3053 0.2320 -0.9236
vn 0.3463 -0.1333 -0.9286
vn 0.3059 0.2242 -0.9253
vn 0.3301 -0.1748 -0.9276
vn 0.3386 0.1917 -0.9212
vn 0.3146 -0.2332 -0.9201
vn 0.3386 0.1918 -0.9212
vn 0.3222 -0.2247 -0.9196
vn 0.3454 0.0914 -0.9340
vn 0.3058 -0.2242 -0.9253
vn 0.2975 -0.2404 -0.9239
vn 0.2828 -0.2745 -0.9191
vn 0.3460 0.0666 -0.9359
vn 0.3459 -0.1415 -0.9276
vn 0.3228 -0.2168 -0.9213
vn 0.3611 -0.1080 -0.9263
vn 0.3607 -0.1162 -0.9254
vn 0.3534 -0.0416 -0.9345
vn 0.3539 -0.1166 -0.9280
vn 0.3536 -0.0250 -0.9351
vn 0.3463 0.1333 -0.9286
vn 0.3211 -0.2073 -0.9241
vn 0.3301 0.1748 -0.9276
vn 0.3053 -0.2320 -0.9236
vn 0.3146 0.2332 -0.9202
vn 0.3222 0.2247 -0.9196
vn 0.3385 -0.1917 -0.9212
vn 0.2975 0.2404 -0.9239
vn 0.2828 0.2744 -0.9191
vn 0.3386 -0.1917 -0.9212
vn 0.3454 -0.0914 -0.9340
vn 0.3460 -0.0666 -0.9359
vn 0.3462 0.1333 -0.9286
vn 0.3459 0.1415 -0.9276
vn 0.3228 0.2168 -0.9213
vn -0.3531 -0.1329 -0.9261
vn -0.3227 -0.1833 -0.9286
vn -0.3298 -0.1833 -0.9261
vn -0.3626 -0.0584 -0.9301
vn -0.2662 -0.2987 -0.9165
vn -0.3627 -0.0501 -0.9305
vn -0.2497 -0.3223 -0.9131
vn -0.3311 0.1586 -0.9302
vn -0.2435 -0.3327 -0.9111
vn -0.3069 0.2416 -0.9206
vn -0.2503 -0.3148 -0.9156
vn -0.2182 0.4208 -0.8805
vn -0.3311 -0.1586 -0.9302
vn -0.1868 0.4532 -0.8716
vn -0.1318 0.4924 -0.8603
vn -0.1244 0.5024 -0.8556
vn -0.1163 0.5090 -0.8529
vn -0.3624 -0.0668 -0.9296
vn -0.3624 -0.0667 -0.9296
vn -0.3696 -0.0499 -0.9278
vn -0.3697 -0.0416 -0.9282
vn -0.3700 -0.0083 -0.9290
vn -0.3531 0.1329 -0.9261
vn -0.3221 0.1914 -0.9272
vn -0.3297 0.1830 -0.9262
vn -0.2662 0.2987 -0.9165
vn -0.3532 0.1329 -0.9261
vn -0.2498 0.3223 -0.9131
vn -0.3626 0.0584 -0.9301
vn -0.2435 0.3326 -0.9111
vn -0.3628 0.0501 -0.9305
vn -0.2504 0.3148 -0.9155
vn -0.3069 -0.2416 -0.9206
vn -0.2182 -0.4208 -0.8805
vn -0.3624 0.0667 -0.9296
vn -0.1874 -0.4466 -0.8749
vn -0.1318 -0.4924 -0.8604
vn -0.1245 -0.5024 -0.8556
vn -0.1163 -0.5090 -0.8529
vn -0.3696 0.0499 -0.9279
vn -0.3697 0.0416 -0.9282
vn -0.3700 0.0084 -0.9290
vn -0.5107 -0.0749 -0.8565
vn -0.5012 -0.1824 -0.8459
vn -0.5104 -0.0831 -0.8559
vn -0.5100 0.0914 -0.8553
vn -0.4946 -0.1912 -0.8478
vn -0.5104 0.0832 -0.8559
vn -0.4870 0.2079 -0.8483
vn -0.4796 0.2497 -0.8412
vn -0.4774 0.2649 -0.8378
vn -0.5107 0.0749 -0.8565
vn -0.5012 0.1824 -0.8459
vn -0.4946 0.1912 -0.8478
vn -0.5100 -0.0914 -0.8553
vn -0.4870 -0.2079 -0.8483
vn -0.4796 -0.2497 -0.8412
vn -0.4775 -0.2652 -0.8376
vn 0.6275 0.1661 -0.7607
vn 0.6037 0.1826 -0.7761
vn 0.6274 -0.1661 -0.7608
vn 0.5582 0.0833 -0.8255
vn 0.5582 -0.0833 -0.8255
vn 0.6318 0.0418 -0.7740
vn 0.6318 -0.0418 -0.7740
vn 0.6363 0.0499 -0.7698
vn 0.6363 -0.0499 -0.7698
vn 0.6189 0.1659 -0.7678
vn 0.6189 -0.1659 -0.7677
vn 0.6226 0.1669 -0.7645
vn 0.5527 0.1421 -0.8212
vn 0.6227 -0.1669 -0.7645
vn 0.5527 -0.1421 -0.8212
vn -0.5027 0.2329 -0.8325
vn -0.5119 0.2334 -0.8267
vn -0.5117 0.2333 -0.8269
vn -0.5017 0.2407 -0.8309
vn -0.3591 0.4463 -0.8197
vn -0.3980 0.3966 -0.8272
vn -0.2867 0.5415 -0.7903
vn -0.2958 0.5193 -0.8018
vn -0.3415 0.4684 -0.8149
vn -0.3346 0.4696 -0.8170
vn -0.3333 0.4760 -0.8138
vn -0.5117 -0.2334 -0.8268
vn -0.5027 -0.2328 -0.8325
vn -0.5017 -0.2407 -0.8309
vn -0.5119 -0.2334 -0.8267
vn -0.3591 -0.4463 -0.8197
vn -0.3980 -0.3966 -0.8272
vn -0.2867 -0.5415 -0.7903
vn -0.2958 -0.5193 -0.8018
vn -0.3415 -0.4684 -0.8149
vn -0.3346 -0.4696 -0.8170
vn -0.3333 -0.4760 -0.8138
vn -0.3233 -0.0000 -0.9463
vn -0.3303 -0.0167 -0.9437
vn -0.3303 -0.0166 -0.9437
vn -0.2920 0.1337 -0.9470
vn -0.2998 0.1170 -0.9468
vn -0.2266 0.2896 -0.9299
vn -0.2036 0.3234 -0.9241
vn -0.1569 0.3654 -0.9176
vn -0.1638 0.3551 -0.9204
vn -0.1962 0.2991 -0.9338
vn -0.2037 0.2987 -0.9324
vn -0.1716 0.3304 -0.9281
vn -0.1485 0.3560 -0.9226
vn -0.0940 0.4065 -0.9088
vn -0.3303 0.0167 -0.9437
vn -0.3303 0.0166 -0.9437
vn -0.2920 -0.1337 -0.9470
vn -0.2998 -0.1169 -0.9468
vn -0.2266 -0.2896 -0.9299
vn -0.2036 -0.3234 -0.9241
vn -0.1569 -0.3654 -0.9176
vn -0.1638 -0.3551 -0.9204
vn -0.1962 -0.2991 -0.9338
vn -0.2037 -0.2987 -0.9324
vn -0.1716 -0.3303 -0.9281
vn -0.1486 -0.3560 -0.9226
vn -0.0940 -0.4065 -0.9088
vn -0.2958 0.4534 -0.8408
vn -0.2560 0.4683 -0.8457
vn -0.2021 0.4774 -0.8551
vn -0.1946 0.4781 -0.8564
vn -0.1640 0.4712 -0.8666
vn -0.3760 0.2986 -0.8772
vn -0.3590 0.3471 -0.8664
vn -0.3922 0.2159 -0.8942
vn -0.3833 0.2402 -0.8918
vn -0.3835 0.2402 -0.8917
vn -0.4174 0.1835 -0.8900
vn -0.4103 0.1921 -0.8915
vn -0.4473 0.1163 -0.8868
vn -0.2560 -0.4683 -0.8457
vn -0.2021 -0.4774 -0.8551
vn -0.1946 -0.4781 -0.8565
vn -0.1640 -0.4712 -0.8667
vn -0.2958 -0.4534 -0.8408
vn -0.3760 -0.2986 -0.8772
vn -0.3590 -0.3471 -0.8664
vn -0.3922 -0.2159 -0.8942
vn -0.3833 -0.2402 -0.8918
vn -0.3834 -0.2402 -0.8918
vn -0.4174 -0.1835 -0.8900
vn -0.4103 -0.1921 -0.8915
vn -0.4473 -0.1163 -0.8868
vt -2.306240 2.601170
vt -2.297160 2.601170
vt -2.301700 2.610320
vt -2.301700 2.592020
vt -2.306240 2.342990
vt -2.297160 2.342990
vt -2.301700 2.352140
vt -2.301700 2.333830
vt -2.296750 2.213570
vt -2.306650 2.213570
vt -2.301700 2.201320
vt -2.301700 2.225830
vt -2.306650 2.730590
vt -2.296750 2.730590
vt -2.301700 2.742840
vt -2.301700 2.718330
vt -2.297880 2.284340
vt -2.305520 2.284340
vt -2.301700 2.274720
vt -2.301700 2.293970
vt -2.305520 2.659820
vt -2.297880 2.659820
vt -2.301700 2.669440
vt -2.301700 2.650190
vt -2.307860 2.120860
vt -2.295540 2.120860
vt -2.301700 2.132170
vt -2.301700 2.109550
vt -2.307860 2.823290
vt -2.295540 2.823290
vt -2.301700 2.834600
vt -2.301700 2.811980
vt -2.307870 2.089480
vt -2.295530 2.089480
vt -2.301700 2.102760
vt -2.301700 2.076210
vt -2.307870 2.854680
vt -2.295530 2.854680
vt -2.301700 2.867950
vt -2.301700 2.841400
vt -2.296750 2.125480
vt -2.306650 2.125480
vt -2.301700 2.114130
vt -2.301700 2.136830
vt -2.296750 2.818680
vt -2.306650 2.818680
vt -2.301700 2.807320
vt -2.301700 2.830030
vt -2.220580 2.472080
vt -2.291750 2.482140
vt -2.293720 2.472080
vt -2.291750 2.462020
vt -2.362910 2.472080
vt -2.289770 2.472080
vt -2.244700 2.834600
vt -2.286350 2.844310
vt -2.251520 2.823290
vt -2.251520 2.120860
vt -2.286350 2.099850
vt -2.244700 2.109550
vt -2.220040 2.867950
vt -2.269200 2.880190
vt -2.228330 2.854680
vt -2.228330 2.089480
vt -2.269200 2.063970
vt -2.220040 2.076210
vt -2.305970 2.125480
vt -2.340940 2.108950
vt -2.300610 2.114130
vt -2.300610 2.830030
vt -2.340940 2.835210
vt -2.305970 2.818680
vt -2.264150 2.193870
vt -2.217770 2.204610
vt -2.263240 2.207410
vt -2.263240 2.736750
vt -2.217770 2.739550
vt -2.264150 2.750290
vt -2.247900 2.148590
vt -2.195950 2.171570
vt -2.249690 2.166040
vt -2.249690 2.778120
vt -2.195950 2.772590
vt -2.247900 2.795570
vt -2.252550 2.681820
vt -2.213120 2.695320
vt -2.256930 2.694620
vt -2.256930 2.249540
vt -2.213120 2.248840
vt -2.252550 2.262340
vt -2.318970 2.742840
vt -2.353970 2.722140
vt -2.316230 2.730590
vt -2.316230 2.213570
vt -2.353970 2.222020
vt -2.318970 2.201320
vt -2.377820 2.284340
vt -2.407450 2.297630
vt -2.382130 2.274720
vt -2.382130 2.669440
vt -2.407450 2.646530
vt -2.377820 2.659820
vt -2.350440 2.342990
vt -2.378640 2.369460
vt -2.359040 2.333830
vt -2.359040 2.610320
vt -2.378640 2.574700
vt -2.350440 2.601170
vt -2.240490 2.436830
vt -2.311650 2.422580
vt -2.309680 2.412710
vt -2.309680 2.529940
vt -2.311650 2.520080
vt -2.240490 2.505830
vt -2.382820 2.534330
vt -2.313630 2.510210
vt -2.313630 2.432440
vt -2.382820 2.408330
vt -2.341850 2.352140
vt -2.341850 2.592020
vt -2.248160 2.275140
vt -2.248160 2.669020
vt -2.373500 2.293970
vt -2.373500 2.650190
vt -2.311340 2.136830
vt -2.311340 2.807320
vt -2.313480 2.225830
vt -2.313480 2.718330
vt -2.262330 2.220950
vt -2.262330 2.723210
vt -2.251490 2.183490
vt -2.251490 2.760670
vt -2.236610 2.102760
vt -2.236610 2.841400
vt -2.258350 2.132170
vt -2.258350 2.811980
vt -2.308620 2.166040
vt -2.294790 2.166040
vt -2.301700 2.183490
vt -2.301700 2.148590
vt -2.294790 2.778120
vt -2.308620 2.778120
vt -2.301700 2.760670
vt -2.301700 2.795570
vt -2.295370 2.207410
vt -2.308030 2.207410
vt -2.301700 2.193870
vt -2.301700 2.220950
vt -2.295370 2.736750
vt -2.308030 2.736750
vt -2.301700 2.723210
vt -2.301700 2.750290
vt -2.295390 2.262340
vt -2.308010 2.262340
vt -2.301700 2.249540
vt -2.301700 2.275140
vt -2.295390 2.681820
vt -2.308010 2.681820
vt -2.301700 2.669020
vt -2.301700 2.694620
vt -2.382820 2.472080
vt -2.311650 2.462020
vt -2.309680 2.472080
vt -2.311650 2.482140
vt -2.240490 2.472080
vt -2.313630 2.472080
vt -2.351880 2.823290
vt -2.317050 2.844310
vt -2.358700 2.834600
vt -2.358700 2.109550
vt -2.317050 2.099850
vt -2.351880 2.120860
vt -2.375070 2.854680
vt -2.334200 2.880190
vt -2.383360 2.867950
vt -2.383360 2.076210
vt -2.334200 2.063970
vt -2.375070 2.089480
vt -2.302790 2.114130
vt -2.262460 2.108950
vt -2.297430 2.125480
vt -2.297430 2.818680
vt -2.262460 2.835210
vt -2.302790 2.830030
vt -2.340160 2.207410
vt -2.385630 2.204610
vt -2.339250 2.193870
vt -2.339250 2.750290
vt -2.385630 2.739550
vt -2.340160 2.736750
vt -2.353710 2.166040
vt -2.407450 2.171570
vt -2.355500 2.148590
vt -2.355500 2.795570
vt -2.407450 2.772590
vt -2.353710 2.778120
vt -2.346470 2.694620
vt -2.390280 2.695320
vt -2.350860 2.681820
vt -2.350860 2.262340
vt -2.390280 2.248840
vt -2.346470 2.249540
vt -2.287170 2.730590
vt -2.249430 2.722140
vt -2.284430 2.742840
vt -2.284430 2.201320
vt -2.249430 2.222020
vt -2.287170 2.213570
vt -2.221270 2.274720
vt -2.195950 2.297630
vt -2.225580 2.284340
vt -2.225580 2.659820
vt -2.195950 2.646530
vt -2.221270 2.669440
vt -2.244360 2.333830
vt -2.224760 2.369460
vt -2.252960 2.342990
vt -2.252960 2.601170
vt -2.224760 2.574700
vt -2.244360 2.610320
vt -2.293720 2.412710
vt -2.291750 2.422580
vt -2.362910 2.436830
vt -2.362910 2.505830
vt -2.291750 2.520080
vt -2.293720 2.529940
vt -2.289770 2.510210
vt -2.220580 2.534330
vt -2.220580 2.408330
vt -2.289770 2.432440
vt -2.261550 2.352140
vt -2.261550 2.592020
vt -2.355240 2.275140
vt -2.355240 2.669020
vt -2.229900 2.293970
vt -2.229900 2.650190
vt -2.292060 2.136830
vt -2.292060 2.807320
vt -2.289920 2.225830
vt -2.289920 2.718330
vt -2.341070 2.220950
vt -2.341070 2.723210
vt -2.351910 2.183490
vt -2.351910 2.760670
vt -2.366790 2.102760
vt -2.366790 2.841400
vt -2.345050 2.132170
vt -2.345050 2.811980
vt 4.944520 1.623700
vt 4.966520 1.623700
vt 4.955520 1.645100
vt 4.955520 1.602470
vt 4.944520 1.840120
vt 4.966520 1.840120
vt 4.955520 1.861350
vt 4.955520 1.818710
vt 4.942560 1.698070
vt 4.955520 1.731910
vt 4.943880 1.731910
vt 4.942560 1.765750
vt 4.944950 1.685140
vt 4.955520 1.698820
vt 4.955520 1.765000
vt 4.944950 1.778680
vt 4.968470 1.698070
vt 4.967160 1.731910
vt 4.968470 1.765750
vt 4.966080 1.685140
vt 4.966080 1.778680
vt 4.991260 1.636590
vt 5.015550 1.642570
vt 5.011020 1.653310
vt 5.036810 1.675090
vt 4.991040 1.617520
vt 4.962090 1.609890
vt 4.984350 1.601220
vt 4.949910 1.561880
vt 4.935620 1.569910
vt 4.914470 1.526040
vt 4.905820 1.530900
vt 4.896440 1.509840
vt 4.890850 1.512980
vt 4.877610 1.486230
vt 5.015550 1.821250
vt 4.991040 1.846290
vt 4.991260 1.827220
vt 5.011020 1.810510
vt 5.036810 1.788730
vt 4.962090 1.853920
vt 4.984350 1.862590
vt 4.949910 1.901940
vt 4.935620 1.893910
vt 4.914470 1.937780
vt 4.905820 1.932920
vt 4.896440 1.953970
vt 4.890850 1.950830
vt 4.877610 1.977590
vt 4.882770 1.565630
vt 4.868960 1.530780
vt 4.902050 1.549330
vt 4.859030 1.539170
vt 4.833020 1.511590
vt 4.903400 1.594130
vt 4.931120 1.578620
vt 4.925820 1.613400
vt 4.944240 1.603100
vt 4.944770 1.638310
vt 4.955850 1.632110
vt 4.969450 1.670750
vt 4.868960 1.933040
vt 4.882770 1.898180
vt 4.902050 1.914480
vt 4.859030 1.924650
vt 4.833020 1.952230
vt 4.903400 1.869690
vt 4.931120 1.885200
vt 4.925820 1.850410
vt 4.944240 1.860720
vt 4.944770 1.825500
vt 4.955850 1.831710
vt 4.969450 1.793070
vt 4.925810 1.473500
vt 4.920020 1.439570
vt 4.933810 1.436910
vt 4.908150 1.394440
vt 4.947680 1.469270
vt 4.941140 1.531790
vt 4.975480 1.525150
vt 4.979870 1.548310
vt 4.956920 1.560780
vt 4.988190 1.573450
vt 4.979960 1.580810
vt 5.005230 1.601600
vt 5.009300 1.596740
vt 5.019080 1.606760
vt 5.014970 1.610540
vt 5.032780 1.619860
vt 4.933810 2.026910
vt 4.925810 1.990310
vt 4.947680 1.994540
vt 4.920020 2.024240
vt 4.908150 2.069370
vt 4.941140 1.932020
vt 4.975480 1.938660
vt 4.979870 1.915510
vt 4.956920 1.903040
vt 4.988190 1.890360
vt 4.979960 1.883000
vt 5.005230 1.862210
vt 5.009300 1.867070
vt 5.019080 1.857060
vt 5.014970 1.853280
vt 5.032780 1.843950
vt 4.917900 1.731910
vt 4.908310 1.697320
vt 4.921240 1.698070
vt 4.908310 1.766500
vt 4.921240 1.765750
vt 4.923580 1.685140
vt 4.923580 1.778680
vt 4.902670 1.679980
vt 4.902670 1.783840
vt 4.914390 1.669940
vt 4.914390 1.793870
vt 4.925880 1.672780
vt 4.923070 1.656920
vt 4.925880 1.791040
vt 4.923070 1.806900
vt 4.931720 1.660300
vt 4.933600 1.623700
vt 4.919910 1.602470
vt 4.931720 1.803520
vt 4.919910 1.861350
vt 4.933600 1.840120
vt 4.933750 1.392520
vt 4.932160 1.369270
vt 4.941870 1.369800
vt 4.931180 1.344520
vt 4.952610 1.393560
vt 4.938060 1.415640
vt 4.960940 1.412960
vt 4.951710 1.432800
vt 4.936510 1.434590
vt 4.948940 1.454080
vt 4.939790 1.455150
vt 4.944060 1.481930
vt 4.933750 2.071290
vt 4.941870 2.094020
vt 4.932160 2.094550
vt 4.931180 2.119290
vt 4.952610 2.070260
vt 4.938060 2.048180
vt 4.960940 2.050860
vt 4.951710 2.031010
vt 4.936510 2.029230
vt 4.948940 2.009740
vt 4.939790 2.008660
vt 4.944060 1.981880
vt 5.011100 1.393090
vt 5.004150 1.427470
vt 4.978110 1.424440
vt 4.989240 1.466800
vt 4.990610 1.381940
vt 4.962980 1.467410
vt 5.024670 1.356780
vt 4.969550 1.522620
vt 5.009300 1.348420
vt 4.999220 1.518860
vt 5.049170 1.318750
vt 4.991190 1.541650
vt 5.057960 1.324770
vt 5.009680 1.531060
vt 5.066190 1.305100
vt 5.013640 1.557220
vt 5.022150 1.552340
vt 5.038660 1.570490
vt 5.059160 1.301990
vt 5.066080 1.285680
vt 5.078020 1.286760
vt 5.074110 1.262870
vt 5.066080 1.264610
vt 5.058810 1.239100
vt 4.978110 2.039380
vt 5.011100 2.070730
vt 4.990610 2.081880
vt 5.004150 2.036340
vt 5.024670 2.107040
vt 4.989240 1.997010
vt 5.009300 2.115400
vt 4.962980 1.996410
vt 5.049170 2.145070
vt 4.969550 1.941190
vt 5.057960 2.139050
vt 4.999220 1.944960
vt 5.066190 2.158720
vt 4.991190 1.922160
vt 5.059160 2.161820
vt 5.009680 1.932760
vt 5.066080 2.178140
vt 5.013640 1.906600
vt 5.022150 1.911470
vt 5.038660 1.893330
vt 5.078020 2.177060
vt 5.074110 2.200950
vt 5.066080 2.199210
vt 5.058810 2.224720
vt 4.970130 1.370790
vt 4.993930 1.340050
vt 4.952080 1.421400
vt 5.040370 1.312730
vt 4.936710 1.468010
vt 4.939870 1.526380
vt 5.052130 1.298890
vt 4.972700 1.552250
vt 5.054140 1.284590
vt 5.005120 1.562100
vt 5.058040 1.266360
vt 4.970130 2.093020
vt 4.952080 2.042420
vt 4.993930 2.123760
vt 4.936710 1.995810
vt 4.939870 1.937430
vt 5.040370 2.151090
vt 4.972700 1.911570
vt 5.052130 2.164930
vt 5.005120 1.901720
vt 5.054140 2.179220
vt 5.058040 2.197460
vt 4.922450 1.368730
vt 4.914890 1.391490
vt 4.915170 1.418320
vt 4.921300 1.436370
vt 4.930640 1.456230
vt 4.922450 2.095080
vt 4.914890 2.072330
vt 4.915170 2.045490
vt 4.921300 2.027440
vt 4.930640 2.007590
vt 4.929540 1.731910
vt 4.934170 1.698820
vt 4.934170 1.765000
vt 4.944480 1.690300
vt 4.944480 1.773510
vt 4.937360 1.675620
vt 4.937360 1.788200
vt 4.940370 1.663680
vt 4.949090 1.645100
vt 4.940370 1.800140
vt 4.949090 1.818710
vt 4.849100 1.547560
vt 4.863480 1.581930
vt 4.875680 1.609640
vt 4.907400 1.623710
vt 4.933680 1.644520
vt 4.849100 1.916250
vt 4.863480 1.881880
vt 4.875680 1.854180
vt 4.907400 1.840110
vt 4.933680 1.819300
vt 4.906220 1.442240
vt 4.903950 1.477730
vt 4.906800 1.538430
vt 4.933970 1.573250
vt 4.971720 1.588170
vt 5.001150 1.606460
vt 5.010860 1.614320
vt 4.906220 2.021580
vt 4.903950 1.986090
vt 4.906800 1.925380
vt 4.933970 1.890570
vt 4.971720 1.875640
vt 5.001150 1.857360
vt 5.010860 1.849500
vt 4.991470 1.655660
vt 5.006490 1.664040
vt 4.939830 1.618560
vt 4.921320 1.577930
vt 4.897180 1.535750
vt 4.885260 1.516120
vt 4.991470 1.808160
vt 5.006490 1.799780
vt 4.939830 1.845250
vt 4.921320 1.885880
vt 4.897180 1.928070
vt 4.885260 1.947690
vt 4.955520 1.697320
vt 4.955520 1.766500
vt 4.955520 1.669940
vt 4.943690 1.672780
vt 4.946230 1.660300
vt 4.955520 1.656920
vt 4.943690 1.791040
vt 4.955520 1.793870
vt 4.955520 1.806900
vt 4.946230 1.803520
vt 4.967350 1.672780
vt 4.967350 1.791040
vt 4.964810 1.660300
vt 4.964810 1.803520
vt 4.895490 1.642570
vt 4.919990 1.617520
vt 4.919780 1.636590
vt 4.900020 1.653310
vt 4.874230 1.675090
vt 4.948950 1.609890
vt 4.926690 1.601220
vt 4.961120 1.561880
vt 4.975420 1.569910
vt 4.996570 1.526040
vt 5.005210 1.530900
vt 5.014600 1.509840
vt 5.020190 1.512980
vt 5.033430 1.486230
vt 4.919780 1.827220
vt 4.895490 1.821250
vt 4.900020 1.810510
vt 4.874230 1.788730
vt 4.919990 1.846290
vt 4.948950 1.853920
vt 4.926690 1.862590
vt 4.961120 1.901940
vt 4.975420 1.893910
vt 4.996570 1.937780
vt 5.005210 1.932920
vt 5.014600 1.953970
vt 5.020190 1.950830
vt 5.033430 1.977590
vt 5.042080 1.530780
vt 5.028270 1.565630
vt 5.008980 1.549330
vt 5.052010 1.539170
vt 5.078020 1.511590
vt 5.007640 1.594130
vt 4.979920 1.578620
vt 4.985220 1.613400
vt 4.966800 1.603100
vt 4.966270 1.638310
vt 4.955180 1.632110
vt 4.941590 1.670750
vt 5.028270 1.898180
vt 5.042080 1.933040
vt 5.008980 1.914480
vt 5.052010 1.924650
vt 5.078020 1.952230
vt 5.007640 1.869690
vt 4.979920 1.885200
vt 4.985220 1.850410
vt 4.966800 1.860720
vt 4.966270 1.825500
vt 4.955180 1.831710
vt 4.941590 1.793070
vt 4.977230 1.436910
vt 4.985220 1.473500
vt 4.963360 1.469270
vt 4.991020 1.439570
vt 5.002890 1.394440
vt 4.969900 1.531790
vt 4.935560 1.525150
vt 4.931170 1.548310
vt 4.954120 1.560780
vt 4.922850 1.573450
vt 4.931080 1.580810
vt 4.905810 1.601600
vt 4.901730 1.596740
vt 4.891950 1.606760
vt 4.896070 1.610540
vt 4.878260 1.619860
vt 4.985220 1.990310
vt 4.991020 2.024240
vt 4.977230 2.026910
vt 5.002890 2.069370
vt 4.963360 1.994540
vt 4.969900 1.932020
vt 4.935560 1.938660
vt 4.931170 1.915510
vt 4.954120 1.903040
vt 4.922850 1.890360
vt 4.931080 1.883000
vt 4.905810 1.862210
vt 4.901730 1.867070
vt 4.891950 1.857060
vt 4.896070 1.853280
vt 4.878260 1.843950
vt 4.989800 1.698070
vt 4.987460 1.685140
vt 5.002730 1.697320
vt 4.993140 1.731910
vt 5.008370 1.679980
vt 4.996640 1.669940
vt 5.002730 1.766500
vt 4.989800 1.765750
vt 4.985160 1.672780
vt 4.987970 1.656920
vt 4.987460 1.778680
vt 4.979320 1.660300
vt 4.991130 1.602470
vt 4.977440 1.623700
vt 5.008370 1.783840
vt 4.996640 1.793870
vt 4.985160 1.791040
vt 4.987970 1.806900
vt 4.979320 1.803520
vt 4.977440 1.840120
vt 4.991130 1.861350
vt 4.977290 1.392520
vt 4.969160 1.369800
vt 4.978870 1.369270
vt 4.979860 1.344520
vt 4.958430 1.393560
vt 4.972980 1.415640
vt 4.950100 1.412960
vt 4.959320 1.432800
vt 4.974530 1.434590
vt 4.962100 1.454080
vt 4.971250 1.455150
vt 4.966980 1.481930
vt 4.977290 2.071290
vt 4.978870 2.094550
vt 4.969160 2.094020
vt 4.979860 2.119290
vt 4.958430 2.070260
vt 4.972980 2.048180
vt 4.950100 2.050860
vt 4.959320 2.031010
vt 4.974530 2.029230
vt 4.962100 2.009740
vt 4.971250 2.008660
vt 4.966980 1.981880
vt 4.932920 1.424440
vt 4.899940 1.393090
vt 4.920420 1.381940
vt 4.906890 1.427470
vt 4.886370 1.356780
vt 4.921800 1.466800
vt 4.901740 1.348420
vt 4.948060 1.467410
vt 4.861870 1.318750
vt 4.941490 1.522620
vt 4.853080 1.324770
vt 4.911810 1.518860
vt 4.844850 1.305100
vt 4.919850 1.541650
vt 4.851880 1.301990
vt 4.901360 1.531060
vt 4.844960 1.285680
vt 4.897400 1.557220
vt 4.888890 1.552340
vt 4.872380 1.570490
vt 4.833020 1.286760
vt 4.836930 1.262870
vt 4.844960 1.264610
vt 4.852230 1.239100
vt 4.899940 2.070730
vt 4.906890 2.036340
vt 4.932920 2.039380
vt 4.921800 1.997010
vt 4.920420 2.081880
vt 4.948060 1.996410
vt 4.886370 2.107040
vt 4.941490 1.941190
vt 4.901740 2.115400
vt 4.911810 1.944960
vt 4.861870 2.145070
vt 4.919850 1.922160
vt 4.853080 2.139050
vt 4.901360 1.932760
vt 4.844850 2.158720
vt 4.897400 1.906600
vt 4.888890 1.911470
vt 4.872380 1.893330
vt 4.851880 2.161820
vt 4.844960 2.178140
vt 4.833020 2.177060
vt 4.836930 2.200950
vt 4.844960 2.199210
vt 4.852230 2.224720
vt 4.940910 1.370790
vt 4.958960 1.421400
vt 4.917110 1.340050
vt 4.974320 1.468010
vt 4.971160 1.526380
vt 4.870660 1.312730
vt 4.938340 1.552250
vt 4.858910 1.298890
vt 4.905910 1.562100
vt 4.856900 1.284590
vt 4.852990 1.266360
vt 4.940910 2.093020
vt 4.917110 2.123760
vt 4.958960 2.042420
vt 4.870660 2.151090
vt 4.974320 1.995810
vt 4.971160 1.937430
vt 4.858910 2.164930
vt 4.938340 1.911570
vt 4.856900 2.179220
vt 4.905910 1.901720
vt 4.852990 2.197460
vt 4.988580 1.368730
vt 4.996150 1.391490
vt 4.995870 1.418320
vt 4.989740 1.436370
vt 4.980400 1.456230
vt 4.988580 2.095080
vt 4.996150 2.072330
vt 4.995870 2.045490
vt 4.989740 2.027440
vt 4.980400 2.007590
vt 4.981500 1.731910
vt 4.976860 1.698820
vt 4.976860 1.765000
vt 4.966560 1.690300
vt 4.966560 1.773510
vt 4.973680 1.675620
vt 4.973680 1.788200
vt 4.970660 1.663680
vt 4.961950 1.645100
vt 4.970660 1.800140
vt 4.961950 1.818710
vt 5.061940 1.547560
vt 5.047560 1.581930
vt 5.035360 1.609640
vt 5.003640 1.623710
vt 4.977350 1.644520
vt 5.061940 1.916250
vt 5.047560 1.881880
vt 5.035360 1.854180
vt 5.003640 1.840110
vt 4.977350 1.819300
vt 5.004810 1.442240
vt 5.007090 1.477730
vt 5.004240 1.538430
vt 4.977070 1.573250
vt 4.939310 1.588170
vt 4.909880 1.606460
vt 4.900180 1.614320
vt 5.004810 2.021580
vt 5.007090 1.986090
vt 5.004240 1.925380
vt 4.977070 1.890570
vt 4.939310 1.875640
vt 4.909880 1.857360
vt 4.900180 1.849500
vt 4.919570 1.655660
vt 4.904540 1.664040
vt 4.971200 1.618560
vt 4.989710 1.577930
vt 5.013860 1.535750
vt 5.025780 1.516120
vt 4.919570 1.808160
vt 4.904540 1.799780
vt 4.971200 1.845250
vt 4.989710 1.885880
vt 5.013860 1.928070
vt 5.025780 1.947690
s 1
usemtl Meshpart1Mtl.003
f 1/1/1 2/2/1 3/3/2
f 2/2/1 1/1/1 4/4/1
f 5/5/3 6/6/3 7/7/3
f 6/6/3 5/5/3 8/8/4
f 9/9/5 10/10/5 11/11/6
f 10/10/5 9/9/5 12/12/6
f 13/13/7 14/14/7 15/15/7
f 14/14/7 13/13/7 16/16/8
f 17/17/9 18/18/9 19/19/10
f 18/18/9 17/17/9 20/20/11
f 21/21/12 22/22/13 23/23/14
f 22/22/13 21/21/12 24/24/15
f 25/25/16 26/26/17 27/27/16
f 26/26/17 25/25/16 28/28/18
f 29/29/19 30/30/20 31/31/19
f 30/30/20 29/29/19 32/32/19
f 33/33/21 34/34/21 35/35/21
f 34/34/21 33/33/21 36/36/22
f 37/37/23 38/38/23 39/39/23
f 38/38/23 37/37/23 40/40/23
f 41/41/24 42/42/24 43/43/25
f 42/42/24 41/41/24 44/44/24
f 45/45/26 46/46/26 47/47/26
f 46/46/26 45/45/26 48/48/26
f 51/49/27 50/50/28 49/51/28
f 52/52/29 53/49/30 54/51/29
f 57/53/31 56/54/32 55/50/32
f 58/54/33 59/53/34 60/52/33
f 61/55/35 62/56/35 63/57/35
f 64/58/36 65/59/36 66/60/36
f 67/61/37 68/62/37 69/63/37
f 70/64/38 71/65/38 72/66/38
f 73/67/39 74/68/39 75/69/39
f 76/70/40 77/71/40 78/72/40
f 79/73/36 80/74/36 81/75/36
f 82/76/35 83/77/35 84/78/35
f 85/79/41 86/80/41 87/81/41
f 88/82/42 89/83/42 90/84/42
f 91/85/43 92/86/43 93/87/43
f 94/88/44 95/89/44 96/90/44
f 97/91/45 98/92/45 99/93/45
f 100/94/46 101/95/46 102/96/46
f 103/97/47 104/98/47 105/99/47
f 106/100/48 107/101/48 108/102/48
f 109/103/49 110/104/49 111/105/49
f 112/106/50 113/107/50 114/108/50
f 117/109/51 115/110/52 116/111/52
f 118/112/53 119/113/53 120/114/54
f 123/115/55 121/116/56 122/113/56
f 124/110/32 125/117/57 126/118/58
f 127/119/59 128/104/59 129/103/59
f 130/108/60 131/107/60 132/120/60
f 133/90/61 134/89/61 135/121/61
f 136/122/62 137/86/62 138/85/62
f 139/123/63 140/98/63 141/97/63
f 142/102/64 143/101/64 144/124/64
f 145/125/65 146/68/65 147/67/65
f 148/72/66 149/71/66 150/126/66
f 151/127/67 152/95/67 153/94/67
f 154/93/68 155/92/68 156/128/68
f 157/75/69 158/74/69 159/129/69
f 160/130/70 161/77/70 162/76/70
f 163/81/71 164/80/71 165/131/71
f 166/132/72 167/83/72 168/82/72
f 169/133/73 170/65/73 171/64/73
f 172/63/74 173/62/74 174/134/74
f 175/135/75 176/59/75 177/58/75
f 178/57/76 179/56/76 180/136/76
f 181/137/77 182/138/77 183/139/78
f 182/138/77 181/137/77 184/140/79
f 185/141/80 186/142/80 187/143/81
f 186/142/80 185/141/80 188/144/82
f 189/145/83 190/146/83 191/147/83
f 190/146/83 189/145/83 192/148/84
f 193/149/85 194/150/85 195/151/85
f 194/150/85 193/149/85 196/152/85
f 197/153/86 198/154/86 199/155/87
f 198/154/86 197/153/86 200/156/88
f 201/157/89 202/158/90 203/159/89
f 202/158/90 201/157/89 204/160/89
f 207/161/91 206/162/92 205/163/92
f 208/164/93 209/161/94 210/163/93
f 213/165/95 212/166/96 211/162/96
f 214/166/97 215/165/98 216/164/97
f 217/167/99 218/168/99 219/169/99
f 220/170/100 221/171/100 222/172/100
f 223/173/101 224/174/101 225/175/101
f 226/176/102 227/177/102 228/178/102
f 229/179/103 230/180/103 231/181/103
f 232/182/104 233/183/104 234/184/104
f 235/185/100 236/186/100 237/187/100
f 238/188/99 239/189/99 240/190/99
f 241/191/105 242/192/105 243/193/105
f 244/194/106 245/195/106 246/196/106
f 247/197/107 248/198/107 249/199/107
f 250/200/108 251/201/108 252/202/108
f 253/203/109 254/204/109 255/205/109
f 256/206/110 257/207/110 258/208/110
f 259/209/111 260/210/111 261/211/111
f 262/212/112 263/213/112 264/214/112
f 265/215/113 266/216/113 267/217/113
f 268/218/114 269/219/114 270/220/114
f 271/221/115 272/222/115 273/223/116
f 276/224/117 274/225/29 275/226/29
f 277/225/96 278/227/96 279/228/118
f 282/229/119 280/230/33 281/222/33
f 283/217/120 284/216/120 285/231/120
f 286/232/121 287/219/121 288/218/121
f 289/233/122 290/201/122 291/200/122
f 292/199/123 293/198/123 294/234/123
f 295/211/124 296/210/124 297/235/124
f 298/236/125 299/213/125 300/212/125
f 301/181/126 302/180/126 303/237/126
f 304/238/127 305/183/127 306/182/127
f 307/208/128 308/207/128 309/239/128
f 310/240/129 311/204/129 312/203/129
f 313/241/130 314/186/130 315/185/130
f 316/190/131 317/189/131 318/242/131
f 319/243/132 320/192/132 321/191/132
f 322/196/133 323/195/133 324/244/133
f 325/178/134 326/177/134 327/245/134
f 328/246/135 329/174/135 330/173/135
f 331/172/136 332/171/136 333/247/136
f 334/248/137 335/168/137 336/167/137
usemtl Meshpart2Mtl.002
f 337/249/138 338/250/138 339/251/138
f 338/250/138 337/249/138 340/252/138
f 341/253/139 342/254/139 343/255/139
f 342/254/139 341/253/139 344/256/139
f 345/257/140 346/258/141 347/259/141
f 346/258/141 348/260/142 347/259/141
f 351/261/143 349/262/144 345/257/145
f 350/263/146 352/264/147 348/260/148
f 353/258/149 354/265/150 355/266/149
f 356/267/151 353/258/149 355/266/149
f 357/262/152 359/268/153 354/265/154
f 360/269/155 358/263/156 356/267/157
f 361/270/158 362/271/159 363/272/160
f 363/272/160 362/271/159 364/273/161
f 362/271/159 361/270/158 365/274/162
f 361/270/158 366/275/163 365/274/162
f 365/274/162 366/275/163 367/276/164
f 366/275/163 368/277/165 367/276/164
f 368/277/165 366/275/163 369/278/166
f 369/278/166 370/279/167 368/277/165
f 370/279/167 369/278/166 371/280/168
f 371/280/168 372/281/169 370/279/167
f 372/281/169 371/280/168 373/282/170
f 372/281/169 373/282/170 374/283/171
f 375/284/172 376/285/173 377/286/174
f 377/286/174 378/287/175 375/284/172
f 375/284/172 378/287/175 379/288/176
f 376/285/173 380/289/177 377/286/174
f 380/289/177 376/285/173 381/290/178
f 382/291/179 380/289/177 381/290/178
f 380/289/177 382/291/179 383/292/179
f 384/293/180 383/292/179 382/291/179
f 383/292/179 384/293/180 385/294/181
f 386/295/182 385/294/181 384/293/180
f 385/294/181 386/295/182 387/296/183
f 387/296/183 386/295/182 388/297/184
f 389/298/185 390/299/186 391/300/187
f 389/298/185 392/301/188 390/299/186
f 390/299/186 392/301/188 393/302/189
f 391/300/187 394/303/190 389/298/185
f 394/303/190 391/300/187 395/304/191
f 395/304/191 396/305/192 394/303/190
f 396/305/192 395/304/191 397/306/193
f 397/306/193 398/307/194 396/305/192
f 398/307/194 397/306/193 399/308/194
f 398/307/194 399/308/194 400/309/195
f 401/310/196 402/311/197 403/312/198
f 402/311/197 401/310/196 404/313/196
f 404/313/196 401/310/196 405/314/199
f 403/312/198 402/311/197 406/315/200
f 407/316/201 403/312/198 406/315/200
f 407/316/201 406/315/200 408/317/202
f 409/318/203 407/316/201 408/317/202
f 408/317/202 410/319/204 409/318/203
f 411/320/205 409/318/203 410/319/204
f 411/320/205 410/319/204 412/321/206
f 413/322/207 414/323/208 415/324/208
f 415/324/208 414/323/208 416/325/209
f 415/324/208 417/326/207 413/322/207
f 417/326/207 418/327/210 413/322/207
f 418/327/210 417/326/207 419/328/211
f 418/327/210 419/328/211 420/329/212
f 421/330/212 418/327/210 420/329/212
f 421/330/212 420/329/212 422/331/213
f 423/332/214 421/330/212 422/331/213
f 422/331/213 424/333/215 423/332/214
f 424/333/215 422/331/213 425/334/216
f 424/333/215 425/334/216 426/335/217
f 427/336/217 424/333/215 426/335/217
f 427/336/217 426/335/217 428/337/218
f 429/338/219 430/339/220 431/340/220
f 430/339/220 429/338/219 432/341/219
f 432/341/219 429/338/219 433/342/221
f 431/340/220 430/339/220 434/343/222
f 435/344/223 431/340/220 434/343/222
f 434/343/222 436/345/224 435/344/223
f 436/345/224 434/343/222 437/346/224
f 437/346/224 438/347/225 436/345/224
f 438/347/225 437/346/224 439/348/225
f 439/348/225 440/349/226 438/347/225
f 438/347/225 440/349/226 441/350/226
f 440/349/226 442/351/227 441/350/226
f 442/351/227 440/349/226 443/352/228
f 442/351/227 443/352/228 444/353/229
f 446/354/230 445/355/231 448/356/232
f 447/357/233 446/354/230 449/358/234
f 445/355/231 450/359/235 448/356/232
f 449/358/234 451/360/236 447/357/233
f 450/359/235 445/355/231 452/361/235
f 447/357/233 451/360/236 453/362/236
f 450/359/235 452/361/235 454/363/237
f 451/360/236 455/364/238 453/362/236
f 456/365/239 454/363/240 458/366/241
f 457/367/242 459/368/243 455/364/238
f 460/369/244 456/365/239 458/366/241
f 461/370/245 458/366/246 462/371/245
f 459/368/243 457/367/242 463/372/247
f 465/373/248 459/368/249 464/374/248
f 466/375/250 467/376/251 468/377/252
f 468/377/252 467/376/251 469/378/253
f 468/377/252 470/379/250 466/375/250
f 470/379/250 471/380/254 466/375/250
f 471/380/254 470/379/250 472/381/255
f 472/381/255 473/382/256 471/380/254
f 471/380/254 473/382/256 474/383/257
f 473/382/256 475/384/258 474/383/257
f 474/383/257 475/384/258 476/385/258
f 476/385/258 475/384/258 477/386/259
f 478/387/260 479/388/261 480/389/262
f 480/389/262 479/388/261 481/390/263
f 479/388/261 478/387/260 482/391/260
f 482/391/260 478/387/260 483/392/264
f 483/392/264 484/393/265 482/391/260
f 483/392/264 485/394/266 484/393/265
f 485/394/266 483/392/264 486/395/267
f 486/395/267 487/396/268 485/394/266
f 487/396/268 486/395/267 488/397/268
f 487/396/268 488/397/268 489/398/269
f 490/399/270 491/400/271 492/401/272
f 493/402/273 492/401/272 491/400/271
f 490/399/270 492/401/272 494/403/274
f 492/401/272 493/402/273 495/404/275
f 494/403/274 496/405/276 490/399/270
f 493/402/273 497/406/277 495/404/275
f 496/405/276 494/403/274 498/407/278
f 497/406/277 493/402/273 499/408/279
f 498/407/278 500/409/280 496/405/276
f 499/408/279 501/410/281 497/406/277
f 502/411/276 496/405/276 500/409/280
f 501/410/281 499/408/279 503/412/282
f 500/409/280 504/413/283 502/411/276
f 503/412/282 505/414/284 501/410/281
f 505/414/284 503/412/282 506/415/285
f 505/414/284 506/415/285 507/416/286
f 504/413/283 500/409/280 508/417/283
f 504/413/283 508/417/283 509/418/287
f 510/419/288 504/413/283 509/418/287
f 509/418/287 511/420/289 510/419/288
f 511/420/289 509/418/287 512/421/290
f 511/420/289 512/421/290 513/422/291
f 514/423/292 515/424/293 516/425/294
f 515/424/293 514/423/292 517/426/293
f 515/424/293 518/427/295 516/425/294
f 514/423/292 519/428/296 517/426/293
f 520/429/297 516/425/294 518/427/295
f 519/428/296 514/423/292 521/430/298
f 518/427/295 522/431/299 520/429/297
f 519/428/296 521/430/298 523/432/300
f 522/431/299 518/427/295 524/433/295
f 525/434/301 519/428/296 523/432/300
f 524/433/295 526/435/302 522/431/299
f 525/434/301 523/432/300 527/436/303
f 528/437/302 522/431/299 526/435/302
f 529/438/304 525/434/301 527/436/303
f 526/435/302 530/439/305 528/437/302
f 527/436/303 531/440/276 529/438/304
f 532/441/306 529/438/304 531/440/276
f 532/441/306 531/440/276 533/442/307
f 530/439/305 526/435/302 534/443/308
f 534/443/308 535/444/300 530/439/305
f 530/439/305 535/444/300 536/445/309
f 536/445/309 535/444/300 537/446/310
f 538/401/311 539/447/312 540/403/313
f 539/447/312 541/448/314 540/403/313
f 539/447/312 538/401/311 542/449/315
f 543/407/316 540/403/313 541/448/314
f 544/404/317 542/449/315 538/401/311
f 541/448/314 545/450/318 543/407/316
f 542/449/315 544/404/317 546/451/319
f 547/409/320 543/407/316 545/450/318
f 544/404/317 548/452/321 546/451/319
f 545/450/318 549/453/322 547/409/320
f 548/452/321 544/404/317 550/406/323
f 551/417/322 547/409/320 549/453/322
f 550/406/323 552/454/324 548/452/321
f 551/417/322 549/453/322 553/455/325
f 552/454/324 550/406/323 554/410/326
f 555/418/325 551/417/322 553/455/325
f 554/410/326 556/456/327 552/454/324
f 556/456/327 554/410/326 557/414/328
f 556/456/327 557/414/328 558/416/329
f 555/418/325 553/455/325 559/457/330
f 560/421/331 555/418/325 559/457/330
f 560/421/331 559/457/330 561/422/332
f 562/423/333 563/458/334 564/459/335
f 563/458/334 562/423/333 565/425/336
f 564/459/335 566/430/337 562/423/333
f 565/425/336 567/460/338 563/458/334
f 566/430/337 564/459/335 568/461/339
f 567/460/338 565/425/336 569/429/340
f 570/462/322 566/430/337 568/461/339
f 569/429/340 571/463/341 567/460/338
f 572/432/342 566/430/337 570/462/322
f 571/463/341 569/429/340 573/431/343
f 570/462/322 574/464/344 572/432/342
f 573/431/343 575/465/321 571/463/341
f 576/436/345 572/432/342 574/464/344
f 575/465/321 573/431/343 577/437/346
f 574/464/344 578/466/347 576/436/345
f 579/440/348 576/436/345 578/466/347
f 579/440/348 578/466/347 580/442/349
f 577/437/346 581/467/350 575/465/321
f 581/467/350 577/437/346 582/439/350
f 582/439/350 583/468/351 581/467/350
f 583/468/351 582/439/350 584/445/352
f 583/468/351 584/445/352 585/446/353
f 586/375/354 587/469/355 588/376/355
f 588/376/355 587/469/355 589/378/356
f 587/469/355 586/375/354 590/470/357
f 586/375/354 591/471/358 590/470/357
f 591/471/358 586/375/354 592/380/359
f 592/380/359 593/472/360 591/471/358
f 593/472/360 592/380/359 594/383/360
f 594/383/360 595/473/361 593/472/360
f 595/473/361 594/383/360 596/385/362
f 595/473/361 596/385/362 597/386/363
f 598/387/364 599/474/365 600/475/359
f 601/476/366 598/387/364 600/475/359
f 599/474/365 598/387/364 602/389/365
f 599/474/365 602/389/365 603/390/367
f 601/476/366 604/392/357 598/387/364
f 604/392/357 601/476/366 605/477/368
f 605/477/368 606/395/368 604/392/357
f 606/395/368 605/477/368 607/478/369
f 608/397/370 606/395/368 607/478/369
f 608/397/370 607/478/369 609/398/371
f 611/479/372 610/356/373 613/480/374
f 612/358/375 611/479/372 614/481/146
f 615/359/376 617/482/377 613/480/144
f 616/360/378 614/481/146 618/483/378
f 615/359/376 619/484/379 617/482/377
f 618/483/378 620/485/380 616/360/378
f 619/484/379 615/359/376 621/365/381
f 616/360/378 620/485/380 622/367/382
f 619/484/379 621/365/381 623/369/383
f 620/485/380 624/372/384 622/367/382
f 625/486/385 619/484/379 623/369/383
f 623/369/383 626/487/386 625/486/385
f 626/487/386 623/369/383 627/370/386
f 624/372/384 620/485/380 628/488/387
f 628/488/387 629/489/388 624/372/384
f 630/374/388 624/372/384 629/489/388
f 631/490/389 632/298/390 633/491/391
f 632/298/390 631/490/389 634/301/392
f 634/301/392 631/490/389 635/302/391
f 633/491/391 632/298/390 636/303/393
f 637/492/394 633/491/391 636/303/393
f 636/303/393 638/493/395 637/492/394
f 638/493/395 636/303/393 639/305/396
f 639/305/396 640/494/397 638/493/395
f 640/494/397 639/305/396 641/307/398
f 640/494/397 641/307/398 642/309/399
f 643/311/400 644/313/401 645/495/401
f 645/495/401 644/313/401 646/314/402
f 645/495/401 647/496/402 643/311/400
f 647/496/402 648/315/403 643/311/400
f 648/315/403 647/496/402 649/497/404
f 649/497/404 650/498/405 648/315/403
f 651/317/406 648/315/403 650/498/405
f 650/498/405 652/499/407 651/317/406
f 653/319/408 651/317/406 652/499/407
f 653/319/408 652/499/407 654/321/409
f 655/500/410 656/322/411 657/501/411
f 656/322/411 655/500/410 658/323/410
f 658/323/410 655/500/410 659/325/412
f 656/322/411 660/327/413 657/501/411
f 657/501/411 660/327/413 661/502/414
f 660/327/413 662/503/415 661/502/414
f 662/503/415 660/327/413 663/330/416
f 663/330/416 664/504/417 662/503/415
f 664/504/417 663/330/416 665/332/418
f 665/332/418 666/505/419 664/504/417
f 666/505/419 665/332/418 667/333/420
f 667/333/420 668/506/421 666/505/419
f 668/506/421 667/333/420 669/336/422
f 668/506/421 669/336/422 670/337/423
f 671/339/411 672/507/424 673/508/411
f 672/507/424 671/339/411 674/341/424
f 672/507/424 674/341/424 675/342/425
f 673/508/411 676/343/426 671/339/411
f 676/343/426 673/508/411 677/509/427
f 676/343/426 677/509/427 678/510/428
f 679/346/429 676/343/426 678/510/428
f 678/510/428 680/511/430 679/346/429
f 679/346/429 680/511/430 681/348/431
f 680/511/430 682/512/432 681/348/431
f 681/348/431 682/512/432 683/349/433
f 682/512/432 684/513/434 683/349/433
f 683/349/433 684/513/434 685/352/435
f 685/352/435 684/513/434 686/353/436
f 687/514/437 688/272/438 689/515/439
f 689/515/439 688/272/438 690/273/440
f 688/272/438 687/514/437 691/270/441
f 687/514/437 692/516/442 691/270/441
f 691/270/441 692/516/442 693/275/443
f 692/516/442 694/278/444 693/275/443
f 694/278/444 692/516/442 695/517/444
f 695/517/444 696/280/445 694/278/444
f 696/280/445 695/517/444 697/518/445
f 697/518/445 698/282/446 696/280/445
f 698/282/446 697/518/445 699/519/447
f 698/282/446 699/519/447 700/283/448
f 701/286/449 702/520/450 703/287/451
f 702/520/450 704/521/452 703/287/451
f 703/287/451 704/521/452 705/288/453
f 701/286/449 706/522/454 702/520/450
f 706/522/454 701/286/449 707/289/455
f 708/292/456 706/522/454 707/289/455
f 706/522/454 708/292/456 709/523/456
f 710/294/457 709/523/456 708/292/456
f 709/523/456 710/294/457 711/524/457
f 712/296/458 711/524/457 710/294/457
f 711/524/457 712/296/458 713/525/459
f 713/525/459 712/296/458 714/297/460
f 717/259/461 716/526/462 718/258/461
f 720/527/463 717/259/461 718/258/461
f 719/528/464 715/261/465 721/529/466
f 724/530/467 725/249/468 722/531/469
f 727/532/470 723/264/471 726/533/472
f 728/534/473 730/253/474 729/535/475
f 731/526/476 732/266/230 733/258/230
f 732/266/230 734/527/233 733/258/230
f 739/536/239 735/268/477 737/528/478
f 738/533/479 736/269/480 740/537/481
f 741/531/246 744/250/482 743/538/483
f 745/539/484 746/254/248 742/534/243
f 747/540/485 748/541/486 749/542/487
f 749/542/487 750/543/488 747/540/485
f 747/540/485 750/543/488 751/544/489
f 748/541/486 752/545/490 749/542/487
f 752/545/490 748/541/486 753/546/491
f 754/547/492 752/545/490 753/546/491
f 752/545/490 754/547/492 755/548/493
f 756/549/494 755/548/493 754/547/492
f 755/548/493 756/549/494 757/550/495
f 758/551/496 757/550/495 756/549/494
f 757/550/495 758/551/496 759/552/497
f 759/552/497 758/551/496 760/553/498
f 761/554/499 762/555/500 763/556/501
f 763/556/501 762/555/500 764/557/502
f 762/555/500 761/554/499 765/558/503
f 761/554/499 766/559/504 765/558/503
f 765/558/503 766/559/504 767/560/505
f 766/559/504 768/561/506 767/560/505
f 768/561/506 766/559/504 769/562/506
f 769/562/506 770/563/507 768/561/506
f 770/563/507 769/562/506 771/564/508
f 771/564/508 772/565/509 770/563/507
f 772/565/509 771/564/508 773/566/510
f 772/565/509 773/566/510 774/567/511
f 775/568/512 776/569/513 777/570/513
f 776/569/513 775/568/512 778/571/512
f 778/571/512 775/568/512 779/572/514
f 777/570/513 776/569/513 780/573/515
f 781/574/516 777/570/513 780/573/515
f 781/574/516 780/573/515 782/575/517
f 783/576/518 781/574/516 782/575/517
f 782/575/517 784/577/519 783/576/518
f 785/578/519 783/576/518 784/577/519
f 785/578/519 784/577/519 786/579/520
f 787/580/521 788/581/522 789/582/523
f 787/580/521 790/583/522 788/581/522
f 788/581/522 790/583/522 791/584/524
f 789/582/523 792/585/525 787/580/521
f 792/585/525 789/582/523 793/586/526
f 793/586/526 794/587/527 792/585/525
f 794/587/527 793/586/526 795/588/528
f 795/588/528 796/589/529 794/587/527
f 796/589/529 795/588/528 797/590/529
f 796/589/529 797/590/529 798/591/530
f 799/592/531 800/593/532 801/594/532
f 800/593/532 799/592/531 802/595/531
f 802/595/531 799/592/531 803/596/533
f 801/594/532 800/593/532 804/597/534
f 805/598/535 801/594/532 804/597/534
f 804/597/534 806/599/536 805/598/535
f 806/599/536 804/597/534 807/600/536
f 807/600/536 808/601/537 806/599/536
f 808/601/537 807/600/536 809/602/537
f 809/602/537 810/603/538 808/601/537
f 808/601/537 810/603/538 811/604/539
f 810/603/538 812/605/540 811/604/539
f 812/605/540 810/603/538 813/606/540
f 812/605/540 813/606/540 814/607/541
f 815/608/542 816/609/543 817/610/543
f 817/610/543 816/609/543 818/611/544
f 817/610/543 819/612/542 815/608/542
f 819/612/542 820/613/545 815/608/542
f 820/613/545 819/612/542 821/614/546
f 820/613/545 821/614/546 822/615/547
f 823/616/547 820/613/545 822/615/547
f 823/616/547 822/615/547 824/617/548
f 825/618/549 823/616/547 824/617/548
f 824/617/548 826/619/550 825/618/549
f 826/619/550 824/617/548 827/620/550
f 826/619/550 827/620/550 828/621/551
f 829/622/551 826/619/550 828/621/551
f 829/622/551 828/621/551 830/623/552
f 831/624/553 832/625/554 833/626/555
f 833/626/555 834/627/461 831/624/553
f 833/626/555 832/625/554 835/628/554
f 832/625/554 836/629/556 835/628/554
f 834/627/461 837/630/463 839/631/557
f 838/632/466 840/633/558 836/629/559
f 837/630/463 841/634/560 839/631/557
f 840/633/558 838/632/466 842/635/467
f 844/636/561 840/633/469 843/637/562
f 841/634/560 837/630/463 845/638/560
f 841/634/560 845/638/560 846/639/563
f 847/640/564 846/639/563 848/641/565
f 849/642/566 847/640/564 848/641/565
f 850/643/567 848/641/473 851/644/567
f 852/645/568 853/646/569 854/647/570
f 854/647/570 853/646/569 855/648/571
f 853/646/569 852/645/568 856/649/572
f 856/649/572 852/645/568 857/650/573
f 857/650/573 858/651/574 856/649/572
f 857/650/573 859/652/575 858/651/574
f 859/652/575 857/650/573 860/653/576
f 860/653/576 861/654/577 859/652/575
f 861/654/577 860/653/576 862/655/578
f 861/654/577 862/655/578 863/656/579
f 864/657/580 865/658/581 866/659/582
f 866/659/582 865/658/581 867/660/583
f 866/659/582 868/661/584 864/657/580
f 868/661/584 869/662/585 864/657/580
f 869/662/585 868/661/584 870/663/586
f 870/663/586 871/664/587 869/662/585
f 869/662/585 871/664/587 872/665/588
f 871/664/587 873/666/589 872/665/588
f 872/665/588 873/666/589 874/667/589
f 874/667/589 873/666/589 875/668/590
f 876/669/591 877/670/592 878/671/593
f 877/670/592 876/669/591 879/672/594
f 877/670/592 880/673/595 878/671/593
f 876/669/591 881/674/596 879/672/594
f 882/675/597 878/671/593 880/673/595
f 881/674/596 876/669/591 883/676/598
f 880/673/595 884/677/599 882/675/597
f 881/674/596 883/676/598 885/678/600
f 884/677/599 880/673/595 886/679/601
f 887/680/602 881/674/596 885/678/600
f 886/679/601 888/681/603 884/677/599
f 887/680/602 885/678/600 889/682/604
f 890/683/605 884/677/599 888/681/603
f 891/684/606 887/680/602 889/682/604
f 888/681/603 892/685/607 890/683/605
f 889/682/604 893/686/608 891/684/606
f 894/687/609 891/684/606 893/686/608
f 894/687/609 893/686/608 895/688/610
f 892/685/607 888/681/603 896/689/611
f 896/689/611 897/690/600 892/685/607
f 892/685/607 897/690/600 898/691/612
f 898/691/612 897/690/600 899/692/613
f 900/693/614 901/694/614 902/695/615
f 903/696/616 902/695/615 901/694/614
f 900/693/614 902/695/615 904/697/617
f 902/695/615 903/696/616 905/698/618
f 904/697/617 906/699/608 900/693/614
f 903/696/616 907/700/619 905/698/618
f 906/699/608 904/697/617 908/701/620
f 907/700/619 903/696/616 909/702/621
f 908/701/620 910/703/622 906/699/608
f 909/702/621 911/704/623 907/700/619
f 912/705/608 906/699/608 910/703/622
f 911/704/623 909/702/621 913/706/624
f 910/703/622 914/707/625 912/705/608
f 913/706/624 915/708/595 911/704/623
f 915/708/595 913/706/624 916/709/626
f 915/708/595 916/709/626 917/710/627
f 914/707/625 910/703/622 918/711/628
f 914/707/625 918/711/628 919/712/629
f 920/713/630 914/707/625 919/712/629
f 919/712/629 921/714/631 920/713/630
f 921/714/631 919/712/629 922/715/632
f 921/714/631 922/715/632 923/716/633
f 924/669/634 925/717/635 926/718/634
f 925/717/635 924/669/634 927/671/636
f 926/718/634 928/676/637 924/669/634
f 927/671/636 929/719/638 925/717/635
f 928/676/637 926/718/634 930/720/639
f 929/719/638 927/671/636 931/675/640
f 932/721/641 928/676/637 930/720/639
f 931/675/640 933/722/642 929/719/638
f 934/678/643 928/676/637 932/721/641
f 933/722/642 931/675/640 935/677/644
f 932/721/641 936/723/645 934/678/643
f 935/677/644 937/724/646 933/722/642
f 938/682/647 934/678/643 936/723/645
f 937/724/646 935/677/644 939/683/646
f 936/723/645 940/725/648 938/682/647
f 941/686/649 938/682/647 940/725/648
f 941/686/649 940/725/648 942/688/650
f 939/683/646 943/726/651 937/724/646
f 943/726/651 939/683/646 944/685/652
f 944/685/652 945/727/653 943/726/651
f 945/727/653 944/685/652 946/691/654
f 945/727/653 946/691/654 947/692/655
f 948/695/656 949/728/657 950/697/658
f 949/728/657 951/729/659 950/697/658
f 949/728/657 948/695/656 952/730/660
f 953/701/661 950/697/658 951/729/659
f 954/698/662 952/730/660 948/695/656
f 951/729/659 955/731/663 953/701/661
f 952/730/660 954/698/662 956/732/664
f 957/703/665 953/701/661 955/731/663
f 954/698/662 958/733/646 956/732/664
f 955/731/663 959/734/641 957/703/665
f 958/733/646 954/698/662 960/700/666
f 961/711/641 957/703/665 959/734/641
f 960/700/666 962/735/667 958/733/646
f 961/711/641 959/734/641 963/736/668
f 962/735/667 960/700/666 964/704/669
f 965/712/668 961/711/641 963/736/668
f 964/704/669 966/737/670 962/735/667
f 966/737/670 964/704/669 967/708/671
f 966/737/670 967/708/671 968/710/672
f 965/712/668 963/736/668 969/738/673
f 970/715/674 965/712/668 969/738/673
f 970/715/674 969/738/673 971/716/675
f 972/645/676 973/739/677 974/740/678
f 975/741/679 972/645/676 974/740/678
f 973/739/677 972/645/676 976/647/677
f 973/739/677 976/647/677 977/648/680
f 975/741/679 978/650/681 972/645/676
f 978/650/681 975/741/679 979/742/682
f 979/742/682 980/653/682 978/650/681
f 980/653/682 979/742/682 981/743/683
f 982/655/683 980/653/682 981/743/683
f 982/655/683 981/743/683 983/656/684
f 984/657/685 985/744/686 986/658/686
f 986/658/686 985/744/686 987/660/687
f 985/744/686 984/657/685 988/745/681
f 984/657/685 989/746/688 988/745/681
f 989/746/688 984/657/685 990/662/678
f 990/662/678 991/747/689 989/746/688
f 991/747/689 990/662/678 992/665/689
f 992/665/689 993/748/690 991/747/689
f 993/748/690 992/665/689 994/667/690
f 993/748/690 994/667/690 995/668/691
f 997/624/692 996/749/149 999/750/693
f 996/749/149 998/631/694 1000/751/156
f 1001/625/153 999/750/152 1003/752/695
f 1002/634/696 1004/753/696 1000/751/156
f 1003/752/695 1005/754/697 1001/625/153
f 1002/634/696 1006/755/698 1004/753/696
f 1001/625/153 1005/754/697 1007/632/699
f 1006/755/698 1002/634/696 1008/640/700
f 1005/754/697 1009/635/701 1007/632/699
f 1006/755/698 1008/640/700 1010/642/702
f 1009/635/701 1005/754/697 1011/756/703
f 1011/756/703 1012/757/704 1009/635/701
f 1013/637/704 1009/635/701 1012/757/704
f 1014/758/705 1006/755/698 1010/642/702
f 1010/642/702 1015/759/706 1014/758/705
f 1015/759/706 1010/642/702 1016/643/706
f 1017/569/707 1018/571/708 1019/760/709
f 1019/760/709 1018/571/708 1020/572/710
f 1019/760/709 1021/761/710 1017/569/707
f 1021/761/710 1022/573/711 1017/569/707
f 1022/573/711 1021/761/710 1023/762/712
f 1023/762/712 1024/763/713 1022/573/711
f 1025/575/714 1022/573/711 1024/763/713
f 1024/763/713 1026/764/715 1025/575/714
f 1027/577/716 1025/575/714 1026/764/715
f 1027/577/716 1026/764/715 1028/579/717
f 1029/765/718 1030/580/719 1031/766/720
f 1030/580/719 1029/765/718 1032/583/721
f 1032/583/721 1029/765/718 1033/584/720
f 1031/766/720 1030/580/719 1034/585/722
f 1035/767/723 1031/766/720 1034/585/722
f 1034/585/722 1036/768/724 1035/767/723
f 1036/768/724 1034/585/722 1037/587/725
f 1037/587/725 1038/769/726 1036/768/724
f 1038/769/726 1037/587/725 1039/589/727
f 1038/769/726 1039/589/727 1040/591/728
f 1041/593/729 1042/770/730 1043/771/729
f 1042/770/730 1041/593/729 1044/595/731
f 1042/770/730 1044/595/731 1045/596/731
f 1043/771/729 1046/597/732 1041/593/729
f 1046/597/732 1043/771/729 1047/772/733
f 1046/597/732 1047/772/733 1048/773/734
f 1049/600/735 1046/597/732 1048/773/734
f 1048/773/734 1050/774/736 1049/600/735
f 1049/600/735 1050/774/736 1051/602/737
f 1050/774/736 1052/775/738 1051/602/737
f 1051/602/737 1052/775/738 1053/603/739
f 1052/775/738 1054/776/740 1053/603/739
f 1053/603/739 1054/776/740 1055/606/741
f 1055/606/741 1054/776/740 1056/607/742
f 1057/777/743 1058/608/729 1059/778/729
f 1058/608/729 1057/777/743 1060/609/743
f 1060/609/743 1057/777/743 1061/611/744
f 1058/608/729 1062/613/745 1059/778/729
f 1059/778/729 1062/613/745 1063/779/746
f 1062/613/745 1064/780/747 1063/779/746
f 1064/780/747 1062/613/745 1065/616/748
f 1065/616/748 1066/781/749 1064/780/747
f 1066/781/749 1065/616/748 1067/618/750
f 1067/618/750 1068/782/751 1066/781/749
f 1068/782/751 1067/618/750 1069/619/752
f 1069/619/752 1070/783/753 1068/782/751
f 1070/783/753 1069/619/752 1071/622/754
f 1070/783/753 1071/622/754 1072/623/755
f 1073/542/756 1074/784/757 1075/543/758
f 1074/784/757 1076/785/759 1075/543/758
f 1075/543/758 1076/785/759 1077/544/760
f 1073/542/756 1078/786/761 1074/784/757
f 1078/786/761 1073/542/756 1079/545/762
f 1080/548/763 1078/786/761 1079/545/762
f 1078/786/761 1080/548/763 1081/787/763
f 1082/550/764 1081/787/763 1080/548/763
f 1081/787/763 1082/550/764 1083/788/765
f 1084/552/766 1083/788/765 1082/550/764
f 1083/788/765 1084/552/766 1085/789/767
f 1085/789/767 1084/552/766 1086/553/768
f 1087/790/769 1088/556/770 1089/791/771
f 1089/791/771 1088/556/770 1090/557/772
f 1088/556/770 1087/790/769 1091/554/773
f 1087/790/769 1092/792/774 1091/554/773
f 1091/554/773 1092/792/774 1093/559/775
f 1092/792/774 1094/562/776 1093/559/775
f 1094/562/776 1092/792/774 1095/793/776
f 1095/793/776 1096/564/777 1094/562/776
f 1096/564/777 1095/793/776 1097/794/778
f 1097/794/778 1098/566/779 1096/564/777
f 1098/566/779 1097/794/778 1099/795/780
f 1098/566/779 1099/795/780 1100/567/781
