# Blender 5.2.0 LTS
# www.blender.org
mtllib ginger bread handgun mag.mtl
o ginger_bread_handgun_mag
v 0.121262 -0.043329 -0.079115
v 0.121262 -0.043329 0.076686
v 0.098582 -0.084750 -0.069606
v 0.098582 -0.084750 0.067669
v 0.179133 0.285366 -0.066287
v 0.095386 -0.023992 0.064335
v 0.095386 -0.023992 -0.066287
v 0.179133 0.285366 0.064335
v 0.179133 0.285366 -0.066287
v -0.081508 0.285366 -0.066287
v -0.081508 0.285366 0.064335
v 0.179133 0.285366 0.064335
v -0.164217 -0.002538 0.064335
v -0.164217 -0.002538 -0.066287
v -0.187618 -0.017808 -0.079116
v -0.187618 -0.017808 0.076686
v 0.095386 -0.023992 -0.066287
v 0.121262 -0.043329 0.076686
v 0.121262 -0.043329 -0.079115
v 0.095386 -0.023992 0.064335
v 0.121262 -0.043329 0.076686
v -0.187618 -0.017808 0.076686
v 0.098582 -0.084750 0.067669
v -0.172904 -0.062314 0.067669
v 0.095386 -0.023992 0.064335
v -0.081508 0.285366 0.064335
v -0.164217 -0.002538 0.064335
v 0.179133 0.285366 0.064335
v 0.095386 -0.023992 0.064335
v -0.164217 -0.002538 0.064335
v -0.187618 -0.017808 0.076686
v 0.121262 -0.043329 0.076686
v -0.172904 -0.062314 -0.069606
v -0.187618 -0.017808 0.076686
v -0.187618 -0.017808 -0.079116
v -0.172904 -0.062314 0.067669
v -0.164217 -0.002538 0.064335
v -0.081508 0.285366 0.064335
v -0.164217 -0.002538 -0.066287
v -0.081508 0.285366 -0.066287
v 0.098582 -0.084750 0.067669
v -0.172904 -0.062314 -0.069606
v 0.098582 -0.084750 -0.069606
v -0.172904 -0.062314 0.067669
v -0.187618 -0.017808 -0.079116
v 0.098582 -0.084750 -0.069606
v -0.172904 -0.062314 -0.069606
v 0.121262 -0.043329 -0.079115
v 0.179133 0.285366 -0.066287
v 0.095386 -0.023992 -0.066287
v -0.081508 0.285366 -0.066287
v -0.164217 -0.002538 -0.066287
v -0.187618 -0.017808 -0.079116
v 0.095386 -0.023992 -0.066287
v 0.121262 -0.043329 -0.079115
v -0.164217 -0.002538 -0.066287
vn 0.8786 -0.4775 -0.0000
vn 0.9662 -0.2579 -0.0000
vn -0.0000 1.0000 -0.0000
vn -0.5472 0.8370 -0.0000
vn -0.5473 0.8370 -0.0000
vn 0.5981 0.8014 -0.0000
vn 0.5980 0.8015 -0.0000
vn -0.0165 -0.2098 0.9776
vn -0.0000 -0.0000 1.0000
vn 0.0480 0.5840 0.8103
vn 0.0480 0.5840 0.8104
vn -0.9489 -0.3155 -0.0000
vn -0.9619 0.2733 -0.0000
vn -0.9619 0.2732 -0.0000
vn -0.0815 -0.9967 -0.0000
vn -0.0816 -0.9967 -0.0000
vn -0.0165 -0.2098 -0.9776
vn -0.0000 -0.0001 -1.0000
vn -0.0000 -0.0000 -1.0000
vn 0.0480 0.5840 -0.8103
vt 62.020500 -35.042198
vt 61.979500 -35.042198
vt 62.018002 -35.054401
vt 61.981998 -35.054401
vt 62.017200 -34.945599
vt 61.982800 -35.036598
vt 62.017200 -35.036598
vt 61.982800 -34.945599
vt 61.949100 -35.017200
vt 62.021500 -35.017200
vt 62.021500 -34.982800
vt 61.949100 -34.982800
vt 62.044399 -34.982800
vt 62.044399 -35.017200
vt 62.050900 -35.020500
vt 62.050900 -34.979500
vt 61.972301 -35.017200
vt 61.965099 -34.979500
vt 61.965099 -35.020500
vt 61.972301 -34.982800
vt 62.034901 -35.042198
vt 61.949100 -35.034698
vt 62.028599 -35.054401
vt 61.953098 -35.047798
vt 62.027699 -35.036598
vt 61.978500 -34.945599
vt 61.955601 -35.030300
vt 62.050900 -34.945599
vt 61.981998 -35.047798
vt 62.020500 -35.034698
vt 61.979500 -35.034698
vt 62.018002 -35.047798
vt 62.017200 -35.030300
vt 61.982800 -35.030300
vt 62.028599 -34.981998
vt 61.953098 -35.018002
vt 62.028599 -35.018002
vt 61.953098 -34.981998
vt 62.050900 -35.034698
vt 61.971401 -35.054401
vt 62.046902 -35.047798
vt 61.965099 -35.042198
vt 61.949100 -34.945599
vt 61.972301 -35.036598
vt 62.021500 -34.945599
vt 62.044399 -35.030300
s 1
usemtl Meshpart1Mtl.004
f 1/1/1 2/2/1 3/3/1
f 3/3/1 2/2/1 4/4/1
f 5/5/2 6/6/2 7/7/2
f 6/6/2 5/5/2 8/8/2
f 9/9/3 10/10/3 11/11/3
f 9/9/3 11/11/3 12/12/3
f 13/13/4 14/14/5 15/15/5
f 15/15/5 16/16/4 13/13/4
f 17/17/6 18/18/7 19/19/7
f 18/18/7 17/17/6 20/20/6
f 21/21/8 22/22/8 23/23/8
f 23/23/8 22/22/8 24/24/8
f 25/25/9 26/26/9 27/27/9
f 26/26/9 25/25/9 28/28/9
f 29/25/10 30/27/10 31/22/10
f 31/22/10 32/21/11 29/25/10
f 33/29/12 34/30/12 35/31/12
f 34/30/12 33/29/12 36/32/12
f 37/33/13 38/5/13 39/34/14
f 40/8/13 39/34/14 38/5/13
f 41/35/15 42/36/16 43/37/16
f 42/36/16 41/35/15 44/38/15
f 45/39/17 46/40/17 47/41/17
f 46/40/17 45/39/17 48/42/17
f 49/43/18 50/44/19 51/45/19
f 50/44/19 52/46/19 51/45/19
f 53/39/20 54/44/20 55/42/20
f 54/44/20 53/39/20 56/46/20
