# Blender 5.1.2
# www.blender.org
mtllib pearlmag.mtl
o jack
v 0.141376 0.122412 -0.000144
v 0.108919 0.141701 -0.022917
v 0.122094 0.141701 -0.000144
v 0.118564 0.122412 -0.039623
v 0.148444 0.096064 -0.000144
v 0.122094 0.096064 -0.045769
v 0.118564 0.069715 -0.039623
v 0.141376 0.069715 -0.000144
v 0.108919 0.050426 -0.022917
v 0.122094 0.050426 -0.000144
v 0.118564 0.069715 0.039412
v 0.122094 0.096064 0.045559
v 0.118564 0.122412 0.039412
v 0.141376 0.069715 -0.000144
v 0.141376 0.122412 -0.000144
v 0.108919 0.050426 0.022707
v 0.122094 0.050426 -0.000144
v 0.108919 0.141701 0.022707
v 0.122094 0.141701 -0.000144
v 0.124678 0.030334 -0.000144
v 0.092221 0.049623 -0.022917
v 0.101866 0.030334 -0.039623
v 0.131739 0.003986 -0.000144
v 0.105396 0.003986 -0.045769
v 0.101866 -0.022363 -0.039623
v 0.124678 -0.022363 -0.000144
v 0.092221 -0.041653 -0.022917
v 0.101866 -0.022363 0.039412
v 0.105396 0.003986 0.045560
v 0.101866 0.030334 0.039412
v 0.124678 -0.022363 -0.000144
v 0.124678 0.030334 -0.000144
v 0.092221 -0.041653 0.022707
v 0.092221 0.049623 0.022707
v 0.095680 -0.064670 -0.000144
v 0.063215 -0.045381 -0.022917
v 0.072860 -0.064670 -0.039623
v 0.102741 -0.091019 -0.000144
v 0.076390 -0.091019 -0.045769
v 0.072860 -0.117367 -0.039623
v 0.095680 -0.117367 -0.000144
v 0.072860 -0.117367 0.039412
v 0.076390 -0.091019 0.045560
v 0.072860 -0.064670 0.039412
v 0.095680 -0.117367 -0.000144
v 0.095680 -0.064670 -0.000144
v 0.063215 -0.045381 0.022707
v 0.056233 -0.155850 -0.000144
v 0.023776 -0.136563 -0.022917
v 0.036951 -0.136563 -0.000144
v 0.033421 -0.155850 -0.039623
v 0.063294 -0.182200 -0.000144
v 0.036951 -0.182200 -0.045769
v 0.033421 -0.208549 -0.039623
v 0.056233 -0.208549 -0.000144
v 0.023776 -0.227837 -0.022917
v 0.036951 -0.227837 -0.000144
v 0.033421 -0.208549 0.039412
v 0.036951 -0.182200 0.045560
v 0.033421 -0.155850 0.039412
v 0.056233 -0.208549 -0.000144
v 0.056233 -0.155850 -0.000144
v 0.023776 -0.227837 0.022707
v 0.036951 -0.227837 -0.000144
v 0.023776 -0.136563 0.022707
v 0.036951 -0.136563 -0.000144
v -0.012220 -0.155850 -0.039623
v -0.035040 -0.155850 -0.000144
v -0.002575 -0.136563 -0.022917
v -0.015750 -0.136563 -0.000144
v 0.010600 -0.129502 -0.000144
v -0.012220 -0.155850 0.039412
v -0.035040 -0.155850 -0.000144
v -0.002575 -0.136563 0.022707
v -0.015750 -0.136563 -0.000144
v 0.010600 -0.129502 -0.000144
v 0.141376 0.122412 -0.000144
v 0.108919 0.141701 -0.022917
v 0.122094 0.141701 -0.000144
v 0.095743 0.148761 -0.000144
v 0.118564 0.122412 -0.039623
v 0.118564 0.122412 0.039412
v 0.141376 0.122412 -0.000144
v 0.108919 0.141701 0.022707
v 0.122094 0.141701 -0.000144
v 0.095743 0.148761 -0.000144
v 0.124678 0.030334 -0.000144
v 0.092221 0.049623 -0.022917
v 0.105396 0.049623 -0.000144
v 0.079046 0.056683 -0.000144
v 0.124678 0.030334 -0.000144
v 0.092221 0.049623 0.022707
v 0.105396 0.049623 -0.000144
v 0.079046 0.056683 -0.000144
v 0.036864 -0.045381 -0.022917
v 0.023689 -0.045381 -0.000144
v 0.050040 -0.038321 -0.000144
v 0.036864 -0.045381 0.022707
v 0.023689 -0.045381 -0.000144
v 0.050040 -0.038321 -0.000144
v 0.023776 -0.136563 -0.022917
v -0.002575 -0.136563 -0.022917
v 0.010600 -0.129502 -0.000144
v 0.023776 -0.136563 0.022707
v -0.002575 -0.136563 0.022707
v 0.010600 -0.129502 -0.000144
v 0.063215 -0.045381 -0.022917
v 0.036864 -0.045381 -0.022917
v 0.050040 -0.038321 -0.000144
v 0.036864 -0.045381 0.022707
v 0.063215 -0.045381 0.022707
v 0.050040 -0.038321 -0.000144
v 0.065870 0.049623 -0.022917
v 0.092221 0.049623 -0.022917
v 0.079046 0.056683 -0.000144
v 0.065870 0.049623 0.022707
v 0.092221 0.049623 0.022707
v 0.079046 0.056683 -0.000144
v 0.108919 0.141701 -0.022917
v 0.082568 0.141701 -0.022917
v 0.095743 0.148761 -0.000144
v 0.082568 0.141701 0.022707
v 0.108919 0.141701 0.022707
v 0.095743 0.148761 -0.000144
v 0.095680 -0.064670 -0.000144
v 0.063215 -0.045381 -0.022917
v 0.076390 -0.045381 -0.000144
v 0.050040 -0.038321 -0.000144
v 0.095680 -0.064670 -0.000144
v 0.063215 -0.045381 0.022707
v 0.076390 -0.045381 -0.000144
v 0.050040 -0.038321 -0.000144
v 0.056225 0.030334 -0.039623
v 0.033405 0.030334 -0.000144
v 0.065870 0.049623 -0.022917
v 0.052695 0.049623 -0.000144
v 0.079046 0.056683 -0.000144
v 0.056225 0.030334 0.039412
v 0.033405 0.030334 -0.000144
v 0.065870 0.049623 0.022707
v 0.052695 0.049623 -0.000144
v 0.079046 0.056683 -0.000144
v 0.072923 0.122412 -0.039623
v 0.050103 0.122412 -0.000144
v 0.082568 0.141701 -0.022917
v 0.069393 0.141701 -0.000144
v 0.095743 0.148761 -0.000144
v 0.072923 0.122412 0.039412
v 0.050103 0.122412 -0.000144
v 0.082568 0.141701 0.022707
v 0.069393 0.141701 -0.000144
v 0.095743 0.148761 -0.000144
v 0.056233 -0.155850 -0.000144
v 0.023776 -0.136563 -0.022917
v 0.036951 -0.136563 -0.000144
v 0.010600 -0.129502 -0.000144
v 0.033421 -0.155850 -0.039623
v 0.033421 -0.155850 0.039412
v 0.056233 -0.155850 -0.000144
v 0.023776 -0.136563 0.022707
v 0.036951 -0.136563 -0.000144
v 0.010600 -0.129502 -0.000144
v 0.033421 -0.208549 0.039412
v -0.012220 -0.208549 0.039412
v 0.023776 -0.227837 0.022707
v -0.002575 -0.227837 0.022707
v -0.015750 -0.182200 0.045560
v 0.036951 -0.182200 0.045560
v -0.012220 -0.155850 0.039412
v 0.033421 -0.155850 0.039412
v 0.023776 -0.136563 0.022707
v -0.002575 -0.136563 0.022707
v 0.072860 -0.117367 0.039412
v 0.027219 -0.117367 0.039412
v 0.063215 -0.136656 0.022707
v 0.036864 -0.136656 0.022707
v 0.076390 -0.091019 0.045560
v 0.023689 -0.091019 0.045560
v 0.027219 -0.064670 0.039412
v 0.072860 -0.064670 0.039412
v 0.036864 -0.045381 0.022707
v 0.063215 -0.045381 0.022707
v 0.101866 -0.022363 0.039412
v 0.065870 -0.041653 0.022707
v 0.092221 -0.041653 0.022707
v 0.056225 -0.022363 0.039412
v 0.052695 0.003986 0.045560
v 0.105396 0.003986 0.045560
v 0.101866 0.030334 0.039412
v 0.056225 0.030334 0.039412
v 0.065870 0.049623 0.022707
v 0.092221 0.049623 0.022707
v 0.118564 0.069715 0.039412
v 0.072923 0.069715 0.039412
v 0.108919 0.050426 0.022707
v 0.122094 0.096064 0.045559
v 0.082568 0.050426 0.022707
v 0.069393 0.096064 0.045559
v 0.118564 0.122412 0.039412
v 0.072923 0.122412 0.039412
v 0.082568 0.141701 0.022707
v 0.108919 0.141701 0.022707
v -0.035040 -0.208549 -0.000144
v -0.012220 -0.208549 -0.039623
v -0.042101 -0.182200 -0.000144
v -0.015750 -0.182200 -0.045769
v -0.012220 -0.155850 -0.039623
v -0.035040 -0.155850 -0.000144
v -0.012220 -0.208549 0.039412
v -0.015750 -0.182200 0.045560
v -0.012220 -0.155850 0.039412
v -0.035040 -0.208549 -0.000144
v -0.035040 -0.155850 -0.000144
v 0.004407 -0.117367 -0.000144
v 0.027219 -0.117367 -0.039623
v -0.002654 -0.091019 -0.000144
v 0.023689 -0.091019 -0.045769
v 0.027219 -0.064670 -0.039623
v 0.004407 -0.064670 -0.000144
v 0.036864 -0.045381 -0.022917
v 0.023689 -0.045381 -0.000144
v 0.027219 -0.117367 0.039412
v 0.023689 -0.091019 0.045560
v 0.027219 -0.064670 0.039412
v 0.004407 -0.117367 -0.000144
v 0.004407 -0.064670 -0.000144
v 0.036864 -0.045381 0.022707
v 0.023689 -0.045381 -0.000144
v 0.052695 -0.041653 -0.000144
v 0.065870 -0.041653 -0.022917
v 0.033405 -0.022363 -0.000144
v 0.056225 -0.022363 -0.039623
v 0.026345 0.003986 -0.000144
v 0.052695 0.003986 -0.045769
v 0.056225 0.030334 -0.039623
v 0.033405 0.030334 -0.000144
v 0.065870 0.049623 -0.022917
v 0.052695 0.049623 -0.000144
v 0.056225 -0.022363 0.039412
v 0.052695 0.003986 0.045560
v 0.056225 0.030334 0.039412
v 0.033405 -0.022363 -0.000144
v 0.033405 0.030334 -0.000144
v 0.065870 -0.041653 0.022707
v 0.052695 -0.041653 -0.000144
v 0.065870 0.049623 0.022707
v 0.052695 0.049623 -0.000144
v 0.069393 0.050426 -0.000144
v 0.082568 0.050426 -0.022917
v 0.050103 0.069715 -0.000144
v 0.072923 0.069715 -0.039623
v 0.043042 0.096064 -0.000144
v 0.069393 0.096064 -0.045769
v 0.072923 0.122412 -0.039623
v 0.050103 0.122412 -0.000144
v 0.082568 0.141701 -0.022917
v 0.069393 0.141701 -0.000144
v 0.072923 0.069715 0.039412
v 0.069393 0.096064 0.045559
v 0.072923 0.122412 0.039412
v 0.050103 0.069715 -0.000144
v 0.050103 0.122412 -0.000144
v 0.082568 0.050426 0.022707
v 0.069393 0.050426 -0.000144
v 0.082568 0.141701 0.022707
v 0.069393 0.141701 -0.000144
v 0.010600 -0.234898 -0.000144
v -0.015750 -0.227837 -0.000144
v -0.002575 -0.227837 -0.022917
v -0.035040 -0.208549 -0.000144
v -0.012220 -0.208549 -0.039623
v -0.012220 -0.208549 0.039412
v -0.035040 -0.208549 -0.000144
v -0.002575 -0.227837 0.022707
v -0.015750 -0.227837 -0.000144
v 0.010600 -0.234898 -0.000144
v 0.118564 0.069715 -0.039623
v 0.141376 0.069715 -0.000144
v 0.108919 0.050426 -0.022917
v 0.122094 0.050426 -0.000144
v 0.095743 0.043366 -0.000144
v 0.118564 0.069715 0.039412
v 0.141376 0.069715 -0.000144
v 0.108919 0.050426 0.022707
v 0.122094 0.050426 -0.000144
v 0.095743 0.043366 -0.000144
v 0.124678 -0.022363 -0.000144
v 0.092221 -0.041653 -0.022917
v 0.105396 -0.041653 -0.000144
v 0.079046 -0.048712 -0.000144
v 0.124678 -0.022363 -0.000144
v 0.092221 -0.041653 0.022707
v 0.105396 -0.041653 -0.000144
v 0.079046 -0.048712 -0.000144
v 0.050040 -0.143716 -0.000144
v 0.023689 -0.136656 -0.000144
v 0.036864 -0.136656 -0.022917
v 0.004407 -0.117367 -0.000144
v 0.027219 -0.117367 -0.039623
v 0.027219 -0.117367 0.039412
v 0.004407 -0.117367 -0.000144
v 0.036864 -0.136656 0.022707
v 0.023689 -0.136656 -0.000144
v 0.050040 -0.143716 -0.000144
v 0.023776 -0.227837 -0.022917
v -0.002575 -0.227837 -0.022917
v 0.010600 -0.234898 -0.000144
v 0.023776 -0.227837 0.022707
v -0.002575 -0.227837 0.022707
v 0.010600 -0.234898 -0.000144
v 0.036864 -0.136656 -0.022917
v 0.063215 -0.136656 -0.022917
v 0.050040 -0.143716 -0.000144
v 0.063215 -0.136656 0.022707
v 0.036864 -0.136656 0.022707
v 0.050040 -0.143716 -0.000144
v 0.065870 -0.041653 -0.022917
v 0.092221 -0.041653 -0.022917
v 0.079046 -0.048712 -0.000144
v 0.065870 -0.041653 0.022707
v 0.092221 -0.041653 0.022707
v 0.079046 -0.048712 -0.000144
v 0.082568 0.050426 -0.022917
v 0.108919 0.050426 -0.022917
v 0.095743 0.043366 -0.000144
v 0.108919 0.050426 0.022707
v 0.082568 0.050426 0.022707
v 0.095743 0.043366 -0.000144
v 0.072860 -0.117367 -0.039623
v 0.095680 -0.117367 -0.000144
v 0.063215 -0.136656 -0.022917
v 0.076390 -0.136656 -0.000144
v 0.050040 -0.143716 -0.000144
v 0.072860 -0.117367 0.039412
v 0.095680 -0.117367 -0.000144
v 0.063215 -0.136656 0.022707
v 0.076390 -0.136656 -0.000144
v 0.050040 -0.143716 -0.000144
v 0.079046 -0.048712 -0.000144
v 0.052695 -0.041653 -0.000144
v 0.065870 -0.041653 -0.022917
v 0.033405 -0.022363 -0.000144
v 0.056225 -0.022363 -0.039623
v 0.056225 -0.022363 0.039412
v 0.033405 -0.022363 -0.000144
v 0.065870 -0.041653 0.022707
v 0.052695 -0.041653 -0.000144
v 0.079046 -0.048712 -0.000144
v 0.095743 0.043366 -0.000144
v 0.069393 0.050426 -0.000144
v 0.082568 0.050426 -0.022917
v 0.050103 0.069715 -0.000144
v 0.072923 0.069715 -0.039623
v 0.072923 0.069715 0.039412
v 0.050103 0.069715 -0.000144
v 0.082568 0.050426 0.022707
v 0.069393 0.050426 -0.000144
v 0.095743 0.043366 -0.000144
v 0.033421 -0.208549 -0.039623
v 0.056233 -0.208549 -0.000144
v 0.023776 -0.227837 -0.022917
v 0.036951 -0.227837 -0.000144
v 0.010600 -0.234898 -0.000144
v 0.033421 -0.208549 0.039412
v 0.056233 -0.208549 -0.000144
v 0.023776 -0.227837 0.022707
v 0.036951 -0.227837 -0.000144
v 0.010600 -0.234898 -0.000144
v 0.036951 -0.182200 -0.045769
v -0.012220 -0.208549 -0.039623
v -0.015750 -0.182200 -0.045769
v 0.033421 -0.208549 -0.039623
v 0.033421 -0.155850 -0.039623
v 0.023776 -0.227837 -0.022917
v -0.002575 -0.227837 -0.022917
v -0.012220 -0.155850 -0.039623
v 0.023776 -0.136563 -0.022917
v -0.002575 -0.136563 -0.022917
v 0.076390 -0.091019 -0.045769
v 0.027219 -0.117367 -0.039623
v 0.023689 -0.091019 -0.045769
v 0.027219 -0.064670 -0.039623
v 0.072860 -0.117367 -0.039623
v 0.072860 -0.064670 -0.039623
v 0.036864 -0.136656 -0.022917
v 0.063215 -0.136656 -0.022917
v 0.063215 -0.045381 -0.022917
v 0.036864 -0.045381 -0.022917
v 0.052695 0.003986 -0.045769
v 0.101866 -0.022363 -0.039623
v 0.056225 -0.022363 -0.039623
v 0.065870 -0.041653 -0.022917
v 0.092221 -0.041653 -0.022917
v 0.105396 0.003986 -0.045769
v 0.101866 0.030334 -0.039623
v 0.056225 0.030334 -0.039623
v 0.065870 0.049623 -0.022917
v 0.092221 0.049623 -0.022917
v 0.069393 0.096064 -0.045769
v 0.118564 0.069715 -0.039623
v 0.072923 0.069715 -0.039623
v 0.082568 0.050426 -0.022917
v 0.108919 0.050426 -0.022917
v 0.122094 0.096064 -0.045769
v 0.072923 0.122412 -0.039623
v 0.118564 0.122412 -0.039623
v 0.108919 0.141701 -0.022917
v 0.082568 0.141701 -0.022917
v 0.224115 0.120510 -0.000144
v 0.228063 0.032316 -0.070512
v 0.224115 0.120510 -0.070512
v 0.204605 0.191564 -0.000144
v 0.204605 0.191564 -0.070512
v 0.228063 0.032316 -0.000144
v 0.214794 -0.053205 -0.070512
v 0.214794 -0.053205 -0.000144
v 0.184290 -0.136054 -0.070512
v 0.184290 -0.136054 -0.000144
v 0.144189 -0.217411 -0.070512
v 0.144189 -0.217411 -0.000144
v 0.224115 0.120510 -0.000144
v 0.228063 0.032316 0.070224
v 0.228063 0.032316 -0.000144
v 0.214794 -0.053205 0.070224
v 0.224115 0.120510 0.070224
v 0.204605 0.191564 -0.000144
v 0.204605 0.191564 0.070224
v 0.214794 -0.053205 -0.000144
v 0.184290 -0.136054 0.070224
v 0.184290 -0.136054 -0.000144
v 0.144189 -0.217411 0.070224
v 0.144189 -0.217411 -0.000144
v 0.144189 -0.217411 -0.000144
v 0.152211 -0.309771 -0.084538
v 0.144189 -0.217411 -0.070512
v 0.152211 -0.309771 -0.084538
v 0.144189 -0.217411 -0.000144
v 0.156230 -0.356099 -0.000144
v 0.144189 -0.217411 -0.000144
v 0.152211 -0.309771 0.084330
v 0.156230 -0.356099 -0.000144
v 0.152211 -0.309771 0.084330
v 0.144189 -0.217411 -0.000144
v 0.144189 -0.217411 0.070224
v -0.038437 -0.180133 -0.040489
v -0.059484 -0.215506 -0.000144
v -0.059484 -0.215506 -0.050339
v -0.038437 -0.180133 -0.000144
v -0.038437 -0.180133 0.040280
v -0.059484 -0.215506 0.050131
v -0.038437 -0.180133 -0.040489
v 0.002137 -0.097830 -0.041198
v 0.002137 -0.097830 -0.000144
v -0.038437 -0.180133 -0.000144
v -0.038437 -0.180133 0.040280
v 0.002137 -0.097830 0.040989
v 0.046777 0.074027 -0.041198
v 0.042766 0.163660 -0.041198
v 0.042766 0.163660 -0.000144
v 0.046777 0.074027 -0.000144
v 0.033200 -0.013423 -0.041198
v 0.033200 -0.013423 -0.000144
v 0.033200 -0.013423 0.040989
v 0.046777 0.074027 0.040989
v 0.042766 0.163660 0.040989
v 0.033200 -0.013423 -0.000144
v 0.002137 -0.097830 -0.041198
v 0.033200 -0.013423 -0.041198
v 0.002137 -0.097830 -0.000144
v 0.002137 -0.097830 0.040989
v 0.033200 -0.013423 0.040989
v -0.054480 0.274398 -0.070512
v 0.030513 0.247224 -0.000144
v 0.030513 0.247224 -0.041198
v -0.098371 0.288431 -0.000144
v 0.115238 0.220137 -0.000144
v 0.204605 0.191564 -0.000144
v 0.115238 0.220137 -0.041198
v 0.204605 0.191564 -0.070512
v 0.115238 0.220137 -0.041198
v 0.030513 0.247224 -0.000144
v 0.030513 0.247224 -0.041198
v -0.098371 0.288431 -0.000144
v -0.054480 0.274398 0.070224
v 0.030513 0.247224 -0.000144
v 0.030513 0.247224 0.040989
v 0.204605 0.191564 -0.000144
v 0.115238 0.220137 -0.000144
v 0.115238 0.220137 0.040989
v 0.204605 0.191564 0.070224
v 0.030513 0.247224 -0.000144
v 0.115238 0.220137 0.040989
v 0.030513 0.247224 0.040989
v 0.058156 -0.235275 -0.050339
v -0.059484 -0.215506 -0.050339
v -0.059484 -0.215506 -0.000144
v 0.058156 -0.235275 -0.000144
v 0.058156 -0.235275 0.050131
v -0.059484 -0.215506 0.050131
v -0.047948 0.162741 0.070224
v 0.042766 0.163660 0.040989
v 0.030513 0.247224 0.040989
v -0.054480 0.274398 0.070224
v 0.115238 0.220137 0.040989
v 0.042766 0.163660 0.040989
v 0.133402 0.134684 0.040989
v 0.042766 0.163660 0.040989
v 0.115238 0.220137 0.040989
v 0.030513 0.247224 0.040989
v -0.044008 0.074547 0.070224
v 0.046777 0.074027 0.040989
v 0.042766 0.163660 0.040989
v -0.047948 0.162741 0.070224
v -0.038437 -0.180133 0.040280
v -0.087773 -0.093823 0.070224
v -0.127874 -0.175181 0.070224
v 0.002137 -0.097830 0.040989
v 0.033200 -0.013423 0.040989
v -0.044008 0.074547 0.070224
v -0.057277 -0.010974 0.070224
v 0.046777 0.074027 0.040989
v 0.002137 -0.097830 0.040989
v -0.057277 -0.010974 0.070224
v -0.087773 -0.093823 0.070224
v 0.033200 -0.013423 0.040989
v 0.184290 -0.136054 0.070224
v 0.124308 -0.035664 0.040989
v 0.094388 -0.116954 0.040989
v 0.214794 -0.053205 0.070224
v -0.059484 -0.215506 0.050131
v -0.127874 -0.175181 0.070224
v -0.174271 -0.259093 0.084330
v 0.058156 -0.235275 0.050131
v 0.152211 -0.309771 0.084330
v 0.144189 -0.217411 0.070224
v 0.053325 -0.200248 0.042092
v 0.214794 -0.053205 0.070224
v 0.228063 0.032316 0.070224
v 0.124308 -0.035664 0.040989
v 0.137286 0.047927 0.040989
v 0.144189 -0.217411 0.070224
v 0.094388 -0.116954 0.040989
v 0.053325 -0.200248 0.042092
v 0.184290 -0.136054 0.070224
v 0.228063 0.032316 0.070224
v 0.224115 0.120510 0.070224
v 0.137286 0.047927 0.040989
v 0.133402 0.134684 0.040989
v -0.127874 -0.175181 0.070224
v -0.059484 -0.215506 0.050131
v -0.038437 -0.180133 0.040280
v 0.224115 0.120510 0.070224
v 0.204605 0.191564 0.070224
v 0.133402 0.134684 0.040989
v 0.115238 0.220137 0.040989
v -0.174271 -0.259093 0.084330
v 0.058156 -0.235275 0.050131
v -0.059484 -0.215506 0.050131
v 0.152211 -0.309771 0.084330
v -0.098371 0.288431 -0.000144
v -0.096331 0.162741 -0.000144
v -0.054480 0.274398 0.070224
v -0.047948 0.162741 0.070224
v -0.092383 0.074547 -0.000144
v -0.047948 0.162741 0.070224
v -0.044008 0.074547 0.070224
v -0.105652 -0.010974 -0.000144
v -0.044008 0.074547 0.070224
v -0.057277 -0.010974 0.070224
v -0.136148 -0.093823 -0.000144
v -0.057277 -0.010974 0.070224
v -0.087773 -0.093823 0.070224
v -0.176257 -0.175181 -0.000144
v -0.087773 -0.093823 0.070224
v -0.127874 -0.175181 0.070224
v -0.241771 -0.294321 -0.000144
v -0.174271 -0.259093 0.084330
v -0.054480 0.274398 -0.070512
v -0.047948 0.162741 -0.070512
v -0.096331 0.162741 -0.000144
v -0.098371 0.288431 -0.000144
v -0.047948 0.162741 -0.070512
v -0.092383 0.074547 -0.000144
v -0.044008 0.074547 -0.070512
v -0.044008 0.074547 -0.070512
v -0.105652 -0.010974 -0.000144
v -0.057277 -0.010974 -0.070512
v -0.057277 -0.010974 -0.070512
v -0.136148 -0.093823 -0.000144
v -0.087773 -0.093823 -0.070512
v -0.087773 -0.093823 -0.070512
v -0.176257 -0.175181 -0.000144
v -0.127874 -0.175181 -0.070512
v -0.127874 -0.175181 -0.070512
v -0.174271 -0.259093 -0.084538
v -0.176257 -0.175181 -0.000144
v -0.241771 -0.294321 -0.000144
v -0.176257 -0.175181 -0.000144
v -0.174271 -0.259093 0.084330
v -0.127874 -0.175181 0.070224
v 0.094388 -0.116954 -0.041198
v 0.053325 -0.200248 -0.042301
v 0.053325 -0.200248 -0.000144
v 0.094388 -0.116954 -0.000144
v 0.124308 -0.035664 -0.041198
v 0.094388 -0.116954 0.040989
v 0.053325 -0.200248 0.042092
v 0.124308 -0.035664 0.040989
v 0.124308 -0.035664 -0.000144
v 0.137286 0.047927 -0.041198
v 0.137286 0.047927 0.040989
v 0.137286 0.047927 -0.000144
v 0.133402 0.134684 -0.041198
v 0.137286 0.047927 -0.041198
v 0.137286 0.047927 -0.000144
v 0.133402 0.134684 -0.000144
v 0.133402 0.134684 0.040989
v 0.137286 0.047927 0.040989
v 0.058156 -0.235275 -0.050339
v 0.058156 -0.235275 -0.000144
v 0.053325 -0.200248 -0.042301
v 0.053325 -0.200248 -0.000144
v 0.053325 -0.200248 0.042092
v 0.058156 -0.235275 0.050131
v -0.174271 -0.259093 -0.084538
v 0.152211 -0.309771 -0.084538
v 0.156230 -0.356099 -0.000144
v -0.241771 -0.294321 -0.000144
v 0.152211 -0.309771 0.084330
v -0.174271 -0.259093 0.084330
v 0.156230 -0.356099 -0.000144
v -0.241771 -0.294321 -0.000144
v -0.054480 0.274398 -0.070512
v 0.030513 0.247224 -0.041198
v -0.047948 0.162741 -0.070512
v 0.042766 0.163660 -0.041198
v 0.115238 0.220137 -0.041198
v 0.042766 0.163660 -0.041198
v 0.030513 0.247224 -0.041198
v 0.042766 0.163660 -0.041198
v 0.115238 0.220137 -0.041198
v 0.133402 0.134684 -0.041198
v -0.047948 0.162741 -0.070512
v 0.042766 0.163660 -0.041198
v -0.044008 0.074547 -0.070512
v 0.046777 0.074027 -0.041198
v -0.038437 -0.180133 -0.040489
v -0.087773 -0.093823 -0.070512
v 0.002137 -0.097830 -0.041198
v -0.127874 -0.175181 -0.070512
v -0.044008 0.074547 -0.070512
v 0.033200 -0.013423 -0.041198
v -0.057277 -0.010974 -0.070512
v 0.046777 0.074027 -0.041198
v 0.002137 -0.097830 -0.041198
v -0.057277 -0.010974 -0.070512
v 0.033200 -0.013423 -0.041198
v -0.087773 -0.093823 -0.070512
v 0.184290 -0.136054 -0.070512
v 0.124308 -0.035664 -0.041198
v 0.214794 -0.053205 -0.070512
v 0.094388 -0.116954 -0.041198
v -0.127874 -0.175181 -0.070512
v -0.059484 -0.215506 -0.050339
v -0.174271 -0.259093 -0.084538
v 0.144189 -0.217411 -0.070512
v 0.058156 -0.235275 -0.050339
v 0.053325 -0.200248 -0.042301
v 0.152211 -0.309771 -0.084538
v 0.228063 0.032316 -0.070512
v 0.124308 -0.035664 -0.041198
v 0.137286 0.047927 -0.041198
v 0.214794 -0.053205 -0.070512
v 0.144189 -0.217411 -0.070512
v 0.094388 -0.116954 -0.041198
v 0.184290 -0.136054 -0.070512
v 0.053325 -0.200248 -0.042301
v 0.224115 0.120510 -0.070512
v 0.137286 0.047927 -0.041198
v 0.133402 0.134684 -0.041198
v 0.228063 0.032316 -0.070512
v -0.059484 -0.215506 -0.050339
v -0.127874 -0.175181 -0.070512
v -0.038437 -0.180133 -0.040489
v 0.204605 0.191564 -0.070512
v 0.133402 0.134684 -0.041198
v 0.115238 0.220137 -0.041198
v 0.224115 0.120510 -0.070512
v 0.058156 -0.235275 -0.050339
v -0.174271 -0.259093 -0.084538
v -0.059484 -0.215506 -0.050339
v 0.152211 -0.309771 -0.084538
vn 0.8847 0.4661 -0.0000
vn 0.2771 0.8308 -0.4827
vn 0.5602 0.8284 -0.0000
vn 1.0000 -0.0000 -0.0000
vn 0.4424 0.4660 -0.7662
vn 0.4970 -0.0000 -0.8678
vn 0.4424 -0.4661 -0.7662
vn 0.8847 -0.4661 -0.0000
vn 0.2771 -0.8308 -0.4827
vn 0.5602 -0.8284 -0.0000
vn 0.4424 -0.4660 0.7662
vn 0.4970 -0.0000 0.8678
vn 0.4424 0.4661 0.7662
vn 0.8847 -0.4662 -0.0000
vn 0.8848 -0.4660 -0.0000
vn 0.2770 -0.8309 0.4826
vn 0.2770 0.8308 0.4827
vn 0.5601 0.8284 -0.0000
vn 0.2770 0.8308 -0.4827
vn 0.4424 0.4661 -0.7662
vn 0.4970 -0.0000 -0.8677
vn 0.4424 -0.4660 -0.7662
vn 0.2770 -0.8308 -0.4827
vn 0.4423 -0.4661 0.7662
vn 0.4424 0.4660 0.7662
vn 0.2771 -0.8308 0.4827
vn 0.8848 0.4660 -0.0000
vn 0.2770 0.8309 -0.4826
vn 0.4423 0.4661 -0.7662
vn 0.5601 -0.8284 -0.0000
vn 0.4423 -0.4660 0.7663
vn 0.8847 0.4662 -0.0000
vn 0.2770 -0.8308 0.4827
vn 0.2770 0.8308 0.4828
vn -0.8847 0.4661 -0.0000
vn -0.2770 0.8308 -0.4827
vn -0.4424 0.4661 -0.7662
vn -0.5601 0.8284 -0.0000
vn -0.0003 1.0000 -0.0000
vn -0.2770 0.8309 0.4826
vn -0.4424 0.4661 0.7662
vn -0.5602 0.8284 -0.0000
vn -0.0001 1.0000 -0.0000
vn 0.2770 0.8309 -0.4825
vn -0.0000 1.0000 -0.0000
vn 0.2770 0.8309 0.4826
vn 0.5601 0.8284 0.0001
vn -0.2770 0.8309 -0.4825
vn -0.2770 0.8309 0.4827
vn -0.2769 0.8309 -0.4827
vn -0.0000 1.0000 -0.0002
vn 0.2768 0.8309 -0.4827
vn 0.2768 0.8309 0.4827
vn -0.0000 1.0000 0.0002
vn -0.2768 0.8309 0.4827
vn 0.2769 0.8309 -0.4827
vn -0.0000 1.0000 0.0001
vn 0.5602 0.8284 -0.0003
vn -0.2770 0.8308 0.4827
vn -0.4424 0.4660 0.7662
vn -0.4423 0.4661 -0.7662
vn -0.8848 0.4660 -0.0000
vn -0.4423 0.4661 0.7662
vn 0.0002 1.0000 -0.0000
vn 0.2769 0.8309 0.4826
vn -0.4423 -0.4661 0.7662
vn 0.2769 -0.8309 0.4827
vn -0.2768 -0.8309 0.4827
vn -0.4970 -0.0000 0.8678
vn -0.4423 0.4660 0.7663
vn -0.2769 0.8308 0.4827
vn -0.4423 -0.4660 0.7663
vn 0.2769 -0.8308 0.4828
vn -0.2769 -0.8309 0.4827
vn 0.4423 0.4661 0.7662
vn 0.2769 0.8309 0.4827
vn -0.4424 -0.4661 0.7662
vn -1.0000 -0.0000 -0.0000
vn -0.4424 -0.4660 -0.7662
vn -0.8847 -0.4661 -0.0000
vn -0.4970 -0.0000 -0.8678
vn -0.4423 -0.4662 0.7662
vn -0.4423 0.4662 0.7662
vn -0.8848 -0.4660 -0.0000
vn -0.4424 -0.4661 -0.7662
vn -0.4970 -0.0000 -0.8677
vn -0.4424 0.4660 -0.7662
vn -0.2770 -0.8308 -0.4827
vn -0.5601 -0.8284 -0.0000
vn -0.4423 -0.4661 -0.7662
vn -0.8847 -0.4662 -0.0000
vn -0.4423 0.4662 -0.7662
vn -0.8847 0.4662 -0.0000
vn -0.5601 -0.8284 0.0001
vn -0.2770 -0.8308 0.4827
vn -0.5602 -0.8284 -0.0000
vn -0.0001 -1.0000 -0.0000
vn -0.5601 -0.8284 -0.0003
vn -0.2770 -0.8309 -0.4826
vn -0.0000 -1.0000 -0.0000
vn 0.0003 -1.0000 -0.0000
vn 0.2770 -0.8309 -0.4825
vn 0.5601 -0.8284 -0.0001
vn 0.4424 -0.4661 0.7662
vn 0.0001 -1.0000 -0.0000
vn 0.5601 -0.8284 0.0001
vn 0.2769 -0.8309 0.4826
vn 0.2771 -0.8309 -0.4825
vn 0.5602 -0.8284 0.0002
vn -0.0002 -1.0000 -0.0000
vn -0.2772 -0.8308 0.4827
vn -0.5601 -0.8284 0.0002
vn -0.2768 -0.8309 -0.4827
vn 0.2769 -0.8309 -0.4826
vn 0.2768 -0.8309 0.4827
vn -0.0000 -1.0000 -0.0002
vn -0.2769 -0.8309 -0.4827
vn 0.2769 -0.8309 -0.4827
vn -0.0000 -1.0000 0.0001
vn -0.0000 -1.0000 -0.0001
vn 0.2767 -0.8309 0.4827
vn -0.0000 -1.0000 0.0002
vn 0.4423 -0.4661 -0.7662
vn 0.5601 -0.8284 -0.0002
vn -0.2770 -0.8309 0.4825
vn -0.0003 -1.0000 -0.0000
vn -0.2770 -0.8309 -0.4825
vn -0.2769 -0.8309 0.4826
vn 0.8848 -0.4659 -0.0000
vn 0.2770 -0.8309 -0.4826
vn 0.2770 -0.8309 0.4825
vn 0.4423 0.4660 -0.7663
vn 0.2768 -0.8309 -0.4827
vn -0.2769 -0.8308 -0.4827
vn -0.2768 0.8309 -0.4827
vn -0.4423 -0.4660 -0.7663
vn -0.2769 -0.8308 -0.4828
vn 0.4423 -0.4661 -0.7663
vn 0.9875 0.1579 -0.0000
vn 0.9985 -0.0546 -0.0000
vn 0.9633 0.2684 -0.0000
vn 0.9633 0.2685 -0.0000
vn 0.9679 -0.2515 -0.0000
vn 0.9678 -0.2516 -0.0000
vn 0.9195 -0.3930 -0.0000
vn 0.9196 -0.3930 -0.0000
vn 0.9835 -0.1811 -0.0000
vn 0.9806 -0.1961 -0.0000
vn 0.9678 -0.2517 -0.0000
vn 0.9195 -0.3931 -0.0000
vn 0.9962 0.0865 -0.0000
vn 0.9835 -0.1809 -0.0000
vn 0.9963 0.0865 -0.0000
vn 0.8764 -0.4816 -0.0000
vn 0.5510 0.8345 -0.0000
vn 0.4878 0.8730 0.0001
vn 0.8782 -0.4783 -0.0000
vn 0.4878 0.8730 -0.0000
vn 0.9989 0.0470 -0.0000
vn 0.9678 -0.2518 -0.0000
vn 0.9985 -0.0550 -0.0000
vn 0.9989 0.0471 -0.0000
vn 0.9196 -0.3929 -0.0000
vn 0.3068 0.9518 -0.0000
vn 0.3067 0.9518 -0.0000
vn -0.1491 0.9888 -0.0000
vn 0.4876 0.8731 -0.0000
vn -0.1975 0.9803 -0.0000
vn 0.3138 0.0235 0.9492
vn 0.1580 0.0079 0.9874
vn 0.2202 0.0236 0.9752
vn 0.3232 0.0315 0.9458
vn -0.0706 -0.0157 0.9974
vn -0.2441 -0.0394 0.9690
vn 0.1579 0.0079 0.9874
vn -0.0707 -0.0157 0.9974
vn 0.2200 0.0236 0.9752
vn 0.3067 -0.0157 0.9517
vn 0.2989 -0.0708 0.9517
vn 0.2992 -0.1339 0.9448
vn 0.2990 -0.0630 0.9522
vn 0.3058 -0.0784 0.9489
vn 0.2992 -0.1338 0.9448
vn -0.2829 0.1257 0.9509
vn -0.2989 0.0708 0.9517
vn -0.2832 0.1180 0.9518
vn -0.2913 0.0866 0.9527
vn 0.2995 0.0236 0.9538
vn 0.2990 -0.0629 0.9522
vn -0.2512 0.1413 0.9576
vn -0.2604 0.1421 0.9550
vn -0.2678 0.1418 0.9530
vn -0.3067 0.0236 0.9515
vn -0.3068 0.0079 0.9517
vn -0.2678 0.1419 0.9530
vn -0.3160 -0.0395 0.9479
vn -0.2442 -0.0394 0.9689
vn 0.2995 0.0237 0.9538
vn 0.2989 -0.0706 0.9517
vn -0.3223 -0.0786 0.9434
vn 0.0789 0.4895 0.8684
vn -0.9992 -0.0393 -0.0000
vn -0.9992 -0.0394 -0.0000
vn -0.8377 -0.0316 0.5453
vn -0.8280 -0.0316 0.5599
vn -0.9985 0.0550 -0.0000
vn -0.8280 -0.0315 0.5599
vn -0.8243 0.0471 0.5641
vn -0.9678 0.2518 -0.0001
vn -0.8238 0.0471 0.5649
vn -0.8056 0.2132 0.5528
vn -0.9678 0.2518 -0.0000
vn -0.9196 0.3929 -0.0000
vn -0.8055 0.2132 0.5528
vn -0.7781 0.3301 0.5344
vn -0.9195 0.3930 -0.0000
vn -0.8783 0.4782 -0.0000
vn -0.7624 0.4166 0.4952
vn -0.8782 0.4783 -0.0000
vn -0.8589 0.5122 -0.0000
vn -0.7636 0.4487 0.4644
vn -0.8377 -0.0316 -0.5453
vn -0.8280 -0.0315 -0.5599
vn -0.9992 -0.0392 -0.0000
vn -0.8280 -0.0316 -0.5599
vn -0.8238 0.0471 -0.5649
vn -0.8056 0.2132 -0.5528
vn -0.8055 0.2133 -0.5528
vn -0.7781 0.3301 -0.5344
vn -0.9196 0.3930 -0.0000
vn -0.7624 0.4166 -0.4952
vn -0.7636 0.4487 -0.4644
vn -0.7635 0.4487 0.4644
vn -0.9888 0.1494 -0.0000
vn -0.9848 0.1734 -0.0000
vn -0.9195 0.3931 -0.0000
vn -0.9678 0.2517 -0.0000
vn -0.9985 0.0551 -0.0000
vn -0.9989 -0.0471 -0.0000
vn -0.9989 -0.0470 -0.0000
vn -0.9888 0.1491 -0.0000
vn -0.9849 0.1731 -0.0000
vn -0.1336 -0.8718 -0.4713
vn -0.1335 -0.8718 -0.4713
vn -0.1491 -0.9888 -0.0000
vn -0.1337 -0.8718 0.4713
vn -0.1335 -0.8718 0.4713
vn 0.3232 0.0315 -0.9458
vn 0.2202 0.0236 -0.9752
vn 0.3138 0.0236 -0.9492
vn 0.1580 0.0079 -0.9874
vn -0.0706 -0.0157 -0.9974
vn 0.2199 0.0236 -0.9752
vn -0.2442 -0.0394 -0.9689
vn 0.3138 0.0235 -0.9492
vn 0.1582 0.0079 -0.9874
vn 0.3067 -0.0157 -0.9517
vn 0.2989 -0.0708 -0.9517
vn 0.2992 -0.1339 -0.9448
vn 0.2992 -0.1338 -0.9448
vn 0.2990 -0.0630 -0.9522
vn 0.3058 -0.0784 -0.9489
vn 0.3067 -0.0158 -0.9517
vn -0.2829 0.1257 -0.9509
vn -0.2989 0.0708 -0.9517
vn -0.2913 0.0866 -0.9527
vn -0.2834 0.1180 -0.9517
vn 0.2990 -0.0629 -0.9522
vn 0.2995 0.0236 -0.9538
vn -0.2604 0.1421 -0.9550
vn -0.2512 0.1413 -0.9576
vn -0.2678 0.1418 -0.9530
vn -0.3067 0.0236 -0.9515
vn -0.3068 0.0079 -0.9517
vn -0.2605 0.1421 -0.9550
vn -0.2832 0.1180 -0.9518
vn -0.3160 -0.0395 -0.9479
vn 0.2989 -0.0706 -0.9517
vn -0.3223 -0.0786 -0.9434
vn -0.0707 -0.0157 -0.9974
vn 0.0789 0.4895 -0.8684
vt 44.000000 -4.973750
vt 44.003601 -4.970690
vt 44.000000 -4.970690
vt 44.000000 -4.977930
vt 44.006302 -4.973750
vt 44.007198 -4.977930
vt 44.006302 -4.982110
vt 44.000000 -4.982110
vt 44.003601 -4.985170
vt 44.000000 -4.985170
vt 43.993698 -4.982110
vt 43.992802 -4.977930
vt 43.993698 -4.973750
vt 43.996399 -4.985170
vt 43.996399 -4.970690
vt 44.003601 -4.985300
vt 44.000000 -4.988360
vt 44.006302 -4.988360
vt 44.000000 -4.992540
vt 44.007198 -4.992540
vt 44.006302 -4.996720
vt 44.000000 -4.996720
vt 44.003601 -4.999780
vt 43.993698 -4.996720
vt 43.992802 -4.992540
vt 43.993698 -4.988360
vt 43.996399 -4.999780
vt 43.996399 -4.985300
vt 44.003601 -5.000370
vt 44.000000 -5.003430
vt 44.006302 -5.003430
vt 44.000000 -5.007610
vt 44.007198 -5.007610
vt 44.006302 -5.011790
vt 44.000000 -5.011790
vt 43.993698 -5.011790
vt 43.992802 -5.007610
vt 43.993698 -5.003430
vt 43.996399 -5.000370
vt 44.000000 -5.017890
vt 44.003601 -5.014830
vt 44.000000 -5.014830
vt 44.000000 -5.022070
vt 44.006302 -5.017890
vt 44.007198 -5.022070
vt 44.006302 -5.026250
vt 44.000000 -5.026250
vt 44.003601 -5.029310
vt 44.000000 -5.029310
vt 43.993698 -5.026250
vt 43.992802 -5.022070
vt 43.993698 -5.017890
vt 43.996399 -5.029310
vt 43.996399 -5.014830
vt 44.014000 -5.000000
vt 44.008801 -5.003620
vt 44.010399 -5.006270
vt 44.010899 -5.000000
vt 44.006802 -5.000000
vt 44.008801 -4.996380
vt 44.010399 -4.993730
vt 43.991199 -5.003620
vt 43.993198 -5.000000
vt 43.989101 -5.000000
vt 43.986000 -5.000000
vt 43.989601 -5.006270
vt 43.989601 -4.993730
vt 43.991199 -4.996380
vt 43.988701 -5.000000
vt 43.993801 -5.003620
vt 43.991699 -5.000000
vt 43.995899 -5.000000
vt 43.993801 -4.996380
vt 44.004700 -5.000000
vt 44.000500 -5.000000
vt 44.002602 -5.003620
vt 44.002602 -4.996380
vt 44.004700 -5.003620
vt 44.004700 -4.996380
vt 43.998402 -5.003620
vt 43.998402 -4.996380
vt 43.998001 -5.003620
vt 43.998001 -4.996380
vt 43.995300 -5.003620
vt 43.995300 -4.996380
vt 43.993301 -5.000000
vt 43.996300 -5.000000
vt 43.999500 -5.006270
vt 44.003101 -5.000000
vt 44.000099 -5.000000
vt 43.999500 -4.993730
vt 43.996899 -5.006270
vt 43.997398 -5.000000
vt 43.996899 -4.993730
vt 44.002602 -5.000000
vt 43.999500 -5.000000
vt 44.003101 -5.006270
vt 44.003101 -4.993730
vt 43.996899 -5.026250
vt 43.989601 -5.026250
vt 43.995300 -5.029310
vt 43.991199 -5.029310
vt 43.989101 -5.022070
vt 43.997398 -5.022070
vt 43.989601 -5.017890
vt 43.996899 -5.017890
vt 43.995300 -5.014830
vt 43.991199 -5.014830
vt 44.003101 -5.011790
vt 43.995899 -5.011790
vt 44.001598 -5.014850
vt 43.997398 -5.014850
vt 44.003700 -5.007610
vt 43.995300 -5.007610
vt 43.995899 -5.003430
vt 44.003101 -5.003430
vt 43.997398 -5.000370
vt 44.001598 -5.000370
vt 44.007702 -4.996720
vt 44.001999 -4.999780
vt 44.006199 -4.999780
vt 44.000500 -4.996720
vt 43.999901 -4.992540
vt 44.008301 -4.992540
vt 44.007702 -4.988360
vt 44.000500 -4.988360
vt 44.001999 -4.985300
vt 44.006199 -4.985300
vt 44.010399 -4.982110
vt 44.003101 -4.982110
vt 44.008801 -4.985170
vt 44.010899 -4.977930
vt 44.004700 -4.985170
vt 44.002602 -4.977930
vt 44.010399 -4.973750
vt 44.003101 -4.973750
vt 44.004700 -4.970690
vt 44.008801 -4.970690
vt 44.000000 -5.000370
vt 44.000000 -4.999780
vt 44.000000 -4.985300
vt 44.006199 -5.003620
vt 44.011299 -5.000000
vt 44.008301 -5.000000
vt 44.004101 -5.000000
vt 44.006199 -4.996380
vt 43.995300 -5.000000
vt 43.997398 -5.003620
vt 43.992298 -5.000000
vt 43.995899 -5.006270
vt 43.995899 -4.993730
vt 43.997398 -4.996380
vt 44.001598 -5.003620
vt 44.001598 -4.996380
vt 44.001999 -5.003620
vt 44.001999 -4.996380
vt 44.006699 -5.000000
vt 44.003700 -5.000000
vt 43.999901 -5.000000
vt 43.996899 -5.000000
vt 44.000500 -5.006270
vt 44.000500 -4.993730
vt 44.002602 -5.022070
vt 44.010399 -5.026250
vt 44.010899 -5.022070
vt 44.003101 -5.026250
vt 44.003101 -5.017890
vt 44.004700 -5.029310
vt 44.008801 -5.029310
vt 44.010399 -5.017890
vt 44.004700 -5.014830
vt 44.008801 -5.014830
vt 43.996300 -5.007610
vt 44.004101 -5.011790
vt 44.004700 -5.007610
vt 44.004101 -5.003430
vt 43.996899 -5.011790
vt 43.996899 -5.003430
vt 44.002602 -5.014850
vt 43.998402 -5.014850
vt 43.998402 -5.000370
vt 44.002602 -5.000370
vt 44.000099 -4.992540
vt 43.992298 -4.996720
vt 43.999500 -4.996720
vt 43.998001 -4.999780
vt 43.993801 -4.999780
vt 43.991699 -4.992540
vt 43.992298 -4.988360
vt 43.999500 -4.988360
vt 43.998001 -4.985300
vt 43.993801 -4.985300
vt 43.997398 -4.977930
vt 43.989601 -4.982110
vt 43.996899 -4.982110
vt 43.995300 -4.985170
vt 43.991199 -4.985170
vt 43.989101 -4.977930
vt 43.996899 -4.973750
vt 43.989601 -4.973750
vt 43.991199 -4.970690
vt 43.995300 -4.970690
vt 28.000000 -26.975500
vt 28.011200 -26.989500
vt 28.011200 -26.975500
vt 28.000000 -26.964199
vt 28.011200 -26.964199
vt 28.000000 -26.989500
vt 28.011200 -27.003099
vt 28.000000 -27.003099
vt 28.011200 -27.016199
vt 28.000000 -27.016199
vt 28.011200 -27.029100
vt 28.000000 -27.029100
vt 27.988800 -26.989500
vt 27.988800 -27.003099
vt 27.988800 -26.975500
vt 27.988800 -26.964199
vt 27.988800 -27.016199
vt 27.988800 -27.029100
vt 28.013399 -27.043800
vt 28.000000 -27.051100
vt 27.986601 -27.043800
vt 28.006399 -27.023199
vt 28.000000 -27.028799
vt 28.007999 -27.028799
vt 28.000000 -27.023199
vt 27.993601 -27.023199
vt 27.992001 -27.028799
vt 28.006500 -27.010201
vt 28.000000 -27.010201
vt 27.993500 -27.010201
vt 28.006500 -26.982901
vt 28.006500 -26.968700
vt 28.000000 -26.968700
vt 28.000000 -26.982901
vt 28.006500 -26.996799
vt 28.000000 -26.996799
vt 27.993500 -26.996799
vt 27.993500 -26.982901
vt 27.993500 -26.968700
vt 28.007601 -27.011200
vt 27.994101 -27.000000
vt 27.994101 -27.006500
vt 28.014500 -27.000000
vt 27.980600 -27.000000
vt 27.966499 -27.000000
vt 27.980600 -27.006500
vt 27.966499 -27.011200
vt 28.007601 -26.988800
vt 27.994101 -26.993500
vt 27.980600 -26.993500
vt 27.966499 -26.988800
vt 27.989700 -27.007999
vt 28.008301 -27.007999
vt 28.008301 -27.000000
vt 27.989700 -27.000000
vt 27.989700 -26.992001
vt 28.008301 -26.992001
vt 27.993500 -26.968800
vt 28.007900 -26.968700
vt 28.005899 -26.955400
vt 27.992399 -26.951099
vt 28.019400 -26.959700
vt 28.022200 -26.973301
vt 27.994101 -26.982800
vt 28.008499 -26.982901
vt 27.995001 -27.023199
vt 27.987200 -27.009501
vt 27.980801 -27.022400
vt 28.001400 -27.010201
vt 28.006399 -26.996799
vt 27.992001 -26.996401
vt 28.030300 -27.016199
vt 28.020800 -27.000299
vt 28.016100 -27.013201
vt 28.035200 -27.003099
vt 27.991699 -27.028799
vt 27.973400 -27.035700
vt 28.010300 -27.032000
vt 28.025200 -27.043800
vt 28.024000 -27.029100
vt 28.009501 -27.026400
vt 28.037300 -26.989500
vt 28.022900 -26.987000
vt 28.036600 -26.975500
vt 28.033501 -26.964199
vt 28.000000 -26.948900
vt 28.000000 -26.968800
vt 28.011200 -26.951099
vt 28.011200 -26.968800
vt 28.000000 -26.982800
vt 28.011200 -26.982800
vt 28.000000 -26.996401
vt 28.011200 -26.996401
vt 28.000000 -27.009501
vt 28.011200 -27.009501
vt 28.000000 -27.022400
vt 28.011200 -27.022400
vt 28.000000 -27.041300
vt 28.013399 -27.035700
vt 27.988800 -26.951099
vt 27.988800 -26.968800
vt 27.988800 -26.982800
vt 27.988800 -26.996401
vt 27.988800 -27.009501
vt 27.988800 -27.022400
vt 27.986601 -27.035700
vt 27.993500 -27.013201
vt 27.993299 -27.026400
vt 28.000000 -27.026400
vt 28.000000 -27.013201
vt 27.993500 -27.000299
vt 28.006500 -27.013201
vt 28.006701 -27.026400
vt 28.006500 -27.000299
vt 28.000000 -27.000299
vt 27.993500 -26.987000
vt 28.006500 -26.987000
vt 28.000000 -26.987000
vt 27.993500 -26.973301
vt 28.000000 -26.973301
vt 28.006500 -26.973301
vt 27.992001 -27.032000
vt 28.000000 -27.032000
vt 28.007999 -27.032000
vt 27.973400 -27.013399
vt 28.025200 -27.013399
vt 28.025900 -27.000000
vt 27.962700 -27.000000
vt 28.025200 -26.986601
vt 27.973400 -26.986601
vt 28.007601 -26.951099
vt 27.994101 -26.955400
vt 28.006500 -26.968800
vt 27.992100 -26.968700
vt 27.980600 -26.959700
vt 27.977800 -26.973301
vt 28.005899 -26.982800
vt 27.991501 -26.982901
vt 28.004999 -27.023199
vt 28.012800 -27.009501
vt 27.998600 -27.010201
vt 28.019199 -27.022400
vt 27.993601 -26.996799
vt 28.007999 -26.996401
vt 27.969700 -27.016199
vt 27.979200 -27.000299
vt 27.964800 -27.003099
vt 27.983900 -27.013201
vt 28.008301 -27.028799
vt 28.026600 -27.035700
vt 27.976000 -27.029100
vt 27.989700 -27.032000
vt 27.990499 -27.026400
vt 27.974800 -27.043800
vt 27.962700 -26.989500
vt 27.977100 -26.987000
vt 27.963400 -26.975500
vt 27.966499 -26.964199
s 1
usemtl Meshpart1Mtl.002
f 1/1/1 2/2/2 3/3/3
f 5/4/4 4/5/5 1/1/1
f 4/5/5 5/4/4 6/6/6
f 6/6/6 5/4/4 7/7/7
f 7/7/7 5/4/4 8/8/8
f 9/9/9 8/8/8 10/10/10
f 11/11/11 5/4/4 12/12/12
f 5/4/4 13/13/13 12/12/12
f 5/4/4 11/11/11 14/8/14
f 13/13/13 5/4/4 15/1/1
f 14/8/15 16/14/16 17/10/10
f 18/15/17 15/1/1 19/3/18
f 21/16/19 20/17/1 22/18/20
f 23/19/4 22/18/20 20/17/1
f 22/18/20 23/19/4 24/20/21
f 24/20/21 23/19/4 25/21/22
f 25/21/22 23/19/4 26/22/8
f 25/21/22 26/22/8 27/23/23
f 28/24/24 23/19/4 29/25/12
f 23/19/4 30/26/25 29/25/12
f 23/19/4 28/24/24 31/22/8
f 32/17/1 30/26/25 23/19/4
f 33/27/26 31/22/8 28/24/24
f 30/26/25 32/17/1 34/28/17
f 36/29/19 35/30/1 37/31/20
f 38/32/4 37/31/20 35/30/1
f 37/31/20 38/32/4 39/33/6
f 39/33/6 38/32/4 40/34/7
f 40/34/7 38/32/4 41/35/8
f 42/36/24 38/32/4 43/37/12
f 38/32/4 44/38/25 43/37/12
f 38/32/4 42/36/24 45/35/8
f 46/30/1 44/38/25 38/32/4
f 44/38/25 46/30/1 47/39/17
f 48/40/27 49/41/28 50/42/18
f 52/43/4 51/44/29 48/40/1
f 51/44/29 52/43/4 53/45/6
f 53/45/6 52/43/4 54/46/7
f 54/46/7 52/43/4 55/47/8
f 56/48/23 55/47/8 57/49/30
f 58/50/31 52/43/4 59/51/12
f 52/43/4 60/52/25 59/51/12
f 52/43/4 58/50/31 61/47/14
f 62/40/32 60/52/25 52/43/4
f 61/47/8 63/53/33 64/49/30
f 65/54/34 62/40/1 66/42/3
f 68/55/35 69/56/36 67/57/37
f 69/56/36 68/55/35 70/58/38
f 70/58/38 71/59/39 69/56/36
f 74/60/40 73/55/35 72/61/41
f 73/55/35 74/60/40 75/58/42
f 74/60/40 76/59/43 75/58/42
f 78/62/44 80/63/45 79/64/18
f 78/62/19 77/65/1 81/66/29
f 82/67/13 83/65/27 84/68/17
f 85/64/18 86/63/45 84/68/46
f 87/69/1 88/70/44 89/71/3
f 88/70/44 90/72/45 89/71/3
f 92/73/46 91/69/1 93/71/47
f 93/71/47 94/72/45 92/73/46
f 96/74/38 97/75/45 95/76/48
f 98/77/49 100/75/45 99/74/38
f 102/56/50 103/59/51 101/78/52
f 104/79/53 106/59/54 105/60/55
f 108/76/50 109/75/45 107/80/56
f 111/81/53 112/75/57 110/77/55
f 113/82/50 115/72/45 114/70/56
f 117/73/53 118/72/57 116/83/55
f 120/84/50 121/63/45 119/62/56
f 123/68/53 124/63/45 122/85/55
f 125/86/27 126/80/28 127/87/58
f 126/80/28 128/75/45 127/87/58
f 130/81/46 129/86/1 131/87/18
f 131/87/18 132/75/45 130/81/46
f 135/82/36 133/88/37 134/89/35
f 136/90/38 137/72/45 135/82/48
f 140/83/59 139/89/35 138/91/60
f 140/83/49 142/72/45 141/90/38
f 145/84/36 143/92/61 144/75/62
f 146/93/38 147/63/45 145/84/48
f 150/85/59 149/75/35 148/94/63
f 150/85/40 152/63/45 151/93/38
f 154/78/44 156/59/64 155/95/18
f 154/78/19 153/96/1 157/97/20
f 158/98/13 159/96/1 160/79/17
f 161/95/18 162/59/45 160/79/65
f 163/99/31 164/100/66 165/101/67
f 165/101/67 164/100/66 166/102/68
f 164/100/66 163/99/31 167/103/69
f 168/104/12 167/103/69 163/99/31
f 167/103/69 168/104/12 169/105/70
f 170/106/13 169/105/70 168/104/12
f 171/107/53 169/105/70 170/106/13
f 169/105/70 171/107/53 172/108/71
f 173/109/11 174/110/72 175/111/73
f 175/111/73 174/110/72 176/112/74
f 177/113/12 174/110/72 173/109/11
f 174/110/72 177/113/12 178/114/69
f 178/114/69 177/113/12 179/115/63
f 180/116/75 179/115/63 177/113/12
f 179/115/63 180/116/75 181/117/59
f 181/117/59 180/116/75 182/118/76
f 183/119/31 184/120/74 185/121/33
f 184/120/74 183/119/31 186/122/77
f 186/122/77 183/119/31 187/123/69
f 188/124/12 187/123/69 183/119/31
f 189/125/75 187/123/69 188/124/12
f 187/123/69 189/125/75 190/126/41
f 190/126/41 189/125/75 191/127/59
f 191/127/59 189/125/75 192/128/76
f 193/129/11 194/130/66 195/131/73
f 196/132/12 194/130/66 193/129/11
f 195/131/73 194/130/66 197/133/74
f 194/130/66 196/132/12 198/134/69
f 199/135/75 198/134/69 196/132/12
f 198/134/69 199/135/75 200/136/41
f 200/136/41 199/135/75 201/137/59
f 201/137/59 199/135/75 202/138/76
f 205/43/78 204/50/79 203/47/80
f 204/50/79 205/43/78 206/51/81
f 207/52/37 206/51/81 205/43/78
f 207/52/37 205/43/78 208/40/35
f 205/43/78 209/46/82 210/45/69
f 211/44/83 205/43/78 210/45/69
f 205/43/78 212/47/84 209/46/82
f 205/43/78 211/44/83 213/40/35
f 216/32/78 215/36/85 214/35/80
f 215/36/85 216/32/78 217/37/86
f 218/38/87 217/37/86 216/32/78
f 218/38/87 216/32/78 219/30/35
f 220/39/36 218/38/87 219/30/35
f 220/39/36 219/30/35 221/139/38
f 216/32/78 222/34/82 223/33/69
f 224/31/63 216/32/78 223/33/69
f 216/32/78 225/35/80 222/34/82
f 216/32/78 224/31/63 226/30/35
f 227/29/59 226/30/35 224/31/63
f 226/30/35 227/29/59 228/139/38
f 231/22/84 230/27/88 229/140/89
f 233/19/78 232/24/90 231/22/91
f 232/24/90 233/19/78 234/25/81
f 235/26/92 234/25/81 233/19/78
f 235/26/92 233/19/78 236/17/93
f 237/28/36 236/17/35 238/141/42
f 233/19/78 239/21/82 240/20/69
f 241/18/63 233/19/78 240/20/69
f 233/19/78 242/22/80 239/21/82
f 233/19/78 241/18/63 243/17/35
f 242/22/80 245/140/94 244/23/95
f 243/17/35 246/16/40 247/141/42
f 250/8/84 249/14/88 248/10/89
f 252/4/78 251/11/90 250/8/80
f 251/11/90 252/4/78 253/12/81
f 254/13/92 253/12/81 252/4/78
f 254/13/92 252/4/78 255/1/35
f 256/15/36 255/1/35 257/3/42
f 252/4/78 258/7/82 259/6/69
f 260/5/63 252/4/78 259/6/69
f 252/4/78 261/8/80 258/7/82
f 252/4/78 260/5/63 262/1/93
f 261/8/91 264/10/96 263/9/95
f 262/1/35 265/2/40 266/3/42
f 267/63/97 268/64/98 269/62/99
f 270/65/80 269/62/99 268/64/98
f 269/62/99 270/65/80 271/66/85
f 272/67/66 273/65/80 274/68/95
f 274/68/95 273/65/80 275/64/89
f 276/63/100 274/68/95 275/64/89
f 277/57/7 278/55/15 279/56/23
f 281/59/101 279/56/102 280/58/103
f 284/60/33 283/55/14 282/61/104
f 286/59/105 285/58/106 284/60/107
f 288/142/108 287/143/14 289/144/30
f 290/145/105 288/142/108 289/144/30
f 291/143/15 292/146/16 293/144/109
f 294/145/100 293/144/109 292/146/16
f 295/96/110 296/147/96 297/148/99
f 298/149/80 297/148/99 296/147/96
f 297/148/99 298/149/80 299/150/90
f 300/151/77 301/149/80 302/152/111
f 302/152/111 301/149/80 303/147/112
f 304/96/100 302/152/111 303/147/112
f 307/63/100 306/62/113 305/84/114
f 310/63/100 308/85/115 309/68/74
f 313/96/116 311/148/117 312/153/118
f 316/96/119 314/154/115 315/152/68
f 319/145/120 317/155/113 318/142/118
f 322/145/119 321/146/121 320/156/68
f 325/59/120 323/78/117 324/56/118
f 328/59/122 326/60/115 327/79/68
f 329/97/123 330/157/8 331/153/23
f 331/153/23 330/157/8 332/158/124
f 333/96/101 331/153/23 332/158/124
f 336/154/16 335/157/8 334/98/104
f 335/157/8 336/154/16 337/158/10
f 338/96/105 337/158/10 336/154/16
f 339/145/100 340/159/89 341/155/99
f 341/155/88 342/160/80 343/161/90
f 345/160/80 346/156/95 344/162/82
f 348/145/100 346/156/125 347/159/89
f 349/59/126 350/95/89 351/78/127
f 351/78/88 352/96/80 353/97/79
f 355/96/80 356/79/95 354/98/77
f 358/59/110 356/79/128 357/95/94
f 359/92/7 360/75/129 361/84/23
f 363/63/100 361/84/130 362/93/30
f 366/85/33 365/75/8 364/94/104
f 368/63/100 367/93/30 366/85/131
f 369/163/6 370/164/90 371/165/81
f 370/164/90 369/163/6 372/166/7
f 371/165/81 373/167/132 369/163/6
f 374/168/133 370/164/90 372/166/7
f 370/164/90 374/168/133 375/169/134
f 373/167/132 371/165/81 376/170/61
f 376/170/61 377/171/56 373/167/132
f 377/171/56 376/170/61 378/172/135
f 379/173/21 380/174/136 381/175/86
f 382/176/37 379/173/21 381/175/86
f 380/174/136 379/173/21 383/177/123
f 379/173/21 382/176/37 384/178/5
f 380/174/136 383/177/123 385/179/137
f 385/179/137 383/177/123 386/180/118
f 382/176/37 387/181/19 384/178/5
f 387/181/19 382/176/37 388/182/50
f 389/183/86 390/184/138 391/185/79
f 391/185/79 390/184/138 392/186/88
f 392/186/88 390/184/138 393/187/118
f 390/184/138 389/183/86 394/188/21
f 389/183/86 395/189/132 394/188/21
f 395/189/132 389/183/86 396/190/37
f 397/191/50 395/189/132 396/190/37
f 395/189/132 397/191/50 398/192/19
f 399/193/81 400/194/123 401/195/79
f 401/195/79 400/194/123 402/196/137
f 402/196/137 400/194/123 403/197/118
f 400/194/123 399/193/81 404/198/6
f 405/199/61 404/198/6 399/193/81
f 404/198/6 405/199/61 406/200/5
f 405/199/61 407/201/19 406/200/5
f 407/201/19 405/199/61 408/202/50
usemtl Meshpart2Mtl.002
f 409/203/139 410/204/140 411/205/139
f 411/205/139 412/206/141 409/203/139
f 413/207/142 412/206/141 411/205/139
f 410/204/140 409/203/139 414/208/140
f 414/208/140 415/209/143 410/204/140
f 415/209/143 414/208/140 416/210/144
f 415/209/143 416/210/144 417/211/145
f 417/211/145 416/210/144 418/212/146
f 418/212/146 419/213/147 417/211/145
f 419/213/147 418/212/146 420/214/148
f 421/203/139 422/215/140 423/208/140
f 424/216/149 423/208/140 422/215/140
f 422/215/140 421/203/139 425/217/139
f 426/206/141 425/217/139 421/203/139
f 425/217/139 426/206/141 427/218/142
f 423/208/140 424/216/149 428/210/149
f 429/219/145 428/210/149 424/216/149
f 428/210/149 429/219/145 430/212/150
f 431/220/147 430/212/150 429/219/145
f 430/212/150 431/220/147 432/214/148
f 433/214/148 434/221/151 435/213/152
f 436/221/153 437/214/148 438/222/153
f 439/214/148 440/223/153 441/222/153
f 442/223/151 443/214/148 444/220/152
f 445/224/154 446/225/155 447/226/156
f 446/225/155 445/224/154 448/227/157
f 449/228/154 446/225/155 448/227/157
f 446/225/155 449/228/154 450/229/158
f 451/224/154 452/230/145 453/231/145
f 451/224/154 453/231/145 454/227/157
f 453/231/145 455/228/154 454/227/157
f 455/228/154 453/231/145 456/232/145
f 457/233/140 458/234/159 459/235/159
f 457/233/140 459/235/159 460/236/140
f 461/237/160 457/233/140 460/236/140
f 461/237/160 460/236/140 462/238/160
f 460/236/140 463/239/160 462/238/160
f 463/239/160 460/236/140 464/240/161
f 459/235/159 464/240/161 460/236/140
f 464/240/161 459/235/159 465/241/162
f 466/238/160 467/230/163 468/237/160
f 467/230/163 466/238/160 469/231/163
f 466/238/160 470/232/163 469/231/163
f 470/232/163 466/238/160 471/239/160
f 472/242/164 473/243/165 474/244/164
f 473/243/165 472/242/164 475/245/164
f 476/246/165 477/247/165 478/248/164
f 479/249/165 478/248/164 477/247/165
f 480/248/165 481/243/164 476/246/165
f 480/248/165 482/244/164 481/243/164
f 483/245/165 484/250/164 485/243/165
f 485/243/165 484/250/164 486/251/165
f 487/247/164 488/246/165 489/252/164
f 487/247/164 489/252/164 490/253/165
f 488/246/164 491/243/164 492/252/164
f 493/251/164 492/252/164 491/243/164
f 494/254/166 495/255/167 496/256/155
f 494/254/166 496/256/155 497/257/168
f 496/256/155 498/258/166 497/257/168
f 498/258/166 496/256/155 499/259/167
f 500/260/169 501/261/170 502/262/171
f 500/260/169 502/262/171 503/263/172
f 504/264/173 505/261/170 506/265/174
f 507/261/175 508/264/176 509/262/177
f 510/266/178 511/267/178 512/261/170
f 510/266/178 512/261/170 513/260/169
f 514/268/179 515/269/180 516/270/181
f 515/269/180 514/268/179 517/271/180
f 518/272/182 519/266/178 520/273/182
f 519/266/178 518/272/182 521/267/178
f 522/271/183 523/273/182 524/269/183
f 523/273/182 522/271/183 525/272/182
f 526/274/184 527/275/185 528/276/186
f 527/275/185 526/274/184 529/277/187
f 530/278/188 531/270/189 532/279/188
f 533/280/190 534/281/190 535/282/191
f 533/280/190 535/282/191 536/283/192
f 537/277/187 538/284/193 539/275/185
f 539/275/185 538/284/193 540/285/194
f 541/282/191 542/276/186 543/283/195
f 542/276/186 541/282/191 544/274/184
f 545/284/193 546/286/196 547/285/194
f 547/285/194 546/286/196 548/265/197
f 549/270/189 550/278/198 551/268/199
f 552/286/196 553/287/200 554/265/197
f 554/265/197 553/287/200 555/264/176
f 556/279/201 557/280/201 558/278/201
f 557/280/201 556/279/201 559/281/201
f 560/288/202 561/289/203 562/290/204
f 561/289/203 563/291/205 562/290/204
f 561/289/202 564/292/206 565/291/207
f 564/292/206 566/293/208 565/291/207
f 564/292/206 567/294/209 568/293/210
f 567/294/209 569/295/211 568/293/210
f 567/294/212 570/296/213 571/295/214
f 570/296/213 572/297/215 571/295/214
f 570/296/216 573/298/217 574/297/215
f 573/298/217 575/299/218 574/297/215
f 573/298/219 576/300/220 577/301/221
f 578/302/222 579/303/223 580/289/202
f 580/289/202 581/288/224 578/302/222
f 582/303/225 583/292/206 580/289/202
f 582/303/225 584/304/226 583/292/206
f 585/304/226 586/294/212 583/292/206
f 585/304/226 587/305/227 586/294/212
f 588/305/228 589/296/213 586/294/212
f 588/305/228 590/306/229 589/296/213
f 591/306/229 592/298/219 589/296/230
f 591/306/229 593/307/231 592/298/219
f 594/307/231 595/308/232 596/298/219
f 595/308/232 597/300/220 596/298/219
f 598/298/219 599/301/233 600/299/218
f 601/309/216 602/310/234 603/311/235
f 601/309/216 603/311/235 604/312/236
f 605/313/237 601/309/216 604/312/236
f 603/311/235 606/314/216 604/312/236
f 606/314/216 603/311/235 607/315/234
f 608/316/237 604/312/236 606/314/216
f 605/313/237 604/312/236 609/317/237
f 604/312/236 608/316/237 609/317/237
f 609/317/237 610/318/238 605/313/237
f 611/319/238 609/317/237 608/316/237
f 610/318/238 609/317/237 612/320/238
f 609/317/237 611/319/238 612/320/238
f 613/321/239 614/318/206 615/320/206
f 613/321/239 615/320/206 616/322/240
f 615/320/206 617/323/239 616/322/240
f 617/323/239 615/320/206 618/319/206
f 619/324/166 620/325/168 621/310/241
f 621/310/241 620/325/168 622/311/242
f 620/325/168 623/315/241 622/311/242
f 623/315/241 620/325/168 624/326/166
f 625/327/243 626/328/244 627/329/245
f 627/329/245 628/330/245 625/327/243
f 629/331/246 630/332/247 631/329/245
f 632/330/245 631/329/245 630/332/247
f 633/333/248 634/334/249 635/335/250
f 634/334/249 636/336/251 635/335/250
f 637/337/252 638/336/251 639/334/253
f 640/336/251 641/337/252 642/338/254
f 643/335/255 644/336/256 645/339/257
f 644/336/256 646/340/257 645/339/257
f 647/341/258 648/342/259 649/343/260
f 648/342/259 647/341/258 650/344/261
f 651/339/257 652/345/262 653/346/262
f 652/345/262 651/339/257 654/340/263
f 655/343/260 656/346/262 657/345/262
f 656/346/262 655/343/260 658/342/260
f 659/347/264 660/348/265 661/349/266
f 660/348/265 659/347/264 662/350/267
f 663/344/268 664/351/269 665/352/269
f 666/353/270 667/354/271 668/355/272
f 666/353/270 669/356/271 667/354/271
f 670/357/273 671/348/265 672/358/274
f 671/348/265 670/357/273 673/349/266
f 674/353/275 675/350/276 676/347/264
f 675/350/276 674/353/275 677/355/272
f 678/359/277 679/358/274 680/338/254
f 679/358/274 678/359/277 681/357/273
f 682/351/269 683/344/268 684/341/278
f 685/360/279 686/338/254 687/337/280
f 686/338/254 685/360/279 688/359/277
f 689/354/281 690/352/281 691/351/281
f 690/352/281 689/354/281 692/356/281
