# Blender 5.1.2
# www.blender.org
mtllib pearlbolt.mtl
o RenderMesh_118667362685687
v 0.011429 0.015520 0.071033
v 0.011429 0.001012 0.028579
v -0.002057 0.001012 0.028579
v -0.002057 0.015520 0.071033
v 0.011429 0.057974 0.085541
v -0.002057 0.057974 0.085541
v 0.011429 -0.013496 0.071033
v -0.002057 -0.055950 0.085541
v -0.002057 -0.013496 0.071033
v 0.011429 -0.055950 0.085541
v 0.011429 0.001012 0.028579
v -0.002057 0.001012 0.028579
v -0.015543 0.001012 0.028579
v -0.015543 0.015520 0.071033
v -0.002057 0.001012 0.028579
v -0.002057 0.015520 0.071033
v -0.015543 0.057974 0.085541
v -0.002057 0.057974 0.085541
v -0.002057 -0.013496 0.071033
v -0.002057 -0.055950 0.085541
v -0.015543 -0.013496 0.071033
v -0.015543 -0.055950 0.085541
v -0.015543 0.001012 0.028579
v -0.002057 0.001012 0.028579
v 0.021256 0.001012 0.085541
v 0.011429 0.057974 0.085541
v 0.011429 0.015520 0.100049
v 0.011429 0.015520 0.071033
v 0.011429 -0.055950 0.085541
v 0.021256 0.001012 0.085541
v 0.011429 -0.013496 0.100049
v 0.011429 -0.013496 0.071033
v 0.011429 0.001012 0.028579
v 0.011429 0.015520 0.071033
v 0.021256 0.001012 0.085541
v 0.011429 0.015520 0.100049
v 0.011429 0.001012 0.142503
v 0.021256 0.001012 0.085541
v 0.021256 0.001012 0.085541
v 0.011429 -0.013496 0.071033
v 0.011429 0.001012 0.028579
v 0.011429 -0.013496 0.100049
v 0.021256 0.001012 0.085541
v 0.011429 0.001012 0.142503
v -0.025370 0.001012 0.085541
v -0.015543 0.015520 0.100049
v -0.015543 0.057974 0.085541
v -0.015543 0.015520 0.071033
v -0.015543 -0.055950 0.085541
v -0.015543 -0.013496 0.100049
v -0.025370 0.001012 0.085541
v -0.015543 -0.013496 0.071033
v -0.015543 0.001012 0.028579
v -0.025370 0.001012 0.085541
v -0.015543 0.015520 0.071033
v -0.015543 0.015520 0.100049
v -0.025370 0.001012 0.085541
v -0.015543 0.001012 0.142503
v -0.025370 0.001012 0.085541
v -0.015543 0.001012 0.028579
v -0.015543 -0.013496 0.071033
v -0.015543 -0.013496 0.100049
v -0.015543 0.001012 0.142503
v -0.025370 0.001012 0.085541
v 0.011429 0.015520 0.100049
v -0.002057 0.057974 0.085541
v -0.002057 0.015520 0.100049
v 0.011429 0.057974 0.085541
v -0.002057 0.015520 0.100049
v 0.011429 0.001012 0.142503
v 0.011429 0.015520 0.100049
v -0.002057 0.001012 0.142503
v -0.002057 0.001012 0.142503
v -0.002057 -0.013496 0.100049
v 0.011429 -0.013496 0.100049
v 0.011429 0.001012 0.142503
v 0.011429 -0.055950 0.085541
v -0.002057 -0.013496 0.100049
v -0.002057 -0.055950 0.085541
v 0.011429 -0.013496 0.100049
v -0.002057 0.015520 0.100049
v -0.002057 0.057974 0.085541
v -0.015543 0.015520 0.100049
v -0.015543 0.057974 0.085541
v -0.015543 0.015520 0.100049
v -0.015543 0.001012 0.142503
v -0.002057 0.015520 0.100049
v -0.002057 0.001012 0.142503
v -0.002057 0.001012 0.142503
v -0.015543 -0.013496 0.100049
v -0.002057 -0.013496 0.100049
v -0.015543 0.001012 0.142503
v -0.002057 -0.055950 0.085541
v -0.002057 -0.013496 0.100049
v -0.015543 -0.055950 0.085541
v -0.015543 -0.013496 0.100049
vn 0.0003 0.7070 -0.7072
vn 0.0003 0.9463 -0.3233
vn 0.0005 0.9463 -0.3232
vn 0.0004 0.3236 -0.9462
vn 0.0005 0.3237 -0.9462
vn -0.0000 -0.7071 -0.7071
vn 0.0006 -0.3233 -0.9463
vn 0.0005 -0.3233 -0.9463
vn 0.0003 -0.9463 -0.3233
vn 0.0006 -0.9463 -0.3233
vn 0.0003 0.3235 -0.9462
vn 0.9854 0.1700 -0.0000
vn 0.8823 0.1522 0.4454
vn 0.8823 0.1522 -0.4454
vn 0.9854 -0.1700 -0.0000
vn 0.8823 -0.1522 0.4454
vn 0.8823 -0.1522 -0.4454
vn 0.9854 0.0002 -0.1703
vn 0.8826 0.4449 -0.1519
vn 0.9854 0.0002 -0.1702
vn 0.8824 0.4451 0.1523
vn 0.9855 0.0002 0.1696
vn 0.9855 0.0002 0.1697
vn 0.8823 -0.4455 -0.1519
vn 0.8823 -0.4454 0.1522
vn -0.9854 0.1700 -0.0000
vn -0.8823 0.1522 0.4454
vn -0.8823 0.1522 -0.4454
vn -0.9854 -0.1700 -0.0000
vn -0.8823 -0.1522 0.4454
vn -0.8823 -0.1522 -0.4454
vn -0.9854 0.0002 -0.1702
vn -0.9854 0.0002 -0.1703
vn -0.8826 0.4449 -0.1519
vn -0.8825 0.4450 0.1523
vn -0.9855 0.0002 0.1697
vn -0.8823 -0.4455 -0.1519
vn -0.8823 -0.4454 0.1522
vn -0.9855 0.0002 0.1696
vn -0.0000 0.7071 0.7071
vn 0.0003 0.3235 0.9462
vn 0.0005 0.7071 0.7071
vn 0.0005 0.9462 0.3235
vn 0.0003 0.9462 0.3235
vn 0.0003 -0.9462 0.3235
vn 0.0005 -0.7074 0.7068
vn -0.0000 -0.7074 0.7068
vn 0.0005 -0.9462 0.3237
vn 0.0005 -0.3232 0.9463
vn 0.0006 -0.3232 0.9463
vt 0.625000 0.750000
vt 0.500000 0.750000
vt 0.500000 0.625000
vt 0.625000 0.625000
vt 0.750000 0.750000
vt 0.750000 0.625000
vt 0.375000 0.750000
vt 0.250000 0.625000
vt 0.375000 0.625000
vt 0.250000 0.750000
vt 0.500000 0.875000
vt 0.625000 0.875000
vt 0.625000 1.000000
vt 0.375000 0.875000
vt 0.375000 1.000000
vt 0.500000 1.000000
vt 0.875000 0.750000
vt 0.875000 0.625000
vt 0.625000 0.125000
vt 0.500000 0.000000
vt 0.625000 0.000000
vt 0.500000 0.125000
vt 0.375000 0.125000
vt 0.375000 0.000000
vt 0.125000 0.625000
vt 0.125000 0.750000
s 1
f 1/1/1 2/2/2 3/3/3
f 3/3/3 4/4/1 1/1/1
f 4/4/1 5/5/4 1/1/1
f 5/5/4 4/4/1 6/6/5
f 7/7/6 8/8/7 9/9/6
f 8/8/7 7/7/6 10/10/8
f 9/9/6 11/2/9 7/7/6
f 11/2/9 9/9/6 12/3/10
f 13/2/3 14/1/1 15/3/2
f 15/3/2 14/1/1 16/4/1
f 17/5/11 16/4/1 14/1/1
f 18/6/4 16/4/1 17/5/11
f 19/9/6 20/8/7 21/7/6
f 21/7/6 20/8/7 22/10/8
f 23/2/9 19/9/6 21/7/6
f 24/3/10 19/9/6 23/2/9
f 25/11/12 26/12/12 27/13/13
f 25/11/12 28/1/14 26/12/12
f 29/14/15 30/11/15 31/15/16
f 32/7/17 30/11/15 29/14/15
f 33/2/18 34/1/19 35/11/20
f 36/13/21 37/16/22 38/11/23
f 39/11/18 40/7/24 41/2/20
f 42/15/25 43/11/23 44/16/23
f 45/11/26 46/13/27 47/12/26
f 45/11/26 47/12/26 48/1/28
f 49/14/29 50/15/30 51/11/29
f 52/7/31 49/14/29 51/11/29
f 53/2/32 54/11/33 55/1/34
f 56/13/35 57/11/36 58/16/36
f 59/11/32 60/2/33 61/7/37
f 62/15/38 63/16/39 64/11/36
f 65/17/40 66/6/41 67/18/42
f 66/6/41 65/17/40 68/5/41
f 69/19/40 70/20/43 71/21/42
f 70/20/43 69/19/40 72/22/44
f 73/22/45 74/23/46 75/24/47
f 75/24/47 76/20/48 73/22/45
f 77/10/49 78/25/47 79/8/50
f 78/25/47 77/10/49 80/26/46
f 81/18/40 82/6/41 83/17/42
f 83/17/42 82/6/41 84/5/41
f 85/21/40 86/20/43 87/19/42
f 87/19/42 86/20/43 88/22/44
f 89/22/45 90/24/46 91/23/47
f 90/24/46 89/22/45 92/20/48
f 93/8/50 94/25/46 95/10/49
f 95/10/49 94/25/46 96/26/47
