# Blender 5.2.1 LTS
# www.blender.org
mtllib tg body.mtl
o tg_body
v 0.314258 -0.020356 0.033960
v 0.314258 -0.074299 -0.037451
v 0.314258 -0.020356 -0.037451
v 0.314258 -0.074299 0.033960
v 0.338281 -0.155378 0.033960
v 0.338281 -0.155378 -0.037451
v 0.370312 -0.200312 -0.037451
v 0.370312 -0.200312 0.033960
v 0.410351 -0.281392 -0.037451
v 0.410351 -0.281392 0.033960
v 0.410351 -0.362361 0.033960
v 0.410351 -0.362361 -0.037451
v 0.370312 -0.416304 0.033960
v 0.370312 -0.416304 -0.037451
v 1.506250 -0.533308 0.079663
v 1.506250 -0.533308 -0.076489
v 1.522266 -0.155378 0.079663
v 1.522266 -0.155378 -0.076489
v 1.490234 -0.101326 -0.076489
v 1.490234 -0.101326 0.079663
v -0.461719 0.204644 -0.050464
v -0.461719 0.204644 0.046973
v -0.461719 0.051604 -0.050464
v -0.461719 0.051604 0.046973
v -0.461719 -0.002339 -0.050464
v -0.461719 -0.002339 0.046973
v -0.509766 -0.056392 0.046973
v -0.509766 -0.056392 -0.050464
v -1.077735 -0.011348 0.046973
v -1.077735 -0.011348 -0.050464
v -1.109766 0.042705 -0.050464
v -1.109766 0.042705 0.046973
v -0.949805 -0.155378 0.046973
v -0.949805 -0.155378 -0.050464
v -0.893750 -0.245356 0.046973
v -0.893750 -0.245356 -0.050464
v -0.877735 -0.290400 0.046973
v -0.877735 -0.290400 -0.050464
v -0.877735 -0.353352 0.046973
v -0.877735 -0.353352 -0.050464
v -0.901758 -0.389387 0.046973
v -0.901758 -0.389387 -0.050464
v 0.314258 -0.020356 0.033960
v 0.314258 -0.020356 -0.037451
v 0.178320 -0.020356 0.033960
v 0.178320 -0.020356 -0.037451
v 0.130273 -0.038374 -0.037451
v 0.130273 -0.038374 0.033960
v -0.461719 0.204644 -0.050464
v -1.349805 0.204644 -0.030786
v -1.349805 0.204644 0.033960
v -0.461719 0.204644 0.046973
v 1.490234 -0.101326 -0.076489
v 1.490234 -0.101326 0.079663
v 0.978320 0.078630 -0.076489
v 0.978320 0.078630 0.079663
v 0.914258 0.042705 -0.076489
v 0.914258 0.042705 0.079663
v 0.826367 0.069622 -0.076489
v 0.826367 0.069622 0.072998
v 0.458203 0.069622 -0.076489
v 0.458203 0.069622 0.072998
v 0.458203 0.069622 0.072998
v 0.562305 -0.101326 0.079663
v 0.826367 0.069622 0.072998
v 0.466211 -0.011348 0.079663
v 0.722265 -0.128352 0.079663
v 0.890234 -0.182295 0.079663
v 0.914258 0.042705 0.079663
v 0.978320 0.078630 0.079663
v 1.266211 -0.479365 0.079663
v 1.490234 -0.101326 0.079663
v 1.522266 -0.155378 0.079663
v 1.506250 -0.533308 0.079663
v 1.458203 -0.569343 0.079663
v -1.109766 -0.326326 0.046973
v -0.949805 -0.155378 0.046973
v -1.141797 -0.290400 0.046973
v -1.189649 -0.209321 0.046973
v -1.189649 -0.263374 0.046973
v -1.077735 -0.011348 0.046973
v -1.205664 -0.155378 0.046973
v -0.893750 -0.245356 0.046973
v -1.237695 -0.110334 0.046973
v -0.949805 -0.425312 0.046973
v -0.877735 -0.290400 0.046973
v -1.101758 -0.389387 0.046973
v -0.901758 -0.389387 0.046973
v -0.877735 -0.353352 0.046973
v -1.053711 -0.443330 0.046973
v -1.101758 -0.416304 0.046973
v -1.109766 0.042705 0.046973
v -1.261719 -0.020356 0.046973
v -1.285742 -0.074299 0.046973
v -1.277735 0.051604 0.046973
v -1.349805 0.204644 0.033960
v -1.037696 0.060613 0.046973
v -0.461719 0.204644 0.046973
v -0.693750 -0.056392 0.046973
v -0.461719 0.051604 0.046973
v -0.509766 -0.056392 0.046973
v -0.461719 -0.002339 0.046973
v 0.178320 -0.020356 0.033960
v 0.314258 -0.074299 0.033960
v 0.314258 -0.020356 0.033960
v 0.178320 -0.209321 0.033960
v 0.338281 -0.155378 0.033960
v 0.202344 -0.272383 0.033960
v 0.130273 -0.173396 0.033960
v 0.370312 -0.200312 0.033960
v 0.106250 -0.083308 0.033960
v 0.106250 -0.164387 0.033960
v 0.130273 -0.038374 0.033960
v 0.250195 -0.371370 0.033960
v 0.210351 -0.344343 0.033960
v 0.410351 -0.281392 0.033960
v 0.410351 -0.362361 0.033960
v 0.370312 -0.416304 0.033960
v 0.266211 -0.407295 0.033960
v 0.314258 -0.452339 0.033960
v 0.250195 -0.461348 0.033960
v -1.349805 0.204644 -0.030786
v -1.277735 0.051604 -0.050464
v -1.277735 0.051604 0.046973
v -1.349805 0.204644 0.033960
v -1.261719 -0.020356 -0.050464
v -1.261719 -0.020356 0.046973
v -1.285742 -0.074299 -0.050464
v -1.285742 -0.074299 0.046973
v -1.237695 -0.110334 -0.050464
v -1.237695 -0.110334 0.046973
v -1.205664 -0.155378 -0.050464
v -1.205664 -0.155378 0.046973
v -1.189649 -0.209321 -0.050464
v -1.189649 -0.209321 0.046973
v -1.189649 -0.263374 -0.050464
v -1.189649 -0.263374 0.046973
v -1.101758 -0.416304 -0.050464
v -1.101758 -0.389387 0.046973
v -1.101758 -0.389387 -0.050464
v -1.101758 -0.416304 0.046973
v -1.109766 -0.326326 0.046973
v -1.109766 -0.326326 -0.050464
v -1.141797 -0.290400 0.046973
v -1.141797 -0.290400 -0.050464
v 0.130273 -0.038374 -0.037451
v 0.130273 -0.038374 0.033960
v 0.106250 -0.083308 -0.037451
v 0.106250 -0.083308 0.033960
v 0.106250 -0.164387 -0.037451
v 0.106250 -0.164387 0.033960
v 0.466211 -0.011348 -0.076489
v 0.466211 -0.011348 0.079663
v 0.458203 0.069622 -0.076489
v 0.458203 0.069622 0.072998
v 0.178320 -0.209321 -0.037451
v 0.178320 -0.209321 0.033960
v 0.202344 -0.272383 -0.037451
v 0.202344 -0.272383 0.033960
v 0.210351 -0.344343 -0.037451
v 0.210351 -0.344343 0.033960
v 0.250195 -0.461348 -0.037451
v 0.266211 -0.407295 0.033960
v 0.266211 -0.407295 -0.037451
v 0.250195 -0.461348 0.033960
v 0.250195 -0.371370 0.033960
v 0.250195 -0.371370 -0.037451
v -1.237695 -0.110334 -0.050464
v -1.285742 -0.074299 0.046973
v -1.285742 -0.074299 -0.050464
v -1.237695 -0.110334 0.046973
v -1.141797 -0.290400 0.046973
v -1.141797 -0.290400 -0.050464
v -1.189649 -0.263374 0.046973
v -1.189649 -0.263374 -0.050464
v 0.370312 -0.416304 0.033960
v 0.370312 -0.416304 -0.037451
v 0.314258 -0.452339 0.033960
v 0.314258 -0.452339 -0.037451
v 0.250195 -0.461348 -0.037451
v 0.250195 -0.461348 0.033960
v 1.266211 -0.479365 -0.076489
v 1.458203 -0.569343 -0.076489
v 1.458203 -0.569343 0.079663
v 1.506250 -0.533308 0.079663
v 1.266211 -0.479365 0.079663
v 1.506250 -0.533308 -0.076489
v 0.890234 -0.182295 0.079663
v 0.890234 -0.182295 -0.076489
v 0.722265 -0.128352 -0.076489
v 0.722265 -0.128352 0.079663
v 0.562305 -0.101326 0.079663
v 0.562305 -0.101326 -0.076489
v 0.466211 -0.011348 -0.076489
v 0.466211 -0.011348 0.079663
v 0.130273 -0.173396 -0.037451
v 0.130273 -0.173396 0.033960
v 0.106250 -0.164387 -0.037451
v 0.106250 -0.164387 0.033960
v 0.178320 -0.209321 -0.037451
v 0.178320 -0.209321 0.033960
v -0.509766 -0.056392 0.046973
v -0.509766 -0.056392 -0.050464
v -0.693750 -0.056392 -0.050464
v -0.693750 -0.056392 0.046973
v -1.037696 0.060613 -0.050464
v -1.037696 0.060613 0.046973
v -1.109766 0.042705 -0.050464
v -1.109766 0.042705 0.046973
v 0.250195 -0.371370 0.033960
v 0.250195 -0.371370 -0.037451
v 0.210351 -0.344343 0.033960
v 0.210351 -0.344343 -0.037451
v -0.901758 -0.389387 0.046973
v -0.901758 -0.389387 -0.050464
v -0.949805 -0.425312 -0.050464
v -0.949805 -0.425312 0.046973
v -1.053711 -0.443330 -0.050464
v -1.053711 -0.443330 0.046973
v -1.101758 -0.416304 0.046973
v -1.101758 -0.416304 -0.050464
v 1.458203 -0.569343 -0.076489
v 1.266211 -0.479365 -0.076489
v 1.506250 -0.533308 -0.076489
v 1.522266 -0.155378 -0.076489
v 1.490234 -0.101326 -0.076489
v 0.978320 0.078630 -0.076489
v 0.890234 -0.182295 -0.076489
v 0.914258 0.042705 -0.076489
v 0.826367 0.069622 -0.076489
v 0.722265 -0.128352 -0.076489
v 0.562305 -0.101326 -0.076489
v 0.458203 0.069622 -0.076489
v 0.466211 -0.011348 -0.076489
v -1.077735 -0.011348 -0.050464
v -1.189649 -0.209321 -0.050464
v -1.205664 -0.155378 -0.050464
v -1.237695 -0.110334 -0.050464
v -0.949805 -0.155378 -0.050464
v -1.109766 0.042705 -0.050464
v -1.141797 -0.290400 -0.050464
v -1.189649 -0.263374 -0.050464
v -1.109766 -0.326326 -0.050464
v -0.893750 -0.245356 -0.050464
v -1.261719 -0.020356 -0.050464
v -1.285742 -0.074299 -0.050464
v -1.277735 0.051604 -0.050464
v -1.349805 0.204644 -0.030786
v -1.037696 0.060613 -0.050464
v -0.461719 0.204644 -0.050464
v -0.693750 -0.056392 -0.050464
v -0.461719 0.051604 -0.050464
v -0.509766 -0.056392 -0.050464
v -0.461719 -0.002339 -0.050464
v -0.949805 -0.425312 -0.050464
v -1.101758 -0.389387 -0.050464
v -0.877735 -0.290400 -0.050464
v -1.053711 -0.443330 -0.050464
v -1.101758 -0.416304 -0.050464
v -0.901758 -0.389387 -0.050464
v -0.877735 -0.353352 -0.050464
v 0.266211 -0.407295 -0.037451
v 0.370312 -0.416304 -0.037451
v 0.314258 -0.452339 -0.037451
v 0.250195 -0.461348 -0.037451
v 0.250195 -0.371370 -0.037451
v 0.410351 -0.362361 -0.037451
v 0.410351 -0.281392 -0.037451
v 0.370312 -0.200312 -0.037451
v 0.202344 -0.272383 -0.037451
v 0.210351 -0.344343 -0.037451
v 0.338281 -0.155378 -0.037451
v 0.178320 -0.209321 -0.037451
v 0.314258 -0.074299 -0.037451
v 0.178320 -0.020356 -0.037451
v 0.314258 -0.020356 -0.037451
v 0.130273 -0.173396 -0.037451
v 0.106250 -0.083308 -0.037451
v 0.130273 -0.038374 -0.037451
v 0.106250 -0.164387 -0.037451
vn 0.7474 0.6644 -0.0000
vn 0.9743 0.2253 -0.0000
vn 0.8957 0.4447 -0.0000
vn 0.9791 0.2035 -0.0000
vn 0.9791 0.2036 -0.0000
vn 0.9372 -0.3489 -0.0000
vn 0.6810 -0.7323 -0.0000
vn 0.8912 -0.4537 -0.0000
vn 0.9707 0.2404 -0.0000
vn 0.6286 0.7777 -0.0000
vn 1.0000 -0.0000 -0.0000
vn 0.4263 -0.9046 -0.0000
vn 0.8122 0.5834 -0.0000
vn 0.8624 0.5062 -0.0000
vn 0.7929 0.6093 -0.0000
vn 0.7929 0.6094 -0.0000
vn 0.8985 0.4389 -0.0000
vn 0.9900 0.1408 -0.0000
vn 0.9673 -0.2537 -0.0000
vn 0.7547 -0.6561 -0.0000
vn 0.7547 -0.6561 0.0001
vn 0.7474 0.6643 -0.0000
vn -0.1501 0.9887 -0.0000
vn -0.1500 0.9887 -0.0000
vn -0.6197 0.7848 -0.0000
vn -0.0000 1.0000 -0.0000
vn -0.0707 0.9975 -0.0000
vn 0.6286 0.7778 -0.0000
vn -0.0970 0.9953 -0.0000
vn 0.1500 0.9887 -0.0000
vn 0.1501 0.9887 -0.0000
vn -0.0000 0.0057 1.0000
vn -0.0064 0.0227 0.9997
vn -0.0064 0.0228 0.9997
vn -0.0000 -0.0000 1.0000
vn -0.9029 -0.4299 -0.0000
vn -0.9479 -0.3186 -0.0000
vn -0.9479 -0.3187 -0.0000
vn -0.9984 0.0559 -0.0000
vn -0.9449 0.3274 -0.0000
vn -0.7053 -0.7090 -0.0000
vn -0.7053 -0.7089 -0.0000
vn -0.8912 -0.4537 -0.0000
vn -0.9857 -0.1682 -0.0000
vn -0.9984 -0.0559 -0.0000
vn -0.9945 0.1052 -0.0000
vn -0.9998 -0.0210 -0.0000
vn -0.9254 -0.3791 -0.0000
vn -0.6424 -0.7663 -0.0000
vn -0.9594 0.2819 -0.0000
vn -0.6198 0.7848 -0.0000
vn -1.0000 0.0070 -0.0000
vn -0.8806 -0.4739 -0.0000
vn -0.9858 -0.1682 -0.0000
vn -0.9655 -0.2603 -0.0000
vn -0.8122 -0.5834 -0.0000
vn -0.9937 -0.1121 -0.0000
vn -0.9613 0.2754 -0.0000
vn -0.9964 -0.0843 -0.0000
vn -0.7862 -0.6179 -0.0000
vn -0.7863 -0.6179 -0.0000
vn -0.7052 -0.7090 -0.0000
vn -0.6108 -0.7918 -0.0000
vn -0.4503 -0.8929 -0.0000
vn -0.6424 -0.7664 -0.0000
vn 0.6809 -0.7324 -0.0000
vn 0.3664 -0.9305 -0.0000
vn 0.1501 -0.9887 -0.0000
vn 0.1500 -0.9887 -0.0000
vn -0.5257 -0.8506 -0.0000
vn 0.1066 -0.9943 -0.0000
vn 0.1065 -0.9943 -0.0000
vn -0.5259 -0.8506 -0.0000
vn -0.4837 -0.8752 -0.0000
vn -0.2462 -0.9692 -0.0000
vn -0.4505 -0.8928 -0.0000
vn -0.8805 -0.4740 -0.0000
vn -0.4603 -0.8878 -0.0000
vn -0.2112 -0.9774 -0.0000
vn -0.1587 -0.9873 -0.0000
vn 0.4262 -0.9046 -0.0000
vn -0.0707 -0.9975 -0.0000
vn 0.1772 -0.9842 -0.0000
vn -0.6286 -0.7777 -0.0000
vn -0.7862 -0.6180 -0.0000
vn -0.6286 -0.7778 -0.0000
vn 0.7546 -0.6561 -0.0000
vn 0.4016 -0.9158 -0.0000
vn -0.1857 -0.9826 -0.0000
vn -0.5258 -0.8506 -0.0000
vn -0.0000 0.0057 -1.0000
vn -0.0064 0.0227 -0.9997
vn -0.0064 0.0228 -0.9997
vn -0.0000 -0.0000 -1.0000
vt 45.945499 -0.822815
vt 46.054699 -0.883632
vt 46.054699 -0.822815
vt 45.945499 -0.883632
vt 45.945499 -0.967887
vt 46.054699 -0.967887
vt 46.054699 -1.022890
vt 45.945499 -1.022890
vt 46.054699 -1.110890
vt 45.945499 -1.110890
vt 45.945499 -1.202890
vt 46.054699 -1.202890
vt 45.945499 -1.261390
vt 46.054699 -1.261390
vt 46.119900 -1.390900
vt 45.880100 -0.973649
vt 45.880100 -1.390900
vt 46.119900 -0.973649
vt 46.119900 -0.906140
vt 45.880100 -0.906140
vt 46.072498 -0.569102
vt 45.927700 -0.569102
vt 46.072498 -0.741475
vt 45.927700 -0.741475
vt 46.072498 -0.801206
vt 45.927700 -0.801206
vt 45.927700 -0.858903
vt 46.072498 -0.858903
vt 45.927700 -0.806976
vt 46.072498 -0.806976
vt 46.072498 -0.748839
vt 45.927700 -0.748839
vt 45.927700 -0.969148
vt 46.072498 -0.969148
vt 45.927700 -1.069590
vt 46.072498 -1.069590
vt 45.927700 -1.124810
vt 46.072498 -1.124810
vt 45.927700 -1.186820
vt 46.072498 -1.186820
vt 45.927700 -1.229100
vt 46.072498 -1.229100
vt 45.719398 -1.054690
vt 45.883900 -0.945508
vt 45.719398 -0.945508
vt 45.883900 -1.054690
vt 45.944801 -1.054690
vt 45.944801 -0.945508
vt 46.688900 -1.072490
vt 47.798698 -1.050830
vt 47.798698 -0.949368
vt 46.688900 -0.927714
vt 44.887299 -1.119930
vt 44.248699 -0.880072
vt 44.248699 -1.119930
vt 44.887299 -0.880072
vt 44.965401 -1.119930
vt 44.965401 -0.880072
vt 45.075401 -1.115130
vt 45.075401 -0.884869
vt 45.538898 -1.115130
vt 45.538898 -0.884869
vt 46.461102 -0.719712
vt 46.594601 -0.909711
vt 46.924599 -0.719712
vt 46.479599 -0.814712
vt 46.794601 -0.939712
vt 47.002399 -1.004530
vt 47.034599 -0.749712
vt 47.112701 -0.714532
vt 47.472099 -1.330900
vt 47.751301 -0.906140
vt 47.798698 -0.973649
vt 47.772099 -1.390900
vt 47.712101 -1.430900
vt 44.503899 -1.164820
vt 44.699600 -0.969148
vt 44.463100 -1.117110
vt 44.404598 -1.026190
vt 44.408699 -1.092740
vt 44.540401 -0.806976
vt 44.384602 -0.965075
vt 44.776501 -1.069590
vt 44.342400 -0.916614
vt 44.702000 -1.271730
vt 44.797100 -1.124810
vt 44.513901 -1.226770
vt 44.769501 -1.229100
vt 44.794899 -1.186820
vt 44.574501 -1.294360
vt 44.510101 -1.258780
vt 44.502102 -0.748839
vt 44.312901 -0.819782
vt 44.289398 -0.880570
vt 44.292801 -0.739196
vt 44.201302 -0.569102
vt 44.592499 -0.734307
vt 45.311100 -0.569102
vt 45.023701 -0.858903
vt 45.311199 -0.741475
vt 45.253502 -0.858903
vt 45.311199 -0.801206
vt 46.116100 -0.822815
vt 46.280300 -0.883632
vt 46.280602 -0.822815
vt 46.113098 -1.033890
vt 46.319000 -0.967887
vt 46.146099 -1.099890
vt 46.058102 -0.989886
vt 46.359200 -1.022890
vt 46.021702 -0.885976
vt 46.021000 -0.982697
vt 46.055199 -0.839739
vt 46.203098 -1.213890
vt 46.156101 -1.179890
vt 46.408100 -1.110890
vt 46.403198 -1.202890
vt 46.350201 -1.261390
vt 46.224098 -1.252390
vt 46.287201 -1.299890
vt 46.205101 -1.310890
vt 45.949200 -0.569102
vt 45.927502 -0.739196
vt 46.072300 -0.739196
vt 46.050598 -0.569102
vt 45.927502 -0.819782
vt 46.072300 -0.819782
vt 45.927502 -0.880570
vt 46.072300 -0.880570
vt 46.072300 -0.916614
vt 45.927502 -0.916614
vt 45.927502 -0.965075
vt 46.072300 -0.965075
vt 45.927502 -1.026190
vt 46.072300 -1.026190
vt 45.927502 -1.092740
vt 46.072300 -1.092740
vt 45.927502 -1.258780
vt 46.072300 -1.226770
vt 45.927502 -1.226770
vt 46.072300 -1.258780
vt 46.072300 -1.164820
vt 45.927502 -1.164820
vt 46.072300 -1.117110
vt 45.927502 -1.117110
vt 45.945301 -0.885976
vt 46.054501 -0.839739
vt 45.945301 -0.839739
vt 46.054501 -0.885976
vt 45.945301 -0.982697
vt 46.054501 -0.982697
vt 45.880100 -0.814712
vt 46.119900 -0.814712
vt 45.884899 -0.719712
vt 46.115101 -0.719712
vt 45.945301 -1.099890
vt 46.054501 -1.033890
vt 45.945301 -1.033890
vt 46.054501 -1.099890
vt 45.945301 -1.179890
vt 46.054501 -1.179890
vt 45.945301 -1.310890
vt 46.054501 -1.252390
vt 45.945301 -1.252390
vt 46.054501 -1.310890
vt 46.054501 -1.213890
vt 45.945301 -1.213890
vt 44.342400 -1.072490
vt 44.289398 -0.927714
vt 44.289398 -1.072490
vt 44.342400 -0.927714
vt 44.408699 -0.927714
vt 44.463100 -1.072490
vt 44.463100 -0.927714
vt 44.408699 -1.072490
vt 46.350201 -1.054690
vt 46.350201 -0.945508
vt 46.287201 -0.945508
vt 46.287201 -1.054690
vt 46.205101 -1.054690
vt 46.205101 -0.945508
vt 47.472099 -1.119930
vt 47.712101 -1.119930
vt 47.712101 -0.880072
vt 47.772099 -0.880072
vt 47.472099 -0.880072
vt 47.772099 -1.119930
vt 47.002399 -0.880072
vt 47.002399 -1.119930
vt 46.794601 -1.119930
vt 46.794601 -0.880072
vt 46.594601 -0.880072
vt 46.594601 -1.119930
vt 46.479599 -1.119930
vt 46.479599 -0.880072
vt 46.058102 -1.054690
vt 46.058102 -0.945508
vt 46.021000 -1.054690
vt 46.021000 -0.945508
vt 46.113098 -1.054690
vt 46.113098 -0.945508
vt 45.023701 -1.072490
vt 45.253502 -1.072490
vt 45.253502 -0.927714
vt 45.023701 -0.927714
vt 44.592499 -1.072490
vt 44.592499 -0.927714
vt 44.502102 -1.072490
vt 44.502102 -0.927714
vt 46.156101 -0.945508
vt 46.203098 -1.054690
vt 46.203098 -0.945508
vt 46.156101 -1.054690
vt 44.769501 -1.072490
vt 44.769501 -0.927714
vt 44.702000 -1.072490
vt 44.702000 -0.927714
vt 44.574501 -1.072490
vt 44.574501 -0.927714
vt 44.510101 -0.927714
vt 44.510101 -1.072490
vt 44.287899 -1.430900
vt 44.527901 -1.330900
vt 44.227901 -1.390900
vt 44.201302 -0.973649
vt 44.248699 -0.906140
vt 44.887299 -0.714532
vt 44.997601 -1.004530
vt 44.965401 -0.749712
vt 45.075401 -0.719712
vt 45.205399 -0.939712
vt 45.405399 -0.909711
vt 45.538898 -0.719712
vt 45.520401 -0.814712
vt 47.459599 -0.806976
vt 47.595402 -1.026190
vt 47.615398 -0.965075
vt 47.657600 -0.916614
vt 47.300400 -0.969148
vt 47.497898 -0.748839
vt 47.536900 -1.117110
vt 47.591301 -1.092740
vt 47.496101 -1.164820
vt 47.223499 -1.069590
vt 47.687099 -0.819782
vt 47.710602 -0.880570
vt 47.707199 -0.739196
vt 47.798698 -0.569102
vt 47.407501 -0.734307
vt 46.688900 -0.569102
vt 46.976299 -0.858903
vt 46.688801 -0.741475
vt 46.746498 -0.858903
vt 46.688801 -0.801206
vt 47.298000 -1.271730
vt 47.486099 -1.226770
vt 47.202900 -1.124810
vt 47.425499 -1.294360
vt 47.489899 -1.258780
vt 47.230499 -1.229100
vt 47.205101 -1.186820
vt 45.775902 -1.252390
vt 45.649799 -1.261390
vt 45.712799 -1.299890
vt 45.794899 -1.310890
vt 45.796902 -1.213890
vt 45.596802 -1.202890
vt 45.591900 -1.110890
vt 45.640800 -1.022890
vt 45.853901 -1.099890
vt 45.843899 -1.179890
vt 45.681000 -0.967887
vt 45.886902 -1.033890
vt 45.719700 -0.883632
vt 45.883900 -0.822815
vt 45.719398 -0.822815
vt 45.941898 -0.989886
vt 45.978298 -0.885976
vt 45.944801 -0.839739
vt 45.979000 -0.982697
s 1
usemtl Meshpart1Mtl.015
f 1/1/1 2/2/2 3/3/1
f 2/2/2 1/1/1 4/4/2
f 5/5/3 2/2/2 4/4/2
f 2/2/2 5/5/3 6/6/3
f 5/5/3 7/7/3 6/6/3
f 7/7/3 5/5/3 8/8/3
f 8/8/3 9/9/4 7/7/3
f 9/9/4 8/8/3 10/10/5
f 9/9/4 10/10/5 11/11/6
f 12/12/6 9/9/4 11/11/6
f 12/12/6 11/11/6 13/13/7
f 13/13/7 14/14/7 12/12/6
f 16/15/8 17/16/9 15/17/8
f 16/15/8 18/18/9 17/16/9
f 17/16/9 18/18/9 19/19/10
f 19/19/10 20/20/10 17/16/9
f 21/21/11 22/22/11 23/23/11
f 23/23/11 22/22/11 24/24/11
f 23/23/11 24/24/11 25/25/6
f 25/25/6 24/24/11 26/26/6
f 27/27/12 25/25/6 26/26/6
f 25/25/6 27/27/12 28/28/12
f 29/29/13 30/30/13 31/31/14
f 31/31/14 32/32/14 29/29/13
f 30/30/13 29/29/13 33/33/15
f 34/34/16 30/30/13 33/33/15
f 34/34/16 33/33/15 35/35/17
f 36/36/17 34/34/16 35/35/17
f 36/36/17 35/35/17 37/37/18
f 37/37/18 38/38/18 36/36/17
f 39/39/19 38/38/18 37/37/18
f 38/38/18 39/39/19 40/40/19
f 41/41/20 40/40/19 39/39/19
f 40/40/19 41/41/20 42/42/21
f 44/43/22 45/44/23 43/45/22
f 44/43/22 46/46/24 45/44/23
f 47/47/25 45/44/23 46/46/24
f 45/44/23 47/47/25 48/48/25
f 49/49/26 50/50/26 51/51/26
f 49/49/26 51/51/26 52/52/26
f 55/53/27 54/54/28 53/55/28
f 54/54/28 55/53/27 56/56/27
f 57/57/29 56/56/27 55/53/27
f 56/56/27 57/57/29 58/58/29
f 59/59/30 58/58/29 57/57/29
f 58/58/29 59/59/30 60/60/31
f 61/61/26 60/60/31 59/59/30
f 60/60/31 61/61/26 62/62/26
f 63/63/32 64/64/32 65/65/32
f 64/64/32 63/63/32 66/66/32
f 65/65/32 64/64/32 67/67/32
f 68/68/32 65/65/32 67/67/32
f 65/65/32 68/68/32 69/69/32
f 68/68/32 70/70/32 69/69/32
f 71/71/32 70/70/32 68/68/32
f 70/70/32 71/71/32 72/72/32
f 72/72/32 71/71/32 73/73/32
f 71/71/32 74/74/32 73/73/32
f 74/74/32 71/71/32 75/75/32
f 76/76/33 77/77/33 78/78/33
f 77/77/33 79/79/33 78/78/33
f 79/79/33 80/80/33 78/78/33
f 79/79/33 77/77/33 81/81/33
f 79/79/33 81/81/33 82/82/33
f 77/77/33 76/76/33 83/83/33
f 81/81/33 84/84/33 82/82/33
f 85/85/33 83/83/33 76/76/33
f 83/83/33 85/85/33 86/86/33
f 87/87/33 85/85/33 76/76/33
f 88/88/33 86/86/33 85/85/33
f 86/86/33 88/88/33 89/89/33
f 85/85/33 87/87/33 90/90/33
f 90/90/33 87/87/33 91/91/33
f 92/92/34 84/84/33 81/81/33
f 84/84/33 92/92/34 93/93/33
f 93/93/33 94/94/33 84/84/33
f 93/93/33 92/92/34 95/95/34
f 95/95/34 92/92/34 96/96/33
f 97/97/34 96/96/33 92/92/34
f 96/96/33 97/97/34 98/98/33
f 99/99/33 98/98/33 97/97/34
f 99/99/33 100/100/33 98/98/33
f 101/101/33 100/100/33 99/99/33
f 100/100/33 101/101/33 102/102/33
f 103/103/35 104/104/35 105/105/35
f 103/103/35 106/106/35 104/104/35
f 106/106/35 107/107/35 104/104/35
f 107/107/35 106/106/35 108/108/35
f 106/106/35 103/103/35 109/109/35
f 108/108/35 110/110/35 107/107/35
f 111/111/35 109/109/35 103/103/35
f 109/109/35 111/111/35 112/112/35
f 111/111/35 103/103/35 113/113/35
f 114/114/35 110/110/35 108/108/35
f 114/114/35 108/108/35 115/115/35
f 110/110/35 114/114/35 116/116/35
f 116/116/35 114/114/35 117/117/35
f 117/117/35 114/114/35 118/118/35
f 119/119/35 118/118/35 114/114/35
f 118/118/35 119/119/35 120/120/35
f 121/121/35 120/120/35 119/119/35
f 122/122/36 123/123/37 124/124/38
f 122/122/36 124/124/38 125/125/36
f 124/124/38 123/123/37 126/126/39
f 126/126/39 127/127/39 124/124/38
f 128/128/40 127/127/39 126/126/39
f 127/127/39 128/128/40 129/129/40
f 131/130/41 130/131/42 132/132/43
f 132/132/43 133/133/43 131/130/41
f 133/133/43 132/132/43 134/134/44
f 134/134/44 135/135/44 133/133/43
f 136/136/45 135/135/44 134/134/44
f 135/135/44 136/136/45 137/137/45
f 138/138/46 139/139/47 140/140/47
f 139/139/47 138/138/46 141/141/46
f 140/140/47 139/139/47 142/142/48
f 142/142/48 143/143/48 140/140/47
f 143/143/48 142/142/48 144/144/49
f 144/144/49 145/145/49 143/143/48
f 148/146/50 147/147/51 146/148/51
f 147/147/51 148/146/50 149/149/50
f 150/150/52 149/149/50 148/146/50
f 149/149/50 150/150/52 151/151/52
f 152/152/53 153/153/53 154/154/54
f 154/154/54 153/153/53 155/155/54
f 158/156/55 157/157/56 156/158/56
f 157/157/56 158/156/55 159/159/55
f 160/160/57 159/159/55 158/156/55
f 159/159/55 160/160/57 161/161/57
f 162/162/58 163/163/59 164/164/59
f 163/163/59 162/162/58 165/165/58
f 166/166/60 164/164/59 163/163/59
f 164/164/59 166/166/60 167/167/61
f 168/168/62 169/169/63 170/170/63
f 169/169/63 168/168/62 171/171/62
f 174/172/64 173/173/65 172/174/65
f 173/173/65 174/172/64 175/175/64
f 177/176/66 176/177/66 178/178/67
f 178/178/67 179/179/67 177/176/66
f 180/180/68 179/179/67 178/178/67
f 180/180/68 178/178/67 181/181/69
f 182/182/70 183/183/71 184/184/72
f 183/183/71 185/185/8 184/184/72
f 182/182/70 184/184/72 186/186/73
f 187/187/8 185/185/8 183/183/71
f 186/186/73 188/188/74 182/182/70
f 189/189/74 182/182/70 188/188/74
f 190/190/75 189/189/74 188/188/74
f 190/190/75 188/188/74 191/191/75
f 190/190/75 191/191/75 192/192/76
f 193/193/64 190/190/75 192/192/76
f 193/193/64 192/192/76 194/194/77
f 194/194/77 192/192/76 195/195/77
f 196/196/78 197/197/78 198/198/79
f 198/198/79 197/197/78 199/199/79
f 200/200/56 197/197/78 196/196/78
f 197/197/78 200/200/56 201/201/56
f 204/202/80 203/203/81 202/204/81
f 204/202/80 202/204/81 205/205/80
f 206/206/82 204/202/80 205/205/80
f 206/206/82 205/205/80 207/207/82
f 208/208/83 206/206/82 207/207/82
f 208/208/83 207/207/82 209/209/83
f 212/210/84 211/211/85 210/212/85
f 211/211/85 212/210/84 213/213/86
f 215/214/20 214/215/87 216/216/88
f 216/216/88 214/215/87 217/217/88
f 218/218/89 216/216/88 217/217/88
f 218/218/89 217/217/88 219/219/89
f 220/220/73 218/218/89 219/219/89
f 218/218/89 220/220/73 221/221/90
f 222/222/91 223/223/91 224/224/91
f 223/223/91 225/225/91 224/224/91
f 223/223/91 226/226/91 225/225/91
f 226/226/91 223/223/91 227/227/91
f 227/227/91 223/223/91 228/228/91
f 227/227/91 228/228/91 229/229/91
f 229/229/91 228/228/91 230/230/91
f 231/231/91 230/230/91 228/228/91
f 232/232/91 230/230/91 231/231/91
f 230/230/91 232/232/91 233/233/91
f 233/233/91 232/232/91 234/234/91
f 235/235/92 236/236/92 237/237/92
f 238/238/92 235/235/92 237/237/92
f 236/236/92 235/235/92 239/239/92
f 235/235/92 238/238/92 240/240/93
f 236/236/92 239/239/92 241/241/92
f 236/236/92 241/241/92 242/242/92
f 239/239/92 243/243/92 241/241/92
f 243/243/92 239/239/92 244/244/92
f 238/238/92 245/245/92 240/240/93
f 245/245/92 238/238/92 246/246/92
f 247/247/93 240/240/93 245/245/92
f 248/248/93 240/240/93 247/247/93
f 248/248/93 249/249/93 240/240/93
f 249/249/93 248/248/93 250/250/93
f 250/250/93 251/251/92 249/249/93
f 252/252/92 251/251/92 250/250/93
f 251/251/92 252/252/92 253/253/92
f 253/253/92 252/252/92 254/254/92
f 255/255/92 243/243/92 244/244/92
f 243/243/92 255/255/92 256/256/92
f 255/255/92 244/244/92 257/257/92
f 258/258/92 256/256/92 255/255/92
f 256/256/92 258/258/92 259/259/92
f 257/257/92 260/260/92 255/255/92
f 260/260/92 257/257/92 261/261/92
f 262/262/94 263/263/94 264/264/94
f 264/264/94 265/265/94 262/262/94
f 263/263/94 262/262/94 266/266/94
f 266/266/94 267/267/94 263/263/94
f 266/266/94 268/268/94 267/267/94
f 268/268/94 266/266/94 269/269/94
f 270/270/94 269/269/94 266/266/94
f 270/270/94 266/266/94 271/271/94
f 269/269/94 270/270/94 272/272/94
f 273/273/94 272/272/94 270/270/94
f 272/272/94 273/273/94 274/274/94
f 273/273/94 275/275/94 274/274/94
f 275/275/94 276/276/94 274/274/94
f 275/275/94 273/273/94 277/277/94
f 278/278/94 275/275/94 277/277/94
f 275/275/94 278/278/94 279/279/94
f 278/278/94 277/277/94 280/280/94
