# Blender 5.2.1 LTS
# www.blender.org
mtllib tg bolt.mtl
o RenderMesh_117424252321566.001
v -0.010103 0.070382 0.024459
v 0.020000 0.070382 0.034590
v -0.003040 0.085331 0.018720
v 0.020000 0.052747 0.037440
v -0.015054 0.070382 0.014748
v -0.005074 0.085331 0.014730
v 0.050103 0.070382 0.024459
v 0.001878 0.089978 0.014724
v 0.020000 0.085331 0.026474
v 0.020000 0.094999 0.014718
v 0.038122 0.089978 0.014724
v 0.043040 0.085331 0.018720
v 0.045074 0.085331 0.014730
v 0.055054 0.070382 0.014748
v -0.015054 0.070382 0.014748
v -0.017342 0.046693 0.014776
v -0.018550 0.052747 0.014769
v 0.057343 0.046693 0.014776
v 0.062889 0.037253 0.000214
v -0.022889 0.037253 0.000214
v -0.017778 0.046693 -0.013920
v 0.057779 0.046693 -0.013920
v 0.055054 0.070382 0.014748
v 0.058551 0.052747 0.014769
v 0.038122 0.089978 0.014724
v 0.045074 0.085331 0.014730
v 0.001878 0.089978 0.014724
v -0.005074 0.085331 0.014730
v 0.020000 0.094999 0.014718
v -0.015461 0.070382 -0.013950
v -0.018979 0.052747 -0.013928
v 0.055462 0.070382 -0.013950
v 0.058980 0.052747 -0.013928
v 0.037199 0.090850 -0.013974
v 0.045463 0.085331 -0.013968
v 0.002801 0.090850 -0.013974
v -0.005462 0.085331 -0.013968
v 0.018966 0.095320 -0.013980
v 0.021034 0.095320 -0.013980
v 0.020000 0.095405 -0.013980
v -0.000988 0.002418 -0.017053
v -0.012583 0.020164 0.000214
v -0.003040 0.020164 -0.018720
v -0.009682 0.002418 0.000214
v -0.021094 -0.015405 0.000214
v -0.000988 0.002418 0.017053
v -0.009058 -0.015405 -0.023610
v -0.009058 -0.015405 0.023610
v 0.020000 -0.015405 -0.033389
v 0.020000 -0.015405 0.033389
v 0.020000 0.002418 -0.024116
v 0.020000 0.002418 0.024116
v 0.040989 0.002418 -0.017053
v 0.049058 -0.015405 -0.023610
v 0.020000 0.020164 -0.026474
v 0.061094 -0.015405 0.000214
v 0.049682 0.002418 0.000214
v 0.040989 0.002418 0.017053
v 0.049058 -0.015405 0.023610
v 0.052584 0.020164 0.000214
v 0.020000 0.020164 0.026474
v 0.043040 0.020164 0.018720
v 0.043040 0.020164 -0.018720
v 0.062573 0.035114 0.000214
v -0.003040 0.020164 0.018720
v 0.020000 0.035114 0.034590
v -0.022572 0.035114 0.000214
v -0.010103 0.035114 0.024459
v 0.050103 0.035114 0.024459
v -0.017342 0.046693 0.014776
v -0.022889 0.037253 0.000214
v -0.017778 0.046693 -0.013920
v -0.012583 0.052747 0.026474
v -0.018550 0.052747 0.014769
v -0.010103 0.035114 -0.024459
v -0.012583 0.052747 -0.026474
v -0.018979 0.052747 -0.013928
v 0.020000 0.035114 -0.034590
v 0.020000 0.052747 -0.037440
v 0.050103 0.035114 -0.024459
v -0.010103 0.070382 -0.024459
v -0.015461 0.070382 -0.013950
v 0.057779 0.046693 -0.013920
v 0.062889 0.037253 0.000214
v 0.057343 0.046693 0.014776
v 0.052584 0.052747 -0.026474
v 0.058980 0.052747 -0.013928
v 0.052584 0.052747 0.026474
v 0.058551 0.052747 0.014769
v 0.050103 0.070382 -0.024459
v 0.055462 0.070382 -0.013950
v 0.020000 0.070382 -0.034590
v 0.043040 0.085331 -0.018720
v 0.045463 0.085331 -0.013968
v 0.037199 0.090850 -0.013974
v 0.020000 0.085331 -0.026474
v 0.021034 0.095320 -0.013980
v -0.003040 0.085331 -0.018720
v -0.005462 0.085331 -0.013968
v 0.002801 0.090850 -0.013974
v 0.018966 0.095320 -0.013980
v 0.020000 0.095320 -0.014328
v 0.020000 0.095405 -0.013980
vn -0.5949 0.3317 0.7322
vn -0.0000 0.3051 0.9523
vn -0.4838 0.6413 0.5955
vn -0.0000 -0.0000 1.0000
vn -0.8405 0.3316 0.4285
vn -0.6838 0.6411 0.3486
vn 0.5949 0.3317 0.7322
vn -0.2811 0.7792 0.5602
vn -0.0000 0.6059 0.7956
vn -0.0000 0.7724 0.6352
vn 0.2811 0.7792 0.5602
vn 0.4838 0.6413 0.5955
vn 0.6837 0.6411 0.3486
vn 0.8405 0.3316 0.4285
vn -0.0000 -0.0012 -1.0000
vn -0.0000 0.4491 -0.8935
vn -0.0001 -0.0012 -1.0000
vn -0.0000 0.4492 -0.8935
vn -0.0000 0.9999 0.0113
vn -0.0000 0.4435 0.8963
vn 0.0001 -0.0012 -1.0000
vn -0.0000 0.0012 1.0000
vn -0.0002 0.0012 1.0000
vn 0.0001 0.0012 1.0000
vn -0.0000 0.0013 1.0000
vn -0.6195 0.1993 -0.7593
vn -0.9226 -0.3857 0.0046
vn -0.5922 -0.3497 -0.7260
vn -0.9750 0.2221 0.0051
vn -0.8421 0.5392 0.0035
vn -0.6164 0.1987 0.7619
vn -0.5485 0.4964 -0.6729
vn -0.5467 0.4958 0.6748
vn -0.0000 0.4615 -0.8871
vn -0.0000 0.4615 0.8871
vn -0.0000 0.1820 -0.9833
vn -0.0000 0.1820 0.9833
vn 0.6195 0.1993 -0.7593
vn 0.5485 0.4964 -0.6729
vn -0.0000 -0.3216 -0.9469
vn 0.8421 0.5392 0.0035
vn 0.9750 0.2221 0.0053
vn 0.6164 0.1987 0.7619
vn 0.5467 0.4954 0.6751
vn 0.9226 -0.3857 0.0046
vn -0.0000 -0.3216 0.9469
vn 0.5895 -0.3490 0.7285
vn 0.5921 -0.3497 -0.7260
vn 0.9304 -0.3665 0.0027
vn -0.5895 -0.3490 0.7284
vn -0.0000 -0.3051 0.9523
vn -0.9304 -0.3665 0.0027
vn -0.5946 -0.3306 0.7329
vn 0.5946 -0.3306 0.7329
vn -0.8777 -0.1706 0.4478
vn -0.9813 -0.1926 0.0004
vn -0.8789 -0.1743 -0.4441
vn -0.6306 0.0011 0.7761
vn -0.8908 0.0022 0.4543
vn -0.5960 -0.3318 -0.7312
vn -0.6312 0.0001 -0.7756
vn -0.8917 -0.0000 -0.4526
vn -0.0000 -0.3051 -0.9523
vn -0.0000 -0.0000 -1.0000
vn 0.5960 -0.3318 -0.7312
vn -0.5949 0.3317 -0.7322
vn -0.8406 0.3312 -0.4285
vn 0.8789 -0.1743 -0.4441
vn 0.9813 -0.1926 0.0004
vn 0.8777 -0.1705 0.4478
vn 0.6312 0.0001 -0.7757
vn 0.8917 -0.0000 -0.4526
vn 0.6306 0.0010 0.7761
vn 0.8908 0.0022 0.4543
vn 0.5949 0.3317 -0.7322
vn 0.8406 0.3312 -0.4286
vn -0.0000 0.3051 -0.9523
vn 0.4838 0.6413 -0.5955
vn 0.6839 0.6408 -0.3487
vn 0.2813 0.7792 -0.5601
vn -0.0000 0.6059 -0.7956
vn 0.1953 0.7907 -0.5802
vn -0.4838 0.6413 -0.5955
vn -0.6839 0.6409 -0.3486
vn -0.2813 0.7792 -0.5601
vn -0.1954 0.7907 -0.5802
vn -0.0000 0.8673 -0.4978
vn -0.0000 0.9714 -0.2376
vt 0.000000 0.000000
s 1
f 1/1/1 2/1/2 3/1/3
f 4/1/4 2/1/2 1/1/1
f 1/1/1 3/1/3 5/1/5
f 6/1/6 5/1/5 3/1/3
f 4/1/4 7/1/7 2/1/2
f 6/1/6 3/1/3 8/1/8
f 8/1/8 3/1/3 9/1/9
f 2/1/2 9/1/9 3/1/3
f 10/1/10 8/1/8 9/1/9
f 9/1/9 11/1/11 10/1/10
f 2/1/2 12/1/12 9/1/9
f 11/1/11 9/1/9 12/1/12
f 12/1/12 2/1/2 7/1/7
f 11/1/11 12/1/12 13/1/13
f 14/1/14 12/1/12 7/1/7
f 12/1/12 14/1/14 13/1/13
f 15/1/15 16/1/16 17/1/17
f 16/1/16 15/1/15 18/1/18
f 19/1/19 16/1/16 18/1/18
f 16/1/16 19/1/19 20/1/19
f 19/1/19 21/1/20 20/1/19
f 21/1/20 19/1/19 22/1/20
f 18/1/18 15/1/15 23/1/15
f 18/1/18 23/1/15 24/1/21
f 25/1/15 23/1/15 15/1/15
f 23/1/15 25/1/15 26/1/15
f 25/1/15 15/1/15 27/1/15
f 27/1/15 15/1/15 28/1/15
f 25/1/15 27/1/15 29/1/15
f 22/1/20 30/1/22 21/1/20
f 21/1/20 30/1/22 31/1/23
f 32/1/22 30/1/22 22/1/20
f 32/1/22 22/1/20 33/1/24
f 34/1/22 30/1/22 32/1/22
f 34/1/22 32/1/22 35/1/22
f 30/1/22 34/1/22 36/1/22
f 30/1/22 36/1/22 37/1/22
f 36/1/22 34/1/22 38/1/25
f 39/1/25 38/1/25 34/1/22
f 38/1/25 39/1/25 40/1/22
f 41/1/26 42/1/27 43/1/28
f 42/1/27 41/1/26 44/1/29
f 41/1/26 45/1/30 44/1/29
f 46/1/31 42/1/27 44/1/29
f 45/1/30 46/1/31 44/1/29
f 45/1/30 41/1/26 47/1/32
f 45/1/30 48/1/33 46/1/31
f 41/1/26 49/1/34 47/1/32
f 50/1/35 46/1/31 48/1/33
f 51/1/36 49/1/34 41/1/26
f 46/1/31 50/1/35 52/1/37
f 53/1/38 49/1/34 51/1/36
f 49/1/34 53/1/38 54/1/39
f 41/1/26 55/1/40 51/1/36
f 55/1/40 53/1/38 51/1/36
f 55/1/40 41/1/26 43/1/28
f 54/1/39 53/1/38 56/1/41
f 53/1/38 57/1/42 56/1/41
f 58/1/43 56/1/41 57/1/42
f 56/1/41 58/1/43 59/1/44
f 50/1/35 59/1/44 58/1/43
f 50/1/35 58/1/43 52/1/37
f 57/1/42 60/1/45 58/1/43
f 53/1/38 60/1/45 57/1/42
f 58/1/43 61/1/46 52/1/37
f 46/1/31 52/1/37 61/1/46
f 60/1/45 62/1/47 58/1/43
f 61/1/46 58/1/43 62/1/47
f 60/1/45 53/1/38 63/1/48
f 63/1/48 53/1/38 55/1/40
f 64/1/49 62/1/47 60/1/45
f 63/1/48 64/1/49 60/1/45
f 46/1/31 61/1/46 65/1/50
f 42/1/27 46/1/31 65/1/50
f 61/1/46 62/1/47 66/1/51
f 66/1/51 65/1/50 61/1/46
f 67/1/52 42/1/27 65/1/50
f 67/1/52 43/1/28 42/1/27
f 65/1/50 66/1/51 68/1/53
f 67/1/52 65/1/50 68/1/53
f 62/1/47 69/1/54 66/1/51
f 62/1/47 64/1/49 69/1/54
f 4/1/4 68/1/53 66/1/51
f 66/1/51 69/1/54 4/1/4
f 67/1/52 68/1/53 70/1/55
f 67/1/52 70/1/55 71/1/56
f 71/1/56 72/1/57 67/1/52
f 70/1/55 68/1/53 73/1/58
f 68/1/53 4/1/4 73/1/58
f 73/1/58 74/1/59 70/1/55
f 74/1/59 73/1/58 1/1/1
f 73/1/58 4/1/4 1/1/1
f 5/1/5 74/1/59 1/1/1
f 75/1/60 67/1/52 72/1/57
f 43/1/28 67/1/52 75/1/60
f 75/1/60 72/1/57 76/1/61
f 76/1/61 72/1/57 77/1/62
f 75/1/60 78/1/63 43/1/28
f 43/1/28 78/1/63 55/1/40
f 78/1/63 63/1/48 55/1/40
f 75/1/60 79/1/64 78/1/63
f 79/1/64 75/1/60 76/1/61
f 63/1/48 78/1/63 80/1/65
f 79/1/64 80/1/65 78/1/63
f 80/1/65 64/1/49 63/1/48
f 77/1/62 81/1/66 76/1/61
f 81/1/66 79/1/64 76/1/61
f 81/1/66 77/1/62 82/1/67
f 83/1/68 64/1/49 80/1/65
f 64/1/49 83/1/68 84/1/69
f 85/1/70 64/1/49 84/1/69
f 64/1/49 85/1/70 69/1/54
f 86/1/71 83/1/68 80/1/65
f 80/1/65 79/1/64 86/1/71
f 83/1/68 86/1/71 87/1/72
f 85/1/70 88/1/73 69/1/54
f 89/1/74 88/1/73 85/1/70
f 88/1/73 4/1/4 69/1/54
f 89/1/74 7/1/7 88/1/73
f 7/1/7 4/1/4 88/1/73
f 7/1/7 89/1/74 14/1/14
f 90/1/75 87/1/72 86/1/71
f 79/1/64 90/1/75 86/1/71
f 87/1/72 90/1/75 91/1/76
f 90/1/75 79/1/64 92/1/77
f 79/1/64 81/1/66 92/1/77
f 93/1/78 91/1/76 90/1/75
f 92/1/77 93/1/78 90/1/75
f 91/1/76 93/1/78 94/1/79
f 93/1/78 95/1/80 94/1/79
f 93/1/78 96/1/81 95/1/80
f 93/1/78 92/1/77 96/1/81
f 96/1/81 97/1/82 95/1/80
f 98/1/83 92/1/77 81/1/66
f 92/1/77 98/1/83 96/1/81
f 82/1/67 98/1/83 81/1/66
f 98/1/83 82/1/67 99/1/84
f 98/1/83 99/1/84 100/1/85
f 100/1/85 96/1/81 98/1/83
f 101/1/86 96/1/81 100/1/85
f 97/1/82 96/1/81 102/1/87
f 96/1/81 101/1/86 102/1/87
f 102/1/87 103/1/88 97/1/82
f 103/1/88 102/1/87 101/1/86
