# Blender 5.2.1 LTS
# www.blender.org
mtllib tg mag.mtl
o RenderMesh_137009270649191
v 0.139406 0.237315 -0.221268
v 0.139406 -0.163222 -0.091652
v 0.139406 0.002686 -0.221268
v 0.139406 0.403223 -0.091652
v 0.139406 -0.163222 0.091652
v 0.139406 0.403223 0.091652
v 0.139406 0.237315 0.221268
v 0.139406 0.002686 0.221268
v 0.139406 0.002686 0.221268
v 0.139406 0.237315 0.221268
v 0.010594 -0.000127 0.226573
v 0.010594 0.240128 0.226573
v 0.010594 -0.170014 0.093850
v 0.010594 0.410014 0.093849
v 0.139406 -0.163222 0.091652
v 0.139406 0.403223 0.091652
v 0.010594 -0.170014 -0.093849
v 0.139406 0.403223 -0.091652
v 0.139406 -0.163222 -0.091652
v 0.010594 0.410014 -0.093850
v 0.139406 0.002686 -0.221268
v 0.139406 0.237315 -0.221268
v 0.010594 -0.000127 -0.226573
v 0.010594 0.240128 -0.226573
v 0.176397 0.130502 -0.062500
v 0.176397 0.130502 0.062500
v 0.176397 0.050502 0.000000
v 0.176397 0.073933 0.044194
v 0.176397 0.073933 -0.044194
v 0.176397 0.210502 -0.000000
v 0.176397 0.187070 0.044194
v 0.176397 0.187070 -0.044194
v -0.026397 0.050502 0.000000
v -0.026396 0.130502 0.062500
v -0.026396 0.130502 -0.062500
v -0.026397 0.073933 0.044194
v -0.026397 0.073933 -0.044194
v -0.026396 0.210502 -0.000000
v -0.026396 0.187070 -0.044194
v -0.026396 0.187070 0.044194
v -0.021124 0.237315 -0.221268
v -0.021124 -0.163222 -0.091652
v -0.021124 0.403223 -0.091652
v -0.021124 0.002686 -0.221268
v -0.021124 0.403223 0.091652
v -0.021124 -0.163222 0.091652
v -0.021124 0.237315 0.221268
v -0.021124 0.002686 0.221268
v 0.029497 0.000262 0.225839
v 0.029497 0.239738 0.225839
v -0.021124 0.002686 0.221268
v 0.029497 -0.169074 0.093546
v -0.021124 0.237315 0.221268
v -0.021124 -0.163222 0.091652
v 0.029497 0.409074 0.093546
v -0.021124 -0.163222 -0.091652
v -0.021124 0.403223 0.091652
v 0.029497 -0.169074 -0.093546
v 0.029497 0.409074 -0.093546
v -0.021124 0.002686 -0.221268
v -0.021124 0.403223 -0.091652
v 0.029497 0.000262 -0.225839
v -0.021124 0.237315 -0.221268
v 0.029497 0.239738 -0.225839
v 0.041308 0.240128 0.226573
v 0.029497 0.409074 0.093546
v 0.029497 0.239738 0.225839
v 0.041308 0.410014 0.093850
v 0.041308 -0.000127 0.226573
v 0.029497 0.409074 -0.093546
v 0.029497 0.000262 0.225839
v 0.041308 0.410014 -0.093850
v 0.041308 -0.170014 0.093850
v 0.041308 0.240128 -0.226573
v 0.029497 -0.169074 0.093546
v 0.029497 0.239738 -0.225839
v 0.041308 -0.170014 -0.093850
v 0.041308 -0.000127 -0.226573
v 0.029497 -0.169074 -0.093546
v 0.029497 0.000262 -0.225839
v 0.176397 0.073933 0.044194
v -0.026396 0.130502 0.062500
v -0.026397 0.073933 0.044194
v -0.026397 0.050502 0.000000
v 0.176397 0.130502 0.062500
v 0.176397 0.050502 0.000000
v 0.176397 0.187070 0.044194
v -0.026397 0.073933 -0.044194
v -0.026396 0.187070 0.044194
v 0.176397 0.073933 -0.044194
v 0.176397 0.210502 -0.000000
v -0.026396 0.130502 -0.062500
v -0.026396 0.210502 -0.000000
v 0.176397 0.130502 -0.062500
v 0.176397 0.187070 -0.044194
v -0.026396 0.187070 -0.044194
vn 1.0000 -0.0000 -0.0000
vn 0.0459 -0.3076 0.9504
vn 0.0459 0.3076 0.9504
vn 0.0545 -0.8822 0.4677
vn 0.0545 0.8822 0.4677
vn 0.0545 -0.8822 -0.4677
vn 0.0545 0.8822 -0.4677
vn 0.0459 -0.3076 -0.9504
vn 0.0459 0.3076 -0.9504
vn -1.0000 -0.0000 -0.0000
vn -0.1002 -0.3063 0.9466
vn -0.1001 0.3063 0.9466
vn -0.1188 -0.8772 0.4651
vn -0.1188 0.8773 0.4651
vn -0.1188 -0.8772 -0.4651
vn -0.1188 0.8772 0.4651
vn -0.1188 -0.8773 -0.4651
vn -0.1188 0.8772 -0.4651
vn -0.1002 -0.3063 -0.9466
vn -0.1001 0.3063 -0.9466
vn -0.0691 0.3072 0.9491
vn -0.0821 0.8805 0.4668
vn -0.0691 0.3071 0.9492
vn -0.0821 0.8805 0.4669
vn -0.0691 -0.3071 0.9492
vn -0.0821 0.8805 -0.4668
vn -0.0691 -0.3072 0.9491
vn -0.0821 0.8805 -0.4669
vn -0.0821 -0.8805 0.4668
vn -0.0691 0.3072 -0.9491
vn -0.0691 0.3071 -0.9492
vn -0.0821 -0.8805 -0.4669
vn -0.0691 -0.3071 -0.9492
vn -0.0821 -0.8805 -0.4668
vn -0.0691 -0.3072 -0.9491
vn -0.0000 -0.6156 0.7880
vn -0.0000 -0.0000 1.0000
vn -0.0000 -1.0000 -0.0000
vn -0.0000 0.6157 0.7880
vn -0.0000 -0.6156 -0.7880
vn -0.0000 0.6156 0.7880
vn -0.0000 -0.6157 -0.7880
vn -0.0000 1.0000 -0.0000
vn -0.0000 -0.0000 -1.0000
vn -0.0000 0.6156 -0.7880
vn -0.0000 0.6157 -0.7880
vt 0.000000 0.000000
s 1
f 1/1/1 2/1/1 3/1/1
f 4/1/1 2/1/1 1/1/1
f 2/1/1 4/1/1 5/1/1
f 6/1/1 5/1/1 4/1/1
f 5/1/1 6/1/1 7/1/1
f 5/1/1 7/1/1 8/1/1
f 9/1/2 10/1/3 11/1/2
f 11/1/2 10/1/3 12/1/3
f 13/1/4 9/1/2 11/1/2
f 10/1/3 14/1/5 12/1/3
f 13/1/4 15/1/4 9/1/2
f 14/1/5 10/1/3 16/1/5
f 17/1/6 15/1/4 13/1/4
f 18/1/7 14/1/5 16/1/5
f 19/1/6 15/1/4 17/1/6
f 20/1/7 14/1/5 18/1/7
f 17/1/6 21/1/8 19/1/6
f 22/1/9 20/1/7 18/1/7
f 21/1/8 17/1/6 23/1/8
f 23/1/8 22/1/9 21/1/8
f 24/1/9 20/1/7 22/1/9
f 22/1/9 23/1/8 24/1/9
f 25/1/1 26/1/1 27/1/1
f 27/1/1 26/1/1 28/1/1
f 25/1/1 27/1/1 29/1/1
f 25/1/1 30/1/1 26/1/1
f 26/1/1 30/1/1 31/1/1
f 30/1/1 25/1/1 32/1/1
f 33/1/10 34/1/10 35/1/10
f 34/1/10 33/1/10 36/1/10
f 33/1/10 35/1/10 37/1/10
f 34/1/10 38/1/10 35/1/10
f 35/1/10 38/1/10 39/1/10
f 38/1/10 34/1/10 40/1/10
f 41/1/10 42/1/10 43/1/10
f 42/1/10 41/1/10 44/1/10
f 43/1/10 42/1/10 45/1/10
f 46/1/10 45/1/10 42/1/10
f 46/1/10 47/1/10 45/1/10
f 47/1/10 46/1/10 48/1/10
f 49/1/11 50/1/12 51/1/11
f 51/1/11 52/1/13 49/1/11
f 51/1/11 50/1/12 53/1/12
f 52/1/13 51/1/11 54/1/13
f 55/1/14 53/1/12 50/1/12
f 56/1/15 52/1/13 54/1/13
f 57/1/16 53/1/12 55/1/14
f 58/1/17 52/1/13 56/1/15
f 59/1/18 57/1/16 55/1/14
f 60/1/19 58/1/17 56/1/15
f 57/1/16 59/1/18 61/1/18
f 62/1/19 58/1/17 60/1/19
f 59/1/18 63/1/20 61/1/18
f 60/1/19 64/1/20 62/1/19
f 63/1/20 59/1/18 64/1/20
f 64/1/20 60/1/19 63/1/20
f 65/1/21 66/1/22 67/1/23
f 66/1/22 65/1/21 68/1/24
f 67/1/23 69/1/25 65/1/21
f 68/1/24 70/1/26 66/1/22
f 69/1/25 67/1/23 71/1/27
f 70/1/26 68/1/24 72/1/28
f 71/1/27 73/1/29 69/1/25
f 72/1/28 74/1/30 70/1/26
f 73/1/29 71/1/27 75/1/29
f 70/1/26 74/1/30 76/1/31
f 75/1/29 77/1/32 73/1/29
f 74/1/30 78/1/33 76/1/31
f 77/1/32 75/1/29 79/1/34
f 79/1/34 78/1/33 77/1/32
f 78/1/33 79/1/34 80/1/35
f 76/1/31 78/1/33 80/1/35
f 81/1/36 82/1/37 83/1/36
f 84/1/38 81/1/36 83/1/36
f 82/1/37 81/1/36 85/1/37
f 84/1/38 86/1/38 81/1/36
f 82/1/37 85/1/37 87/1/39
f 88/1/40 86/1/38 84/1/38
f 82/1/37 87/1/39 89/1/41
f 88/1/40 90/1/42 86/1/38
f 91/1/43 89/1/41 87/1/39
f 92/1/44 90/1/42 88/1/40
f 89/1/41 91/1/43 93/1/43
f 92/1/44 94/1/44 90/1/42
f 95/1/45 93/1/43 91/1/43
f 96/1/46 94/1/44 92/1/44
f 93/1/43 95/1/45 96/1/46
f 96/1/46 95/1/45 94/1/44
