# Blender 5.2.1 LTS
# www.blender.org
mtllib tg side.mtl
o tg_side
v 1.157187 0.217949 0.058303
v 1.157187 0.217949 -0.065159
v 1.157187 0.249980 -0.045481
v 1.157187 0.257988 -0.065159
v 1.157187 0.257988 -0.045481
v 1.157187 0.249980 0.038942
v 1.157187 0.257988 0.058303
v 1.157187 0.257988 0.038942
v 1.093125 0.257988 -0.019456
v 1.093125 0.305937 -0.006443
v 1.093125 0.257988 0.012917
v 1.093125 0.305937 -0.000096
v 1.093125 0.305937 -0.013108
v 1.093125 0.313945 -0.019456
v 1.093125 0.313945 -0.013108
v 1.093125 0.305937 0.006569
v 1.093125 0.313945 0.012917
v 1.093125 0.313945 0.012917
v 1.133164 0.257988 0.032277
v 1.141172 0.249980 -0.045481
v 1.133164 0.257988 -0.039134
v 1.141172 0.249980 0.038942
v 1.101133 0.170000 0.104006
v 1.077109 0.145977 -0.117210
v 1.101133 0.170000 -0.110545
v 1.077109 0.145977 0.110354
v 1.077109 0.201934 0.097341
v 1.101133 0.170000 -0.110545
v 1.077109 0.201934 -0.097532
v 1.101133 0.170000 0.104006
v 1.157187 0.257988 -0.065159
v 1.141172 0.273906 -0.045481
v 1.157187 0.257988 -0.045481
v 1.141172 0.273906 0.038942
v 1.157187 0.257988 0.058303
v 1.157187 0.257988 0.038942
v 0.141172 0.233965 0.019265
v 0.141172 0.209941 0.019265
v 0.133164 0.233965 -0.000096
v 0.133164 0.209941 -0.000096
v 0.141172 0.233965 -0.026121
v 0.141172 0.209941 -0.026121
v -1.346914 0.097930 -0.000096
v -1.346914 0.153984 -0.052146
v -1.346914 0.153984 0.045290
v -1.346914 0.113945 -0.039134
v -1.346914 0.113945 0.032277
v -1.346914 0.217949 -0.000096
v -1.346914 0.193926 0.032277
v -1.346914 0.193926 -0.039134
v -1.426797 0.241973 0.006569
v -1.418789 0.201934 -0.019456
v -1.426797 0.241973 -0.013108
v -1.418789 0.201934 0.012917
v -1.426797 0.273906 0.006569
v -1.426797 0.241973 -0.013108
v -1.426797 0.273906 -0.006443
v -1.426797 0.241973 0.006569
v -1.434805 0.297930 -0.006443
v -1.426797 0.273906 -0.006443
v -1.434805 0.297930 -0.000096
v -1.434805 0.313945 -0.000096
v -1.434805 0.313945 -0.000096
v -1.402773 0.225957 -0.000096
v -1.402773 0.201934 0.038942
v -1.402773 0.201934 -0.000096
v -1.402773 0.201934 -0.039134
v -1.402773 0.185918 0.025930
v -1.402773 0.153984 0.051955
v -1.402773 0.153984 0.038942
v -1.402773 0.185918 -0.032469
v -1.402773 0.153984 -0.058494
v -1.402773 0.153984 -0.039134
v -1.402773 0.105937 -0.039134
v -1.402773 0.121953 -0.032469
v -1.402773 0.089922 -0.000096
v -1.402773 0.105937 -0.000096
v -1.402773 0.121953 0.025930
v -1.402773 0.105937 0.038942
v -1.402773 0.153984 0.038942
v -1.402773 0.153984 0.051955
v 1.157187 0.257988 -0.065159
v 1.141172 0.273906 -0.045481
v 1.093125 0.321953 -0.065159
v 1.093125 0.321953 -0.045481
v 1.093125 0.321953 0.058303
v 1.141172 0.273906 0.038942
v 1.093125 0.321953 0.038942
v 1.157187 0.257988 0.058303
v -1.354922 0.185918 -0.026121
v -0.066836 0.225957 -0.000096
v -0.066836 0.201934 -0.039134
v -1.354922 0.201934 -0.000096
v -1.354922 0.185918 0.025930
v -0.066836 0.201934 0.038942
v 1.093125 0.313945 -0.019456
v 1.077109 0.313945 -0.019456
v 1.077109 0.313945 -0.013108
v 1.093125 0.313945 -0.013108
v 1.093125 0.313945 0.012917
v 1.077109 0.313945 0.012917
v 1.077109 0.313945 0.012917
v 1.093125 0.313945 0.012917
v -1.434805 0.313945 -0.000096
v -1.466836 0.313945 -0.000096
v -1.466836 0.313945 -0.000096
v -1.434805 0.313945 -0.000096
v 1.093125 0.313945 -0.013108
v 1.077109 0.313945 -0.013108
v 1.077109 0.305937 -0.013108
v 1.093125 0.305937 -0.013108
v 1.077109 0.305937 -0.006443
v 1.093125 0.305937 -0.006443
v 1.077109 0.305937 -0.000096
v 1.093125 0.305937 -0.000096
v 1.077109 0.305937 0.006569
v 1.093125 0.305937 0.006569
v 1.077109 0.313945 0.012917
v 1.093125 0.313945 0.012917
v 1.133164 0.257988 -0.039134
v 0.973203 0.257988 -0.039134
v 0.973203 0.257988 0.032277
v 1.133164 0.257988 0.032277
v 0.949180 0.249980 -0.045481
v 1.157187 0.249980 0.038942
v 1.157187 0.249980 -0.045481
v 0.949180 0.249980 0.038942
v -1.618789 0.193926 -0.039134
v -1.346914 0.193926 -0.039134
v -1.618789 0.217949 -0.000096
v -1.346914 0.217949 -0.000096
v -1.618789 0.193926 0.032277
v -1.346914 0.193926 0.032277
v -0.074844 0.225957 -0.084520
v -0.074844 0.225957 0.077980
v -0.002773 0.225957 -0.084520
v -0.002773 0.225957 0.077980
v 0.845078 0.209941 0.019265
v 0.877109 0.209941 0.032277
v 0.877109 0.209941 0.019265
v 0.901133 0.209941 0.019265
v 0.917148 0.209941 -0.000096
v 0.877109 0.209941 -0.026121
v 0.901133 0.209941 -0.026121
v 0.877109 0.209941 -0.032469
v 0.877109 0.209941 -0.026121
v 0.861094 0.209941 -0.026121
v 0.845078 0.209941 -0.026121
v 0.133164 0.209941 -0.000096
v 0.157187 0.209941 -0.026121
v 0.141172 0.209941 -0.026121
v 0.173203 0.209941 -0.032469
v 0.197227 0.209941 -0.026121
v 0.197227 0.209941 -0.026121
v 0.157187 0.209941 0.019265
v 0.141172 0.209941 0.019265
v 0.173203 0.209941 0.032277
v 0.157187 0.209941 0.019265
v 0.181211 0.209941 0.019265
v 0.197227 0.209941 0.019265
v 0.197227 0.209941 0.019265
v 0.837070 0.209941 -0.000096
v 0.213242 0.209941 -0.000096
v 0.181211 0.209941 0.019265
v 0.845078 0.209941 0.019265
v 0.197227 0.209941 0.019265
v 0.877109 0.209941 0.019265
v 0.181211 0.209941 0.019265
v 0.845078 0.209941 -0.026121
v 0.197227 0.209941 -0.026121
v 0.157187 0.209941 -0.026121
v 0.861094 0.209941 -0.026121
v 0.861094 0.209941 -0.026121
v 0.877109 0.209941 -0.026121
v 0.877109 0.209941 -0.026121
v 0.877109 0.209941 -0.026121
v 0.157187 0.209941 0.019265
v 0.157187 0.209941 0.019265
v 0.157187 0.209941 0.019265
v -1.402773 0.201934 -0.039134
v -1.498867 0.201934 -0.039134
v -1.402773 0.225957 -0.000096
v -1.498867 0.225957 -0.000096
v -1.402773 0.201934 0.038942
v -1.498867 0.201934 0.038942
v -1.402773 0.121953 0.025930
v -1.498867 0.121953 0.025930
v -1.498867 0.105937 -0.000096
v -1.402773 0.105937 -0.000096
v -1.498867 0.121953 -0.032469
v -1.402773 0.121953 -0.032469
v -1.578750 0.121953 -0.026121
v -1.618789 0.121953 -0.026121
v -1.578750 0.113945 -0.000096
v -1.618789 0.113945 -0.000096
v -1.578750 0.121953 0.019265
v -1.618789 0.121953 0.019265
v -0.002773 0.225957 -0.084520
v -0.002773 0.225957 0.077980
v 0.045078 0.233965 -0.091185
v 0.045078 0.233965 0.084328
v 0.573203 0.201934 -0.097532
v 1.077109 0.201934 -0.097532
v 0.573203 0.201934 0.097341
v 1.077109 0.201934 0.097341
v 0.949180 0.257988 -0.065159
v 1.093125 0.321953 -0.045481
v 1.093125 0.321953 -0.065159
v 0.949180 0.257988 -0.045481
v 0.949180 0.257988 0.058303
v 1.093125 0.321953 0.058303
v 0.949180 0.257988 0.038942
v 1.093125 0.321953 0.038942
v 0.141172 0.233965 -0.026121
v 0.141172 0.209941 -0.026121
v 0.173203 0.233965 -0.032469
v 0.173203 0.209941 -0.032469
v 0.197227 0.209941 -0.026121
v 0.197227 0.233965 -0.026121
v -1.354922 0.185918 0.025930
v -0.066836 0.201934 0.038942
v -0.066836 0.153984 0.051955
v -1.354922 0.153984 0.032277
v -1.354922 0.121953 0.025930
v -0.066836 0.105937 0.038942
v 0.573203 0.145977 0.110354
v 1.077109 0.201934 0.097341
v 0.573203 0.201934 0.097341
v 0.549180 0.170000 0.104006
v 1.077109 0.145977 0.110354
v 1.101133 0.170000 0.104006
v -0.074844 0.033965 0.090993
v -0.002773 0.073906 0.097341
v -0.074844 0.073906 0.097341
v -0.002773 0.033965 0.090993
v 0.045078 0.073906 0.110354
v 0.045078 0.025957 0.104006
v 1.157187 0.257988 0.058303
v 0.949180 0.257988 0.058303
v 1.157187 0.217949 0.058303
v 0.949180 0.217949 0.058303
v 0.949180 0.257988 0.058303
v 1.157187 0.257988 0.058303
v 1.093125 0.321953 0.058303
v 0.973203 0.257988 0.032277
v 1.141172 0.249980 0.038942
v 1.133164 0.257988 0.032277
v 0.957188 0.249980 0.038942
v -0.074844 0.225957 0.077980
v -0.074844 0.073906 0.097341
v -0.002773 0.073906 0.097341
v -0.002773 0.225957 0.077980
v 0.045078 0.073906 0.110354
v 0.045078 0.233965 0.084328
v -1.618789 0.113945 0.032277
v -1.346914 0.113945 0.032277
v -1.346914 0.153984 0.045290
v -1.618789 0.153984 0.045290
v -1.618789 0.193926 0.032277
v -1.346914 0.193926 0.032277
v -1.618789 0.153984 0.045290
v -1.346914 0.153984 0.045290
v -1.474844 0.241973 0.006569
v -1.426797 0.273906 0.006569
v -1.474844 0.273906 0.006569
v -1.426797 0.241973 0.006569
v -1.418789 0.201934 0.012917
v -1.426797 0.241973 0.006569
v -1.490860 0.201934 0.012917
v -1.466836 0.297930 -0.000096
v -1.474844 0.273906 0.006569
v -1.434805 0.297930 -0.000096
v -1.434805 0.313945 -0.000096
v -1.466836 0.313945 -0.000096
v 1.077109 0.313945 0.012917
v 1.077109 0.257988 0.012917
v 1.093125 0.257988 0.012917
v 1.093125 0.313945 0.012917
v -1.402773 0.105937 0.038942
v -1.498867 0.105937 0.038942
v -1.498867 0.153984 0.051955
v -1.402773 0.153984 0.051955
v -1.402773 0.201934 0.038942
v -1.498867 0.201934 0.038942
v -1.402773 0.153984 0.051955
v -1.498867 0.153984 0.051955
v -1.498867 0.121953 -0.032469
v -1.402773 0.121953 -0.032469
v -1.498867 0.153984 -0.039134
v -1.402773 0.153984 -0.039134
v -1.498867 0.185918 -0.032469
v -1.402773 0.185918 -0.032469
v -1.578750 0.185918 -0.026121
v -1.618789 0.185918 -0.026121
v -1.578750 0.153984 -0.039134
v -1.618789 0.153984 -0.039134
v -1.578750 0.121953 -0.026121
v -1.618789 0.121953 -0.026121
v 0.197227 0.209941 -0.026121
v 0.845078 0.209941 -0.026121
v 0.845078 0.233965 -0.026121
v 0.197227 0.233965 -0.026121
v 1.141172 0.273906 -0.045481
v 1.157187 0.249980 -0.045481
v 1.157187 0.257988 -0.045481
v 0.949180 0.249980 -0.045481
v 0.949180 0.257988 -0.045481
v 0.949180 0.257988 -0.045481
v 1.141172 0.273906 -0.045481
v 1.093125 0.321953 -0.045481
v 0.877109 0.209941 -0.032469
v 0.877109 0.233965 -0.032469
v 0.845078 0.209941 -0.026121
v 0.845078 0.233965 -0.026121
v 0.901133 0.233965 -0.026121
v 0.901133 0.209941 -0.026121
v -1.618789 0.217949 -0.000096
v -1.618789 0.185918 0.019265
v -1.618789 0.193926 0.032277
v -1.618789 0.153984 0.032277
v -1.618789 0.153984 0.045290
v -1.618789 0.193926 -0.000096
v -1.618789 0.185918 -0.026121
v -1.618789 0.193926 -0.039134
v -1.618789 0.153984 -0.039134
v -1.618789 0.153984 -0.052146
v -1.618789 0.113945 -0.039134
v -1.618789 0.121953 -0.026121
v -1.618789 0.097930 -0.000096
v -1.618789 0.113945 -0.000096
v -1.618789 0.121953 0.019265
v -1.618789 0.113945 0.032277
v -1.618789 0.153984 0.032277
v -1.618789 0.153984 0.045290
v -1.578750 0.121953 -0.026121
v -1.578750 0.185918 -0.026121
v -1.578750 0.153984 -0.039134
v -1.578750 0.193926 -0.000096
v -1.578750 0.113945 -0.000096
v -1.578750 0.121953 0.019265
v -1.578750 0.185918 0.019265
v -1.578750 0.153984 0.032277
v -1.498867 0.201934 -0.000096
v -1.498867 0.201934 0.038942
v -1.498867 0.225957 -0.000096
v -1.498867 0.201934 -0.039134
v -1.498867 0.185918 0.025930
v -1.498867 0.153984 0.051955
v -1.498867 0.185918 -0.032469
v -1.498867 0.153984 -0.058494
v -1.498867 0.153984 0.038942
v -1.498867 0.153984 -0.039134
v -1.498867 0.105937 -0.000096
v -1.498867 0.105937 -0.039134
v -1.498867 0.121953 0.025930
v -1.498867 0.105937 0.038942
v -1.498867 0.153984 0.038942
v -1.498867 0.153984 0.051955
v -1.498867 0.089922 -0.000096
v -1.498867 0.121953 -0.032469
v -1.474844 0.273906 -0.006443
v -1.474844 0.241973 -0.013108
v -1.474844 0.241973 0.006569
v -1.474844 0.273906 0.006569
v -1.474844 0.273906 0.006569
v -1.466836 0.297930 -0.000096
v -1.466836 0.297930 -0.006443
v -1.466836 0.313945 -0.000096
v -1.466836 0.313945 -0.000096
v -1.474844 0.241973 -0.013108
v -1.490860 0.201934 -0.019456
v -1.490860 0.201934 0.012917
v -1.474844 0.241973 0.006569
v -1.402773 0.201934 -0.000096
v -1.402773 0.201934 -0.039134
v -1.402773 0.185918 -0.032469
v -1.402773 0.225957 -0.000096
v -1.402773 0.185918 0.025930
v -1.402773 0.201934 0.038942
v -1.402773 0.153984 -0.058494
v -1.402773 0.153984 -0.039134
v -1.402773 0.105937 -0.039134
v -1.402773 0.121953 -0.032469
v -1.402773 0.105937 -0.000096
v -1.402773 0.153984 0.038942
v -1.402773 0.153984 0.051955
v -1.402773 0.121953 0.025930
v -1.402773 0.089922 -0.000096
v -1.402773 0.105937 0.038942
v 0.197227 0.209941 -0.026121
v 0.197227 0.233965 -0.026121
v 0.197227 0.209941 -0.026121
v 0.573203 0.145977 0.110354
v 0.549180 0.170000 -0.110545
v 0.549180 0.170000 0.104006
v 0.573203 0.145977 -0.117210
v 0.549180 0.170000 -0.110545
v 0.549180 0.170000 0.104006
v 0.573203 0.201934 -0.097532
v 0.573203 0.201934 0.097341
v -0.074844 0.033965 -0.097532
v -0.074844 0.073906 0.097341
v -0.074844 0.073906 -0.104197
v -0.074844 0.033965 0.090993
v -0.074844 0.225957 -0.084520
v -0.074844 0.225957 0.077980
v -0.074844 0.073906 -0.104197
v 0.901133 0.233965 -0.026121
v 0.901133 0.209941 -0.026121
v 0.909141 0.233965 -0.013108
v 0.917148 0.209941 -0.000096
v 0.917148 0.233965 -0.000096
v 0.917148 0.209941 -0.000096
v 0.901133 0.209941 0.019265
v 0.917148 0.233965 -0.000096
v 0.901133 0.233965 0.019265
v 0.957188 0.249980 -0.045481
v 0.957188 0.249980 0.038942
v 0.973203 0.257988 -0.039134
v 0.973203 0.257988 0.032277
v 0.949180 0.217949 -0.065159
v 0.949180 0.217949 0.058303
v 0.949180 0.249980 0.038942
v 0.949180 0.257988 0.058303
v 0.949180 0.257988 0.038942
v 0.949180 0.249980 -0.045481
v 0.949180 0.257988 -0.065159
v 0.949180 0.257988 -0.045481
v 1.077109 0.305937 -0.000096
v 1.077109 0.257988 0.012917
v 1.077109 0.305937 0.006569
v 1.077109 0.313945 0.012917
v 1.077109 0.313945 0.012917
v 1.077109 0.257988 -0.019456
v 1.077109 0.305937 -0.006443
v 1.077109 0.305937 -0.013108
v 1.077109 0.313945 -0.019456
v 1.077109 0.313945 -0.013108
v -1.354922 0.121953 -0.026121
v -0.066836 0.105937 -0.039134
v -0.066836 0.089922 -0.000096
v -1.354922 0.105937 -0.000096
v -1.354922 0.121953 0.025930
v -0.066836 0.105937 0.038942
v -0.002773 0.033965 -0.097532
v -0.002773 0.033965 0.090993
v -0.074844 0.033965 -0.097532
v -0.074844 0.033965 0.090993
v 0.045078 0.025957 -0.104197
v 0.045078 0.025957 0.104006
v -0.002773 0.033965 -0.097532
v -1.618789 0.113945 0.032277
v -1.346914 0.113945 0.032277
v -1.618789 0.097930 -0.000096
v -1.346914 0.097930 -0.000096
v -1.618789 0.113945 -0.039134
v -1.346914 0.113945 -0.039134
v -1.402773 0.105937 0.038942
v -1.498867 0.105937 0.038942
v -1.402773 0.089922 -0.000096
v -1.498867 0.089922 -0.000096
v -1.402773 0.105937 -0.039134
v -1.498867 0.105937 -0.039134
v -1.498867 0.185918 -0.032469
v -1.402773 0.185918 -0.032469
v -1.498867 0.201934 -0.000096
v -1.402773 0.201934 -0.000096
v -1.498867 0.185918 0.025930
v -1.402773 0.185918 0.025930
v -1.578750 0.185918 0.019265
v -1.618789 0.185918 0.019265
v -1.578750 0.193926 -0.000096
v -1.618789 0.193926 -0.000096
v -1.578750 0.185918 -0.026121
v -1.618789 0.185918 -0.026121
v 0.573203 0.145977 -0.117210
v 1.077109 0.145977 -0.117210
v 1.077109 0.145977 0.110354
v 0.573203 0.145977 0.110354
v 0.949180 0.217949 -0.065159
v 1.157187 0.217949 -0.065159
v 1.157187 0.217949 0.058303
v 0.949180 0.217949 0.058303
v 0.957188 0.249980 -0.045481
v 1.141172 0.249980 -0.045481
v 1.141172 0.249980 0.038942
v 0.957188 0.249980 0.038942
v 0.141172 0.233965 0.019265
v 0.173203 0.233965 0.032277
v 0.141172 0.209941 0.019265
v 0.173203 0.209941 0.032277
v 0.845078 0.233965 0.019265
v 0.877109 0.233965 0.032277
v 0.845078 0.209941 0.019265
v 0.877109 0.209941 0.032277
v -1.354922 0.185918 -0.026121
v -0.066836 0.201934 -0.039134
v -0.066836 0.153984 -0.058494
v -1.354922 0.153984 -0.039134
v -1.354922 0.121953 -0.026121
v -0.066836 0.105937 -0.039134
v 0.573203 0.201934 -0.097532
v 0.573203 0.145977 -0.117210
v 0.549180 0.170000 -0.110545
v 1.077109 0.145977 -0.117210
v 1.077109 0.201934 -0.097532
v 1.101133 0.170000 -0.110545
v 0.045078 0.073906 -0.110545
v -0.002773 0.033965 -0.097532
v -0.002773 0.073906 -0.104197
v 0.045078 0.025957 -0.104197
v -0.074844 0.033965 -0.097532
v -0.074844 0.073906 -0.104197
v 1.157187 0.257988 -0.065159
v 0.949180 0.217949 -0.065159
v 0.949180 0.257988 -0.065159
v 1.157187 0.217949 -0.065159
v 1.157187 0.257988 -0.065159
v 0.949180 0.257988 -0.065159
v 1.093125 0.321953 -0.065159
v 1.141172 0.249980 -0.045481
v 0.973203 0.257988 -0.039134
v 1.133164 0.257988 -0.039134
v 0.957188 0.249980 -0.045481
v -0.002773 0.225957 -0.084520
v 0.045078 0.073906 -0.110545
v -0.002773 0.073906 -0.104197
v 0.045078 0.233965 -0.091185
v -0.074844 0.225957 -0.084520
v -0.074844 0.073906 -0.104197
v -1.618789 0.113945 -0.039134
v -1.346914 0.113945 -0.039134
v -1.618789 0.153984 -0.052146
v -1.346914 0.153984 -0.052146
v -1.618789 0.193926 -0.039134
v -1.346914 0.193926 -0.039134
v -1.474844 0.241973 -0.013108
v -1.426797 0.273906 -0.006443
v -1.426797 0.241973 -0.013108
v -1.474844 0.273906 -0.006443
v -1.418789 0.201934 -0.019456
v -1.490860 0.201934 -0.019456
v -1.426797 0.241973 -0.013108
v -1.466836 0.297930 -0.006443
v -1.474844 0.273906 -0.006443
v -1.434805 0.297930 -0.006443
v -1.434805 0.313945 -0.000096
v -1.466836 0.313945 -0.000096
v 1.093125 0.313945 -0.019456
v 1.077109 0.257988 -0.019456
v 1.077109 0.313945 -0.019456
v 1.093125 0.257988 -0.019456
v -1.402773 0.105937 -0.039134
v -1.498867 0.105937 -0.039134
v -1.402773 0.153984 -0.058494
v -1.498867 0.153984 -0.058494
v -1.402773 0.201934 -0.039134
v -1.498867 0.201934 -0.039134
v -1.402773 0.121953 0.025930
v -1.498867 0.121953 0.025930
v -1.402773 0.153984 0.038942
v -1.498867 0.153984 0.038942
v -1.498867 0.185918 0.025930
v -1.402773 0.185918 0.025930
v -1.498867 0.153984 0.038942
v -1.402773 0.153984 0.038942
v -1.578750 0.185918 0.019265
v -1.618789 0.153984 0.032277
v -1.618789 0.185918 0.019265
v -1.578750 0.153984 0.032277
v -1.578750 0.121953 0.019265
v -1.618789 0.121953 0.019265
v -1.578750 0.153984 0.032277
v -1.618789 0.153984 0.032277
v 0.845078 0.209941 0.019265
v 0.197227 0.209941 0.019265
v 0.845078 0.233965 0.019265
v 0.197227 0.233965 0.019265
v 1.157187 0.249980 0.038942
v 1.141172 0.273906 0.038942
v 1.157187 0.257988 0.038942
v 0.949180 0.249980 0.038942
v 0.949180 0.257988 0.038942
v 0.949180 0.257988 0.038942
v 1.093125 0.321953 0.038942
v 1.141172 0.273906 0.038942
v 0.173203 0.233965 0.032277
v 0.197227 0.233965 0.019265
v 0.173203 0.209941 0.032277
v 0.197227 0.209941 0.019265
v 0.901133 0.209941 0.019265
v 0.901133 0.233965 0.019265
v 0.877109 0.209941 0.032277
v 0.877109 0.233965 0.032277
v 0.925156 -0.070039 -0.084520
v 0.925156 -0.070039 0.077980
v 0.933164 -0.046016 0.077980
v 0.933164 -0.046016 -0.084520
v 0.925156 -0.030000 0.077980
v 0.925156 -0.030000 -0.084520
v 0.317148 -0.014082 0.058303
v 0.325156 -0.038008 -0.065159
v 0.317148 -0.014082 -0.065159
v 0.325156 -0.038008 0.058303
v 0.317148 -0.062031 -0.065159
v 0.317148 -0.062031 0.058303
v 0.885117 -0.030000 -0.084520
v 0.885117 -0.030000 0.077980
v 0.909141 -0.022090 0.077980
v 0.909141 -0.022090 -0.084520
v 0.925156 -0.030000 0.077980
v 0.925156 -0.030000 -0.084520
v 0.317148 -0.014082 0.058303
v 0.317148 -0.014082 -0.065159
v 0.293125 -0.006074 -0.065159
v 0.293125 -0.006074 0.058303
v 0.269102 -0.014082 -0.065159
v 0.269102 -0.014082 0.058303
v 0.909141 -0.078047 0.077980
v 0.933164 -0.046016 0.077980
v 0.877109 -0.046016 0.077980
v 0.925156 -0.070039 0.077980
v 0.885117 -0.070039 0.077980
v 0.909141 -0.022090 0.077980
v 0.925156 -0.030000 0.077980
v 0.885117 -0.030000 0.077980
v 0.293125 -0.070039 0.058303
v 0.325156 -0.038008 0.058303
v 0.261094 -0.038008 0.058303
v 0.317148 -0.062031 0.058303
v 0.269102 -0.062031 0.058303
v 0.293125 -0.006074 0.058303
v 0.317148 -0.014082 0.058303
v 0.269102 -0.014082 0.058303
v 0.885117 -0.070039 -0.084520
v 0.885117 -0.070039 0.077980
v 0.877109 -0.046016 -0.084520
v 0.877109 -0.046016 0.077980
v 0.885117 -0.030000 -0.084520
v 0.885117 -0.030000 0.077980
v 0.269102 -0.014082 -0.065159
v 0.269102 -0.014082 0.058303
v 0.261094 -0.038008 0.058303
v 0.261094 -0.038008 -0.065159
v 0.269102 -0.062031 0.058303
v 0.269102 -0.062031 -0.065159
v 0.885117 -0.070039 -0.084520
v 0.885117 -0.070039 0.077980
v 0.909141 -0.078047 -0.084520
v 0.909141 -0.078047 0.077980
v 0.925156 -0.070039 -0.084520
v 0.925156 -0.070039 0.077980
v 0.317148 -0.062031 -0.065159
v 0.317148 -0.062031 0.058303
v 0.293125 -0.070039 0.058303
v 0.293125 -0.070039 -0.065159
v 0.269102 -0.062031 0.058303
v 0.269102 -0.062031 -0.065159
v 0.933164 -0.046016 -0.084520
v 0.909141 -0.022090 -0.084520
v 0.925156 -0.030000 -0.084520
v 0.877109 -0.046016 -0.084520
v 0.885117 -0.030000 -0.084520
v 0.909141 -0.078047 -0.084520
v 0.885117 -0.070039 -0.084520
v 0.925156 -0.070039 -0.084520
v 0.325156 -0.038008 -0.065159
v 0.293125 -0.006074 -0.065159
v 0.317148 -0.014082 -0.065159
v 0.261094 -0.038008 -0.065159
v 0.269102 -0.014082 -0.065159
v 0.293125 -0.070039 -0.065159
v 0.269102 -0.062031 -0.065159
v 0.317148 -0.062031 -0.065159
v 1.181211 0.073906 -0.110545
v 1.181211 0.073906 0.110354
v 1.181211 -0.006074 -0.065159
v 1.181211 -0.006074 0.058303
v 1.181211 0.233965 0.084328
v 1.181211 0.233965 -0.091185
v 0.853086 -0.006074 0.058303
v 0.853086 -0.046016 -0.058494
v 0.853086 -0.006074 -0.058494
v 0.853086 -0.046016 0.058303
v 0.501133 -0.142012 0.032277
v 0.501133 -0.142012 -0.039134
v 0.533164 -0.102070 -0.039134
v 0.493125 -0.214082 0.032277
v 0.493125 -0.214082 -0.039134
v 0.533164 -0.102070 0.032277
v 0.701133 -0.102070 0.032277
v 0.701133 -0.102070 -0.039134
v 0.701133 -0.070039 -0.058494
v 0.701133 -0.070039 0.058303
v 0.085117 0.025957 0.104006
v 0.085117 0.089922 0.104006
v 0.085117 0.073906 0.110354
v 0.085117 0.089922 -0.110545
v 0.085117 0.025957 -0.104197
v 0.085117 0.073906 -0.110545
v 0.045078 0.233965 0.084328
v 1.181211 0.233965 0.084328
v 0.877109 0.233965 0.032277
v 0.901133 0.233965 0.019265
v 0.917148 0.233965 -0.000096
v 0.845078 0.233965 0.019265
v 1.181211 0.233965 -0.091185
v 0.909141 0.233965 -0.013108
v 0.901133 0.233965 -0.026121
v 0.877109 0.233965 -0.032469
v 0.197227 0.233965 0.019265
v 0.173203 0.233965 0.032277
v 0.141172 0.233965 0.019265
v 0.133164 0.233965 -0.000096
v 0.045078 0.233965 -0.091185
v 0.845078 0.233965 -0.026121
v 0.141172 0.233965 -0.026121
v 0.197227 0.233965 -0.026121
v 0.173203 0.233965 -0.032469
v 0.253086 -0.006074 -0.058494
v 0.853086 -0.006074 0.058303
v 0.853086 -0.006074 -0.058494
v 0.253086 -0.006074 0.058303
v 1.181211 0.073906 0.110354
v 0.253086 0.089922 0.104006
v 0.253086 0.073906 0.110354
v 1.181211 0.233965 0.084328
v 0.045078 0.233965 0.084328
v 0.085117 0.089922 0.104006
v 0.045078 0.073906 0.110354
v 0.085117 0.073906 0.110354
v 0.085117 0.025957 0.104006
v 0.045078 0.073906 0.110354
v 0.045078 0.025957 0.104006
v 0.085117 0.073906 0.110354
v 0.701133 -0.070039 0.058303
v 0.397227 -0.094062 0.032277
v 0.533164 -0.102070 0.032277
v 0.701133 -0.102070 0.032277
v 0.445078 -0.110078 0.032277
v 0.501133 -0.142012 0.032277
v 0.469102 -0.142012 0.032277
v 0.493125 -0.214082 0.032277
v 1.181211 0.073906 0.110354
v 0.253086 0.073906 0.110354
v 1.181211 -0.006074 0.058303
v 0.253086 -0.006074 0.058303
v 0.853086 -0.006074 0.058303
v 0.253086 -0.006074 0.058303
v 0.757187 -0.038008 0.058303
v 0.805234 -0.038008 0.058303
v 0.853086 -0.046016 0.058303
v 0.725156 -0.054023 0.058303
v 0.701133 -0.070039 0.058303
v 0.253086 -0.070039 0.058303
v 0.253086 0.089922 0.104006
v 0.253086 -0.006074 -0.065159
v 0.253086 -0.006074 0.058303
v 0.253086 0.073906 0.110354
v 0.253086 0.089922 -0.110545
v 0.253086 0.073906 -0.110545
v 0.253086 -0.094062 0.032277
v 0.253086 -0.070039 -0.058494
v 0.253086 -0.094062 -0.039134
v 0.253086 -0.070039 0.058303
v 0.253086 -0.006074 -0.058494
v 0.253086 -0.006074 0.058303
v 0.469102 -0.142012 -0.039134
v 0.493125 -0.214082 -0.039134
v 0.469102 -0.142012 0.032277
v 0.493125 -0.214082 0.032277
v 0.445078 -0.110078 0.032277
v 0.445078 -0.110078 -0.039134
v 0.445078 -0.110078 0.032277
v 0.445078 -0.110078 -0.039134
v 0.397227 -0.094062 0.032277
v 0.397227 -0.094062 -0.039134
v 0.253086 -0.094062 0.032277
v 0.253086 -0.094062 -0.039134
v 0.533164 -0.102070 -0.039134
v 0.533164 -0.102070 0.032277
v 0.701133 -0.102070 0.032277
v 0.701133 -0.102070 -0.039134
v 0.701133 -0.070039 -0.058494
v 0.701133 -0.070039 0.058303
v 0.725156 -0.054023 -0.058494
v 0.725156 -0.054023 0.058303
v 0.757187 -0.038008 -0.058494
v 0.757187 -0.038008 0.058303
v 0.805234 -0.038008 -0.058494
v 0.805234 -0.038008 0.058303
v 0.853086 -0.046016 -0.058494
v 0.853086 -0.046016 0.058303
v 0.701133 -0.070039 0.058303
v 0.253086 -0.070039 0.058303
v 0.397227 -0.094062 0.032277
v 0.253086 -0.094062 0.032277
v 0.397227 -0.094062 -0.039134
v 0.701133 -0.070039 -0.058494
v 0.253086 -0.070039 -0.058494
v 0.253086 -0.094062 -0.039134
v 1.181211 -0.006074 0.058303
v 0.253086 -0.006074 0.058303
v 1.181211 -0.006074 -0.065159
v 0.253086 -0.006074 -0.065159
v 0.085117 0.025957 -0.104197
v 0.085117 0.025957 0.104006
v 0.045078 0.025957 -0.104197
v 0.045078 0.025957 0.104006
v 0.085117 0.089922 -0.110545
v 0.253086 0.089922 -0.110545
v 0.253086 0.089922 0.104006
v 0.085117 0.089922 0.104006
v 0.085117 0.073906 -0.110545
v 0.045078 0.073906 -0.110545
v 0.085117 0.089922 -0.110545
v 0.045078 0.233965 -0.091185
v 0.253086 0.089922 -0.110545
v 1.181211 0.233965 -0.091185
v 1.181211 0.073906 -0.110545
v 0.253086 0.073906 -0.110545
v 0.085117 0.073906 -0.110545
v 0.045078 0.025957 -0.104197
v 0.045078 0.073906 -0.110545
v 0.085117 0.025957 -0.104197
v 0.445078 -0.110078 -0.039134
v 0.501133 -0.142012 -0.039134
v 0.469102 -0.142012 -0.039134
v 0.493125 -0.214082 -0.039134
v 0.533164 -0.102070 -0.039134
v 0.397227 -0.094062 -0.039134
v 0.701133 -0.070039 -0.058494
v 0.701133 -0.102070 -0.039134
v 1.181211 -0.006074 -0.065159
v 0.253086 -0.006074 -0.065159
v 1.181211 0.073906 -0.110545
v 0.253086 0.073906 -0.110545
v 0.805234 -0.038008 -0.058494
v 0.757187 -0.038008 -0.058494
v 0.853086 -0.006074 -0.058494
v 0.853086 -0.046016 -0.058494
v 0.253086 -0.006074 -0.058494
v 0.725156 -0.054023 -0.058494
v 0.701133 -0.070039 -0.058494
v 0.253086 -0.070039 -0.058494
vn 1.0000 -0.0000 -0.0000
vn 1.0000 -0.0000 -0.0001
vn -0.0000 -0.0000 -1.0000
vn 0.8247 0.5656 -0.0000
vn 0.9939 -0.1104 -0.0001
vn 0.4251 -0.9052 -0.0000
vn 0.9939 -0.1104 -0.0000
vn 0.5029 0.8643 -0.0000
vn 0.9939 -0.1105 -0.0000
vn 0.6866 0.7260 -0.0388
vn 0.6866 0.7260 0.0389
vn 0.6866 0.7260 0.0388
vn 0.6306 -0.0000 -0.7761
vn 0.6306 -0.0000 0.7761
vn 1.0000 -0.0001 -0.0000
vn 1.0000 0.0001 -0.0000
vn 0.9737 0.2277 -0.0000
vn 0.9803 0.1976 -0.0000
vn 0.9920 0.1260 -0.0000
vn 0.9803 0.1977 -0.0000
vn 0.9980 0.0629 -0.0000
vn 0.9980 0.0628 -0.0000
vn 0.9920 0.1260 -0.0001
vn 0.6866 0.7260 -0.0389
vn -0.0140 0.6306 -0.7760
vn -0.0157 0.9999 -0.0000
vn -0.0158 0.9999 -0.0000
vn -0.0140 0.6305 0.7760
vn -0.0141 0.6306 0.7760
vn -0.0000 1.0000 -0.0000
vn -0.0000 0.6805 0.7328
vn 0.0001 0.8061 0.5917
vn -0.0000 0.8061 0.5917
vn -0.0000 0.9753 0.2208
vn -0.0000 0.9753 -0.2208
vn 0.0001 0.8062 -0.5917
vn -0.0000 0.8062 -0.5917
vn -0.0000 0.6804 -0.7328
vn -0.0000 0.6306 -0.7761
vn -0.0000 0.6306 0.7761
vn -0.0785 0.9969 -0.0000
vn -0.0000 -0.0000 -0.0000
vn -0.0000 1.0000 -0.0001
vn -0.0000 -0.0000 1.0000
vn -0.0000 1.0000 0.0001
vn 0.0001 0.6306 -0.7761
vn -0.5847 0.5115 0.6297
vn -0.6286 0.7778 -0.0000
vn -0.5847 0.5116 -0.6296
vn -0.1337 0.9910 -0.0000
vn 0.5029 0.8644 -0.0000
vn -0.5029 0.8644 -0.0000
vn -0.4156 0.9096 -0.0000
vn -0.6306 -0.0000 0.7761
vn -0.1617 -0.0000 0.9868
vn -0.0140 0.6305 0.7761
vn -0.0128 -0.0000 0.9999
vn -0.0140 -0.6306 0.7760
vn -0.0140 -0.6305 0.7760
vn -0.0000 0.2472 0.9690
vn -0.0257 -0.1415 0.9896
vn -0.1097 -0.1355 0.9847
vn -0.1879 -0.1360 0.9727
vn -0.0000 0.5528 0.8333
vn -0.0000 0.5527 0.8334
vn -0.0193 0.1352 0.9906
vn -0.0969 0.1357 0.9860
vn -0.1677 0.1354 0.9765
vn -0.1677 0.1355 0.9765
vn -0.0000 -0.6306 0.7761
vn -0.0000 0.1616 0.9869
vn -0.0000 0.1289 0.9917
vn -0.0000 0.1804 0.9836
vn -0.0000 0.1616 0.9868
vn -0.0000 0.1617 0.9868
vn -0.0000 0.1805 0.9836
vn -0.0000 0.1478 0.9890
vn -0.0000 0.1867 0.9824
vn -0.0000 -0.0001 1.0000
vn -0.0001 -0.0000 1.0000
vn -0.0000 0.0002 1.0000
vn -0.5489 -0.0000 0.8359
vn -0.5847 -0.5116 0.6296
vn -0.5847 0.5116 0.6296
vn -0.0000 0.6305 0.7762
vn -0.4780 -0.0000 0.8783
vn 0.1616 -0.0000 0.9869
vn -0.1616 -0.0000 0.9869
vn 0.1617 -0.0000 0.9868
vn -1.0000 -0.0000 -0.0000
vn -0.5846 0.5116 0.6297
vn -0.5846 -0.5116 0.6296
vn -0.5488 -0.0000 0.8359
vn -0.6285 -0.7778 -0.0000
vn -0.6285 0.7778 0.0001
vn -0.5846 0.5116 -0.6296
vn -0.5846 -0.5116 -0.6297
vn -0.5488 -0.0000 -0.8359
vn -0.9999 -0.0040 0.0118
vn -0.9999 0.0166 0.0001
vn -1.0000 0.0010 -0.0007
vn -0.9999 0.0104 0.0043
vn -1.0000 0.0040 0.0056
vn -1.0000 -0.0055 -0.0074
vn -1.0000 0.0008 -0.0025
vn -1.0000 -0.0005 0.0009
vn -1.0000 0.0026 0.0028
vn -1.0000 -0.0051 0.0001
vn -1.0000 0.0007 0.0079
vn -1.0000 -0.0040 0.0033
vn -1.0000 0.0002 0.0003
vn -0.9803 0.1976 -0.0000
vn -0.9737 0.2277 -0.0000
vn -0.9803 0.1977 -0.0000
vn -0.9920 0.1260 -0.0000
vn -0.9980 0.0629 -0.0000
vn -0.9980 0.0628 -0.0000
vn -0.9737 0.2278 -0.0000
vn -0.9939 -0.1104 -0.0000
vn -0.4251 -0.9052 -0.0000
vn -0.9939 -0.1105 -0.0000
vn -0.9939 -0.1105 0.0001
vn -0.5029 0.8643 -0.0000
vn -0.8888 -0.0000 0.4582
vn -0.8889 -0.0000 0.4582
vn -0.8889 -0.0000 -0.4582
vn -0.6306 -0.0000 -0.7761
vn -0.8888 -0.0000 -0.4582
vn -0.8247 0.5655 -0.0000
vn -1.0000 -0.0000 -0.0001
vn -0.0158 -0.9999 -0.0000
vn -0.0140 -0.6305 -0.7760
vn -0.0785 -0.9969 -0.0000
vn -0.0157 -0.9999 -0.0000
vn -0.1337 -0.9910 -0.0000
vn -0.0000 -1.0000 -0.0000
vn -0.0000 -0.6306 -0.7761
vn 0.0001 -0.6306 0.7761
vn -0.0000 -1.0000 -0.0001
vn -0.0000 -1.0000 -0.0002
vn -0.6285 -0.7778 -0.0001
vn -0.5847 -0.5115 -0.6296
vn -0.4250 -0.9052 -0.0000
vn 0.4250 -0.9052 -0.0000
vn 0.1617 -0.0000 -0.9868
vn -0.0128 -0.0000 -0.9999
vn -0.0140 0.6305 -0.7761
vn -0.0140 -0.6305 -0.7761
vn -0.0000 0.2472 -0.9690
vn -0.0000 0.2473 -0.9689
vn -0.1879 -0.1360 -0.9727
vn -0.1097 -0.1355 -0.9847
vn -0.0257 -0.1415 -0.9896
vn -0.0000 0.5528 -0.8333
vn -0.0000 0.5527 -0.8334
vn -0.0969 0.1357 -0.9860
vn -0.1677 0.1355 -0.9765
vn -0.0193 0.1352 -0.9906
vn -0.0000 0.0001 -1.0000
vn -0.0000 0.1617 -0.9868
vn -0.0000 0.1289 -0.9917
vn -0.0000 0.1804 -0.9836
vn -0.0000 0.1805 -0.9836
vn -0.0000 0.1616 -0.9868
vn -0.0000 0.1479 -0.9890
vn -0.0000 0.1867 -0.9824
vn -0.0000 -0.6305 -0.7761
vn -0.0000 0.6305 -0.7761
vn -0.5847 -0.5116 -0.6296
vn -0.5489 -0.0000 -0.8359
vn 0.1616 -0.0000 -0.9869
vn -0.1616 -0.0000 -0.9869
vn -0.0001 -0.0000 -1.0000
vn -0.1617 -0.0000 -0.9868
vn -0.6305 -0.0000 -0.7762
vn 0.5835 -0.8121 -0.0000
vn 0.5834 -0.8122 -0.0000
vn 0.5835 0.8121 -0.0000
vn 0.5834 0.8121 -0.0000
vn -0.5835 0.8121 -0.0000
vn -0.5834 0.8122 -0.0000
vn 0.5834 0.8122 -0.0000
vn -0.5834 -0.8122 -0.0000
vn -0.5835 -0.8121 -0.0000
vn -0.5834 -0.8122 0.0001
vn 1.0000 -0.0002 -0.0000
vn 0.9354 -0.3537 -0.0000
vn 0.4156 -0.9095 -0.0000
vn 0.9999 -0.0158 -0.0000
vn 0.4156 -0.9096 -0.0000
vn 0.8284 -0.5602 -0.0000
vn 0.8284 -0.5601 -0.0000
vn -0.0000 1.0000 0.0003
vn -0.0000 1.0000 -0.0003
vn -0.0000 1.0000 -0.0002
vn -0.0000 0.1353 0.9908
vn -0.0002 0.1353 0.9908
vn -0.0000 0.1352 0.9908
vn -0.0000 -0.1416 0.9899
vn -0.0000 -0.1415 0.9899
vn -0.0069 -0.5353 0.8447
vn -0.0069 -0.5353 0.8446
vn -0.0068 -0.5353 0.8446
vn -0.0000 -0.5179 0.8554
vn -0.8678 -0.4970 -0.0000
vn -0.9354 -0.3537 -0.0000
vn -0.5511 -0.8344 -0.0000
vn -0.5511 -0.8345 -0.0000
vn -0.5510 -0.8345 -0.0000
vn -0.1414 -0.9899 -0.0000
vn 0.4876 -0.8730 -0.0000
vn 0.2128 -0.9771 -0.0000
vn 0.2127 -0.9771 -0.0000
vn -0.0869 -0.9962 -0.0000
vn -0.2517 -0.9678 -0.0000
vn -0.2518 -0.9678 -0.0000
vn -0.0069 -0.5353 -0.8446
vn -0.0000 0.1352 -0.9908
vn -0.0000 -0.1416 -0.9899
vn -0.0000 -0.1415 -0.9899
vn -0.0068 -0.5353 -0.8446
vn -0.0069 -0.5353 -0.8447
vn -0.0068 -0.5353 -0.8447
vn -0.0000 -0.5179 -0.8555
vn -0.0000 -0.5179 -0.8554
vt 3.906520 -46.945702
vt 4.093480 -46.945702
vt 4.062370 -46.906799
vt 4.093480 -46.894001
vt 4.062370 -46.894001
vt 3.937630 -46.906799
vt 3.906520 -46.894001
vt 3.937630 -46.894001
vt 4.027230 -46.897301
vt 4.003990 -46.835400
vt 3.972770 -46.897301
vt 3.996010 -46.835400
vt 4.011980 -46.832401
vt 4.027230 -46.825401
vt 4.019970 -46.825401
vt 3.988020 -46.832401
vt 3.972770 -46.825401
vt 3.980030 -46.825401
vt 3.945970 -46.891701
vt 4.067530 -46.908298
vt 4.054030 -46.891701
vt 3.932470 -46.908298
vt 3.836790 -47.000099
vt 4.174950 -47.037701
vt 4.163210 -47.000099
vt 3.825050 -47.037701
vt 3.848530 -46.962502
vt 4.151470 -46.962502
vt 4.062370 -46.877102
vt 3.937630 -46.877102
vt 3.964640 -46.951199
vt 4.000000 -46.924999
vt 3.964640 -46.924999
vt 4.000000 -46.951199
vt 4.035360 -46.924999
vt 4.035360 -46.951199
vt 4.000000 -47.096199
vt 4.074080 -47.022099
vt 3.925920 -47.022099
vt 4.052380 -47.074501
vt 3.947620 -47.074501
vt 4.000000 -46.948101
vt 3.947620 -46.969799
vt 4.052380 -46.969799
vt 3.984930 -46.910999
vt 4.026080 -46.959099
vt 4.015070 -46.910999
vt 3.973920 -46.959099
vt 3.991120 -46.874401
vt 4.008880 -46.874401
vt 4.004270 -46.841099
vt 3.995730 -46.841099
vt 3.998770 -46.828300
vt 4.001230 -46.828300
vt 4.000000 -46.938099
vt 3.940600 -46.962700
vt 4.000000 -46.962101
vt 4.059400 -46.962700
vt 3.957550 -46.979698
vt 3.916000 -47.022099
vt 3.939970 -47.022099
vt 4.042450 -46.979698
vt 4.084000 -47.022099
vt 4.060030 -47.022099
vt 4.059400 -47.081501
vt 4.042450 -47.064602
vt 4.000000 -47.106098
vt 4.000000 -47.082199
vt 3.957550 -47.064602
vt 3.940600 -47.081501
vt 2.282650 -47.062401
vt 2.267280 -47.093498
vt 2.351210 -47.093498
vt 2.351210 -47.062401
vt 2.351210 -46.906502
vt 2.282650 -46.937599
vt 2.351210 -46.937599
vt 2.267280 -46.906502
vt 5.412430 -47.040298
vt 3.799320 -47.000000
vt 3.799320 -47.060101
vt 5.412430 -47.000000
vt 5.412430 -46.959702
vt 3.799320 -46.939899
vt 2.349330 -47.027199
vt 2.366350 -47.027199
vt 2.366350 -47.020000
vt 2.349330 -47.020000
vt 2.349330 -46.980000
vt 2.366350 -46.980000
vt 2.366350 -46.972801
vt 2.349330 -46.972801
vt 5.508690 -47.001202
vt 5.547050 -47.001202
vt 5.547050 -46.998798
vt 5.508690 -46.998798
vt 2.366350 -47.012001
vt 2.349330 -47.012001
vt 2.366350 -47.004002
vt 2.349330 -47.004002
vt 2.366350 -46.995998
vt 2.349330 -46.995998
vt 2.366350 -46.987999
vt 2.349330 -46.987999
vt 2.297330 -47.054001
vt 2.501960 -47.054001
vt 2.501960 -46.945999
vt 2.297330 -46.945999
vt 2.524250 -47.062401
vt 2.267280 -46.937599
vt 2.267280 -47.062401
vt 2.524250 -46.937599
vt 5.732720 -47.000000
vt 5.402420 -47.052399
vt 5.732720 -47.052399
vt 5.402420 -47.000000
vt 5.732720 -46.947601
vt 5.402420 -46.947601
vt 3.810770 -47.122601
vt 3.810770 -46.877399
vt 3.715810 -47.124802
vt 3.715810 -46.875198
vt 2.656270 -46.965000
vt 2.620760 -46.950001
vt 2.612820 -46.965000
vt 2.585410 -46.964600
vt 2.570770 -47.000000
vt 2.612820 -47.035000
vt 2.585410 -47.035400
vt 2.620760 -47.049999
vt 2.620760 -47.035000
vt 2.635770 -47.035000
vt 2.656270 -47.035000
vt 3.550770 -47.000000
vt 3.516960 -47.035000
vt 3.536120 -47.035400
vt 3.500770 -47.049999
vt 3.465260 -47.035000
vt 3.465410 -47.035400
vt 3.516960 -46.965000
vt 3.536120 -46.964600
vt 3.500770 -46.950001
vt 3.515760 -46.965000
vt 3.485770 -46.965000
vt 3.465260 -46.965000
vt 3.463550 -46.969101
vt 2.670760 -47.000000
vt 3.450770 -47.000000
vt 3.483150 -46.967602
vt 2.637690 -47.033100
vt 2.620760 -47.034401
vt 3.515850 -46.965099
vt 5.591770 -47.059399
vt 5.465990 -47.000000
vt 5.465990 -47.059399
vt 5.591770 -47.000000
vt 5.465990 -46.940601
vt 5.591770 -46.940601
vt 5.465990 -46.957600
vt 5.591770 -46.957600
vt 5.591770 -47.042400
vt 5.465990 -47.042400
vt 5.685070 -47.037399
vt 5.732720 -47.037399
vt 5.685070 -47.000000
vt 5.685070 -46.962601
vt 5.732720 -46.962601
vt 3.653690 -47.136200
vt 3.653690 -46.863800
vt 2.366790 -47.151501
vt 3.001550 -47.151501
vt 3.001550 -46.848499
vt 2.366790 -46.848499
vt 2.524250 -47.093498
vt 2.524250 -46.906502
vt 4.463880 -46.951199
vt 4.499240 -46.924999
vt 4.463880 -46.924999
vt 4.499240 -46.951199
vt 4.534590 -46.951199
vt 4.534740 -46.924999
vt 4.200680 -46.962101
vt 2.587570 -46.981800
vt 4.200680 -47.022099
vt 2.587570 -47.022099
vt 2.587570 -47.062500
vt 4.200680 -47.082199
vt 4.998450 -47.037701
vt 5.633210 -46.962502
vt 4.998450 -46.962502
vt 4.973180 -47.000099
vt 5.633210 -47.037701
vt 5.658490 -47.000099
vt 4.189230 -47.174999
vt 4.284190 -47.121601
vt 4.189230 -47.120998
vt 4.284190 -47.176601
vt 4.346310 -47.125000
vt 4.346310 -47.185001
vt 5.732720 -46.894001
vt 5.475750 -46.894001
vt 5.732720 -46.945702
vt 5.475750 -46.945702
vt 5.648800 -46.814999
vt 5.498040 -46.891701
vt 5.714040 -46.908298
vt 5.702670 -46.891701
vt 5.486680 -46.908298
vt 4.189230 -46.935001
vt 4.284190 -46.933399
vt 4.346310 -46.924999
vt 2.267280 -47.074501
vt 2.597580 -47.074501
vt 2.597580 -47.022099
vt 2.267280 -47.022099
vt 2.597580 -46.969799
vt 2.267280 -46.969799
vt 2.438020 -46.910999
vt 2.498100 -46.874401
vt 2.446160 -46.874401
vt 2.506240 -46.910999
vt 2.517640 -46.959099
vt 2.426610 -46.959099
vt 2.452160 -46.841099
vt 2.492100 -46.841099
vt 2.491310 -46.828300
vt 2.452950 -46.828300
vt 5.633650 -46.825401
vt 5.633650 -46.897301
vt 5.650670 -46.897301
vt 5.650670 -46.825401
vt 2.408230 -47.081501
vt 2.534010 -47.081501
vt 2.408230 -47.022099
vt 2.534010 -47.022099
vt 2.534010 -46.962700
vt 2.408230 -46.962700
vt 2.408230 -47.064602
vt 2.534010 -47.064602
vt 2.408230 -46.979698
vt 2.534010 -46.979698
vt 2.267280 -46.984699
vt 2.314930 -47.022099
vt 2.314930 -46.984699
vt 2.314930 -47.059601
vt 2.267280 -47.059601
vt 4.534740 -46.951199
vt 5.343730 -46.951199
vt 5.343730 -46.924999
vt 5.717350 -46.877102
vt 5.732720 -46.906799
vt 5.475750 -46.906799
vt 5.379240 -46.951199
vt 5.379240 -46.924999
vt 5.414590 -46.924999
vt 5.414590 -46.951199
vt 4.037430 -46.984699
vt 4.052940 -47.022099
vt 4.000000 -46.969200
vt 3.962570 -46.984699
vt 3.947060 -47.022099
vt 3.962570 -47.059601
vt 4.000000 -47.075100
vt 4.037430 -47.059601
vt 3.965000 -46.924999
vt 3.965000 -46.951199
vt 3.855860 -47.174999
vt 4.153470 -47.120998
vt 3.846530 -47.120998
vt 4.144140 -47.174999
vt 3.877400 -46.935001
vt 4.122590 -46.935001
vt 3.982320 -46.924999
vt 4.200680 -47.000000
vt 2.587570 -47.040298
vt 4.200680 -47.060101
vt 2.587570 -47.000000
vt 2.587570 -46.959702
vt 4.200680 -46.939899
vt 4.284190 -47.146702
vt 4.284190 -46.853298
vt 4.189230 -47.144100
vt 4.189230 -46.855900
vt 4.346310 -47.160198
vt 4.346310 -46.839802
vt 2.267280 -47.000000
vt 2.597580 -46.947601
vt 2.267280 -46.947601
vt 2.597580 -47.000000
vt 2.267280 -47.052399
vt 2.597580 -47.052399
vt 2.534010 -46.940601
vt 2.408230 -46.940601
vt 2.534010 -47.000000
vt 2.408230 -47.000000
vt 2.534010 -47.059399
vt 2.408230 -47.059399
vt 2.408230 -47.042400
vt 2.534010 -47.042400
vt 2.408230 -46.957600
vt 2.534010 -46.957600
vt 2.267280 -46.962601
vt 2.314930 -47.000000
vt 2.314930 -46.962601
vt 2.314930 -47.037399
vt 2.267280 -47.037399
vt 4.998450 -47.174900
vt 5.633210 -47.174900
vt 5.633210 -46.825100
vt 4.998450 -46.825100
vt 5.475750 -47.093498
vt 5.732720 -47.093498
vt 5.732720 -46.906502
vt 5.475750 -46.906502
vt 5.486680 -47.067501
vt 5.714040 -47.067501
vt 5.714040 -46.932499
vt 5.486680 -46.932499
vt 3.536120 -46.924999
vt 3.500770 -46.924999
vt 3.536120 -46.951199
vt 3.500770 -46.951199
vt 2.656270 -46.924999
vt 2.620760 -46.924999
vt 2.656270 -46.951199
vt 2.620760 -46.951199
vt 3.799320 -47.022099
vt 5.412430 -46.981800
vt 3.799320 -46.962101
vt 5.412430 -47.022099
vt 5.412430 -47.062500
vt 3.799320 -47.082199
vt 3.001550 -46.962502
vt 3.001550 -47.037701
vt 3.026820 -47.000099
vt 2.366790 -47.037701
vt 2.366790 -46.962502
vt 2.341510 -47.000099
vt 3.653690 -47.125000
vt 3.715810 -47.176601
vt 3.715810 -47.121601
vt 3.653690 -47.185001
vt 3.810770 -47.174999
vt 3.810770 -47.120998
vt 2.267280 -46.894001
vt 2.524250 -46.945702
vt 2.524250 -46.894001
vt 2.267280 -46.945702
vt 2.351210 -46.814999
vt 2.285960 -46.908298
vt 2.501960 -46.891701
vt 2.297330 -46.891701
vt 2.513320 -46.908298
vt 3.715810 -46.933399
vt 3.653690 -46.924999
vt 3.810770 -46.935001
vt 5.732720 -47.022099
vt 5.402420 -47.074501
vt 5.732720 -47.074501
vt 5.402420 -47.022099
vt 5.732720 -46.969799
vt 5.402420 -46.969799
vt 5.561980 -46.910999
vt 5.501900 -46.874401
vt 5.493760 -46.910999
vt 5.553840 -46.874401
vt 5.482360 -46.959099
vt 5.573390 -46.959099
vt 5.547840 -46.841099
vt 5.507900 -46.841099
vt 5.508690 -46.828300
vt 5.547050 -46.828300
vt 2.349330 -46.825401
vt 2.366350 -46.897301
vt 2.366350 -46.825401
vt 2.349330 -46.897301
vt 5.465990 -47.081501
vt 5.591770 -47.081501
vt 5.465990 -47.022099
vt 5.591770 -47.022099
vt 5.465990 -46.962700
vt 5.591770 -46.962700
vt 5.465990 -47.064602
vt 5.591770 -47.064602
vt 5.591770 -46.979698
vt 5.465990 -46.979698
vt 5.685070 -46.984699
vt 5.732720 -46.984699
vt 5.685070 -47.022099
vt 5.732720 -47.059601
vt 5.685070 -47.059601
vt 3.465260 -46.951199
vt 3.465260 -46.924999
vt 2.267280 -46.906799
vt 2.282650 -46.877102
vt 2.524250 -46.906799
vt 2.585410 -46.924999
vt 2.585410 -46.951199
vt 30.124599 -19.033001
vt 29.875401 -19.007099
vt 29.875401 -19.033001
vt 30.124599 -19.007099
vt 29.875401 -18.981100
vt 30.124599 -18.981100
vt 29.905001 -18.966999
vt 30.094400 -18.992901
vt 30.094400 -18.966999
vt 29.905001 -18.992901
vt 30.094400 -19.018801
vt 29.905001 -19.018801
vt 29.617599 -18.875401
vt 29.643600 -19.124599
vt 29.643600 -18.875401
vt 29.617599 -19.124599
vt 29.591600 -18.875401
vt 29.591600 -19.124599
vt 30.382500 -19.094400
vt 30.356600 -18.905001
vt 30.356600 -19.094400
vt 30.382500 -18.905001
vt 30.408400 -19.094400
vt 30.408400 -18.905001
vt 30.382401 -19.043800
vt 30.418699 -19.007099
vt 30.346100 -19.007099
vt 30.408400 -19.033001
vt 30.356400 -19.033001
vt 30.382401 -18.970301
vt 30.408400 -18.981100
vt 30.356400 -18.981100
vt 29.617500 -19.029499
vt 29.653799 -18.992901
vt 29.581301 -18.992901
vt 29.643400 -19.018801
vt 29.591600 -19.018801
vt 29.617500 -18.956200
vt 29.643400 -18.966999
vt 29.591600 -18.966999
vt 29.905600 -18.966999
vt 30.094999 -18.992901
vt 30.094999 -18.966999
vt 29.905600 -18.992901
vt 30.094999 -19.018801
vt 29.905600 -19.018801
vt 30.382401 -19.124599
vt 30.356400 -18.875401
vt 30.356400 -19.124599
vt 30.382401 -18.875401
vt 30.408400 -19.124599
vt 30.408400 -18.875401
vt 29.617500 -18.905001
vt 29.643400 -19.094400
vt 29.643400 -18.905001
vt 29.617500 -19.094400
vt 29.591600 -18.905001
vt 29.591600 -19.094400
vt 29.581301 -19.007099
vt 29.617599 -18.970301
vt 29.591600 -18.981100
vt 29.653900 -19.007099
vt 29.643600 -18.981100
vt 29.617599 -19.043800
vt 29.643600 -19.033001
vt 29.591600 -19.033001
vt 30.346201 -18.992901
vt 30.382500 -18.956200
vt 30.356600 -18.966999
vt 30.418699 -18.992901
vt 30.408400 -18.966999
vt 30.382500 -19.029499
vt 30.408400 -19.018801
vt 30.356600 -19.018801
vt 38.170502 -34.919998
vt 37.829498 -34.919998
vt 38.096100 -35.020000
vt 37.903900 -35.020000
vt 37.863800 -34.720001
vt 38.136200 -34.720001
vt 37.909801 -35.020000
vt 38.090199 -35.070000
vt 38.090199 -35.020000
vt 37.909801 -35.070000
vt 37.945900 -35.189999
vt 38.054100 -35.189999
vt 38.054100 -35.137901
vt 37.945900 -35.279999
vt 38.054100 -35.279999
vt 37.945900 -35.137901
vt 38.090199 -35.099400
vt 37.909801 -35.099400
vt 37.839802 -34.980000
vt 37.834599 -34.902802
vt 38.165401 -34.902802
vt 38.160198 -34.980000
vt 38.706501 -34.863800
vt 37.293499 -34.863800
vt 37.673500 -34.950001
vt 37.638199 -34.964600
vt 37.623501 -35.000000
vt 37.709000 -34.965000
vt 37.293499 -35.136200
vt 37.630901 -35.017700
vt 37.638199 -35.035400
vt 37.673500 -35.049999
vt 38.518002 -34.965000
vt 38.553501 -34.950001
vt 38.588902 -34.964600
vt 38.603500 -35.000000
vt 38.706501 -35.136200
vt 37.709000 -35.035000
vt 38.588902 -35.035400
vt 38.518002 -35.035000
vt 38.553501 -35.049999
vt 38.448101 -35.090199
vt 37.698898 -34.909801
vt 37.698898 -35.090199
vt 38.448101 -34.909801
vt 38.706501 -34.919998
vt 37.548599 -34.902802
vt 37.548599 -34.919998
vt 38.706501 -34.720001
vt 37.293499 -34.720001
vt 37.339298 -34.902802
vt 37.293499 -34.919998
vt 37.339298 -34.919998
vt 37.339298 -34.980000
vt 37.293499 -34.980000
vt 37.731300 -35.130001
vt 37.901501 -35.137901
vt 38.107101 -35.099400
vt 38.107101 -35.137901
vt 37.784801 -35.145302
vt 37.855999 -35.189999
vt 37.820801 -35.189999
vt 37.854801 -35.279999
vt 38.706501 -35.020000
vt 37.548599 -35.020000
vt 38.301102 -35.020000
vt 37.551899 -35.020000
vt 38.178299 -35.060001
vt 38.244099 -35.055000
vt 38.301102 -35.070000
vt 38.137402 -35.075001
vt 37.551899 -35.099400
vt 38.054100 -35.130001
vt 37.945900 -35.130001
vt 38.054100 -35.145302
vt 37.945900 -35.145302
vt 37.784801 -35.054100
vt 37.784801 -34.945900
vt 37.731300 -34.945900
vt 37.731300 -35.054100
vt 37.551899 -34.945900
vt 37.551899 -35.054100
vt 37.901501 -35.054100
vt 38.107101 -34.945900
vt 37.901501 -34.945900
vt 38.107101 -35.054100
vt 38.137402 -35.090199
vt 38.107101 -34.909801
vt 38.107101 -35.090199
vt 38.137402 -34.909801
vt 38.178299 -35.090199
vt 38.178299 -34.909801
vt 38.244099 -35.090199
vt 38.244099 -34.909801
vt 38.301102 -35.090199
vt 38.301102 -34.909801
vt 37.551899 -34.909801
vt 37.551899 -35.090199
vt 38.706501 -34.903900
vt 37.548599 -34.903900
vt 38.706501 -35.096100
vt 37.548599 -35.096100
vt 37.339298 -35.160198
vt 37.339298 -34.839802
vt 37.293499 -35.160198
vt 37.293499 -34.839802
vt 37.339298 -35.165401
vt 37.548599 -35.165401
vt 37.548599 -34.834599
vt 37.339298 -34.834599
vt 38.660702 -34.919998
vt 38.660702 -34.902802
vt 38.451401 -34.902802
vt 38.451401 -34.919998
vt 38.706501 -34.980000
vt 38.660702 -34.980000
vt 38.215199 -35.145302
vt 38.144001 -35.189999
vt 38.179199 -35.189999
vt 38.145199 -35.279999
vt 38.098499 -35.137901
vt 38.268700 -35.130001
vt 37.892899 -35.099400
vt 37.892899 -35.137901
vt 37.293499 -35.020000
vt 38.451401 -35.020000
vt 37.755901 -35.055000
vt 37.821701 -35.060001
vt 37.698898 -35.020000
vt 37.698898 -35.070000
vt 38.448101 -35.020000
vt 37.862598 -35.075001
vt 38.448101 -35.099400
s 1
usemtl Meshpart1Mtl.014
f 1/1/1 2/2/1 3/3/1
f 2/2/1 4/4/1 3/3/1
f 3/3/1 4/4/1 5/5/1
f 1/1/1 3/3/1 6/6/1
f 7/7/1 1/1/1 6/6/1
f 7/7/1 6/6/1 8/8/1
f 9/9/1 10/10/1 11/11/1
f 12/12/1 11/11/1 10/10/1
f 10/10/1 9/9/1 13/13/1
f 14/14/1 13/13/1 9/9/1
f 13/13/1 14/14/1 15/15/1
f 16/16/1 11/11/1 12/12/1
f 17/17/1 11/11/1 16/16/1
s 0
f 17/17/1 16/16/2 18/18/3
s 1
f 19/19/4 20/20/4 21/21/4
f 22/22/4 20/20/4 19/19/4
f 23/23/5 24/24/6 25/25/7
f 26/26/6 24/24/6 23/23/5
f 27/27/8 28/25/9 29/28/8
f 30/23/9 28/25/9 27/27/8
f 31/4/10 32/29/10 33/5/10
f 34/30/11 35/7/12 36/8/12
f 38/31/13 39/32/1 37/33/13
f 39/32/1 38/31/13 40/34/1
f 40/34/1 41/35/14 39/32/1
f 41/35/14 40/34/1 42/36/14
f 43/37/1 44/38/15 45/39/16
f 44/38/15 43/37/1 46/40/1
f 43/37/1 45/39/16 47/41/1
f 44/38/15 48/42/1 45/39/16
f 45/39/16 48/42/1 49/43/1
f 48/42/1 44/38/15 50/44/1
f 51/45/17 52/46/17 53/47/17
f 52/46/17 51/45/17 54/48/17
f 55/49/18 56/47/17 57/50/18
f 56/47/17 55/49/18 58/45/17
f 59/51/19 55/49/20 60/50/18
f 55/49/20 59/51/19 61/52/19
f 59/51/19 62/53/21 61/52/19
s 0
f 62/53/22 59/51/23 63/54/3
s 1
f 64/55/1 65/56/1 66/57/1
f 66/57/1 67/58/1 64/55/1
f 65/56/1 68/59/1 66/57/1
f 69/60/1 68/59/1 65/56/1
f 68/59/1 69/60/1 70/61/1
f 67/58/1 66/57/1 71/62/1
f 71/62/1 72/63/1 67/58/1
f 72/63/1 71/62/1 73/64/1
f 73/64/1 74/65/1 72/63/1
f 74/65/1 73/64/1 75/66/1
f 75/66/1 76/67/1 74/65/1
f 76/67/1 75/66/1 77/68/1
f 78/69/1 76/67/1 77/68/1
f 79/70/1 76/67/1 78/69/1
f 80/61/1 79/70/1 78/69/1
f 81/60/1 79/70/1 80/61/1
f 83/71/24 82/72/24 84/73/24
f 84/73/24 85/74/10 83/71/24
f 86/75/12 87/76/11 88/77/12
f 87/76/11 86/75/12 89/78/12
f 90/79/25 91/80/26 92/81/25
f 91/80/26 90/79/25 93/82/27
f 94/83/28 91/80/26 93/82/27
f 91/80/26 94/83/28 95/84/29
f 96/85/30 97/86/30 98/87/30
f 96/85/30 98/87/30 99/88/30
s 0
f 100/89/30 101/90/3 102/91/30
f 100/89/30 102/91/30 103/92/3
f 104/93/30 105/94/3 106/95/30
f 104/93/30 106/95/30 107/96/3
s 1
f 108/88/31 109/87/31 110/97/32
f 108/88/31 110/97/32 111/98/33
f 111/98/33 110/97/32 112/99/34
f 111/98/33 112/99/34 113/100/34
f 113/100/34 112/99/34 114/101/35
f 113/100/34 114/101/35 115/102/35
f 115/102/35 114/101/35 116/103/36
f 115/102/35 116/103/36 117/104/37
f 117/104/37 116/103/36 118/90/38
f 117/104/37 118/90/38 119/89/38
f 120/105/30 121/106/30 122/107/30
f 120/105/30 122/107/30 123/108/30
f 124/109/30 125/110/30 126/111/30
f 125/110/30 124/109/30 127/112/30
f 130/113/30 129/114/39 128/115/39
f 129/114/39 130/113/30 131/116/30
f 132/117/40 131/116/30 130/113/30
f 131/116/30 132/117/40 133/118/40
f 134/119/26 135/120/26 136/121/41
f 136/121/41 135/120/26 137/122/41
f 138/123/30 139/124/30 140/125/30
f 139/124/30 141/126/30 140/125/30
f 142/127/30 140/125/30 141/126/30
f 143/128/30 140/125/30 142/127/30
f 142/127/30 144/129/30 143/128/30
f 145/130/30 143/128/30 144/129/30
s 0
f 143/128/42 145/130/42 146/131/42
s 1
f 146/131/30 145/130/30 147/132/30
f 145/130/30 148/133/30 147/132/30
f 149/134/43 150/135/30 151/136/30
f 152/137/30 151/136/30 150/135/30
f 150/135/30 153/138/30 152/137/30
s 0
f 152/137/30 153/138/3 154/139/30
s 1
f 155/140/30 150/135/30 149/134/43
f 155/140/30 149/134/43 156/141/30
f 156/141/30 157/142/30 155/140/30
s 0
f 157/142/30 158/143/44 155/140/45
s 1
f 158/143/30 157/142/30 159/144/30
f 157/142/30 160/145/30 159/144/30
f 161/146/30 162/147/45 163/148/30
f 163/148/30 164/149/30 161/146/30
f 162/147/45 161/146/30 165/123/30
s 0
f 166/145/30 165/123/30 161/146/3
f 164/149/30 166/145/3 161/146/30
s 1
f 167/125/30 162/147/45 165/123/30
s 0
f 166/145/30 164/149/3 168/144/30
s 1
f 169/133/30 163/148/30 162/147/45
f 164/149/30 163/148/30 170/138/30
f 163/148/30 169/133/30 170/138/30
f 171/135/30 164/149/30 170/138/30
f 169/133/30 162/147/45 172/150/30
f 167/125/30 172/150/30 162/147/45
s 0
f 173/132/30 169/133/30 172/150/3
s 1
f 172/150/30 167/125/30 174/151/30
s 0
f 174/151/30 173/132/3 172/150/30
f 175/128/42 174/151/42 167/125/42
f 173/132/30 174/151/3 176/131/30
f 174/151/3 175/128/3 176/131/3
s 1
f 177/152/30 164/149/30 171/135/30
s 0
f 177/152/30 168/144/3 164/149/30
f 171/135/42 178/140/42 177/152/42
f 168/144/30 177/152/3 179/143/30
f 178/140/3 179/143/3 177/152/3
s 1
f 181/153/46 182/154/30 180/155/39
f 182/154/30 181/153/46 183/156/30
f 183/156/30 184/157/40 182/154/30
f 184/157/40 183/156/30 185/158/40
f 186/159/39 188/156/30 187/160/39
f 188/156/30 186/159/39 189/154/30
f 189/154/30 190/161/40 188/156/30
f 190/161/40 189/154/30 191/162/40
f 192/163/47 193/164/40 194/165/48
f 193/164/40 195/113/30 194/165/48
f 194/165/48 195/113/30 196/166/49
f 195/113/30 197/167/39 196/166/49
f 198/121/41 199/122/41 200/168/50
f 200/168/50 199/122/41 201/169/50
f 203/170/51 202/171/52 204/172/52
f 203/170/51 204/172/52 205/173/51
f 206/174/53 207/74/53 208/73/53
f 207/74/53 206/174/53 209/109/53
f 210/175/53 211/75/53 212/112/53
f 213/77/53 212/112/53 211/75/53
f 215/176/14 216/177/44 214/178/14
f 216/177/44 215/176/14 217/179/44
f 218/180/54 216/177/44 217/179/44
f 216/177/44 218/180/54 219/181/55
f 221/182/56 220/183/28 222/184/57
f 223/185/57 222/184/57 220/183/28
f 224/186/58 222/184/57 223/185/57
f 222/184/57 224/186/58 225/187/59
f 226/188/60 227/189/60 228/190/60
f 226/188/60 228/190/60 229/191/60
f 230/192/60 227/189/60 226/188/60
f 227/189/60 230/192/60 231/193/60
f 232/194/61 233/195/62 234/196/61
f 233/195/62 232/194/61 235/197/62
f 235/197/62 236/198/63 233/195/62
f 236/198/63 235/197/62 237/199/63
f 238/200/44 239/201/44 240/202/44
f 241/203/44 240/202/44 239/201/44
f 242/201/44 243/200/44 244/204/44
f 245/205/64 246/206/64 247/207/65
f 248/208/64 246/206/64 245/205/64
f 249/209/66 250/196/66 251/195/67
f 251/195/67 252/210/67 249/209/66
f 252/210/67 251/195/67 253/198/68
f 253/198/68 254/211/69 252/210/67
f 255/212/70 256/213/70 257/214/44
f 255/212/70 257/214/44 258/215/44
f 261/215/44 260/216/40 259/217/40
f 261/215/44 262/214/44 260/216/40
f 263/218/71 264/219/72 265/220/72
f 264/219/72 263/218/71 266/221/71
f 267/222/73 268/221/74 263/218/75
f 269/223/76 267/222/73 263/218/75
f 264/219/72 270/224/77 271/220/72
f 270/224/77 264/219/72 272/225/77
f 273/226/78 270/224/77 272/225/77
f 270/224/77 273/226/78 274/227/78
f 275/228/44 276/229/44 277/230/44
f 277/230/44 278/231/44 275/228/44
f 280/232/70 279/233/70 281/234/79
f 282/235/44 281/234/79 279/233/70
f 283/236/40 284/237/40 285/235/80
f 286/234/44 285/235/80 284/237/40
f 287/238/40 288/239/40 289/234/81
f 290/235/79 289/234/81 288/239/40
f 289/234/81 290/235/79 291/240/70
f 292/241/70 291/240/70 290/235/79
f 294/242/70 295/243/82 293/244/83
f 295/243/82 294/242/70 296/215/44
f 296/215/44 297/245/84 295/243/82
f 297/245/84 296/215/44 298/246/85
f 299/247/86 300/248/87 301/249/87
f 299/247/86 301/249/87 302/181/88
f 303/250/44 304/251/44 305/200/44
f 304/251/44 303/250/44 306/252/44
f 306/252/44 303/250/44 307/201/44
f 308/201/44 309/250/44 310/204/44
f 311/253/44 312/254/44 313/248/89
f 313/248/89 312/254/44 314/249/89
f 311/253/44 315/255/54 312/254/44
f 316/256/54 315/255/54 311/253/44
f 317/42/90 318/257/90 319/44/90
f 320/258/90 319/44/90 318/257/90
f 319/44/90 320/258/90 321/38/90
f 318/257/90 317/42/90 322/259/90
f 317/42/90 323/260/90 322/259/90
f 317/42/90 324/43/90 323/260/90
f 325/261/90 323/260/90 324/43/90
f 324/43/90 326/39/90 325/261/90
f 327/41/90 325/261/90 326/39/90
f 325/261/90 327/41/90 328/262/90
f 329/37/90 328/262/90 327/41/90
f 328/262/90 329/37/90 330/263/90
f 329/37/90 331/264/90 330/263/90
f 329/37/90 332/40/90 331/264/90
f 332/40/90 333/258/90 331/264/90
f 333/258/90 332/40/90 334/38/90
f 335/262/91 336/260/92 337/261/93
f 335/262/91 338/259/94 336/260/92
f 339/263/95 338/259/94 335/262/91
f 338/259/94 339/263/95 340/264/96
f 338/259/94 340/264/96 341/257/97
f 341/257/97 340/264/96 342/258/98
f 343/57/99 344/58/100 345/55/90
f 346/56/101 343/57/99 345/55/90
f 344/58/100 343/57/99 347/62/102
f 348/63/90 344/58/100 347/62/102
f 343/57/99 346/56/101 349/59/103
f 349/59/103 347/62/102 343/57/99
f 350/60/104 349/59/103 346/56/101
f 347/62/102 351/64/105 348/63/90
f 349/59/103 350/60/104 352/61/106
f 347/62/102 349/59/103 353/68/107
f 347/62/102 353/68/107 351/64/105
f 352/61/106 353/68/107 349/59/103
f 354/70/108 352/61/106 350/60/104
f 351/64/105 353/68/107 355/66/109
f 351/64/105 355/66/109 356/65/90
f 356/65/90 357/64/90 355/66/90
f 357/64/90 356/65/90 358/63/90
f 359/67/110 356/65/90 355/66/109
f 359/67/110 355/66/109 353/68/107
f 360/69/111 359/67/110 353/68/107
f 359/67/110 360/69/111 354/70/108
f 353/68/107 352/61/106 360/69/111
f 352/61/106 354/70/108 360/69/111
f 361/49/112 362/45/113 363/47/113
f 361/49/112 363/47/113 364/50/112
f 365/50/114 366/51/115 361/49/114
f 367/52/115 361/49/114 366/51/115
f 366/51/115 368/53/116 367/52/115
s 0
f 368/53/117 366/51/115 369/54/3
s 1
f 370/45/113 371/48/118 372/46/118
f 370/45/113 372/46/118 373/47/118
f 374/57/90 375/56/90 376/59/90
f 375/56/90 374/57/90 377/55/90
f 376/59/90 378/62/90 374/57/90
f 379/58/90 374/57/90 378/62/90
f 376/59/90 380/60/90 381/61/90
f 381/61/90 382/70/90 383/69/90
f 384/68/90 381/61/90 383/69/90
f 381/61/90 384/68/90 376/59/90
f 378/62/90 376/59/90 384/68/90
f 378/62/90 384/68/90 385/64/90
f 378/62/90 385/64/90 386/63/90
f 385/64/90 384/68/90 387/66/90
f 388/67/90 387/66/90 384/68/90
f 385/64/90 387/66/90 389/65/90
s 0
f 391/265/88 390/31/44 392/266/86
s 1
f 394/23/119 393/24/120 395/25/119
f 396/26/120 393/24/120 394/23/119
f 397/23/121 398/25/122 399/27/123
f 399/27/123 398/25/122 400/28/123
f 401/267/90 402/268/90 403/269/90
f 402/268/90 401/267/90 404/270/90
f 405/271/90 402/268/90 406/272/90
f 405/271/90 407/269/90 402/268/90
f 409/31/54 410/273/124 408/33/54
f 409/31/54 411/34/125 410/273/124
f 410/273/124 411/34/125 412/32/124
f 413/34/126 414/36/127 415/32/128
f 415/32/128 414/36/127 416/35/127
f 417/22/129 418/20/129 419/19/129
f 419/19/129 418/20/129 420/21/129
f 421/1/90 422/2/90 423/3/90
f 423/3/90 422/2/90 424/4/90
f 423/3/90 424/4/90 425/5/90
f 421/1/90 423/3/90 426/6/90
f 427/7/90 421/1/90 426/6/90
f 427/7/90 426/6/90 428/8/90
f 429/10/90 430/9/90 431/13/90
f 432/14/90 431/13/90 430/9/90
s 0
f 431/13/130 432/14/3 433/15/90
s 1
f 430/9/90 429/10/90 434/11/90
f 434/11/90 429/10/90 435/12/90
f 434/11/90 435/12/90 436/16/90
f 437/17/90 434/11/90 436/16/90
f 437/17/90 436/16/90 438/18/90
f 441/274/131 439/275/132 440/276/132
f 439/275/132 441/274/131 442/277/131
f 442/277/131 441/274/131 443/278/58
f 444/279/59 443/278/58 441/274/131
f 445/280/133 446/281/133 447/282/134
f 447/282/134 446/281/133 448/283/134
f 446/281/133 449/284/135 450/285/135
f 449/284/135 446/281/133 451/280/133
f 454/286/136 453/287/70 452/288/70
f 454/286/136 455/289/136 453/287/70
f 456/290/137 455/289/136 454/286/136
f 456/290/137 457/291/137 455/289/136
f 458/292/70 459/293/138 460/294/139
f 461/295/140 460/294/139 459/293/138
f 460/294/139 461/295/140 462/296/137
f 463/297/137 462/296/137 461/295/140
f 464/298/70 465/299/70 466/295/136
f 467/294/136 466/295/136 465/299/70
f 466/295/136 467/294/136 468/300/137
f 469/301/137 468/300/137 467/294/136
f 471/302/137 472/303/141 470/304/142
f 472/303/141 471/302/137 473/286/136
f 473/286/136 474/305/83 472/303/141
f 474/305/83 473/286/136 475/306/70
f 476/307/143 477/308/144 478/309/144
f 476/307/143 478/309/144 479/310/143
f 480/311/136 481/312/136 482/313/136
f 480/311/136 482/313/136 483/314/136
f 484/315/136 485/316/136 486/317/136
f 484/315/136 486/317/136 487/318/136
f 488/319/13 489/320/3 490/321/13
f 489/320/3 491/322/3 490/321/13
f 492/323/145 493/324/3 494/325/145
f 493/324/3 495/326/3 494/325/145
f 498/327/146 496/328/147 497/329/147
f 496/328/147 498/327/146 499/330/146
f 499/330/146 498/327/146 500/331/148
f 501/332/148 500/331/148 498/327/146
f 502/333/149 503/334/149 504/335/150
f 503/334/149 502/333/149 505/336/150
f 502/333/149 506/337/150 505/336/150
f 505/336/150 506/337/150 507/338/150
f 508/339/151 509/340/152 510/341/152
f 509/340/152 508/339/151 511/342/151
f 512/343/153 510/341/152 509/340/152
f 510/341/152 512/343/153 513/344/153
f 514/345/3 515/346/3 516/347/3
f 515/346/3 514/345/3 517/348/3
f 518/345/3 519/347/3 520/349/3
f 521/350/154 522/351/155 523/352/155
f 522/351/155 521/350/154 524/353/155
f 525/354/156 526/339/157 527/341/156
f 526/339/157 525/354/156 528/355/157
f 527/341/156 529/356/158 525/354/156
f 529/356/158 527/341/156 530/344/158
f 533/357/3 532/358/137 531/359/137
f 533/357/3 534/360/159 532/358/137
f 535/361/39 534/360/159 533/357/3
f 535/361/39 536/362/39 534/360/159
f 537/363/160 538/364/161 539/365/160
f 538/364/161 537/363/160 540/366/161
f 537/363/160 541/367/162 542/368/163
f 541/367/162 537/363/160 543/365/164
f 544/369/165 538/364/161 545/366/161
f 544/369/165 546/370/165 538/364/161
f 544/369/165 547/371/166 546/370/165
f 547/371/166 544/369/165 548/372/166
f 549/373/3 550/374/3 551/375/3
f 550/374/3 549/373/3 552/376/3
f 553/377/167 554/378/137 555/379/159
f 556/380/159 555/379/159 554/378/137
f 555/379/159 556/380/159 557/381/39
f 558/382/168 557/381/39 556/380/159
f 559/383/39 560/384/39 561/379/3
f 562/380/3 561/379/3 560/384/39
f 563/385/137 564/386/137 565/380/3
f 566/379/3 565/380/3 564/386/137
f 567/387/169 568/357/3 569/388/137
f 568/357/3 567/387/169 570/389/170
f 572/390/39 573/389/170 571/391/49
f 573/389/170 572/390/39 574/357/3
f 575/325/171 576/392/172 577/323/171
f 578/393/172 577/323/171 576/392/172
f 579/394/3 580/395/173 581/345/3
f 580/395/173 579/394/3 582/396/3
f 580/395/173 582/396/3 583/347/3
f 584/347/3 585/349/3 586/395/3
f 587/320/3 588/393/174 589/322/3
f 588/393/174 590/392/174 589/322/3
f 592/397/127 591/398/175 593/326/3
f 594/324/3 592/397/127 593/326/3
usemtl Meshpart2Mtl.003
f 595/399/176 597/400/1 596/401/177
f 598/402/1 597/400/1 595/399/176
f 598/402/1 599/403/178 597/400/1
f 600/404/178 599/403/178 598/402/1
f 601/405/179 602/406/1 603/407/178
f 602/406/1 601/405/179 604/408/1
f 602/406/1 604/408/1 605/409/176
f 605/409/176 604/408/1 606/410/176
f 609/411/30 607/412/180 608/413/181
f 607/412/180 609/411/30 610/414/30
f 611/415/182 610/414/30 609/411/30
f 610/414/30 611/415/182 612/416/182
f 615/417/30 613/418/182 614/419/182
f 613/418/182 615/417/30 616/420/30
f 617/421/181 616/420/30 615/417/30
f 616/420/30 617/421/181 618/422/181
f 619/423/44 620/424/44 621/425/44
f 620/424/44 619/423/44 622/426/44
f 619/423/44 621/425/44 623/427/44
f 621/425/44 620/424/44 624/428/44
f 624/428/44 620/424/44 625/429/44
f 621/425/44 624/428/44 626/430/44
f 627/431/44 628/432/44 629/433/44
f 628/432/44 627/431/44 630/434/44
f 627/431/44 629/433/44 631/435/44
f 629/433/44 628/432/44 632/436/44
f 632/436/44 628/432/44 633/437/44
f 629/433/44 632/436/44 634/438/44
f 635/401/183 636/399/183 637/400/90
f 637/400/90 636/399/183 638/402/90
f 637/400/90 638/402/90 639/403/180
f 639/403/180 638/402/90 640/404/180
f 641/439/180 643/440/90 642/441/180
f 644/442/90 643/440/90 641/439/180
f 644/442/90 645/443/184 643/440/90
f 645/443/184 644/442/90 646/444/184
f 649/445/136 648/446/184 647/447/185
f 648/446/184 649/445/136 650/448/136
f 651/449/177 650/448/136 649/445/136
f 650/448/136 651/449/177 652/450/177
f 655/451/136 653/452/177 654/453/177
f 653/452/177 655/451/136 656/454/136
f 657/455/183 656/454/136 655/451/136
f 656/454/136 657/455/183 658/456/183
f 659/457/3 660/458/3 661/459/3
f 662/460/3 660/458/3 659/457/3
f 660/458/3 662/460/3 663/461/3
f 664/462/3 662/460/3 659/457/3
f 662/460/3 664/462/3 665/463/3
f 664/462/3 659/457/3 666/464/3
f 667/465/3 668/466/3 669/467/3
f 670/468/3 668/466/3 667/465/3
f 668/466/3 670/468/3 671/469/3
f 672/470/3 670/468/3 667/465/3
f 670/468/3 672/470/3 673/471/3
f 672/470/3 667/465/3 674/472/3
usemtl Meshpart3Mtl.001
f 675/473/186 676/474/1 677/475/1
f 677/475/1 676/474/1 678/476/1
f 675/473/186 679/477/186 676/474/1
f 679/477/186 675/473/186 680/478/1
f 681/479/1 682/480/1 683/481/1
f 682/480/1 681/479/1 684/482/1
f 685/483/187 686/484/187 687/485/188
f 686/484/187 685/483/187 688/486/189
f 689/487/189 686/484/187 688/486/189
f 687/485/188 690/488/190 685/483/187
f 693/489/191 691/488/191 692/485/191
f 693/489/191 694/490/192 691/488/191
f 695/491/1 696/492/1 697/474/1
f 696/492/1 695/491/1 698/493/1
f 695/491/1 699/494/1 698/493/1
f 698/493/1 699/494/1 700/473/1
f 701/495/30 702/496/45 703/497/30
f 702/496/45 704/498/30 703/497/30
f 704/498/30 702/496/45 705/499/30
f 706/500/30 701/495/30 703/497/30
f 707/501/45 705/499/30 702/496/45
f 705/499/30 707/501/45 708/502/30
f 708/502/30 707/501/45 709/503/30
f 710/504/30 709/503/30 707/501/45
f 711/505/30 701/495/30 706/500/30
f 701/495/30 711/505/30 712/506/45
f 712/506/45 713/507/45 701/495/30
f 714/508/193 701/495/30 713/507/45
f 707/501/45 715/509/194 710/504/30
f 701/495/30 714/508/193 715/509/194
f 710/504/30 715/509/194 716/510/30
f 717/511/195 715/509/194 714/508/193
f 716/510/30 715/509/194 718/512/30
f 719/513/30 715/509/194 717/511/195
f 718/512/30 715/509/194 719/513/30
f 720/514/30 721/515/30 722/516/30
f 721/515/30 720/514/30 723/517/30
f 724/518/196 725/519/197 726/520/196
f 725/519/197 724/518/196 727/521/196
f 727/521/196 728/522/198 725/519/197
f 725/519/197 728/522/198 729/523/196
f 730/524/196 729/523/196 728/522/198
f 729/523/196 730/524/196 731/525/196
f 732/526/199 733/524/200 734/527/199
f 733/524/200 732/526/199 735/525/200
f 737/528/201 738/529/201 736/530/202
f 738/529/201 739/531/202 736/530/202
f 738/529/201 737/528/201 740/532/202
f 740/532/202 741/533/203 738/529/201
f 741/533/203 740/532/202 742/534/203
f 742/534/203 743/535/203 741/533/203
f 744/518/204 745/520/204 746/536/204
f 747/537/204 746/536/204 745/520/204
f 748/538/44 749/539/80 750/540/44
f 750/540/44 751/541/44 748/538/44
f 751/541/44 752/542/44 748/538/44
f 750/540/44 749/539/80 753/543/44
f 749/539/80 754/530/44 753/543/44
f 754/530/44 749/539/80 755/544/44
f 756/493/90 757/476/90 758/475/90
f 758/475/90 759/473/90 756/493/90
f 760/492/90 757/476/90 756/493/90
f 757/476/90 760/492/90 761/474/90
f 762/545/90 763/490/90 764/546/90
f 765/489/90 763/490/90 762/545/90
f 765/489/90 766/479/90 763/490/90
f 766/479/90 765/489/90 767/481/90
f 768/483/205 769/486/206 770/484/205
f 769/486/206 771/487/206 770/484/205
f 768/483/205 770/484/205 772/547/207
f 772/547/207 773/548/208 768/483/205
f 775/549/209 774/550/209 776/551/210
f 776/551/210 777/552/210 775/549/209
f 777/552/210 776/551/210 778/553/136
f 779/554/136 777/552/210 778/553/136
f 780/555/190 782/556/191 781/557/190
f 780/555/190 783/558/191 782/556/191
f 786/559/211 785/560/191 784/561/191
f 785/560/191 786/559/211 787/562/211
f 788/563/212 787/562/211 786/559/211
f 787/562/211 788/563/212 789/564/213
f 790/565/214 789/564/213 788/563/212
f 789/564/213 790/565/214 791/566/214
f 792/567/215 791/566/214 790/565/214
f 791/566/214 792/567/215 793/568/216
f 794/560/202 795/569/202 796/551/202
f 797/553/203 796/551/202 795/569/202
f 799/561/217 798/552/217 800/570/217
f 800/570/217 798/552/217 801/554/217
f 802/571/136 803/572/136 804/573/136
f 805/574/136 804/573/136 803/572/136
f 806/575/136 807/576/136 808/577/136
f 808/577/136 807/576/136 809/578/136
f 810/579/136 811/580/136 812/581/136
f 810/579/136 812/581/136 813/582/136
f 814/583/218 815/518/218 816/584/218
f 817/521/218 816/584/218 815/518/218
f 818/585/218 816/584/218 817/521/218
f 817/521/218 819/522/218 818/585/218
f 820/524/218 818/585/218 819/522/218
f 818/585/218 820/524/218 821/586/218
f 822/583/219 823/587/220 824/518/219
f 823/587/220 822/583/219 825/588/219
f 826/589/221 827/590/217 828/591/217
f 827/590/217 829/592/221 828/591/217
f 827/590/217 826/589/221 830/593/222
f 831/594/223 830/593/222 826/589/221
f 831/594/223 832/595/217 830/593/222
f 830/593/222 832/595/217 833/596/217
f 834/597/224 835/598/224 836/524/225
f 837/586/224 836/524/225 835/598/224
f 838/599/3 839/600/3 840/601/3
f 838/599/3 840/601/3 841/602/3
f 842/603/3 840/601/3 839/600/3
f 842/603/3 839/600/3 843/604/3
f 844/595/3 842/603/3 843/604/3
f 842/603/3 844/595/3 845/605/3
