# Blender 5.1.2
# www.blender.org
mtllib wateruzibody.mtl
o RenderMesh_17772852591
v 0.106224 -0.387656 0.094514
v 0.377779 -0.387656 -0.094526
v 0.377791 -0.387656 0.094497
v 0.106212 -0.387656 -0.094509
v 0.506567 0.075518 -0.094534
v -0.120957 0.075518 0.094530
v 0.506581 0.075518 0.094489
v -0.120969 0.075518 -0.094492
v 0.377791 -0.387656 0.094497
v 0.420008 -0.247383 -0.094529
v 0.420020 -0.247383 0.094494
v 0.377779 -0.387656 -0.094526
v 0.384359 -0.080936 -0.094526
v 0.384371 -0.080936 0.094497
v 0.506581 0.075518 0.094489
v 0.525192 -0.052937 0.094488
v 0.525180 -0.052937 -0.094535
v 0.506567 0.075518 -0.094534
v 0.496198 -0.080936 0.094490
v 0.496186 -0.080936 -0.094533
v 0.384371 -0.080936 0.094497
v 0.384359 -0.080936 -0.094526
v 0.106224 -0.387656 0.094514
v 0.106224 -0.080936 0.094514
v 0.106212 -0.080936 -0.094509
v 0.106212 -0.387656 -0.094509
v -0.120969 0.075518 -0.094492
v -0.143861 -0.052937 0.094531
v -0.120957 0.075518 0.094530
v -0.143873 -0.052937 -0.094491
v -0.114879 -0.080936 -0.094493
v -0.114866 -0.080936 0.094529
v 0.106224 -0.080936 0.094514
v 0.106212 -0.080936 -0.094509
v 0.420020 -0.247383 0.094494
v 0.106224 -0.387656 0.094514
v 0.377791 -0.387656 0.094497
v 0.106224 -0.080936 0.094514
v 0.384371 -0.080936 0.094497
v 0.506581 0.075518 0.094489
v 0.496198 -0.080936 0.094490
v 0.525192 -0.052937 0.094488
v -0.120957 0.075518 0.094530
v -0.114866 -0.080936 0.094529
v -0.143861 -0.052937 0.094531
v 0.496186 -0.080936 -0.094533
v 0.506567 0.075518 -0.094534
v 0.525180 -0.052937 -0.094535
v 0.384359 -0.080936 -0.094526
v 0.106212 -0.080936 -0.094509
v -0.120969 0.075518 -0.094492
v 0.420008 -0.247383 -0.094529
v -0.114879 -0.080936 -0.094493
v -0.143873 -0.052937 -0.094491
v 0.106212 -0.387656 -0.094509
v 0.377779 -0.387656 -0.094526
vn -0.0003 -1.0000 -0.0004
vn -0.0003 1.0000 -0.0004
vn -0.0003 1.0000 -0.0005
vn 0.9574 -0.2888 -0.0006
vn 0.9992 -0.0406 -0.0004
vn 0.9574 -0.2887 -0.0005
vn 0.9778 0.2096 -0.0006
vn 0.9897 0.1432 -0.0005
vn 0.9461 -0.3238 -0.0005
vn 0.3750 -0.9270 -0.0006
vn 0.3749 -0.9271 -0.0004
vn -1.0000 0.0004 -0.0003
vn -0.9845 0.1755 -0.0003
vn -0.9513 -0.3083 -0.0004
vn -0.9845 0.1754 -0.0005
vn -0.3747 -0.9272 -0.0003
vn -0.3747 -0.9271 -0.0005
vn -0.0003 -1.0000 -0.0005
vn -0.0002 0.0004 1.0000
vn -0.0001 0.0003 1.0000
vn -0.0003 0.0005 1.0000
vn -0.0003 0.0004 -1.0000
vn -0.0003 0.0003 -1.0000
vt 0.000000 0.000000
s 1
f 1/1/1 2/1/1 3/1/1
f 2/1/1 1/1/1 4/1/1
f 5/1/2 6/1/2 7/1/3
f 6/1/2 5/1/2 8/1/3
f 9/1/4 10/1/5 11/1/5
f 10/1/5 9/1/4 12/1/6
f 13/1/7 11/1/5 10/1/5
f 11/1/5 13/1/7 14/1/7
f 15/1/8 16/1/9 17/1/9
f 15/1/8 17/1/9 18/1/8
f 19/1/10 17/1/9 16/1/9
f 17/1/9 19/1/10 20/1/11
f 21/1/1 20/1/11 19/1/10
f 20/1/11 21/1/1 22/1/1
f 23/1/12 24/1/12 25/1/12
f 23/1/12 25/1/12 26/1/12
f 27/1/13 28/1/14 29/1/15
f 28/1/14 27/1/13 30/1/14
f 28/1/14 30/1/14 31/1/16
f 31/1/16 32/1/17 28/1/14
f 32/1/17 31/1/16 33/1/1
f 33/1/1 31/1/16 34/1/18
f 35/1/19 36/1/19 37/1/19
f 36/1/19 35/1/19 38/1/20
f 38/1/20 35/1/19 39/1/19
f 39/1/19 40/1/19 38/1/20
f 40/1/19 39/1/19 41/1/19
f 40/1/19 41/1/19 42/1/19
f 40/1/19 43/1/19 38/1/20
f 43/1/19 44/1/19 38/1/20
f 44/1/19 43/1/19 45/1/21
f 46/1/22 47/1/22 48/1/22
f 49/1/22 47/1/22 46/1/22
f 50/1/23 47/1/22 49/1/22
f 47/1/22 50/1/23 51/1/22
f 52/1/22 50/1/23 49/1/22
f 50/1/23 53/1/22 51/1/22
f 51/1/22 53/1/22 54/1/22
f 50/1/23 52/1/22 55/1/22
f 55/1/22 52/1/22 56/1/22
o RenderMesh_17772852800
v 0.679669 0.275231 -0.083488
v 0.679669 0.108322 -0.083488
v 0.679667 0.191777 -0.118056
v 0.679675 0.309799 -0.000033
v 0.679675 0.073754 -0.000033
v 0.679680 0.108322 0.083422
v 0.679680 0.275231 0.083422
v 0.679682 0.191777 0.117990
v 0.649675 0.339305 -0.000031
v 0.679669 0.275231 -0.083488
v 0.649668 0.296095 -0.104350
v 0.649665 0.191777 -0.147560
v 0.679675 0.309799 -0.000033
v 0.679667 0.191777 -0.118056
v 0.679680 0.275231 0.083422
v 0.679669 0.108322 -0.083488
v 0.649681 0.296095 0.104287
v 0.649668 0.087458 -0.104350
v 0.649684 0.191777 0.147497
v 0.649675 0.044248 -0.000031
v 0.679682 0.191777 0.117990
v 0.679675 0.073754 -0.000033
v 0.679680 0.108322 0.083422
v 0.649681 0.087458 0.104287
v -0.430715 0.318838 0.000037
v -0.430711 0.161712 0.074603
v -0.430711 0.287952 0.074603
v -0.430709 0.236278 0.105489
v -0.430715 0.130826 0.000037
v -0.430720 0.161712 -0.074528
v -0.430720 0.287952 -0.074528
v -0.430722 0.236278 -0.105415
v -0.430722 0.236278 -0.105415
v -0.414241 0.300921 -0.087499
v -0.414243 0.236278 -0.123757
v -0.414241 0.148742 -0.087499
v -0.430720 0.287952 -0.074528
v -0.430720 0.161712 -0.074528
v -0.430715 0.318838 0.000037
v -0.430715 0.130826 0.000037
v -0.414236 0.339961 0.000036
v -0.414236 0.112484 0.000036
v -0.414230 0.300921 0.087571
v -0.414230 0.148742 0.087571
v -0.430711 0.287952 0.074603
v -0.430711 0.161712 0.074603
v -0.430709 0.236278 0.105489
v -0.414228 0.236278 0.123830
v -0.273258 0.291300 0.122443
v -0.156788 0.191777 0.173142
v -0.156791 0.291300 0.122435
v -0.273255 0.191777 0.173149
v -0.156791 0.069361 0.122435
v -0.273266 0.339960 0.000027
v -0.156799 0.339960 0.000020
v -0.414228 0.236278 0.123830
v -0.414230 0.300921 0.087571
v -0.414230 0.148742 0.087571
v -0.414236 0.339961 0.000036
v -0.156808 0.291300 -0.122395
v -0.414241 0.300921 -0.087499
v -0.273258 0.069361 0.122443
v -0.273266 0.018655 0.000027
v -0.414236 0.112484 0.000036
v -0.156799 0.018655 0.000020
v -0.414241 0.148742 -0.087499
v -0.156806 0.069361 -0.122395
v -0.273273 0.069361 -0.122388
v -0.156812 0.191777 -0.173102
v -0.273277 0.191777 -0.173094
v -0.414243 0.236278 -0.123757
v -0.273273 0.291300 -0.122388
v -0.115604 0.191777 -0.147512
v 0.649665 0.191777 -0.147560
v -0.115601 0.087458 -0.104301
v 0.649668 0.087458 -0.104350
v 0.649675 0.044248 -0.000031
v -0.115594 0.044248 0.000017
v -0.115588 0.087458 0.104335
v 0.649681 0.087458 0.104287
v -0.115585 0.191777 0.147546
v 0.649684 0.191777 0.147497
v 0.421573 0.201555 -0.143495
v 0.649668 0.296095 -0.104350
v -0.048427 0.201555 -0.143465
v 0.421576 0.296095 -0.104336
v -0.115601 0.296095 -0.104301
v 0.649675 0.339305 -0.000031
v -0.048423 0.296095 -0.104305
v 0.421582 0.339305 -0.000017
v -0.115594 0.339960 0.000017
v 0.649681 0.296095 0.104287
v -0.048416 0.339961 0.000013
v 0.421589 0.296095 0.104301
v -0.048410 0.296095 0.104331
v 0.421592 0.201555 0.143461
v -0.115588 0.296095 0.104335
v -0.048407 0.201555 0.143491
v -0.048407 0.201555 0.143491
v 0.421573 0.201555 -0.143495
v -0.048427 0.201555 -0.143465
v 0.421592 0.201555 0.143461
v -0.048407 0.201555 0.143491
v -0.048416 0.339961 0.000013
v -0.048410 0.296095 0.104331
v -0.048427 0.201555 -0.143465
v -0.048423 0.296095 -0.104305
v -0.115601 0.087458 -0.104301
v -0.156812 0.191777 -0.173102
v -0.115604 0.191777 -0.147512
v -0.156808 0.291300 -0.122395
v -0.156806 0.069361 -0.122395
v -0.115601 0.296095 -0.104301
v -0.156799 0.018655 0.000020
v -0.156799 0.339960 0.000020
v -0.115594 0.044248 0.000017
v -0.115594 0.339960 0.000017
v -0.115588 0.087458 0.104335
v -0.115588 0.296095 0.104335
v -0.156791 0.069361 0.122435
v -0.156791 0.291300 0.122435
v -0.156788 0.191777 0.173142
v -0.115585 0.191777 0.147546
v 0.421592 0.201555 0.143461
v 0.421582 0.339305 -0.000017
v 0.421573 0.201555 -0.143495
v 0.421576 0.296095 -0.104336
v 0.421589 0.296095 0.104301
vn 1.0000 0.0005 -0.0005
vn 0.7012 0.7129 -0.0004
vn 0.7012 0.5041 -0.5042
vn 0.7012 0.0005 -0.7130
vn 0.7012 0.7129 -0.0005
vn 0.7012 0.5041 0.5041
vn 0.7012 -0.5041 -0.5042
vn 0.7013 0.0005 0.7129
vn 0.7012 -0.7129 -0.0005
vn 0.7012 -0.7129 -0.0004
vn 0.7012 -0.5041 0.5041
vn -1.0000 0.0005 -0.0004
vn -0.7520 0.0523 -0.6571
vn -0.7453 0.4911 -0.4510
vn -0.7521 0.0327 -0.6582
vn -0.7439 -0.4726 -0.4725
vn -0.7461 0.4988 -0.4411
vn -0.7696 0.6386 -0.0004
vn -0.7437 -0.6685 -0.0004
vn -0.7438 -0.6684 -0.0002
vn -0.7452 0.4911 0.4511
vn -0.7438 -0.4726 0.4726
vn -0.7460 0.4988 0.4412
vn -0.7519 0.0523 0.6572
vn -0.7520 0.0327 0.6583
vn -0.0552 0.7225 0.6892
vn -0.0002 0.0394 0.9992
vn -0.0004 0.7391 0.6736
vn -0.1665 0.0093 0.9860
vn -0.0005 -0.7071 0.7071
vn -0.0084 1.0000 -0.0004
vn -0.0005 1.0000 -0.0005
vn -0.2965 0.1344 0.9455
vn -0.0884 0.7685 0.6337
vn -0.4881 -0.5809 0.6514
vn -0.0181 0.9998 -0.0005
vn -0.0004 0.7391 -0.6736
vn -0.0885 0.7685 -0.6337
vn -0.2457 -0.6972 0.6735
vn -0.2710 -0.9626 -0.0005
vn -0.5541 -0.8324 -0.0005
vn -0.0005 -1.0000 -0.0005
vn -0.4882 -0.5810 -0.6512
vn -0.0004 -0.7071 -0.7071
vn -0.2458 -0.6972 -0.6735
vn -0.0003 0.0394 -0.9992
vn -0.1666 0.0093 -0.9860
vn -0.2967 0.1344 -0.9455
vn -0.0553 0.7225 -0.6892
vn -0.0006 0.0005 -1.0000
vn -0.0005 -0.7071 -0.7071
vn -0.0000 -0.7071 -0.7071
vn -0.0000 -0.7071 0.7071
vn -0.0004 -0.7071 0.7071
vn -0.0003 0.0004 1.0000
vn -0.0004 0.0005 1.0000
vn -0.0005 0.3826 -0.9239
vn -0.0000 0.7071 -0.7071
vn -0.0004 0.3826 -0.9239
vn -0.0005 0.7051 -0.7091
vn -0.0000 0.7071 0.7071
vn -0.0005 0.7071 0.7071
vn -0.0005 0.7051 0.7091
vn 0.0001 0.3827 0.9239
vn -0.0003 0.7052 0.7090
vn -0.0003 0.3826 0.9239
vn 0.5273 -0.6008 -0.6008
vn 0.4897 0.0210 -0.8716
vn 0.4889 0.0259 -0.8719
vn 0.2906 0.6405 -0.7109
vn 0.1987 0.7710 -0.6050
vn 0.5272 -0.8498 -0.0006
vn 0.0318 0.9995 -0.0005
vn 0.5272 -0.8497 -0.0005
vn 0.5277 -0.6007 0.6006
vn 0.1988 0.7710 0.6050
vn 0.2907 0.6405 0.7108
vn 0.4898 0.0210 0.8716
vn 0.4890 0.0259 0.8719
vt 0.000000 0.000000
s 1
f 57/2/24 58/2/24 59/2/24
f 58/2/24 57/2/24 60/2/24
f 58/2/24 60/2/24 61/2/24
f 60/2/24 62/2/24 61/2/24
f 62/2/24 60/2/24 63/2/24
f 62/2/24 63/2/24 64/2/24
f 65/2/25 66/2/26 67/2/26
f 68/2/27 67/2/26 66/2/26
f 66/2/26 65/2/25 69/2/28
f 66/2/26 70/2/27 68/2/27
f 65/2/25 71/2/29 69/2/28
f 72/2/30 68/2/27 70/2/27
f 71/2/29 65/2/25 73/2/29
f 68/2/27 72/2/30 74/2/30
f 75/2/31 71/2/29 73/2/29
f 76/2/32 74/2/30 72/2/30
f 71/2/29 75/2/31 77/2/31
f 72/2/30 78/2/33 76/2/32
f 79/2/34 77/2/31 75/2/31
f 79/2/34 76/2/32 78/2/33
f 75/2/31 80/2/34 79/2/34
f 76/2/32 79/2/34 80/2/34
f 81/2/35 82/2/35 83/2/35
f 83/2/35 82/2/35 84/2/35
f 81/2/35 85/2/35 82/2/35
f 85/2/35 81/2/35 86/2/35
f 86/2/35 81/2/35 87/2/35
f 86/2/35 87/2/35 88/2/35
f 89/2/36 90/2/37 91/2/38
f 92/2/39 89/2/36 91/2/38
f 90/2/37 89/2/36 93/2/40
f 89/2/36 92/2/39 94/2/39
f 95/2/41 90/2/37 93/2/40
f 92/2/39 96/2/42 94/2/39
f 90/2/37 95/2/41 97/2/41
f 96/2/42 92/2/39 98/2/43
f 99/2/44 97/2/41 95/2/41
f 100/2/45 96/2/42 98/2/43
f 99/2/44 95/2/41 101/2/46
f 96/2/42 100/2/45 102/2/45
f 103/2/47 99/2/44 101/2/46
f 104/2/48 102/2/45 100/2/45
f 99/2/44 103/2/47 104/2/48
f 102/2/45 104/2/48 103/2/47
f 105/2/49 106/2/50 107/2/51
f 106/2/50 105/2/49 108/2/52
f 108/2/52 109/2/53 106/2/50
f 105/2/49 107/2/51 110/2/54
f 107/2/51 111/2/55 110/2/54
f 105/2/49 112/2/56 108/2/52
f 112/2/56 105/2/49 113/2/57
f 110/2/54 113/2/57 105/2/49
f 114/2/58 108/2/52 112/2/56
f 113/2/57 110/2/54 115/2/59
f 116/2/60 110/2/54 111/2/55
f 115/2/59 110/2/54 117/2/61
f 108/2/52 114/2/58 118/2/62
f 109/2/53 108/2/52 118/2/62
f 114/2/58 119/2/63 118/2/62
f 119/2/63 109/2/53 118/2/62
f 119/2/63 114/2/58 120/2/64
f 109/2/53 119/2/63 121/2/65
f 122/2/66 119/2/63 120/2/64
f 119/2/63 123/2/67 121/2/65
f 123/2/67 119/2/63 124/2/68
f 119/2/63 122/2/66 124/2/68
f 124/2/68 125/2/69 123/2/67
f 122/2/66 126/2/70 124/2/68
f 125/2/69 124/2/68 126/2/70
f 126/2/70 116/2/60 125/2/69
f 126/2/70 122/2/66 127/2/71
f 116/2/60 126/2/70 128/2/72
f 127/2/71 128/2/72 126/2/70
f 110/2/54 116/2/60 128/2/72
f 128/2/72 127/2/71 117/2/61
f 128/2/72 117/2/61 110/2/54
f 129/2/73 130/2/73 131/2/74
f 132/2/75 131/2/74 130/2/73
f 133/2/65 131/2/74 132/2/75
f 131/2/74 133/2/65 134/2/65
f 134/2/65 133/2/65 135/2/76
f 136/2/77 135/2/76 133/2/65
f 135/2/76 136/2/77 137/2/78
f 138/2/79 137/2/78 136/2/77
f 129/2/73 139/2/80 130/2/73
f 139/2/80 140/2/81 130/2/73
f 139/2/80 129/2/73 141/2/82
f 140/2/81 139/2/80 142/2/81
f 143/2/83 141/2/82 129/2/73
f 140/2/81 142/2/81 144/2/55
f 141/2/82 143/2/83 145/2/83
f 146/2/55 144/2/55 142/2/81
f 147/2/55 145/2/83 143/2/83
f 144/2/55 146/2/55 148/2/84
f 147/2/55 149/2/55 145/2/83
f 150/2/85 148/2/84 146/2/55
f 147/2/55 151/2/86 149/2/55
f 152/2/87 148/2/84 150/2/85
f 151/2/86 147/2/55 153/2/88
f 148/2/84 152/2/87 138/2/79
f 153/2/88 154/2/89 151/2/86
f 152/2/87 137/2/78 138/2/79
f 154/2/89 153/2/88 137/2/78
f 137/2/78 152/2/87 154/2/89
f 155/2/55 156/2/55 157/2/55
f 156/2/55 155/2/55 158/2/55
f 159/2/24 160/2/24 161/2/24
f 162/2/24 160/2/24 159/2/24
f 160/2/24 162/2/24 163/2/24
f 164/2/90 165/2/91 166/2/92
f 167/2/93 166/2/92 165/2/91
f 165/2/91 164/2/90 168/2/90
f 166/2/92 167/2/93 169/2/94
f 170/2/95 168/2/90 164/2/90
f 171/2/96 169/2/94 167/2/93
f 170/2/95 164/2/90 172/2/97
f 169/2/94 171/2/96 173/2/96
f 174/2/98 170/2/95 172/2/97
f 175/2/99 173/2/96 171/2/96
f 170/2/95 174/2/98 176/2/98
f 171/2/96 177/2/100 175/2/99
f 178/2/101 176/2/98 174/2/98
f 177/2/100 179/2/102 175/2/99
f 178/2/101 174/2/98 179/2/102
f 179/2/102 177/2/100 178/2/101
f 180/2/35 181/2/35 182/2/35
f 182/2/35 181/2/35 183/2/35
f 181/2/35 180/2/35 184/2/35
