# Blender 5.1.2
# www.blender.org
mtllib wateruziwatertankthing.mtl
o RenderMesh_17772852082
v 0.504223 0.037135 0.041723
v 0.504223 0.037135 -0.058013
v 0.492459 0.071085 0.041723
v 0.492458 0.071085 -0.058013
v 0.460259 0.038427 0.007319
v 0.460259 0.075470 -0.008185
v 0.460259 0.078528 0.007319
v 0.460259 0.038427 -0.023690
v 0.460259 0.078528 -0.023690
v 0.460259 0.119916 0.008253
v 0.460259 0.134992 -0.008144
v 0.460259 0.125774 0.014111
v 0.460259 0.103518 0.023329
v 0.460259 0.126708 -0.008144
v 0.460259 0.103518 0.015045
v 0.460259 0.119916 -0.024542
v 0.460259 0.087121 0.008253
v 0.460259 0.125774 -0.030400
v 0.460259 0.081263 0.014111
v 0.460259 0.103518 -0.039618
v 0.460259 0.080329 -0.008144
v 0.460259 0.103518 -0.031333
v 0.460259 0.072044 -0.008144
v 0.460259 0.087121 -0.024542
v 0.460259 0.081263 -0.030400
v -0.769163 -0.019705 0.010416
v -0.769163 -0.038265 0.029006
v -0.769163 -0.011997 0.018124
v -0.769163 -0.038265 0.018103
v -0.769163 -0.012017 -0.008144
v -0.769163 -0.056825 0.010416
v -0.769163 -0.001116 -0.008144
v -0.769163 -0.064533 0.018124
v -0.769163 -0.011997 -0.034412
v -0.769163 -0.064513 -0.008144
v -0.769163 -0.019705 -0.026704
v -0.769163 -0.075414 -0.008144
v -0.769163 -0.038265 -0.034392
v -0.769163 -0.064533 -0.034412
v -0.769163 -0.038265 -0.045293
v -0.769163 -0.056825 -0.026704
v -0.769163 -0.011997 -0.034412
v -0.769163 -0.001116 -0.008144
v -0.759270 0.008488 -0.008144
v -0.769163 -0.011997 0.018124
v -0.759270 -0.005206 -0.041203
v -0.759270 -0.005206 0.024916
v -0.759270 -0.038265 -0.054897
v -0.759270 -0.038265 0.038608
v -0.769163 -0.038265 -0.045293
v -0.769163 -0.038265 0.029006
v -0.769163 -0.064533 -0.034412
v -0.769163 -0.064533 0.018124
v -0.759270 -0.071324 -0.041203
v -0.759270 -0.071324 0.024916
v -0.759270 -0.085018 -0.008144
v -0.769163 -0.075414 -0.008144
v -0.769163 -0.012017 -0.008144
v -0.730871 -0.012017 -0.008144
v -0.769163 -0.019705 0.010416
v -0.730871 -0.019705 0.010416
v -0.769163 -0.038265 0.018103
v -0.730871 -0.019705 -0.026704
v -0.769163 -0.019705 -0.026704
v -0.730871 -0.038265 0.018103
v -0.769163 -0.056825 0.010416
v -0.730871 -0.038265 -0.034392
v -0.769163 -0.038265 -0.034392
v -0.730871 -0.056825 -0.026704
v -0.769163 -0.056825 -0.026704
v -0.730871 -0.056825 0.010416
v -0.769163 -0.064513 -0.008144
v -0.730871 -0.064513 -0.008144
v -0.692709 -0.038265 -0.050647
v -0.692709 -0.090133 -0.060013
v -0.692709 -0.068319 -0.038198
v -0.692709 -0.038265 -0.081497
v -0.692709 -0.111618 -0.008144
v -0.692709 0.013603 -0.060013
v -0.692709 -0.080767 -0.008144
v -0.692709 -0.008211 -0.038198
v -0.692709 -0.068319 0.021910
v -0.692709 0.035088 -0.008144
v -0.692709 -0.090133 0.043724
v -0.692709 0.004237 -0.008144
v -0.692709 -0.038265 0.065209
v -0.692709 -0.008211 0.021910
v -0.692709 -0.038265 0.034359
v -0.692709 0.013603 0.043724
v -0.664182 -0.038265 0.093735
v -0.692709 -0.090133 0.043724
v -0.664183 -0.110304 0.063895
v -0.692709 -0.038265 0.065209
v -0.692709 -0.111618 -0.008144
v -0.692709 0.013603 0.043724
v -0.664183 -0.140144 -0.008144
v -0.664183 0.033775 0.063895
v -0.664183 -0.110304 -0.080183
v -0.692709 0.035088 -0.008144
v -0.692709 -0.090133 -0.060013
v -0.664183 0.063614 -0.008144
v -0.664183 -0.038265 -0.110023
v -0.664183 0.033775 -0.080183
v -0.692709 -0.038265 -0.081497
v -0.692709 0.013603 -0.060013
v -0.481455 0.118731 -0.029491
v -0.481455 0.087174 -0.045895
v -0.481455 0.087174 -0.029491
v -0.481455 0.118731 -0.045895
v -0.481455 0.044803 -0.029491
v -0.481455 0.044803 -0.045895
v -0.481455 0.087174 -0.008145
v -0.481455 0.044803 -0.008145
v -0.481455 0.044803 0.013202
v -0.481455 0.087174 0.013202
v -0.481455 0.087174 0.029607
v -0.481455 0.044803 0.029607
v -0.481455 0.118731 0.013202
v -0.481455 0.118731 0.029607
v -0.462930 0.109821 -0.009803
v -0.469557 0.086136 0.000139
v -0.462930 0.109821 -0.006487
v -0.469557 0.086136 -0.016429
v -0.459615 0.109821 -0.006487
v -0.459615 0.109821 -0.009803
v -0.462930 0.109821 -0.006487
v -0.462930 0.109821 -0.009803
v 0.449192 0.103518 0.015045
v 0.460259 0.087121 0.008253
v 0.449192 0.087121 0.008253
v 0.449192 0.080329 -0.008144
v 0.460259 0.103518 0.015045
v 0.460259 0.080329 -0.008144
v 0.449192 0.119916 0.008253
v 0.449192 0.087121 -0.024542
v 0.460259 0.119916 0.008253
v 0.460259 0.087121 -0.024542
v 0.449192 0.126708 -0.008144
v 0.449192 0.103518 -0.031333
v 0.460259 0.126708 -0.008144
v 0.460259 0.103518 -0.031333
v 0.449192 0.119916 -0.024542
v 0.460259 0.119916 -0.024542
v 0.406207 0.036270 -0.065980
v 0.503945 0.097530 -0.065980
v 0.503945 0.036270 -0.065980
v 0.406207 0.097530 -0.065980
v 0.489868 0.126234 -0.065980
v 0.420283 0.126234 -0.065980
v 0.406207 0.097530 0.049690
v 0.489868 0.126234 0.049688
v 0.420284 0.126234 0.049690
v 0.503945 0.097530 0.049688
v 0.406207 0.036270 0.049690
v 0.503945 0.036270 0.049688
v 0.503945 0.097530 0.049688
v 0.503945 0.036270 0.049688
v 0.503945 0.036270 0.028012
v 0.503945 0.097530 0.028012
v 0.489868 0.126234 0.049688
v 0.489868 0.126234 0.028012
v 0.420284 0.126234 0.028012
v 0.420284 0.126234 0.049690
v 0.406207 0.097530 0.049690
v 0.406207 0.097530 0.028012
v 0.406207 0.036270 0.049690
v 0.406207 0.036270 0.028012
v 0.503945 0.036270 -0.065980
v 0.503945 0.097530 -0.065980
v 0.503945 0.036270 -0.044304
v 0.503945 0.097530 -0.044304
v 0.489868 0.126234 -0.065980
v 0.489868 0.126234 -0.044304
v 0.420284 0.126234 -0.044304
v 0.420283 0.126234 -0.065980
v 0.406207 0.097530 -0.065980
v 0.406207 0.097530 -0.044304
v 0.406207 0.036270 -0.065980
v 0.406207 0.036270 -0.044304
v -0.440688 0.087174 -0.008145
v -0.481455 0.087174 -0.029491
v -0.481455 0.087174 -0.008145
v -0.440688 0.087174 -0.029491
v -0.481455 0.087174 0.013202
v -0.440688 0.087174 0.013202
v -0.481455 0.087174 -0.045895
v -0.440688 0.097151 -0.045895
v -0.440688 0.087174 -0.045895
v -0.455686 0.118731 -0.045895
v -0.481455 0.118731 -0.045895
v -0.481455 0.044803 -0.045895
v -0.440688 0.044803 -0.045895
v -0.440688 0.097151 0.029607
v -0.481455 0.087174 0.029607
v -0.440688 0.087174 0.029607
v -0.455686 0.118731 0.029607
v -0.481455 0.118731 0.029607
v -0.481455 0.044803 0.029607
v -0.440688 0.044803 0.029607
v 0.460259 0.075470 -0.008185
v 0.460259 0.078528 -0.023690
v 0.449192 0.075470 -0.008185
v 0.449192 0.078528 -0.023690
v 0.460259 0.078528 0.007319
v 0.460259 0.075470 -0.008185
v 0.449192 0.078528 0.007319
v 0.449192 0.075470 -0.008185
v 0.421392 0.071085 0.041723
v 0.492458 0.071085 -0.058013
v 0.421392 0.071085 -0.058013
v 0.492459 0.071085 0.041723
v -0.452988 0.086136 0.000139
v -0.462930 0.109821 -0.006487
v -0.469557 0.086136 0.000139
v -0.459615 0.109821 -0.006487
v -0.459615 0.109821 -0.009803
v -0.452988 0.086136 -0.016429
v -0.469557 0.086136 -0.016429
v -0.462930 0.109821 -0.009803
v 0.460259 0.078528 -0.023690
v 0.460259 0.038427 -0.023690
v 0.449192 0.038427 -0.023690
v 0.449192 0.078528 -0.023690
v 0.449192 0.078528 0.007319
v 0.460259 0.038427 0.007319
v 0.460259 0.078528 0.007319
v 0.449192 0.038427 0.007319
v 0.449192 0.081263 0.014111
v 0.460259 0.103518 0.023329
v 0.449192 0.103518 0.023329
v 0.460259 0.125774 0.014111
v 0.460259 0.081263 0.014111
v 0.449192 0.125774 0.014111
v 0.449192 0.072044 -0.008144
v 0.460259 0.134992 -0.008144
v 0.460259 0.072044 -0.008144
v 0.449192 0.134992 -0.008144
v 0.449192 0.081263 -0.030400
v 0.460259 0.125774 -0.030400
v 0.460259 0.081263 -0.030400
v 0.449192 0.125774 -0.030400
v 0.449192 0.103518 -0.039618
v 0.460259 0.103518 -0.039618
v -0.481455 0.087174 -0.029491
v -0.440688 0.097151 -0.029491
v -0.455686 0.118731 -0.029491
v -0.440688 0.087174 -0.029491
v -0.481455 0.118731 -0.029491
v -0.440688 0.097151 0.013202
v -0.481455 0.087174 0.013202
v -0.455686 0.118731 0.013202
v -0.481455 0.118731 0.013202
v -0.440688 0.087174 0.013202
v 0.420284 0.126234 0.028012
v 0.503945 0.097530 0.028012
v 0.406207 0.097530 0.028012
v 0.489868 0.126234 0.028012
v 0.503945 0.036270 0.028012
v 0.406207 0.036270 0.028012
v 0.503945 0.036270 -0.044304
v 0.406207 0.097530 -0.044304
v 0.406207 0.036270 -0.044304
v 0.503945 0.097530 -0.044304
v 0.420284 0.126234 -0.044304
v 0.489868 0.126234 -0.044304
v -0.455686 0.118731 -0.029491
v -0.440688 0.097151 -0.029491
v -0.455686 0.118731 -0.045895
v -0.481455 0.118731 -0.045895
v -0.481455 0.118731 -0.029491
v -0.440688 0.097151 -0.045895
v -0.440688 0.087174 -0.029491
v -0.440688 0.087174 -0.045895
v -0.440688 0.044803 -0.045895
v -0.440688 0.044803 -0.029491
v -0.440688 0.044803 -0.008145
v -0.440688 0.087174 -0.008145
v -0.440688 0.087174 0.013202
v -0.440688 0.044803 0.013202
v -0.440688 0.044803 0.029607
v -0.440688 0.087174 0.029607
v -0.440688 0.097151 0.029607
v -0.440688 0.097151 0.013202
v -0.455686 0.118731 0.029607
v -0.455686 0.118731 0.013202
v -0.481455 0.118731 0.029607
v -0.481455 0.118731 0.013202
v -0.459615 0.109821 -0.006487
v -0.452988 0.086136 0.000139
v -0.452988 0.086136 -0.016429
v -0.459615 0.109821 -0.009803
v -0.664182 -0.038265 0.093735
v -0.509743 -0.083290 0.036880
v -0.509743 -0.038265 0.055531
v -0.509743 0.006760 0.036880
v -0.664183 -0.110304 0.063895
v -0.664183 0.033775 0.063895
v -0.664183 -0.140144 -0.008144
v -0.664183 0.063614 -0.008144
v -0.509743 -0.101939 -0.008145
v -0.509743 0.025409 -0.008145
v -0.509743 -0.083290 -0.053168
v -0.509743 0.006760 -0.053168
v -0.664183 -0.110304 -0.080183
v -0.664183 0.033775 -0.080183
v -0.664183 -0.038265 -0.110023
v -0.509743 -0.038265 -0.071819
v -0.759270 -0.038265 -0.054897
v -0.692709 -0.008211 -0.038198
v -0.692709 -0.038265 -0.050647
v -0.692709 -0.068319 -0.038198
v -0.759270 -0.005206 -0.041203
v -0.759270 -0.071324 -0.041203
v -0.759270 0.008488 -0.008144
v -0.759270 -0.085018 -0.008144
v -0.692709 0.004237 -0.008144
v -0.692709 -0.080767 -0.008144
v -0.692709 -0.008211 0.021910
v -0.692709 -0.068319 0.021910
v -0.759270 -0.005206 0.024916
v -0.759270 -0.071324 0.024916
v -0.759270 -0.038265 0.038608
v -0.692709 -0.038265 0.034359
v 0.421392 0.071085 0.041723
v 0.421392 0.071085 -0.058013
v 0.409628 0.037135 0.041723
v 0.409628 0.037135 -0.058013
v 0.449192 0.075470 -0.008185
v 0.449192 0.038427 0.007319
v 0.449192 0.078528 0.007319
v 0.449192 0.038427 -0.023690
v 0.449192 0.078528 -0.023690
v 0.449192 0.119916 -0.024542
v 0.449192 0.134992 -0.008144
v 0.449192 0.125774 -0.030400
v 0.449192 0.103518 -0.039618
v 0.449192 0.126708 -0.008144
v 0.449192 0.103518 -0.031333
v 0.449192 0.119916 0.008253
v 0.449192 0.087121 -0.024542
v 0.449192 0.125774 0.014111
v 0.449192 0.081263 -0.030400
v 0.449192 0.103518 0.023329
v 0.449192 0.072044 -0.008144
v 0.449192 0.103518 0.015045
v 0.449192 0.080329 -0.008144
v 0.449192 0.087121 0.008253
v 0.449192 0.081263 0.014111
vn 0.9448 0.3276 -0.0003
vn 0.9448 0.3275 -0.0003
vn 0.9449 0.3274 -0.0000
vn 1.0000 0.0005 -0.0005
vn -1.0000 0.0005 -0.0005
vn -0.6962 0.5076 -0.5076
vn -0.6962 0.7178 -0.0005
vn -0.6963 0.7177 -0.0004
vn -0.6962 0.5076 0.5076
vn -0.6961 0.5076 -0.5076
vn -0.6961 0.5076 0.5076
vn -0.6962 0.0006 -0.7178
vn -0.6963 0.0004 0.7177
vn -0.6963 0.0004 -0.7177
vn -0.6962 -0.5076 -0.5076
vn -0.6960 -0.5077 0.5077
vn -0.6961 -0.5077 0.5077
vn -0.6963 -0.7177 -0.0004
vn -0.6963 -0.7178 -0.0004
vn -0.0005 -1.0000 -0.0005
vn -0.6303 -0.7764 -0.0000
vn -0.0000 -0.7071 -0.7071
vn -0.6306 -0.5488 -0.5488
vn -0.0005 0.0005 -1.0000
vn -0.6303 -0.5490 0.5490
vn -0.0000 -0.7071 0.7071
vn -0.6306 0.0005 -0.7761
vn -0.0000 0.7071 -0.7071
vn -0.6307 0.0006 0.7760
vn -0.0005 0.0005 1.0000
vn -0.6306 0.5488 0.5488
vn -0.0000 0.7071 0.7071
vn -0.6303 0.5490 -0.5490
vn -0.0005 1.0000 -0.0005
vn -0.6303 0.7764 -0.0000
vn -0.7071 -0.0000 0.7071
vn -0.7071 -0.5000 0.5000
vn -0.7071 0.0005 0.7071
vn -0.7071 -0.7071 -0.0005
vn -0.7071 0.5000 0.5000
vn -0.7071 -0.7071 -0.0003
vn -0.7071 -0.5000 -0.5000
vn -0.7071 0.7071 -0.0005
vn -0.7071 -0.0000 -0.7071
vn -0.7071 0.5000 -0.5000
vn -0.7071 0.0005 -0.7071
vn -0.9630 0.2693 -0.0003
vn -0.9631 0.2693 -0.0003
vn -0.9630 0.2694 -0.0000
vn -0.0005 0.7071 -0.7071
vn -0.0005 -0.7071 0.7071
vn 0.9741 0.2261 -0.0004
vn 0.9741 0.2260 -0.0000
vn 0.5291 0.8486 -0.0005
vn 0.5290 0.8486 -0.0000
vn -0.5291 0.8486 -0.0004
vn -0.5290 0.8486 -0.0000
vn -0.9741 0.2261 -0.0004
vn -0.9741 0.2261 -0.0005
vn 0.5291 0.8486 -0.0004
vn 0.5291 0.8486 -0.0003
vn -0.5291 0.8486 -0.0005
vn -0.9741 0.2260 -0.0000
vn -0.0004 0.9811 0.1937
vn -0.0004 0.9810 0.1939
vn -0.0005 0.9810 0.1938
vn -0.0007 0.9810 0.1940
vn -0.0000 0.9811 -0.1935
vn -0.0006 0.9810 -0.1940
vn -0.0005 0.9810 -0.1938
vn -0.0004 0.9810 -0.1938
vn -0.0000 0.2694 0.9630
vn -0.0003 0.2693 0.9631
vn -0.0004 0.2692 0.9631
vn -0.0000 0.2694 -0.9630
vn -0.0003 0.2693 -0.9631
vn 0.4633 0.8862 -0.0000
vn 0.9542 0.2993 -0.0002
vn 0.9541 0.2995 -0.0005
vn 1.0000 0.0002 -0.0002
vn 0.9541 0.2994 -0.0003
vn 0.9541 0.2994 -0.0004
vn 0.9631 0.2692 -0.0004
vn 0.9631 0.2693 -0.0003
vn 0.9630 0.2694 -0.0000
vn 0.9631 0.2693 -0.0004
vn 0.2399 0.0004 0.9708
vn 0.2401 -0.6864 0.6864
vn 0.2401 0.6864 0.6864
vn 0.2399 -0.9708 -0.0004
vn 0.2399 0.9708 -0.0004
vn 0.2399 -0.9708 -0.0006
vn 0.2399 0.9708 -0.0006
vn 0.2401 -0.6864 -0.6864
vn 0.2401 0.6864 -0.6864
vn 0.2399 0.0004 -0.9708
vn 0.2400 0.0003 -0.9708
vn 0.0640 0.0005 -0.9979
vn 0.0637 0.7057 -0.7057
vn 0.0637 -0.0000 -0.9980
vn 0.0637 -0.7057 -0.7057
vn 0.0640 0.9979 -0.0005
vn 0.0640 -0.9979 -0.0005
vn 0.0639 0.9980 -0.0003
vn 0.0639 -0.9980 -0.0003
vn 0.0637 0.7057 0.7057
vn 0.0637 -0.7057 0.7057
vn 0.0640 0.0004 0.9980
vn 0.0639 0.0003 0.9980
vn -0.9448 0.3275 -0.0003
vn -0.9448 0.3276 -0.0003
vn -0.9448 0.3276 -0.0004
vn -0.9449 0.3274 -0.0000
vt 0.000000 0.000000
s 1
f 1/1/1 2/1/2 3/1/1
f 3/1/1 2/1/2 4/1/3
f 5/1/4 6/1/4 7/1/4
f 6/1/4 5/1/4 8/1/4
f 8/1/4 9/1/4 6/1/4
f 10/1/4 11/1/4 12/1/4
f 13/1/4 10/1/4 12/1/4
f 11/1/4 10/1/4 14/1/4
f 10/1/4 13/1/4 15/1/4
f 16/1/4 11/1/4 14/1/4
f 13/1/4 17/1/4 15/1/4
f 11/1/4 16/1/4 18/1/4
f 13/1/4 19/1/4 17/1/4
f 16/1/4 20/1/4 18/1/4
f 19/1/4 21/1/4 17/1/4
f 20/1/4 16/1/4 22/1/4
f 21/1/4 19/1/4 23/1/4
f 24/1/4 20/1/4 22/1/4
f 23/1/4 24/1/4 21/1/4
f 20/1/4 24/1/4 25/1/4
f 24/1/4 23/1/4 25/1/4
f 26/1/5 27/1/5 28/1/5
f 27/1/5 26/1/5 29/1/5
f 28/1/5 30/1/5 26/1/5
f 31/1/5 27/1/5 29/1/5
f 28/1/5 32/1/5 30/1/5
f 27/1/5 31/1/5 33/1/5
f 34/1/5 30/1/5 32/1/5
f 35/1/5 33/1/5 31/1/5
f 30/1/5 34/1/5 36/1/5
f 33/1/5 35/1/5 37/1/5
f 34/1/5 38/1/5 36/1/5
f 35/1/5 39/1/5 37/1/5
f 38/1/5 34/1/5 40/1/5
f 39/1/5 38/1/5 40/1/5
f 39/1/5 35/1/5 41/1/5
f 38/1/5 39/1/5 41/1/5
f 42/1/6 43/1/7 44/1/8
f 45/1/9 44/1/8 43/1/7
f 44/1/8 46/1/10 42/1/6
f 44/1/8 45/1/9 47/1/11
f 48/1/12 42/1/6 46/1/10
f 45/1/9 49/1/13 47/1/11
f 42/1/6 48/1/12 50/1/14
f 49/1/13 45/1/9 51/1/13
f 48/1/12 52/1/15 50/1/14
f 53/1/16 49/1/13 51/1/13
f 52/1/15 48/1/12 54/1/15
f 49/1/13 53/1/16 55/1/17
f 56/1/18 52/1/15 54/1/15
f 53/1/16 56/1/18 55/1/17
f 52/1/15 56/1/18 57/1/19
f 56/1/18 53/1/16 57/1/19
f 58/1/20 59/1/21 60/1/22
f 61/1/23 60/1/22 59/1/21
f 60/1/22 61/1/23 62/1/24
f 59/1/21 58/1/20 63/1/25
f 64/1/26 63/1/25 58/1/20
f 59/1/21 65/1/27 61/1/23
f 65/1/27 62/1/24 61/1/23
f 63/1/25 65/1/27 59/1/21
f 62/1/24 65/1/27 66/1/28
f 63/1/25 64/1/26 67/1/29
f 68/1/30 67/1/29 64/1/26
f 69/1/31 63/1/25 67/1/29
f 67/1/29 68/1/30 69/1/31
f 63/1/25 69/1/31 65/1/27
f 70/1/32 69/1/31 68/1/30
f 71/1/33 66/1/28 65/1/27
f 71/1/33 72/1/34 66/1/28
f 73/1/35 65/1/27 69/1/31
f 65/1/27 73/1/35 71/1/33
f 70/1/32 73/1/35 69/1/31
f 72/1/34 71/1/33 73/1/35
f 73/1/35 70/1/32 72/1/34
f 74/1/5 75/1/5 76/1/5
f 75/1/5 74/1/5 77/1/5
f 78/1/5 76/1/5 75/1/5
f 74/1/5 79/1/5 77/1/5
f 76/1/5 78/1/5 80/1/5
f 79/1/5 74/1/5 81/1/5
f 78/1/5 82/1/5 80/1/5
f 83/1/5 79/1/5 81/1/5
f 78/1/5 84/1/5 82/1/5
f 83/1/5 81/1/5 85/1/5
f 86/1/5 82/1/5 84/1/5
f 87/1/5 83/1/5 85/1/5
f 82/1/5 86/1/5 88/1/5
f 86/1/5 87/1/5 88/1/5
f 83/1/5 87/1/5 89/1/5
f 87/1/5 86/1/5 89/1/5
f 90/1/36 91/1/37 92/1/37
f 91/1/37 90/1/36 93/1/38
f 94/1/39 92/1/37 91/1/37
f 90/1/36 95/1/40 93/1/38
f 92/1/37 94/1/39 96/1/41
f 95/1/40 90/1/36 97/1/40
f 94/1/39 98/1/42 96/1/41
f 97/1/40 99/1/43 95/1/40
f 98/1/42 94/1/39 100/1/42
f 97/1/40 101/1/43 99/1/43
f 102/1/44 98/1/42 100/1/42
f 103/1/45 99/1/43 101/1/43
f 100/1/42 104/1/46 102/1/44
f 99/1/43 103/1/45 105/1/45
f 105/1/45 102/1/44 104/1/46
f 102/1/44 105/1/45 103/1/45
f 106/1/5 107/1/5 108/1/5
f 107/1/5 106/1/5 109/1/5
f 110/1/5 108/1/5 107/1/5
f 110/1/5 107/1/5 111/1/5
f 110/1/5 112/1/5 108/1/5
f 112/1/5 110/1/5 113/1/5
f 114/1/5 112/1/5 113/1/5
f 114/1/5 115/1/5 112/1/5
f 115/1/5 114/1/5 116/1/5
f 117/1/5 116/1/5 114/1/5
f 116/1/5 118/1/5 115/1/5
f 116/1/5 119/1/5 118/1/5
f 120/1/47 121/1/48 122/1/47
f 121/1/48 120/1/47 123/1/49
f 124/1/34 125/1/34 126/1/34
f 126/1/34 125/1/34 127/1/34
f 128/1/24 129/1/50 130/1/50
f 129/1/50 131/1/34 130/1/50
f 129/1/50 128/1/24 132/1/24
f 131/1/34 129/1/50 133/1/34
f 134/1/22 132/1/24 128/1/24
f 133/1/34 135/1/32 131/1/34
f 132/1/24 134/1/22 136/1/22
f 135/1/32 133/1/34 137/1/32
f 138/1/20 136/1/22 134/1/22
f 139/1/30 135/1/32 137/1/32
f 136/1/22 138/1/20 140/1/20
f 141/1/30 139/1/30 137/1/32
f 142/1/51 140/1/20 138/1/20
f 142/1/51 139/1/30 141/1/30
f 140/1/20 142/1/51 143/1/26
f 143/1/26 142/1/51 141/1/30
f 144/1/24 145/1/24 146/1/24
f 147/1/24 145/1/24 144/1/24
f 147/1/24 148/1/24 145/1/24
f 148/1/24 147/1/24 149/1/24
f 150/1/30 151/1/30 152/1/30
f 151/1/30 150/1/30 153/1/30
f 150/1/30 154/1/30 153/1/30
f 153/1/30 154/1/30 155/1/30
f 156/1/52 157/1/4 158/1/4
f 156/1/52 158/1/4 159/1/53
f 156/1/52 159/1/53 160/1/54
f 160/1/54 159/1/53 161/1/55
f 162/1/56 160/1/54 161/1/55
f 160/1/54 162/1/56 163/1/57
f 162/1/56 164/1/58 163/1/57
f 164/1/58 162/1/56 165/1/59
f 165/1/59 166/1/5 164/1/58
f 166/1/5 165/1/59 167/1/5
f 168/1/4 169/1/52 170/1/4
f 171/1/52 170/1/4 169/1/52
f 172/1/60 171/1/52 169/1/52
f 171/1/52 172/1/60 173/1/61
f 172/1/60 174/1/62 173/1/61
f 174/1/62 172/1/60 175/1/57
f 176/1/59 174/1/62 175/1/57
f 174/1/62 176/1/59 177/1/63
f 178/1/5 177/1/63 176/1/59
f 177/1/63 178/1/5 179/1/5
f 180/1/34 181/1/34 182/1/34
f 181/1/34 180/1/34 183/1/34
f 184/1/34 180/1/34 182/1/34
f 184/1/34 185/1/34 180/1/34
f 186/1/24 187/1/24 188/1/24
f 187/1/24 186/1/24 189/1/24
f 189/1/24 186/1/24 190/1/24
f 188/1/24 191/1/24 186/1/24
f 191/1/24 188/1/24 192/1/24
f 193/1/30 194/1/30 195/1/30
f 196/1/30 194/1/30 193/1/30
f 194/1/30 196/1/30 197/1/30
f 194/1/30 198/1/30 195/1/30
f 195/1/30 198/1/30 199/1/30
f 200/1/64 201/1/65 202/1/66
f 202/1/66 201/1/65 203/1/67
f 204/1/68 205/1/69 206/1/70
f 206/1/70 205/1/69 207/1/71
f 208/1/34 209/1/34 210/1/34
f 209/1/34 208/1/34 211/1/34
f 212/1/72 213/1/73 214/1/74
f 213/1/73 212/1/72 215/1/73
f 216/1/75 217/1/76 218/1/76
f 218/1/76 219/1/76 216/1/75
f 220/1/24 221/1/24 222/1/24
f 222/1/24 223/1/24 220/1/24
f 224/1/30 225/1/30 226/1/30
f 225/1/30 224/1/30 227/1/30
f 228/1/26 229/1/30 230/1/30
f 231/1/32 230/1/30 229/1/30
f 229/1/30 228/1/26 232/1/26
f 230/1/30 231/1/32 233/1/32
f 234/1/20 232/1/26 228/1/26
f 231/1/32 235/1/34 233/1/32
f 232/1/26 234/1/20 236/1/20
f 233/1/32 235/1/34 237/1/34
f 238/1/22 236/1/20 234/1/20
f 235/1/34 239/1/28 237/1/34
f 236/1/20 238/1/22 240/1/22
f 237/1/34 239/1/28 241/1/28
f 242/1/24 240/1/22 238/1/22
f 243/1/24 241/1/28 239/1/28
f 240/1/22 242/1/24 243/1/24
f 241/1/28 243/1/24 242/1/24
f 244/1/30 245/1/30 246/1/30
f 245/1/30 244/1/30 247/1/30
f 246/1/30 248/1/30 244/1/30
f 249/1/24 250/1/24 251/1/24
f 250/1/24 252/1/24 251/1/24
f 253/1/24 250/1/24 249/1/24
f 254/1/24 255/1/24 256/1/24
f 255/1/24 254/1/24 257/1/24
f 258/1/24 256/1/24 255/1/24
f 258/1/24 259/1/24 256/1/24
f 260/1/30 261/1/30 262/1/30
f 263/1/30 261/1/30 260/1/30
f 263/1/30 264/1/30 261/1/30
f 264/1/30 263/1/30 265/1/30
f 266/1/77 267/1/78 268/1/77
f 269/1/34 266/1/77 268/1/77
f 266/1/77 269/1/34 270/1/34
f 267/1/78 271/1/79 268/1/77
f 267/1/78 272/1/80 271/1/79
f 272/1/80 273/1/4 271/1/79
f 272/1/80 274/1/4 273/1/4
f 274/1/4 272/1/80 275/1/4
f 272/1/80 276/1/4 275/1/4
f 276/1/4 272/1/80 277/1/4
f 278/1/80 276/1/4 277/1/4
f 278/1/80 279/1/4 276/1/4
f 278/1/80 280/1/4 279/1/4
f 280/1/4 278/1/80 281/1/4
f 282/1/81 281/1/4 278/1/80
f 282/1/81 278/1/80 283/1/82
f 284/1/77 282/1/81 283/1/82
f 284/1/77 283/1/82 285/1/77
f 285/1/77 286/1/34 284/1/77
f 286/1/34 285/1/77 287/1/34
f 288/1/83 289/1/84 290/1/85
f 288/1/83 290/1/85 291/1/86
f 292/1/87 293/1/88 294/1/87
f 295/1/89 292/1/87 294/1/87
f 293/1/88 292/1/87 296/1/88
f 295/1/89 297/1/89 292/1/87
f 293/1/88 296/1/88 298/1/90
f 295/1/89 299/1/91 297/1/89
f 293/1/88 298/1/90 300/1/92
f 299/1/91 295/1/89 301/1/93
f 298/1/90 302/1/94 300/1/92
f 299/1/91 301/1/93 303/1/95
f 302/1/94 298/1/90 304/1/94
f 299/1/91 303/1/95 305/1/95
f 302/1/94 304/1/94 306/1/96
f 303/1/95 306/1/96 305/1/95
f 302/1/94 306/1/96 307/1/97
f 306/1/96 303/1/95 307/1/97
f 308/1/98 309/1/99 310/1/100
f 311/1/101 308/1/98 310/1/100
f 309/1/99 308/1/98 312/1/99
f 308/1/98 311/1/101 313/1/101
f 314/1/102 309/1/99 312/1/99
f 311/1/101 315/1/103 313/1/101
f 309/1/99 314/1/102 316/1/104
f 315/1/103 311/1/101 317/1/105
f 316/1/104 314/1/102 318/1/106
f 319/1/107 315/1/103 317/1/105
f 320/1/106 318/1/106 314/1/102
f 315/1/103 319/1/107 321/1/107
f 322/1/108 318/1/106 320/1/106
f 319/1/107 322/1/108 321/1/107
f 318/1/106 322/1/108 323/1/109
f 322/1/108 319/1/107 323/1/109
f 324/1/110 325/1/111 326/1/112
f 326/1/112 325/1/111 327/1/113
f 328/1/5 329/1/5 330/1/5
f 328/1/5 331/1/5 329/1/5
f 331/1/5 328/1/5 332/1/5
f 333/1/5 334/1/5 335/1/5
f 336/1/5 333/1/5 335/1/5
f 334/1/5 333/1/5 337/1/5
f 333/1/5 336/1/5 338/1/5
f 339/1/5 334/1/5 337/1/5
f 336/1/5 340/1/5 338/1/5
f 334/1/5 339/1/5 341/1/5
f 340/1/5 336/1/5 342/1/5
f 343/1/5 341/1/5 339/1/5
f 344/1/5 340/1/5 342/1/5
f 343/1/5 339/1/5 345/1/5
f 340/1/5 344/1/5 346/1/5
f 347/1/5 343/1/5 345/1/5
f 348/1/5 346/1/5 344/1/5
f 348/1/5 343/1/5 347/1/5
f 346/1/5 348/1/5 347/1/5
o RenderMesh_17772852374
v 0.338878 0.031209 0.084797
v -0.146322 -0.061732 0.123294
v 0.338878 -0.061732 0.123294
v -0.146322 0.031209 0.084797
v 0.338878 0.069706 -0.008144
v -0.146322 0.069706 -0.008144
v 0.338878 0.031209 -0.101085
v -0.146322 0.031209 -0.101085
v 0.338878 -0.061732 -0.139582
v -0.146322 -0.061732 -0.139582
vn -0.0000 0.7071 0.7071
vn -0.0000 0.3827 0.9239
vn -0.0000 1.0000 -0.0000
vn -0.0000 0.7071 -0.7071
vn -0.0000 0.3827 -0.9239
vt 0.000000 0.000000
s 1
f 349/2/114 350/2/115 351/2/115
f 350/2/115 349/2/114 352/2/114
f 353/2/116 352/2/114 349/2/114
f 353/2/116 354/2/116 352/2/114
f 355/2/117 354/2/116 353/2/116
f 355/2/117 356/2/117 354/2/116
f 356/2/117 355/2/117 357/2/118
f 356/2/117 357/2/118 358/2/118
