# Blender 5.1.2
# www.blender.org
mtllib wateruzimag.mtl
o RenderMesh_17772956998
v -0.101509 0.379888 -0.053606
v 0.101508 0.379888 0.053605
v 0.101508 0.379888 -0.053606
v -0.101509 0.379888 0.053606
v -0.112918 -0.379888 -0.059631
v 0.112917 -0.379888 -0.059631
v 0.112917 -0.379888 0.059630
v -0.112918 -0.379888 0.059631
v -0.101509 0.379888 -0.053606
v -0.101509 -0.299960 -0.053606
v -0.101509 -0.299960 0.053606
v -0.101509 0.379888 0.053606
v -0.112918 -0.323893 -0.059631
v -0.112918 -0.323893 0.059631
v -0.112918 -0.379888 -0.059631
v -0.112918 -0.379888 0.059631
v 0.101508 -0.299960 -0.053606
v 0.101508 0.379888 -0.053606
v 0.101508 0.379888 0.053605
v 0.101508 -0.299960 0.053605
v 0.112917 -0.323893 -0.059631
v 0.112917 -0.323893 0.059630
v 0.112917 -0.379888 0.059630
v 0.112917 -0.379888 -0.059631
v -0.101509 0.379888 0.053606
v -0.101509 -0.299960 0.053606
v 0.101508 -0.299960 0.053605
v 0.101508 0.379888 0.053605
v 0.112917 -0.323893 0.059630
v -0.112918 -0.323893 0.059631
v -0.112918 -0.379888 0.059631
v 0.112917 -0.379888 0.059630
v 0.101508 0.379888 -0.053606
v -0.101509 -0.299960 -0.053606
v -0.101509 0.379888 -0.053606
v 0.101508 -0.299960 -0.053606
v 0.112917 -0.323893 -0.059631
v -0.112918 -0.323893 -0.059631
v 0.112917 -0.379888 -0.059631
v -0.112918 -0.379888 -0.059631
vn 0.0005 1.0000 0.0005
vn 0.0005 -1.0000 0.0005
vn -1.0000 0.0005 0.0005
vn -0.9731 0.2302 0.0005
vn -0.9752 0.2212 0.0005
vn 0.9731 0.2302 0.0005
vn 1.0000 0.0005 0.0005
vn 0.9752 0.2212 0.0005
vn 0.0005 0.0005 1.0000
vn 0.0005 0.1364 0.9906
vn 0.0005 0.1108 0.9938
vn 0.0005 0.0005 -1.0000
vn 0.0005 0.1364 -0.9907
vn 0.0005 0.1109 -0.9938
vn 0.0005 0.1108 -0.9938
vt 0.000000 0.000000
s 1
f 1/1/1 2/1/1 3/1/1
f 2/1/1 1/1/1 4/1/1
f 5/1/2 6/1/2 7/1/2
f 5/1/2 7/1/2 8/1/2
f 9/1/3 10/1/4 11/1/4
f 9/1/3 11/1/4 12/1/3
f 13/1/5 11/1/4 10/1/4
f 11/1/4 13/1/5 14/1/5
f 15/1/3 14/1/5 13/1/5
f 14/1/5 15/1/3 16/1/3
f 17/1/6 18/1/7 19/1/7
f 17/1/6 19/1/7 20/1/6
f 20/1/6 21/1/8 17/1/6
f 21/1/8 20/1/6 22/1/8
f 21/1/8 22/1/8 23/1/7
f 23/1/7 24/1/7 21/1/8
f 25/1/9 26/1/10 27/1/10
f 27/1/10 28/1/9 25/1/9
f 26/1/10 29/1/11 27/1/10
f 29/1/11 26/1/10 30/1/11
f 31/1/9 29/1/11 30/1/11
f 31/1/9 32/1/9 29/1/11
f 33/1/12 34/1/13 35/1/12
f 34/1/13 33/1/12 36/1/13
f 34/1/13 36/1/13 37/1/14
f 34/1/13 37/1/14 38/1/15
f 38/1/15 37/1/14 39/1/12
f 38/1/15 39/1/12 40/1/12
o RenderMesh_17821442870
v 0.085338 0.365651 -0.040000
v -0.085338 0.365651 -0.040000
v -0.085338 0.365651 0.040000
v 0.085338 0.365651 0.040000
v -0.095171 -0.365651 -0.045157
v 0.095171 -0.365651 -0.045157
v 0.095171 -0.365651 0.045157
v -0.095171 -0.365651 0.045157
v 0.085338 -0.296334 -0.040000
v 0.085338 0.365651 -0.040000
v 0.085338 0.365651 0.040000
v 0.085338 -0.296334 0.040000
v 0.085338 -0.296334 0.040000
v 0.095171 -0.321569 0.045157
v 0.095171 -0.321569 -0.045157
v 0.095171 -0.321569 -0.045157
v 0.095171 -0.365651 0.045157
v 0.095171 -0.365651 -0.045157
v -0.085338 0.365651 -0.040000
v -0.085338 -0.296334 -0.040000
v -0.085338 -0.296334 0.040000
v -0.085338 0.365651 0.040000
v -0.095171 -0.321569 -0.045157
v -0.095171 -0.321569 0.045157
v -0.085338 -0.296334 -0.040000
v -0.095171 -0.365651 -0.045157
v -0.095171 -0.321569 0.045157
v -0.095171 -0.365651 0.045157
v -0.085338 0.365651 0.040000
v -0.085338 -0.296334 0.040000
v 0.085338 -0.296334 0.040000
v 0.085338 0.365651 0.040000
v -0.095171 -0.321569 0.045157
v -0.085338 -0.296334 0.040000
v 0.095171 -0.321569 0.045157
v -0.095171 -0.365651 0.045157
v 0.095171 -0.321569 0.045157
v 0.095171 -0.365651 0.045157
v 0.085338 0.365651 -0.040000
v -0.085338 -0.296334 -0.040000
v -0.085338 0.365651 -0.040000
v 0.085338 -0.296334 -0.040000
v -0.095171 -0.321569 -0.045157
v 0.095171 -0.321569 -0.045157
v -0.085338 -0.296334 -0.040000
v 0.095171 -0.365651 -0.045157
v 0.095171 -0.321569 -0.045157
v -0.095171 -0.365651 -0.045157
vn 0.0005 1.0000 0.0005
vn 0.0005 -1.0000 0.0005
vn 0.9808 0.1950 -0.0000
vn 1.0000 0.0005 0.0005
vn 0.9808 0.1950 0.0005
vn 0.9850 0.1724 0.0005
vn 0.9850 0.1723 0.0005
vn -1.0000 0.0005 0.0005
vn -0.9808 0.1950 0.0005
vn -0.9808 0.1950 -0.0000
vn -0.9850 0.1724 0.0005
vn -0.9850 0.1723 0.0005
vn 0.0005 0.0005 1.0000
vn 0.0005 0.1108 0.9938
vn -0.0000 0.1108 0.9938
vn 0.0005 0.0875 0.9962
vn 0.0005 0.1109 0.9938
vn 0.0005 0.0874 0.9962
vn 0.0005 0.0005 -1.0000
vn -0.0000 0.1108 -0.9938
vn 0.0005 0.1108 -0.9938
vn 0.0005 0.0875 -0.9962
vn 0.0005 0.1109 -0.9938
vn 0.0005 0.0874 -0.9962
vt 0.875000 0.750000
vt 0.625000 0.750000
vt 0.625000 0.500000
vt 0.875000 0.500000
vt 0.375000 0.750000
vt 0.125000 0.750000
vt 0.125000 0.500000
vt 0.375000 0.500000
vt 0.375000 0.000000
vt 0.625000 0.000000
vt 0.625000 0.250000
vt 0.375000 0.250000
vt 0.625000 1.000000
vt 0.375000 1.000000
s 1
f 41/2/16 42/3/16 43/4/16
f 41/2/16 43/4/16 44/5/16
f 45/6/17 46/7/17 47/8/17
f 45/6/17 47/8/17 48/9/17
f 49/10/18 50/11/19 51/12/19
f 49/10/18 51/12/19 52/13/20
f 49/10/20 53/13/20 54/13/21
f 54/13/21 55/10/21 49/10/20
f 56/10/22 54/13/22 57/13/19
f 57/13/19 58/10/19 56/10/22
f 59/3/23 60/6/24 61/9/25
f 59/3/23 61/9/25 62/4/23
f 61/9/24 63/6/26 64/9/26
f 63/6/26 61/9/24 65/6/24
f 66/6/23 67/9/27 63/6/27
f 67/9/27 66/6/23 68/9/23
f 69/4/28 70/9/29 71/13/30
f 71/13/30 72/12/28 69/4/28
f 73/9/31 71/13/32 74/9/32
f 73/9/31 75/13/31 71/13/32
f 76/9/28 77/13/33 73/9/33
f 76/9/28 78/13/28 77/13/33
f 79/14/34 80/6/35 81/3/34
f 80/6/35 79/14/34 82/15/36
f 83/6/37 82/15/38 84/15/37
f 82/15/38 83/6/37 85/6/38
f 86/15/34 83/6/39 87/15/39
f 83/6/39 86/15/34 88/6/34
